<?xml version="1.0" encoding="utf-8"?>
<!-- Generator: Adobe Illustrator 24.0.1, SVG Export Plug-In . SVG Version: 6.00 Build 0)  -->
<svg version="1.1" id="图层_1" xmlns="http://www.w3.org/2000/svg" xmlns:xlink="http://www.w3.org/1999/xlink" x="0px" y="0px"
	 viewBox="0 0 16 16" style="enable-background:new 0 0 16 16;" xml:space="preserve">
<style type="text/css">
	.st0{fill:none;}
	.st1{fill:#979797;}
	.st2{filter:url(#Adobe_OpacityMaskFilter);}
	.st3{fill-rule:evenodd;clip-rule:evenodd;fill:#FFFFFF;}
	.st4{mask:url(#mask-2_1_);fill-rule:evenodd;clip-rule:evenodd;fill:#707070;}
</style>
<title>HTTP</title>
<g id="工作流_x2F_工作流实例">
	<g id="画板" transform="translate(-90.000000, -245.000000)">
		<g id="HTTP" transform="translate(90.000000, 245.000000)">
			<rect id="矩形" class="st0" width="16" height="16"/>
			<g id="形状结合">
				<path id="path-1_1_" class="st1" d="M13.5,2C14.3,2,15,2.7,15,3.5v9c0,0.8-0.7,1.5-1.5,1.5h-11C1.7,14,1,13.3,1,12.5v-9
					C1,2.7,1.7,2,2.5,2H13.5z M14,5H2v7c0,0.6,0.4,1,1,1h10c0.6,0,1-0.4,1-1V5z M3.6,7.1v1.2h1.3V7.1h0.6V10H4.9V8.7H3.6V10H3V7.1
					H3.6z M8.2,7.1v0.5H7.3V10H6.7V7.6H5.8V7.1H8.2z M10.6,7.1v0.5H9.7V10H9.1V7.6H8.3V7.1H10.6z M12,7.1c0.2,0,0.4,0,0.6,0.1
					s0.3,0.2,0.4,0.3c0.1,0.1,0.1,0.3,0.1,0.5c0,0.2,0,0.4-0.1,0.5c-0.1,0.1-0.2,0.3-0.4,0.3S12.2,9,12,9h-0.4v1H11V7.1H12z
					 M11.9,7.6h-0.4v0.9h0.4c0.2,0,0.3,0,0.4-0.1s0.2-0.2,0.2-0.4c0-0.2-0.1-0.3-0.2-0.4C12.2,7.6,12.1,7.6,11.9,7.6z M13,3H3
					C2.5,3,2.1,3.4,2,3.9L2,4h12C14,3.4,13.6,3,13,3z"/>
			</g>
			<defs>
				<filter id="Adobe_OpacityMaskFilter" filterUnits="userSpaceOnUse" x="0" y="0" width="16" height="16">
					<feColorMatrix  type="matrix" values="1 0 0 0 0  0 1 0 0 0  0 0 1 0 0  0 0 0 1 0"/>
				</filter>
			</defs>
			<mask maskUnits="userSpaceOnUse" x="0" y="0" width="16" height="16" id="mask-2_1_">
				<g class="st2">
					<path id="path-1_2_" class="st3" d="M13.5,2C14.3,2,15,2.7,15,3.5v9c0,0.8-0.7,1.5-1.5,1.5h-11C1.7,14,1,13.3,1,12.5v-9
						C1,2.7,1.7,2,2.5,2H13.5z M14,5H2v7c0,0.6,0.4,1,1,1h10c0.6,0,1-0.4,1-1V5z M3.6,7.1v1.2h1.3V7.1h0.6V10H4.9V8.7H3.6V10H3V7.1
						H3.6z M8.2,7.1v0.5H7.3V10H6.7V7.6H5.8V7.1H8.2z M10.6,7.1v0.5H9.7V10H9.1V7.6H8.3V7.1H10.6z M12,7.1c0.2,0,0.4,0,0.6,0.1
						s0.3,0.2,0.4,0.3c0.1,0.1,0.1,0.3,0.1,0.5c0,0.2,0,0.4-0.1,0.5c-0.1,0.1-0.2,0.3-0.4,0.3S12.2,9,12,9h-0.4v1H11V7.1H12z
						 M11.9,7.6h-0.4v0.9h0.4c0.2,0,0.3,0,0.4-0.1s0.2-0.2,0.2-0.4c0-0.2-0.1-0.3-0.2-0.4C12.2,7.6,12.1,7.6,11.9,7.6z M13,3H3
						C2.5,3,2.1,3.4,2,3.9L2,4h12C14,3.4,13.6,3,13,3z"/>
				</g>
			</mask>
			<rect id="矩形_1_" class="st4" width="16" height="16"/>
		</g>
	</g>
</g>
</svg>
