<?xml version="1.0" encoding="utf-8"?>
<!-- Generator: Adobe Illustrator 24.0.1, SVG Export Plug-In . SVG Version: 6.00 Build 0)  -->
<svg version="1.1" id="图层_1" xmlns="http://www.w3.org/2000/svg" xmlns:xlink="http://www.w3.org/1999/xlink" x="0px" y="0px"
	 viewBox="0 0 16 16" style="enable-background:new 0 0 16 16;" xml:space="preserve">
<style type="text/css">
	.st0{fill:none;}
	.st1{fill-rule:evenodd;clip-rule:evenodd;fill:#D8D8D8;}
	.st2{filter:url(#Adobe_OpacityMaskFilter);}
	.st3{fill-rule:evenodd;clip-rule:evenodd;fill:#FFFFFF;}
	.st4{mask:url(#mask-2_1_);fill-rule:evenodd;clip-rule:evenodd;fill:#707070;}
</style>
<title>K8S</title>
<g id="工作流_x2F_工作流实例">
	<g id="画板" transform="translate(-106.000000, -229.000000)">
		<g id="K8S" transform="translate(106.000000, 229.000000)">
			<rect id="矩形" class="st0" width="16" height="16"/>
			<g id="形状结合">
				<path id="path-1_1_" class="st1" d="M8.5,1.2l4.8,2.3c0.3,0.1,0.5,0.4,0.5,0.7L15,9.4c0.1,0.3,0,0.6-0.2,0.8l-3.3,4.2
					c-0.2,0.2-0.5,0.4-0.8,0.4H5.4c-0.3,0-0.6-0.1-0.8-0.4l-3.3-4.2C1.1,10,1,9.7,1.1,9.4l1.2-5.2c0.1-0.3,0.3-0.5,0.5-0.7l4.8-2.3
					C7.9,1.1,8.2,1.1,8.5,1.2z M8,3L8,3C7.7,3,7.5,3.2,7.5,3.5l0,0l0,0.5C6.6,4.2,5.8,4.6,5.2,5.1L4.8,4.9C4.6,4.7,4.3,4.7,4.1,4.9
					l0,0l0,0C3.9,5.2,4,5.5,4.2,5.7l0,0L4.6,6C4.2,6.6,4,7.3,4,8c0,0.1,0,0.2,0,0.3L3.5,8.5C3.3,8.5,3.1,8.8,3.2,9l0,0l0,0
					c0.1,0.3,0.3,0.4,0.6,0.4l0,0l0.5-0.1c0.3,0.8,0.9,1.5,1.6,2l-0.2,0.5c-0.1,0.2,0,0.5,0.2,0.7l0,0l0,0c0.2,0.1,0.5,0,0.7-0.2
					l0,0l0.2-0.5C7.1,11.9,7.6,12,8,12c0.4,0,0.8-0.1,1.2-0.2l0.2,0.5c0.1,0.2,0.4,0.3,0.7,0.2l0,0l0,0c0.2-0.1,0.4-0.4,0.2-0.7l0,0
					l-0.2-0.5c0.7-0.5,1.3-1.2,1.6-2l0.5,0.1c0.3,0.1,0.5-0.1,0.6-0.4l0,0l0,0c0.1-0.3-0.1-0.5-0.4-0.6l0,0L12,8.4
					c0-0.1,0-0.2,0-0.4c0-0.7-0.2-1.4-0.6-2l0.4-0.3c0.2-0.2,0.2-0.5,0.1-0.7l0,0l0,0c-0.2-0.2-0.5-0.3-0.7-0.1l0,0l-0.4,0.3
					c-0.6-0.6-1.4-1-2.3-1.1l0-0.5C8.5,3.2,8.3,3,8,3L8,3z M7.8,10c0.2-0.1,0.5,0,0.7,0.2l0,0l0.3,0.6C8.5,11,8.3,11,8,11
					c-0.3,0-0.5,0-0.8-0.1l0.3-0.6C7.6,10.2,7.7,10.1,7.8,10z M9.9,9L9.9,9l0.8,0.2c-0.2,0.5-0.6,0.9-1,1.2L9.4,9.7
					c0-0.1-0.1-0.2,0-0.3C9.5,9.2,9.7,9,9.9,9L9.9,9z M6,9c0.1,0,0.2,0,0.3,0c0.3,0.1,0.4,0.4,0.2,0.7l0,0l-0.3,0.7
					c-0.4-0.3-0.8-0.7-1-1.2L6,9z M8.5,7l0.6,0.8L8.9,8.7L8,9.1L7.2,8.7L7,7.8L7.6,7H8.5z M11,8l0,0.1l-0.7-0.2
					c-0.1,0-0.1-0.1-0.2-0.1L10,7.8c-0.2-0.2-0.1-0.5,0.1-0.7l0,0l0.5-0.4C10.9,7,11,7.5,11,8z M5.3,6.6l0.5,0.4C6,7.1,6,7.2,6,7.3
					c0.1,0.3-0.1,0.5-0.4,0.6l0,0L5,8.1C5,8.1,5,8,5,8C5,7.5,5.1,7,5.3,6.6z M7.4,5.1l0,0.8c0,0.1,0,0.2-0.1,0.3
					C7.2,6.3,6.9,6.4,6.6,6.2l0,0L6,5.8C6.4,5.4,6.9,5.2,7.4,5.1z M10,5.7L9.4,6.2C9.3,6.3,9.2,6.3,9.1,6.3c-0.3,0-0.5-0.2-0.5-0.5
					l0,0l0-0.8C9.1,5.2,9.6,5.4,10,5.7z"/>
			</g>
			<defs>
				<filter id="Adobe_OpacityMaskFilter" filterUnits="userSpaceOnUse" x="0" y="0" width="16" height="16">
					<feColorMatrix  type="matrix" values="1 0 0 0 0  0 1 0 0 0  0 0 1 0 0  0 0 0 1 0"/>
				</filter>
			</defs>
			<mask maskUnits="userSpaceOnUse" x="0" y="0" width="16" height="16" id="mask-2_1_">
				<g class="st2">
					<path id="path-1_2_" class="st3" d="M8.5,1.2l4.8,2.3c0.3,0.1,0.5,0.4,0.5,0.7L15,9.4c0.1,0.3,0,0.6-0.2,0.8l-3.3,4.2
						c-0.2,0.2-0.5,0.4-0.8,0.4H5.4c-0.3,0-0.6-0.1-0.8-0.4l-3.3-4.2C1.1,10,1,9.7,1.1,9.4l1.2-5.2c0.1-0.3,0.3-0.5,0.5-0.7l4.8-2.3
						C7.9,1.1,8.2,1.1,8.5,1.2z M8,3L8,3C7.7,3,7.5,3.2,7.5,3.5l0,0l0,0.5C6.6,4.2,5.8,4.6,5.2,5.1L4.8,4.9C4.6,4.7,4.3,4.7,4.1,4.9
						l0,0l0,0C3.9,5.2,4,5.5,4.2,5.7l0,0L4.6,6C4.2,6.6,4,7.3,4,8c0,0.1,0,0.2,0,0.3L3.5,8.5C3.3,8.5,3.1,8.8,3.2,9l0,0l0,0
						c0.1,0.3,0.3,0.4,0.6,0.4l0,0l0.5-0.1c0.3,0.8,0.9,1.5,1.6,2l-0.2,0.5c-0.1,0.2,0,0.5,0.2,0.7l0,0l0,0c0.2,0.1,0.5,0,0.7-0.2
						l0,0l0.2-0.5C7.1,11.9,7.6,12,8,12c0.4,0,0.8-0.1,1.2-0.2l0.2,0.5c0.1,0.2,0.4,0.3,0.7,0.2l0,0l0,0c0.2-0.1,0.4-0.4,0.2-0.7
						l0,0l-0.2-0.5c0.7-0.5,1.3-1.2,1.6-2l0.5,0.1c0.3,0.1,0.5-0.1,0.6-0.4l0,0l0,0c0.1-0.3-0.1-0.5-0.4-0.6l0,0L12,8.4
						c0-0.1,0-0.2,0-0.4c0-0.7-0.2-1.4-0.6-2l0.4-0.3c0.2-0.2,0.2-0.5,0.1-0.7l0,0l0,0c-0.2-0.2-0.5-0.3-0.7-0.1l0,0l-0.4,0.3
						c-0.6-0.6-1.4-1-2.3-1.1l0-0.5C8.5,3.2,8.3,3,8,3L8,3z M7.8,10c0.2-0.1,0.5,0,0.7,0.2l0,0l0.3,0.6C8.5,11,8.3,11,8,11
						c-0.3,0-0.5,0-0.8-0.1l0.3-0.6C7.6,10.2,7.7,10.1,7.8,10z M9.9,9L9.9,9l0.8,0.2c-0.2,0.5-0.6,0.9-1,1.2L9.4,9.7
						c0-0.1-0.1-0.2,0-0.3C9.5,9.2,9.7,9,9.9,9L9.9,9z M6,9c0.1,0,0.2,0,0.3,0c0.3,0.1,0.4,0.4,0.2,0.7l0,0l-0.3,0.7
						c-0.4-0.3-0.8-0.7-1-1.2L6,9z M8.5,7l0.6,0.8L8.9,8.7L8,9.1L7.2,8.7L7,7.8L7.6,7H8.5z M11,8l0,0.1l-0.7-0.2
						c-0.1,0-0.1-0.1-0.2-0.1L10,7.8c-0.2-0.2-0.1-0.5,0.1-0.7l0,0l0.5-0.4C10.9,7,11,7.5,11,8z M5.3,6.6l0.5,0.4C6,7.1,6,7.2,6,7.3
						c0.1,0.3-0.1,0.5-0.4,0.6l0,0L5,8.1C5,8.1,5,8,5,8C5,7.5,5.1,7,5.3,6.6z M7.4,5.1l0,0.8c0,0.1,0,0.2-0.1,0.3
						C7.2,6.3,6.9,6.4,6.6,6.2l0,0L6,5.8C6.4,5.4,6.9,5.2,7.4,5.1z M10,5.7L9.4,6.2C9.3,6.3,9.2,6.3,9.1,6.3c-0.3,0-0.5-0.2-0.5-0.5
						l0,0l0-0.8C9.1,5.2,9.6,5.4,10,5.7z"/>
				</g>
			</mask>
			<rect id="矩形_1_" class="st4" width="16" height="16"/>
		</g>
	</g>
</g>
</svg>
