<?xml version="1.0" encoding="utf-8"?>
<!-- Generator: Adobe Illustrator 24.0.1, SVG Export Plug-In . SVG Version: 6.00 Build 0)  -->
<svg version="1.1" id="图层_1" xmlns="http://www.w3.org/2000/svg" xmlns:xlink="http://www.w3.org/1999/xlink" x="0px" y="0px"
	 viewBox="0 0 16 16" style="enable-background:new 0 0 16 16;" xml:space="preserve">
<style type="text/css">
	.st0{fill:none;}
	.st1{filter:url(#Adobe_OpacityMaskFilter);}
	.st2{fill-rule:evenodd;clip-rule:evenodd;fill:#FFFFFF;}
	.st3{mask:url(#mask-2_1_);fill-rule:evenodd;clip-rule:evenodd;fill:#707070;}
</style>
<title>workflow</title>
<g id="工作流_x2F_工作流实例">
	<g id="画板" transform="translate(-110.000000, -261.000000)">
		<g id="workflow" transform="translate(110.000000, 261.000000)">
			<polygon id="路径" class="st0" points="16,0 0,0 0,16 16,16 			"/>
			<g id="形状结合">
				<path id="path-1_1_" d="M4,13.5c-0.2,0-0.4-0.2-0.5-0.4l0-0.1V5C2.7,5,2.1,4.4,2,3.6l0-0.1v-1C2,1.7,2.6,1.1,3.4,1l0.1,0h1
					C5.3,1,5.9,1.6,6,2.4l0,0.1h7.5C13.8,2.5,14,2.7,14,3c0,0.2-0.2,0.4-0.4,0.5l-0.1,0H6C6,4.3,5.4,4.9,4.6,5L4.5,5v2.5H10
					c0-0.8,0.6-1.4,1.4-1.5l0.1,0h1c0.8,0,1.4,0.6,1.5,1.4l0,0.1v1c0,0.8-0.6,1.4-1.4,1.5l-0.1,0h-1c-0.8,0-1.4-0.6-1.5-1.4l0-0.1
					H4.5v4H10c0-0.8,0.7-1.5,1.5-1.5l0,0h1c0.8,0,1.5,0.7,1.5,1.5l0,0v1c0,0.8-0.7,1.5-1.5,1.5l0,0h-1c-0.8,0-1.5-0.7-1.5-1.5l0,0H4
					z M12.5,12h-1c-0.3,0-0.5,0.2-0.5,0.5l0,0v1c0,0.3,0.2,0.5,0.5,0.5l0,0h1c0.3,0,0.5-0.2,0.5-0.5l0,0v-1C13,12.2,12.8,12,12.5,12
					L12.5,12z M12.5,7h-1c-0.2,0-0.4,0.2-0.5,0.4l0,0.1v1c0,0.2,0.2,0.4,0.4,0.5l0.1,0h1c0.2,0,0.4-0.2,0.5-0.4l0-0.1v-1
					C13,7.2,12.8,7,12.5,7z M4.5,2h-1C3.3,2,3.1,2.2,3,2.4l0,0.1v1C3,3.7,3.2,3.9,3.4,4l0.1,0h1C4.7,4,4.9,3.8,5,3.6l0-0.1v-1
					C5,2.2,4.8,2,4.5,2z"/>
			</g>
			<defs>
				<filter id="Adobe_OpacityMaskFilter" filterUnits="userSpaceOnUse" x="0" y="0" width="16" height="16">
					<feColorMatrix  type="matrix" values="1 0 0 0 0  0 1 0 0 0  0 0 1 0 0  0 0 0 1 0"/>
				</filter>
			</defs>
			<mask maskUnits="userSpaceOnUse" x="0" y="0" width="16" height="16" id="mask-2_1_">
				<g class="st1">
					<path id="path-1_2_" class="st2" d="M4,13.5c-0.2,0-0.4-0.2-0.5-0.4l0-0.1V5C2.7,5,2.1,4.4,2,3.6l0-0.1v-1C2,1.7,2.6,1.1,3.4,1
						l0.1,0h1C5.3,1,5.9,1.6,6,2.4l0,0.1h7.5C13.8,2.5,14,2.7,14,3c0,0.2-0.2,0.4-0.4,0.5l-0.1,0H6C6,4.3,5.4,4.9,4.6,5L4.5,5v2.5
						H10c0-0.8,0.6-1.4,1.4-1.5l0.1,0h1c0.8,0,1.4,0.6,1.5,1.4l0,0.1v1c0,0.8-0.6,1.4-1.4,1.5l-0.1,0h-1c-0.8,0-1.4-0.6-1.5-1.4
						l0-0.1H4.5v4H10c0-0.8,0.7-1.5,1.5-1.5l0,0h1c0.8,0,1.5,0.7,1.5,1.5l0,0v1c0,0.8-0.7,1.5-1.5,1.5l0,0h-1
						c-0.8,0-1.5-0.7-1.5-1.5l0,0H4z M12.5,12h-1c-0.3,0-0.5,0.2-0.5,0.5l0,0v1c0,0.3,0.2,0.5,0.5,0.5l0,0h1c0.3,0,0.5-0.2,0.5-0.5
						l0,0v-1C13,12.2,12.8,12,12.5,12L12.5,12z M12.5,7h-1c-0.2,0-0.4,0.2-0.5,0.4l0,0.1v1c0,0.2,0.2,0.4,0.4,0.5l0.1,0h1
						c0.2,0,0.4-0.2,0.5-0.4l0-0.1v-1C13,7.2,12.8,7,12.5,7z M4.5,2h-1C3.3,2,3.1,2.2,3,2.4l0,0.1v1C3,3.7,3.2,3.9,3.4,4l0.1,0h1
						C4.7,4,4.9,3.8,5,3.6l0-0.1v-1C5,2.2,4.8,2,4.5,2z"/>
				</g>
			</mask>
			<polygon id="路径_1_" class="st3" points="16,0 0,0 0,16 16,16 			"/>
		</g>
	</g>
</g>
</svg>
