<svg t="1670848142767" class="icon" viewBox="0 0 1024 1024" version="1.1" xmlns="http://www.w3.org/2000/svg" p-id="6258">
	<path d="M527.579429 186.660571a119.954286 119.954286 0 1 1-67.949715 0V47.542857a33.938286 33.938286 0 0 1 67.949715 0v139.190857z m281.380571 604.598858a119.954286 119.954286 0 1 1 67.949714 0v139.190857a33.938286 33.938286 0 1 1-67.949714 0v-139.190857z m-698.441143 0a119.954286 119.954286 0 1 1 67.949714 0v139.190857a33.938286 33.938286 0 0 1-67.949714 0v-139.190857zM144.457143 13.531429c18.797714 0 34.011429 15.213714 34.011428 33.938285v410.038857a33.938286 33.938286 0 0 1-67.949714 0V47.542857c0-18.724571 15.213714-33.938286 33.938286-33.938286z m0 722.139428a60.269714 60.269714 0 1 0 0-120.466286 60.269714 60.269714 0 0 0 0 120.466286z m698.514286-722.139428c18.724571 0 33.938286 15.213714 33.938285 33.938285v410.038857a33.938286 33.938286 0 1 1-67.949714 0V47.542857c0-18.724571 15.213714-33.938286 34.011429-33.938286z m0 722.139428a60.269714 60.269714 0 1 0 0-120.466286 60.269714 60.269714 0 0 0 0 120.466286z m-349.403429 228.717714a33.938286 33.938286 0 0 1-33.938286-33.938285V520.411429a33.938286 33.938286 0 0 1 67.949715 0v410.038857a33.938286 33.938286 0 0 1-34.011429 33.938285z m0-722.139428a60.269714 60.269714 0 1 0 0 120.539428 60.269714 60.269714 0 0 0 0-120.539428z" fill="#616161" p-id="6259"></path>
</svg>