<?xml version="1.0" encoding="UTF-8" standalone="no"?><svg xmlns="http://www.w3.org/2000/svg" xmlns:xlink="http://www.w3.org/1999/xlink" contentStyleType="text/css" height="630px" preserveAspectRatio="none" style="width:2195px;height:630px;background:#FFFFFF;" version="1.1" viewBox="0 0 2195 630" width="2195px" zoomAndPan="magnify"><defs/><g><path d="M74.9893,571 L213.9893,571 A3.75,3.75 0 0 1 216.4893,573.5 L223.4893,593.2969 L227.9893,593.2969 A2.5,2.5 0 0 1 230.4893,595.7969 L230.4893,621.0938 A2.5,2.5 0 0 1 227.9893,623.5938 L74.9893,623.5938 A2.5,2.5 0 0 1 72.4893,621.0938 L72.4893,573.5 A2.5,2.5 0 0 1 74.9893,571 " fill="#F1F1F1" style="stroke:#181818;stroke-width:0.5;"/><line style="stroke:#181818;stroke-width:0.5;" x1="72.4893" x2="223.4893" y1="593.2969" y2="593.2969"/><text fill="#000000" font-family="sans-serif" font-size="14" lengthAdjust="spacing" textLength="138" x="76.4893" y="585.9951">elyra.metadata.error</text><path d="M49.9893,232 L216.9893,232 A3.75,3.75 0 0 1 219.4893,234.5 L226.4893,254.2969 L230.9893,254.2969 A2.5,2.5 0 0 1 233.4893,256.7969 L233.4893,282.0938 A2.5,2.5 0 0 1 230.9893,284.5938 L49.9893,284.5938 A2.5,2.5 0 0 1 47.4893,282.0938 L47.4893,234.5 A2.5,2.5 0 0 1 49.9893,232 " fill="#F1F1F1" style="stroke:#181818;stroke-width:0.5;"/><line style="stroke:#181818;stroke-width:0.5;" x1="47.4893" x2="226.4893" y1="254.2969" y2="254.2969"/><text fill="#000000" font-family="sans-serif" font-size="14" lengthAdjust="spacing" textLength="166" x="51.4893" y="246.9951">elyra.metadata.manager</text><path d="M577.9893,345 L748.9893,345 A3.75,3.75 0 0 1 751.4893,347.5 L758.4893,367.2969 L762.9893,367.2969 A2.5,2.5 0 0 1 765.4893,369.7969 L765.4893,395.0938 A2.5,2.5 0 0 1 762.9893,397.5938 L577.9893,397.5938 A2.5,2.5 0 0 1 575.4893,395.0938 L575.4893,347.5 A2.5,2.5 0 0 1 577.9893,345 " fill="#F1F1F1" style="stroke:#181818;stroke-width:0.5;"/><line style="stroke:#181818;stroke-width:0.5;" x1="575.4893" x2="758.4893" y1="367.2969" y2="367.2969"/><text fill="#000000" font-family="sans-serif" font-size="14" lengthAdjust="spacing" textLength="170" x="579.4893" y="359.9951">elyra.metadata.metadata</text><path d="M277.9893,458 L438.9893,458 A3.75,3.75 0 0 1 441.4893,460.5 L448.4893,480.2969 L452.9893,480.2969 A2.5,2.5 0 0 1 455.4893,482.7969 L455.4893,508.0938 A2.5,2.5 0 0 1 452.9893,510.5938 L277.9893,510.5938 A2.5,2.5 0 0 1 275.4893,508.0938 L275.4893,460.5 A2.5,2.5 0 0 1 277.9893,458 " fill="#F1F1F1" style="stroke:#181818;stroke-width:0.5;"/><line style="stroke:#181818;stroke-width:0.5;" x1="275.4893" x2="448.4893" y1="480.2969" y2="480.2969"/><text fill="#000000" font-family="sans-serif" font-size="14" lengthAdjust="spacing" textLength="160" x="279.4893" y="472.9951">elyra.metadata.schema</text><path d="M312.9893,345 L523.9893,345 A3.75,3.75 0 0 1 526.4893,347.5 L533.4893,367.2969 L537.9893,367.2969 A2.5,2.5 0 0 1 540.4893,369.7969 L540.4893,395.0938 A2.5,2.5 0 0 1 537.9893,397.5938 L312.9893,397.5938 A2.5,2.5 0 0 1 310.4893,395.0938 L310.4893,347.5 A2.5,2.5 0 0 1 312.9893,345 " fill="#F1F1F1" style="stroke:#181818;stroke-width:0.5;"/><line style="stroke:#181818;stroke-width:0.5;" x1="310.4893" x2="533.4893" y1="367.2969" y2="367.2969"/><text fill="#000000" font-family="sans-serif" font-size="14" lengthAdjust="spacing" textLength="210" x="314.4893" y="359.9951">elyra.metadata.schemaspaces</text><path d="M270.9893,232 L503.9893,232 A3.75,3.75 0 0 1 506.4893,234.5 L513.4893,254.2969 L517.9893,254.2969 A2.5,2.5 0 0 1 520.4893,256.7969 L520.4893,282.0938 A2.5,2.5 0 0 1 517.9893,284.5938 L270.9893,284.5938 A2.5,2.5 0 0 1 268.4893,282.0938 L268.4893,234.5 A2.5,2.5 0 0 1 270.9893,232 " fill="#F1F1F1" style="stroke:#181818;stroke-width:0.5;"/><line style="stroke:#181818;stroke-width:0.5;" x1="268.4893" x2="513.4893" y1="254.2969" y2="254.2969"/><text fill="#000000" font-family="sans-serif" font-size="14" lengthAdjust="spacing" textLength="232" x="272.4893" y="246.9951">elyra.metadata.schemasproviders</text><path d="M64.9893,458 L223.9893,458 A3.75,3.75 0 0 1 226.4893,460.5 L233.4893,480.2969 L237.9893,480.2969 A2.5,2.5 0 0 1 240.4893,482.7969 L240.4893,508.0938 A2.5,2.5 0 0 1 237.9893,510.5938 L64.9893,510.5938 A2.5,2.5 0 0 1 62.4893,508.0938 L62.4893,460.5 A2.5,2.5 0 0 1 64.9893,458 " fill="#F1F1F1" style="stroke:#181818;stroke-width:0.5;"/><line style="stroke:#181818;stroke-width:0.5;" x1="62.4893" x2="233.4893" y1="480.2969" y2="480.2969"/><text fill="#000000" font-family="sans-serif" font-size="14" lengthAdjust="spacing" textLength="158" x="66.4893" y="472.9951">elyra.metadata.storage</text><path d="M1284.9893,232 L1507.9893,232 A3.75,3.75 0 0 1 1510.4893,234.5 L1517.4893,254.2969 L1521.9893,254.2969 A2.5,2.5 0 0 1 1524.4893,256.7969 L1524.4893,282.0938 A2.5,2.5 0 0 1 1521.9893,284.5938 L1284.9893,284.5938 A2.5,2.5 0 0 1 1282.4893,282.0938 L1282.4893,234.5 A2.5,2.5 0 0 1 1284.9893,232 " fill="#F1F1F1" style="stroke:#181818;stroke-width:0.5;"/><line style="stroke:#181818;stroke-width:0.5;" x1="1282.4893" x2="1517.4893" y1="254.2969" y2="254.2969"/><text fill="#000000" font-family="sans-serif" font-size="14" lengthAdjust="spacing" textLength="222" x="1286.4893" y="246.9951">elyra.pipeline.catalog_connector</text><path d="M1505.9893,345 L1680.9893,345 A3.75,3.75 0 0 1 1683.4893,347.5 L1690.4893,367.2969 L1694.9893,367.2969 A2.5,2.5 0 0 1 1697.4893,369.7969 L1697.4893,395.0938 A2.5,2.5 0 0 1 1694.9893,397.5938 L1505.9893,397.5938 A2.5,2.5 0 0 1 1503.4893,395.0938 L1503.4893,347.5 A2.5,2.5 0 0 1 1505.9893,345 " fill="#F1F1F1" style="stroke:#181818;stroke-width:0.5;"/><line style="stroke:#181818;stroke-width:0.5;" x1="1503.4893" x2="1690.4893" y1="367.2969" y2="367.2969"/><text fill="#000000" font-family="sans-serif" font-size="14" lengthAdjust="spacing" textLength="174" x="1507.4893" y="359.9951">elyra.pipeline.component</text><path d="M756.4893,119 L988.4893,119 A3.75,3.75 0 0 1 990.9893,121.5 L997.9893,141.2969 L1002.4893,141.2969 A2.5,2.5 0 0 1 1004.9893,143.7969 L1004.9893,169.0938 A2.5,2.5 0 0 1 1002.4893,171.5938 L756.4893,171.5938 A2.5,2.5 0 0 1 753.9893,169.0938 L753.9893,121.5 A2.5,2.5 0 0 1 756.4893,119 " fill="#F1F1F1" style="stroke:#181818;stroke-width:0.5;"/><line style="stroke:#181818;stroke-width:0.5;" x1="753.9893" x2="997.9893" y1="141.2969" y2="141.2969"/><text fill="#000000" font-family="sans-serif" font-size="14" lengthAdjust="spacing" textLength="231" x="757.9893" y="133.9951">elyra.pipeline.component_catalog</text><path d="M841.9893,232 L1088.9893,232 A3.75,3.75 0 0 1 1091.4893,234.5 L1098.4893,254.2969 L1102.9893,254.2969 A2.5,2.5 0 0 1 1105.4893,256.7969 L1105.4893,282.0938 A2.5,2.5 0 0 1 1102.9893,284.5938 L841.9893,284.5938 A2.5,2.5 0 0 1 839.4893,282.0938 L839.4893,234.5 A2.5,2.5 0 0 1 841.9893,232 " fill="#F1F1F1" style="stroke:#181818;stroke-width:0.5;"/><line style="stroke:#181818;stroke-width:0.5;" x1="839.4893" x2="1098.4893" y1="254.2969" y2="254.2969"/><text fill="#000000" font-family="sans-serif" font-size="14" lengthAdjust="spacing" textLength="246" x="843.4893" y="246.9951">elyra.pipeline.component_metadata</text><path d="M1075.9893,458 L1328.9893,458 A3.75,3.75 0 0 1 1331.4893,460.5 L1338.4893,480.2969 L1342.9893,480.2969 A2.5,2.5 0 0 1 1345.4893,482.7969 L1345.4893,508.0938 A2.5,2.5 0 0 1 1342.9893,510.5938 L1075.9893,510.5938 A2.5,2.5 0 0 1 1073.4893,508.0938 L1073.4893,460.5 A2.5,2.5 0 0 1 1075.9893,458 " fill="#F1F1F1" style="stroke:#181818;stroke-width:0.5;"/><line style="stroke:#181818;stroke-width:0.5;" x1="1073.4893" x2="1338.4893" y1="480.2969" y2="480.2969"/><text fill="#000000" font-family="sans-serif" font-size="14" lengthAdjust="spacing" textLength="252" x="1077.4893" y="472.9951">elyra.pipeline.component_parameter</text><path d="M1501.9893,119 L1780.9893,119 A3.75,3.75 0 0 1 1783.4893,121.5 L1790.4893,141.2969 L1794.9893,141.2969 A2.5,2.5 0 0 1 1797.4893,143.7969 L1797.4893,169.0938 A2.5,2.5 0 0 1 1794.9893,171.5938 L1501.9893,171.5938 A2.5,2.5 0 0 1 1499.4893,169.0938 L1499.4893,121.5 A2.5,2.5 0 0 1 1501.9893,119 " fill="#F1F1F1" style="stroke:#181818;stroke-width:0.5;"/><line style="stroke:#181818;stroke-width:0.5;" x1="1499.4893" x2="1790.4893" y1="141.2969" y2="141.2969"/><text fill="#000000" font-family="sans-serif" font-size="14" lengthAdjust="spacing" textLength="278" x="1503.4893" y="133.9951">elyra.pipeline.kfp.component_parser_kfp</text><path d="M1703.9893,232 L1966.9893,232 A3.75,3.75 0 0 1 1969.4893,234.5 L1976.4893,254.2969 L1980.9893,254.2969 A2.5,2.5 0 0 1 1983.4893,256.7969 L1983.4893,282.0938 A2.5,2.5 0 0 1 1980.9893,284.5938 L1703.9893,284.5938 A2.5,2.5 0 0 1 1701.4893,282.0938 L1701.4893,234.5 A2.5,2.5 0 0 1 1703.9893,232 " fill="#F1F1F1" style="stroke:#181818;stroke-width:0.5;"/><line style="stroke:#181818;stroke-width:0.5;" x1="1701.4893" x2="1976.4893" y1="254.2969" y2="254.2969"/><text fill="#000000" font-family="sans-serif" font-size="14" lengthAdjust="spacing" textLength="262" x="1705.4893" y="246.9951">elyra.pipeline.kfp.kfp_component_utils</text><path d="M26.9893,6 L239.9893,6 A3.75,3.75 0 0 1 242.4893,8.5 L249.4893,28.2969 L253.9893,28.2969 A2.5,2.5 0 0 1 256.4893,30.7969 L256.4893,56.0938 A2.5,2.5 0 0 1 253.9893,58.5938 L26.9893,58.5938 A2.5,2.5 0 0 1 24.4893,56.0938 L24.4893,8.5 A2.5,2.5 0 0 1 26.9893,6 " fill="#F1F1F1" style="stroke:#181818;stroke-width:0.5;"/><line style="stroke:#181818;stroke-width:0.5;" x1="24.4893" x2="249.4893" y1="28.2969" y2="28.2969"/><text fill="#000000" font-family="sans-serif" font-size="14" lengthAdjust="spacing" textLength="212" x="28.4893" y="20.9951">elyra.pipeline.kfp.kfp_metadata</text><path d="M1425.9893,458 L1610.9893,458 A3.75,3.75 0 0 1 1613.4893,460.5 L1620.4893,480.2969 L1624.9893,480.2969 A2.5,2.5 0 0 1 1627.4893,482.7969 L1627.4893,508.0938 A2.5,2.5 0 0 1 1624.9893,510.5938 L1425.9893,510.5938 A2.5,2.5 0 0 1 1423.4893,508.0938 L1423.4893,460.5 A2.5,2.5 0 0 1 1425.9893,458 " fill="#F1F1F1" style="stroke:#181818;stroke-width:0.5;"/><line style="stroke:#181818;stroke-width:0.5;" x1="1423.4893" x2="1620.4893" y1="480.2969" y2="480.2969"/><text fill="#000000" font-family="sans-serif" font-size="14" lengthAdjust="spacing" textLength="184" x="1427.4893" y="472.9951">elyra.pipeline.runtime_type</text><path d="M243.4893,119 L471.4893,119 A3.75,3.75 0 0 1 473.9893,121.5 L480.9893,141.2969 L485.4893,141.2969 A2.5,2.5 0 0 1 487.9893,143.7969 L487.9893,169.0938 A2.5,2.5 0 0 1 485.4893,171.5938 L243.4893,171.5938 A2.5,2.5 0 0 1 240.9893,169.0938 L240.9893,121.5 A2.5,2.5 0 0 1 243.4893,119 " fill="#F1F1F1" style="stroke:#181818;stroke-width:0.5;"/><line style="stroke:#181818;stroke-width:0.5;" x1="240.9893" x2="480.9893" y1="141.2969" y2="141.2969"/><text fill="#000000" font-family="sans-serif" font-size="14" lengthAdjust="spacing" textLength="227" x="244.9893" y="133.9951">elyra.pipeline.runtimes_metadata</text><path d="M1886.9893,119 L2171.9893,119 A3.75,3.75 0 0 1 2174.4893,121.5 L2181.4893,141.2969 L2185.9893,141.2969 A2.5,2.5 0 0 1 2188.4893,143.7969 L2188.4893,169.0938 A2.5,2.5 0 0 1 2185.9893,171.5938 L1886.9893,171.5938 A2.5,2.5 0 0 1 1884.4893,169.0938 L1884.4893,121.5 A2.5,2.5 0 0 1 1886.9893,119 " fill="#F1F1F1" style="stroke:#181818;stroke-width:0.5;"/><line style="stroke:#181818;stroke-width:0.5;" x1="1884.4893" x2="2181.4893" y1="141.2969" y2="141.2969"/><text fill="#000000" font-family="sans-serif" font-size="14" lengthAdjust="spacing" textLength="284" x="1888.4893" y="133.9951">elyra.pipeline.wfp.component_parser_wfp</text><path d="M293.9893,6 L512.9893,6 A3.75,3.75 0 0 1 515.4893,8.5 L522.4893,28.2969 L526.9893,28.2969 A2.5,2.5 0 0 1 529.4893,30.7969 L529.4893,56.0938 A2.5,2.5 0 0 1 526.9893,58.5938 L293.9893,58.5938 A2.5,2.5 0 0 1 291.4893,56.0938 L291.4893,8.5 A2.5,2.5 0 0 1 293.9893,6 " fill="#F1F1F1" style="stroke:#181818;stroke-width:0.5;"/><line style="stroke:#181818;stroke-width:0.5;" x1="291.4893" x2="522.4893" y1="28.2969" y2="28.2969"/><text fill="#000000" font-family="sans-serif" font-size="14" lengthAdjust="spacing" textLength="218" x="295.4893" y="20.9951">elyra.pipeline.wfp.wfp_metadata</text><g id="link_elyra.metadata.manager_elyra.metadata.error"><path d="M116.962,285.073 C77.5241,331.201 6,430.977 44.4893,511 C55.8917,534.7068 77.4218,553.8913 98.1967,568.0348 " fill="none" id="elyra.metadata.manager-to-elyra.metadata.error" style="stroke:#181818;stroke-width:1.0;"/><polygon fill="#181818" points="102.6144,570.9761,97.34,562.6586,98.4526,568.205,92.9062,569.3175,102.6144,570.9761" style="stroke:#181818;stroke-width:1.0;"/></g><g id="link_elyra.metadata.manager_elyra.metadata.metadata"><path d="M233.7583,281.358 C239.4153,282.61 245.0253,283.833 250.4893,285 C386.4493,314.036 421.4453,316.362 557.4893,345 C561.6623,345.878 565.9193,346.786 570.2173,347.713 " fill="none" id="elyra.metadata.manager-to-elyra.metadata.metadata" style="stroke:#181818;stroke-width:1.0;"/><polygon fill="#181818" points="575.2793,348.808,567.3284,342.9956,570.3923,347.7509,565.6371,350.8148,575.2793,348.808" style="stroke:#181818;stroke-width:1.0;"/></g><g id="link_elyra.metadata.manager_elyra.metadata.schema"><path d="M165.8443,285.107 C193.4643,312.965 238.9913,358.773 278.4893,398 C297.3483,416.729 318.6263,437.645 335.4193,454.101 " fill="none" id="elyra.metadata.manager-to-elyra.metadata.schema" style="stroke:#181818;stroke-width:1.0;"/><polygon fill="#181818" points="339.1493,457.755,335.5192,448.5995,335.5775,454.2561,329.921,454.3144,339.1493,457.755" style="stroke:#181818;stroke-width:1.0;"/></g><g id="link_elyra.metadata.manager_elyra.metadata.storage"><path d="M141.7513,285.196 C143.7843,326.606 147.7793,407.957 149.9673,452.514 " fill="none" id="elyra.metadata.manager-to-elyra.metadata.storage" style="stroke:#181818;stroke-width:1.0;"/><polygon fill="#181818" points="150.2253,457.76,153.7782,448.5743,149.9796,452.766,145.7879,448.9674,150.2253,457.76" style="stroke:#181818;stroke-width:1.0;"/></g><g id="link_elyra.metadata.metadata_elyra.metadata.schema"><path d="M600.1333,398.105 C552.4243,415.468 489.4273,438.395 440.7213,456.12 " fill="none" id="elyra.metadata.metadata-to-elyra.metadata.schema" style="stroke:#181818;stroke-width:1.0;"/><polygon fill="#181818" points="435.7553,457.928,445.5806,458.6088,440.4538,456.218,442.8446,451.0912,435.7553,457.928" style="stroke:#181818;stroke-width:1.0;"/></g><g id="link_elyra.metadata.schema_elyra.metadata.error"><path d="M316.1243,511.105 C283.0473,528.2618 239.4963,550.8513 205.4963,568.4872 " fill="none" id="elyra.metadata.schema-to-elyra.metadata.error" style="stroke:#181818;stroke-width:1.0;"/><polygon fill="#181818" points="200.9763,570.8318,210.8072,570.2376,205.4145,568.5291,207.1229,563.1364,200.9763,570.8318" style="stroke:#181818;stroke-width:1.0;"/></g><g id="link_elyra.metadata.schemaspaces_elyra.metadata.schema"><path d="M411.5733,398.245 C402.7133,414.636 391.1953,435.943 381.8913,453.156 " fill="none" id="elyra.metadata.schemaspaces-to-elyra.metadata.schema" style="stroke:#181818;stroke-width:1.0;"/><polygon fill="#181818" points="379.3303,457.895,387.1298,451.881,381.7086,453.4969,380.0928,448.0757,379.3303,457.895" style="stroke:#181818;stroke-width:1.0;"/></g><g id="link_elyra.metadata.schemasproviders_elyra.metadata.schema"><path d="M348.3753,285.16 C327.1663,299.685 304.1653,319.977 292.4893,345 C282.5293,366.346 284.3383,375.9 292.4893,398 C300.3973,419.44 316.3403,439.152 331.3153,454.233 " fill="none" id="elyra.metadata.schemasproviders-to-elyra.metadata.schema" style="stroke:#181818;stroke-width:1.0;"/><polygon fill="#181818" points="335.0953,457.965,331.5004,448.7957,331.537,454.4524,325.8802,454.489,335.0953,457.965" style="stroke:#181818;stroke-width:1.0;"/></g><g id="link_elyra.metadata.schemasproviders_elyra.metadata.schemaspaces"><path d="M401.6793,285.245 C406.2183,301.496 412.1063,322.579 416.8913,339.714 " fill="none" id="elyra.metadata.schemasproviders-to-elyra.metadata.schemaspaces" style="stroke:#181818;stroke-width:1.0;"/><polygon fill="#181818" points="418.3383,344.895,419.7712,335.1509,416.994,340.0791,412.0658,337.3019,418.3383,344.895" style="stroke:#181818;stroke-width:1.0;"/></g><g id="link_elyra.metadata.storage_elyra.metadata.error"><path d="M151.4893,511.245 C151.4893,527.4958 151.4893,548.5795 151.4893,565.7139 " fill="none" id="elyra.metadata.storage-to-elyra.metadata.error" style="stroke:#181818;stroke-width:1.0;"/><polygon fill="#181818" points="151.4893,570.895,155.4893,561.895,151.4893,565.895,147.4893,561.895,151.4893,570.895" style="stroke:#181818;stroke-width:1.0;"/></g><g id="link_elyra.pipeline.catalog_connector_elyra.metadata.metadata"><path d="M1282.4493,277.829 C1139.4293,299.487 904.1093,335.122 770.8003,355.31 " fill="none" id="elyra.pipeline.catalog_connector-to-elyra.metadata.metadata" style="stroke:#181818;stroke-width:1.0;"/><polygon fill="#181818" points="765.7083,356.081,775.2058,358.6883,770.6519,355.3323,774.0079,350.7785,765.7083,356.081" style="stroke:#181818;stroke-width:1.0;"/></g><g id="link_elyra.pipeline.catalog_connector_elyra.pipeline.component"><path d="M1449.1793,285.245 C1479.5093,302.336 1519.3393,324.773 1550.5093,342.34 " fill="none" id="elyra.pipeline.catalog_connector-to-elyra.pipeline.component" style="stroke:#181818;stroke-width:1.0;"/><polygon fill="#181818" points="1555.0493,344.895,1549.1759,336.9891,1550.6944,342.4383,1545.2452,343.9569,1555.0493,344.895" style="stroke:#181818;stroke-width:1.0;"/></g><g id="link_elyra.pipeline.catalog_connector_elyra.pipeline.component_parameter"><path d="M1381.2393,285.196 C1345.0093,327.027 1273.4793,409.614 1235.1593,453.861 " fill="none" id="elyra.pipeline.catalog_connector-to-elyra.pipeline.component_parameter" style="stroke:#181818;stroke-width:1.0;"/><polygon fill="#181818" points="1231.7793,457.76,1240.6913,453.5676,1235.0493,453.9776,1234.6394,448.3356,1231.7793,457.76" style="stroke:#181818;stroke-width:1.0;"/></g><g id="link_elyra.pipeline.catalog_connector_elyra.pipeline.runtime_type"><path d="M1417.4793,285.196 C1440.1793,326.859 1484.8893,408.95 1509.0593,453.325 " fill="none" id="elyra.pipeline.catalog_connector-to-elyra.pipeline.runtime_type" style="stroke:#181818;stroke-width:1.0;"/><polygon fill="#181818" points="1511.4693,457.76,1510.686,447.9423,1509.0816,453.3669,1503.6571,451.7626,1511.4693,457.76" style="stroke:#181818;stroke-width:1.0;"/></g><g id="link_elyra.pipeline.component_elyra.pipeline.component_parameter"><path d="M1510.2993,398.105 C1448.6393,415.608 1367.0693,438.766 1304.4293,456.549 " fill="none" id="elyra.pipeline.component-to-elyra.pipeline.component_parameter" style="stroke:#181818;stroke-width:1.0;"/><polygon fill="#181818" points="1299.5693,457.928,1309.3211,459.307,1304.3777,456.557,1307.1276,451.6136,1299.5693,457.928" style="stroke:#181818;stroke-width:1.0;"/></g><g id="link_elyra.pipeline.component_elyra.pipeline.runtime_type"><path d="M1583.0893,398.245 C1571.9293,414.776 1557.3793,436.308 1545.6893,453.597 " fill="none" id="elyra.pipeline.component-to-elyra.pipeline.runtime_type" style="stroke:#181818;stroke-width:1.0;"/><polygon fill="#181818" points="1542.7893,457.895,1551.143,452.6782,1545.5891,453.7524,1544.5149,448.1985,1542.7893,457.895" style="stroke:#181818;stroke-width:1.0;"/></g><g id="link_elyra.pipeline.component_catalog_elyra.metadata.manager"><path d="M753.9353,160.095 C626.5843,174.697 424.0593,200.156 250.4893,232 C246.6253,232.709 242.6923,233.463 238.7253,234.251 " fill="none" id="elyra.pipeline.component_catalog-to-elyra.metadata.manager" style="stroke:#181818;stroke-width:1.0;"/><polygon fill="#181818" points="233.6833,235.266,243.2959,237.4104,238.5849,234.2788,241.7164,229.5678,233.6833,235.266" style="stroke:#181818;stroke-width:1.0;"/></g><g id="link_elyra.pipeline.component_catalog_elyra.metadata.metadata"><path d="M835.9993,172.129 C812.0233,187.569 782.7063,208.719 760.4893,232 C729.0133,264.984 701.9193,310.421 685.9053,340.119 " fill="none" id="elyra.pipeline.component_catalog-to-elyra.metadata.metadata" style="stroke:#181818;stroke-width:1.0;"/><polygon fill="#181818" points="683.4313,344.746,691.2015,338.6942,685.7882,340.3364,684.1461,334.9231,683.4313,344.746" style="stroke:#181818;stroke-width:1.0;"/></g><g id="link_elyra.pipeline.component_catalog_elyra.metadata.schemaspaces"><path d="M827.4093,172.196 C741.4883,214.588 570.7323,298.838 481.9933,342.621 " fill="none" id="elyra.pipeline.component_catalog-to-elyra.metadata.schemaspaces" style="stroke:#181818;stroke-width:1.0;"/><polygon fill="#181818" points="477.3093,344.932,487.1502,344.5363,481.7931,342.7194,483.61,337.3623,477.3093,344.932" style="stroke:#181818;stroke-width:1.0;"/></g><g id="link_elyra.pipeline.component_catalog_elyra.pipeline.catalog_connector"><path d="M1000.0343,172.035 C1083.2893,189.672 1193.7693,213.075 1278.0693,230.932 " fill="none" id="elyra.pipeline.component_catalog-to-elyra.pipeline.catalog_connector" style="stroke:#181818;stroke-width:1.0;"/><polygon fill="#181818" points="1283.0793,231.992,1275.1112,226.2033,1278.1892,230.9494,1273.4431,234.0274,1283.0793,231.992" style="stroke:#181818;stroke-width:1.0;"/></g><g id="link_elyra.pipeline.component_catalog_elyra.pipeline.component"><path d="M1005.2843,148.18 C1173.3593,152.835 1459.5593,169.944 1541.4893,232 C1575.6993,257.915 1590.2993,307.572 1596.3693,339.849 " fill="none" id="elyra.pipeline.component_catalog-to-elyra.pipeline.component" style="stroke:#181818;stroke-width:1.0;"/><polygon fill="#181818" points="1597.2693,344.874,1599.6122,335.3079,1596.3838,339.953,1591.7386,336.7247,1597.2693,344.874" style="stroke:#181818;stroke-width:1.0;"/></g><g id="link_elyra.pipeline.component_catalog_elyra.pipeline.component_metadata"><path d="M901.0593,172.245 C915.0273,188.916 933.2563,210.673 947.8023,228.035 " fill="none" id="elyra.pipeline.component_catalog-to-elyra.pipeline.component_metadata" style="stroke:#181818;stroke-width:1.0;"/><polygon fill="#181818" points="951.0363,231.895,948.3205,222.428,947.8244,228.063,942.1894,227.567,951.0363,231.895" style="stroke:#181818;stroke-width:1.0;"/></g><g id="link_elyra.pipeline.component_catalog_elyra.pipeline.component_parameter"><path d="M854.6513,172.13 C830.0003,200.809 798.9093,248.085 821.4893,285 C878.6043,378.375 995.0663,429.606 1085.5693,456.506 " fill="none" id="elyra.pipeline.component_catalog-to-elyra.pipeline.component_parameter" style="stroke:#181818;stroke-width:1.0;"/><polygon fill="#181818" points="1090.3993,457.926,1082.8803,451.5648,1085.5995,456.5252,1080.6391,459.2444,1090.3993,457.926" style="stroke:#181818;stroke-width:1.0;"/></g><g id="link_elyra.pipeline.component_catalog_elyra.pipeline.runtime_type"><path d="M966.8183,172.088 C1013.9343,187.161 1072.5093,207.972 1122.4893,232 C1263.1393,299.618 1416.0493,404.689 1486.2493,454.898 " fill="none" id="elyra.pipeline.component_catalog-to-elyra.pipeline.runtime_type" style="stroke:#181818;stroke-width:1.0;"/><polygon fill="#181818" points="1490.3493,457.833,1485.3662,449.3378,1486.2859,454.9194,1480.7044,455.8392,1490.3493,457.833" style="stroke:#181818;stroke-width:1.0;"/></g><g id="link_elyra.pipeline.component_metadata_elyra.metadata.metadata"><path d="M902.8253,285.105 C855.5863,302.468 793.2083,325.395 744.9813,343.12 " fill="none" id="elyra.pipeline.component_metadata-to-elyra.metadata.metadata" style="stroke:#181818;stroke-width:1.0;"/><polygon fill="#181818" points="740.0643,344.928,749.8918,345.576,744.7571,343.2023,747.1307,338.0676,740.0643,344.928" style="stroke:#181818;stroke-width:1.0;"/></g><g id="link_elyra.pipeline.component_metadata_elyra.pipeline.runtime_type"><path d="M1026.2393,285.125 C1087.6093,314.007 1191.3193,361.664 1282.4893,398 C1335.3093,419.05 1395.5993,440.279 1442.9093,456.318 " fill="none" id="elyra.pipeline.component_metadata-to-elyra.pipeline.runtime_type" style="stroke:#181818;stroke-width:1.0;"/><polygon fill="#181818" points="1447.7393,457.952,1440.4931,451.2817,1443.0024,456.3516,1437.9325,458.8608,1447.7393,457.952" style="stroke:#181818;stroke-width:1.0;"/></g><g id="link_elyra.pipeline.kfp.component_parser_kfp_elyra.pipeline.catalog_connector"><path d="M1591.9693,172.105 C1553.9493,189.332 1503.8393,212.036 1464.8393,229.703 " fill="none" id="elyra.pipeline.kfp.component_parser_kfp-to-elyra.pipeline.catalog_connector" style="stroke:#181818;stroke-width:1.0;"/><polygon fill="#181818" points="1460.1493,231.832,1469.998,231.7725,1464.706,229.7738,1466.7048,224.4818,1460.1493,231.832" style="stroke:#181818;stroke-width:1.0;"/></g><g id="link_elyra.pipeline.kfp.component_parser_kfp_elyra.pipeline.component"><path d="M1642.9793,172.196 C1634.0893,213.69 1616.6093,295.287 1607.0693,339.785 " fill="none" id="elyra.pipeline.kfp.component_parser_kfp-to-elyra.pipeline.component" style="stroke:#181818;stroke-width:1.0;"/><polygon fill="#181818" points="1606.0093,344.76,1611.8088,336.7997,1607.0585,339.8713,1603.9869,335.121,1606.0093,344.76" style="stroke:#181818;stroke-width:1.0;"/></g><g id="link_elyra.pipeline.kfp.component_parser_kfp_elyra.pipeline.component_parameter"><path d="M1499.3793,163.08 C1406.1493,176.498 1297.6593,198.704 1264.4893,232 C1205.0193,291.695 1203.3093,399.862 1206.5393,452.736 " fill="none" id="elyra.pipeline.kfp.component_parser_kfp-to-elyra.pipeline.component_parameter" style="stroke:#181818;stroke-width:1.0;"/><polygon fill="#181818" points="1206.8893,457.983,1210.2835,448.7375,1206.5577,452.994,1202.3011,449.2681,1206.8893,457.983" style="stroke:#181818;stroke-width:1.0;"/></g><g id="link_elyra.pipeline.kfp.component_parser_kfp_elyra.pipeline.kfp.kfp_component_utils"><path d="M1693.4893,172.245 C1723.3593,189.336 1762.5693,211.773 1793.2693,229.34 " fill="none" id="elyra.pipeline.kfp.component_parser_kfp-to-elyra.pipeline.kfp.kfp_component_utils" style="stroke:#181818;stroke-width:1.0;"/><polygon fill="#181818" points="1797.7393,231.895,1791.9175,223.951,1793.4005,229.41,1787.9415,230.893,1797.7393,231.895" style="stroke:#181818;stroke-width:1.0;"/></g><g id="link_elyra.pipeline.kfp.component_parser_kfp_elyra.pipeline.runtime_type"><path d="M1797.6493,164.073 C1881.9993,177.417 1975.6593,199.167 2001.4893,232 C2016.0493,250.513 2014.5493,265.399 2001.4893,285 C1919.6593,407.787 1745.9193,454.747 1632.5193,472.622 " fill="none" id="elyra.pipeline.kfp.component_parser_kfp-to-elyra.pipeline.runtime_type" style="stroke:#181818;stroke-width:1.0;"/><polygon fill="#181818" points="1627.5093,473.4,1637.0187,475.9635,1632.4494,472.6286,1635.7844,468.0593,1627.5093,473.4" style="stroke:#181818;stroke-width:1.0;"/></g><g id="link_elyra.pipeline.kfp.kfp_metadata_elyra.metadata.manager"><path d="M140.4893,59.196 C140.4893,100.606 140.4893,181.957 140.4893,226.514 " fill="none" id="elyra.pipeline.kfp.kfp_metadata-to-elyra.metadata.manager" style="stroke:#181818;stroke-width:1.0;"/><polygon fill="#181818" points="140.4893,231.76,144.4893,222.76,140.4893,226.76,136.4893,222.76,140.4893,231.76" style="stroke:#181818;stroke-width:1.0;"/></g><g id="link_elyra.pipeline.kfp.kfp_metadata_elyra.pipeline.runtimes_metadata"><path d="M192.1603,59.105 C226.7833,76.262 272.3693,98.851 307.9593,116.487 " fill="none" id="elyra.pipeline.kfp.kfp_metadata-to-elyra.pipeline.runtimes_metadata" style="stroke:#181818;stroke-width:1.0;"/><polygon fill="#181818" points="312.6903,118.832,306.4021,111.2518,308.2102,116.6119,302.8501,118.42,312.6903,118.832" style="stroke:#181818;stroke-width:1.0;"/></g><g id="link_elyra.pipeline.runtimes_metadata_elyra.metadata.manager"><path d="M312.8183,172.105 C278.1953,189.262 232.6093,211.851 197.0193,229.487 " fill="none" id="elyra.pipeline.runtimes_metadata-to-elyra.metadata.manager" style="stroke:#181818;stroke-width:1.0;"/><polygon fill="#181818" points="192.2883,231.832,202.1285,231.42,196.7684,229.6119,198.5765,224.2518,192.2883,231.832" style="stroke:#181818;stroke-width:1.0;"/></g><g id="link_elyra.pipeline.runtimes_metadata_elyra.metadata.metadata"><path d="M429.1393,172.032 C463.0133,186.956 504.2483,207.645 537.4893,232 C580.9823,263.867 622.6063,310.751 647.3623,340.957 " fill="none" id="elyra.pipeline.runtimes_metadata-to-elyra.metadata.metadata" style="stroke:#181818;stroke-width:1.0;"/><polygon fill="#181818" points="650.5943,344.922,648.0093,335.4184,647.4356,341.0461,641.8079,340.4724,650.5943,344.922" style="stroke:#181818;stroke-width:1.0;"/></g><g id="link_elyra.pipeline.wfp.component_parser_wfp_elyra.pipeline.catalog_connector"><path d="M1890.8693,172.035 C1781.6193,191.192 1633.5893,217.151 1529.4193,235.417 " fill="none" id="elyra.pipeline.wfp.component_parser_wfp-to-elyra.pipeline.catalog_connector" style="stroke:#181818;stroke-width:1.0;"/><polygon fill="#181818" points="1524.4993,236.281,1534.0518,238.6788,1529.4253,235.4238,1532.6803,230.7973,1524.4993,236.281" style="stroke:#181818;stroke-width:1.0;"/></g><g id="link_elyra.pipeline.wfp.component_parser_wfp_elyra.pipeline.component"><path d="M2037.5793,172.163 C2037.4193,203.362 2032.1193,255.493 2001.4893,285 C1959.5193,325.428 1807.1993,349.118 1702.8493,360.942 " fill="none" id="elyra.pipeline.wfp.component_parser_wfp-to-elyra.pipeline.component" style="stroke:#181818;stroke-width:1.0;"/><polygon fill="#181818" points="1697.6093,361.531,1706.9989,364.5035,1702.5782,360.974,1706.1077,356.5533,1697.6093,361.531" style="stroke:#181818;stroke-width:1.0;"/></g><g id="link_elyra.pipeline.wfp.component_parser_wfp_elyra.pipeline.runtime_type"><path d="M2040.6993,172.009 C2044.2993,200.579 2046.8993,247.758 2032.4893,285 C2008.6093,346.73 1992.4793,364.339 1935.4893,398 C1842.6493,452.838 1719.7893,472.833 1632.8393,479.952 " fill="none" id="elyra.pipeline.wfp.component_parser_wfp-to-elyra.pipeline.runtime_type" style="stroke:#181818;stroke-width:1.0;"/><polygon fill="#181818" points="1627.6893,480.362,1636.9804,483.6292,1632.6733,479.962,1636.3405,475.6549,1627.6893,480.362" style="stroke:#181818;stroke-width:1.0;"/></g><g id="link_elyra.pipeline.wfp.wfp_metadata_elyra.pipeline.runtimes_metadata"><path d="M399.8203,59.245 C393.0273,75.636 384.1973,96.943 377.0643,114.156 " fill="none" id="elyra.pipeline.wfp.wfp_metadata-to-elyra.pipeline.runtimes_metadata" style="stroke:#181818;stroke-width:1.0;"/><polygon fill="#181818" points="375.1003,118.895,382.2415,112.1124,377.0148,114.276,374.8511,109.0493,375.1003,118.895" style="stroke:#181818;stroke-width:1.0;"/></g></g></svg>