<?xml version="1.0" encoding="UTF-8" standalone="no"?><svg xmlns="http://www.w3.org/2000/svg" xmlns:xlink="http://www.w3.org/1999/xlink" contentStyleType="text/css" height="856px" preserveAspectRatio="none" style="width:2720px;height:856px;background:#FFFFFF;" version="1.1" viewBox="0 0 2720 856" width="2720px" zoomAndPan="magnify"><defs/><g><path d="M510.921,232 L733.921,232 A3.75,3.75 0 0 1 736.421,234.5 L743.421,254.2969 L747.921,254.2969 A2.5,2.5 0 0 1 750.421,256.7969 L750.421,282.0938 A2.5,2.5 0 0 1 747.921,284.5938 L510.921,284.5938 A2.5,2.5 0 0 1 508.421,282.0938 L508.421,234.5 A2.5,2.5 0 0 1 510.921,232 " fill="#F1F1F1" style="stroke:#181818;stroke-width:0.5;"/><line style="stroke:#181818;stroke-width:0.5;" x1="508.421" x2="743.421" y1="254.2969" y2="254.2969"/><text fill="#000000" font-family="sans-serif" font-size="14" lengthAdjust="spacing" textLength="222" x="512.421" y="246.9951">elyra.pipeline.catalog_connector</text><path d="M684.921,345 L859.921,345 A3.75,3.75 0 0 1 862.421,347.5 L869.421,367.2969 L873.921,367.2969 A2.5,2.5 0 0 1 876.421,369.7969 L876.421,395.0938 A2.5,2.5 0 0 1 873.921,397.5938 L684.921,397.5938 A2.5,2.5 0 0 1 682.421,395.0938 L682.421,347.5 A2.5,2.5 0 0 1 684.921,345 " fill="#F1F1F1" style="stroke:#181818;stroke-width:0.5;"/><line style="stroke:#181818;stroke-width:0.5;" x1="682.421" x2="869.421" y1="367.2969" y2="367.2969"/><text fill="#000000" font-family="sans-serif" font-size="14" lengthAdjust="spacing" textLength="174" x="686.421" y="359.9951">elyra.pipeline.component</text><path d="M883.421,684 L1115.421,684 A3.75,3.75 0 0 1 1117.921,686.5 L1124.921,706.2969 L1129.421,706.2969 A2.5,2.5 0 0 1 1131.921,708.7969 L1131.921,734.0938 A2.5,2.5 0 0 1 1129.421,736.5938 L883.421,736.5938 A2.5,2.5 0 0 1 880.921,734.0938 L880.921,686.5 A2.5,2.5 0 0 1 883.421,684 " fill="#F1F1F1" style="stroke:#181818;stroke-width:0.5;"/><line style="stroke:#181818;stroke-width:0.5;" x1="880.921" x2="1124.921" y1="706.2969" y2="706.2969"/><text fill="#000000" font-family="sans-serif" font-size="14" lengthAdjust="spacing" textLength="231" x="884.921" y="698.9951">elyra.pipeline.component_catalog</text><path d="M1663.923,458 L1916.923,458 A3.75,3.75 0 0 1 1919.423,460.5 L1926.423,480.2969 L1930.923,480.2969 A2.5,2.5 0 0 1 1933.423,482.7969 L1933.423,508.0938 A2.5,2.5 0 0 1 1930.923,510.5938 L1663.923,510.5938 A2.5,2.5 0 0 1 1661.423,508.0938 L1661.423,460.5 A2.5,2.5 0 0 1 1663.923,458 " fill="#F1F1F1" style="stroke:#181818;stroke-width:0.5;"/><line style="stroke:#181818;stroke-width:0.5;" x1="1661.423" x2="1926.423" y1="480.2969" y2="480.2969"/><text fill="#000000" font-family="sans-serif" font-size="14" lengthAdjust="spacing" textLength="252" x="1665.423" y="472.9951">elyra.pipeline.component_parameter</text><path d="M2072.423,6 L2254.423,6 A3.75,3.75 0 0 1 2256.923,8.5 L2263.923,28.2969 L2268.423,28.2969 A2.5,2.5 0 0 1 2270.923,30.7969 L2270.923,56.0938 A2.5,2.5 0 0 1 2268.423,58.5938 L2072.423,58.5938 A2.5,2.5 0 0 1 2069.923,56.0938 L2069.923,8.5 A2.5,2.5 0 0 1 2072.423,6 " fill="#F1F1F1" style="stroke:#181818;stroke-width:0.5;"/><line style="stroke:#181818;stroke-width:0.5;" x1="2069.923" x2="2263.923" y1="28.2969" y2="28.2969"/><text fill="#000000" font-family="sans-serif" font-size="14" lengthAdjust="spacing" textLength="181" x="2073.923" y="20.9951">elyra.pipeline.elyra_engine</text><path d="M1862.923,6 L2017.923,6 A3.75,3.75 0 0 1 2020.423,8.5 L2027.423,28.2969 L2031.923,28.2969 A2.5,2.5 0 0 1 2034.423,30.7969 L2034.423,56.0938 A2.5,2.5 0 0 1 2031.923,58.5938 L1862.923,58.5938 A2.5,2.5 0 0 1 1860.423,56.0938 L1860.423,8.5 A2.5,2.5 0 0 1 1862.923,6 " fill="#F1F1F1" style="stroke:#181818;stroke-width:0.5;"/><line style="stroke:#181818;stroke-width:0.5;" x1="1860.423" x2="2027.423" y1="28.2969" y2="28.2969"/><text fill="#000000" font-family="sans-serif" font-size="14" lengthAdjust="spacing" textLength="154" x="1864.423" y="20.9951">elyra.pipeline.handlers</text><path d="M779.921,119 L1058.921,119 A3.75,3.75 0 0 1 1061.421,121.5 L1068.421,141.2969 L1072.921,141.2969 A2.5,2.5 0 0 1 1075.421,143.7969 L1075.421,169.0938 A2.5,2.5 0 0 1 1072.921,171.5938 L779.921,171.5938 A2.5,2.5 0 0 1 777.421,169.0938 L777.421,121.5 A2.5,2.5 0 0 1 779.921,119 " fill="#F1F1F1" style="stroke:#181818;stroke-width:0.5;"/><line style="stroke:#181818;stroke-width:0.5;" x1="777.421" x2="1068.421" y1="141.2969" y2="141.2969"/><text fill="#000000" font-family="sans-serif" font-size="14" lengthAdjust="spacing" textLength="278" x="781.421" y="133.9951">elyra.pipeline.kfp.component_parser_kfp</text><path d="M1220.921,458 L1467.921,458 A3.75,3.75 0 0 1 1470.421,460.5 L1477.421,480.2969 L1481.921,480.2969 A2.5,2.5 0 0 1 1484.421,482.7969 L1484.421,508.0938 A2.5,2.5 0 0 1 1481.921,510.5938 L1220.921,510.5938 A2.5,2.5 0 0 1 1218.421,508.0938 L1218.421,460.5 A2.5,2.5 0 0 1 1220.921,458 " fill="#F1F1F1" style="stroke:#181818;stroke-width:0.5;"/><line style="stroke:#181818;stroke-width:0.5;" x1="1218.421" x2="1477.421" y1="480.2969" y2="480.2969"/><text fill="#000000" font-family="sans-serif" font-size="14" lengthAdjust="spacing" textLength="246" x="1222.421" y="472.9951">elyra.pipeline.kfp.kfp_authentication</text><path d="M787.921,232 L1050.921,232 A3.75,3.75 0 0 1 1053.421,234.5 L1060.421,254.2969 L1064.921,254.2969 A2.5,2.5 0 0 1 1067.421,256.7969 L1067.421,282.0938 A2.5,2.5 0 0 1 1064.921,284.5938 L787.921,284.5938 A2.5,2.5 0 0 1 785.421,282.0938 L785.421,234.5 A2.5,2.5 0 0 1 787.921,232 " fill="#F1F1F1" style="stroke:#181818;stroke-width:0.5;"/><line style="stroke:#181818;stroke-width:0.5;" x1="785.421" x2="1060.421" y1="254.2969" y2="254.2969"/><text fill="#000000" font-family="sans-serif" font-size="14" lengthAdjust="spacing" textLength="262" x="789.421" y="246.9951">elyra.pipeline.kfp.kfp_component_utils</text><path d="M1438.423,345 L1656.423,345 A3.75,3.75 0 0 1 1658.923,347.5 L1665.923,367.2969 L1670.423,367.2969 A2.5,2.5 0 0 1 1672.923,369.7969 L1672.923,395.0938 A2.5,2.5 0 0 1 1670.423,397.5938 L1438.423,397.5938 A2.5,2.5 0 0 1 1435.923,395.0938 L1435.923,347.5 A2.5,2.5 0 0 1 1438.423,345 " fill="#F1F1F1" style="stroke:#181818;stroke-width:0.5;"/><line style="stroke:#181818;stroke-width:0.5;" x1="1435.923" x2="1665.923" y1="367.2969" y2="367.2969"/><text fill="#000000" font-family="sans-serif" font-size="14" lengthAdjust="spacing" textLength="217" x="1439.923" y="359.9951">elyra.pipeline.kfp.processor_kfp</text><path d="M2265.923,232 L2404.923,232 A3.75,3.75 0 0 1 2407.423,234.5 L2414.423,254.2969 L2418.923,254.2969 A2.5,2.5 0 0 1 2421.423,256.7969 L2421.423,282.0938 A2.5,2.5 0 0 1 2418.923,284.5938 L2265.923,284.5938 A2.5,2.5 0 0 1 2263.423,282.0938 L2263.423,234.5 A2.5,2.5 0 0 1 2265.923,232 " fill="#F1F1F1" style="stroke:#181818;stroke-width:0.5;"/><line style="stroke:#181818;stroke-width:0.5;" x1="2263.423" x2="2414.423" y1="254.2969" y2="254.2969"/><text fill="#000000" font-family="sans-serif" font-size="14" lengthAdjust="spacing" textLength="138" x="2267.423" y="246.9951">elyra.pipeline.parser</text><path d="M2396.923,684 L2545.923,684 A3.75,3.75 0 0 1 2548.423,686.5 L2555.423,706.2969 L2559.923,706.2969 A2.5,2.5 0 0 1 2562.423,708.7969 L2562.423,734.0938 A2.5,2.5 0 0 1 2559.923,736.5938 L2396.923,736.5938 A2.5,2.5 0 0 1 2394.423,734.0938 L2394.423,686.5 A2.5,2.5 0 0 1 2396.923,684 " fill="#F1F1F1" style="stroke:#181818;stroke-width:0.5;"/><line style="stroke:#181818;stroke-width:0.5;" x1="2394.423" x2="2555.423" y1="706.2969" y2="706.2969"/><text fill="#000000" font-family="sans-serif" font-size="14" lengthAdjust="spacing" textLength="148" x="2398.423" y="698.9951">elyra.pipeline.pipeline</text><path d="M2358.923,797 L2583.923,797 A3.75,3.75 0 0 1 2586.423,799.5 L2593.423,819.2969 L2597.923,819.2969 A2.5,2.5 0 0 1 2600.423,821.7969 L2600.423,847.0938 A2.5,2.5 0 0 1 2597.923,849.5938 L2358.923,849.5938 A2.5,2.5 0 0 1 2356.423,847.0938 L2356.423,799.5 A2.5,2.5 0 0 1 2358.923,797 " fill="#F1F1F1" style="stroke:#181818;stroke-width:0.5;"/><line style="stroke:#181818;stroke-width:0.5;" x1="2356.423" x2="2593.423" y1="819.2969" y2="819.2969"/><text fill="#000000" font-family="sans-serif" font-size="14" lengthAdjust="spacing" textLength="224" x="2360.423" y="811.9951">elyra.pipeline.pipeline_constants</text><path d="M2194.923,345 L2413.923,345 A3.75,3.75 0 0 1 2416.423,347.5 L2423.423,367.2969 L2427.923,367.2969 A2.5,2.5 0 0 1 2430.423,369.7969 L2430.423,395.0938 A2.5,2.5 0 0 1 2427.923,397.5938 L2194.923,397.5938 A2.5,2.5 0 0 1 2192.423,395.0938 L2192.423,347.5 A2.5,2.5 0 0 1 2194.923,345 " fill="#F1F1F1" style="stroke:#181818;stroke-width:0.5;"/><line style="stroke:#181818;stroke-width:0.5;" x1="2192.423" x2="2423.423" y1="367.2969" y2="367.2969"/><text fill="#000000" font-family="sans-serif" font-size="14" lengthAdjust="spacing" textLength="218" x="2196.423" y="359.9951">elyra.pipeline.pipeline_definition</text><path d="M1087.921,571 L1252.921,571 A3.75,3.75 0 0 1 1255.421,573.5 L1262.421,593.2969 L1266.921,593.2969 A2.5,2.5 0 0 1 1269.421,595.7969 L1269.421,621.0938 A2.5,2.5 0 0 1 1266.921,623.5938 L1087.921,623.5938 A2.5,2.5 0 0 1 1085.421,621.0938 L1085.421,573.5 A2.5,2.5 0 0 1 1087.921,571 " fill="#F1F1F1" style="stroke:#181818;stroke-width:0.5;"/><line style="stroke:#181818;stroke-width:0.5;" x1="1085.421" x2="1262.421" y1="593.2969" y2="593.2969"/><text fill="#000000" font-family="sans-serif" font-size="14" lengthAdjust="spacing" textLength="164" x="1089.421" y="585.9951">elyra.pipeline.processor</text><path d="M1085.921,797 L1270.921,797 A3.75,3.75 0 0 1 1273.421,799.5 L1280.421,819.2969 L1284.921,819.2969 A2.5,2.5 0 0 1 1287.421,821.7969 L1287.421,847.0938 A2.5,2.5 0 0 1 1284.921,849.5938 L1085.921,849.5938 A2.5,2.5 0 0 1 1083.421,847.0938 L1083.421,799.5 A2.5,2.5 0 0 1 1085.921,797 " fill="#F1F1F1" style="stroke:#181818;stroke-width:0.5;"/><line style="stroke:#181818;stroke-width:0.5;" x1="1083.421" x2="1280.421" y1="819.2969" y2="819.2969"/><text fill="#000000" font-family="sans-serif" font-size="14" lengthAdjust="spacing" textLength="184" x="1087.421" y="811.9951">elyra.pipeline.runtime_type</text><path d="M1899.923,232 L2058.923,232 A3.75,3.75 0 0 1 2061.423,234.5 L2068.423,254.2969 L2072.923,254.2969 A2.5,2.5 0 0 1 2075.423,256.7969 L2075.423,282.0938 A2.5,2.5 0 0 1 2072.923,284.5938 L1899.923,284.5938 A2.5,2.5 0 0 1 1897.423,282.0938 L1897.423,234.5 A2.5,2.5 0 0 1 1899.923,232 " fill="#F1F1F1" style="stroke:#181818;stroke-width:0.5;"/><line style="stroke:#181818;stroke-width:0.5;" x1="1897.423" x2="2068.423" y1="254.2969" y2="254.2969"/><text fill="#000000" font-family="sans-serif" font-size="14" lengthAdjust="spacing" textLength="158" x="1901.423" y="246.9951">elyra.pipeline.validation</text><path d="M368.921,119 L653.921,119 A3.75,3.75 0 0 1 656.421,121.5 L663.421,141.2969 L667.921,141.2969 A2.5,2.5 0 0 1 670.421,143.7969 L670.421,169.0938 A2.5,2.5 0 0 1 667.921,171.5938 L368.921,171.5938 A2.5,2.5 0 0 1 366.421,169.0938 L366.421,121.5 A2.5,2.5 0 0 1 368.921,119 " fill="#F1F1F1" style="stroke:#181818;stroke-width:0.5;"/><line style="stroke:#181818;stroke-width:0.5;" x1="366.421" x2="663.421" y1="141.2969" y2="141.2969"/><text fill="#000000" font-family="sans-serif" font-size="14" lengthAdjust="spacing" textLength="284" x="370.421" y="133.9951">elyra.pipeline.wfp.component_parser_wfp</text><path d="M1916.423,119 L2140.423,119 A3.75,3.75 0 0 1 2142.923,121.5 L2149.923,141.2969 L2154.423,141.2969 A2.5,2.5 0 0 1 2156.923,143.7969 L2156.923,169.0938 A2.5,2.5 0 0 1 2154.423,171.5938 L1916.423,171.5938 A2.5,2.5 0 0 1 1913.923,169.0938 L1913.923,121.5 A2.5,2.5 0 0 1 1916.423,119 " fill="#F1F1F1" style="stroke:#181818;stroke-width:0.5;"/><line style="stroke:#181818;stroke-width:0.5;" x1="1913.923" x2="2149.923" y1="141.2969" y2="141.2969"/><text fill="#000000" font-family="sans-serif" font-size="14" lengthAdjust="spacing" textLength="223" x="1917.923" y="133.9951">elyra.pipeline.wfp.processor_wfp</text><g id="link_elyra.pipeline.catalog_connector_elyra.pipeline.component"><path d="M653.254,285.245 C673.896,302.196 703.791,324.406 729.47,341.907 " fill="none" id="elyra.pipeline.catalog_connector-to-elyra.pipeline.component" style="stroke:#181818;stroke-width:1.0;"/><polygon fill="#181818" points="733.881,344.895,728.6728,336.5359,729.7413,342.0909,724.1863,343.1594,733.881,344.895" style="stroke:#181818;stroke-width:1.0;"/></g><g id="link_elyra.pipeline.component_elyra.pipeline.catalog_connector"><path d="M756.402,344.895 C735.945,327.972 706.071,305.764 680.251,288.238 " fill="none" id="elyra.pipeline.component-to-elyra.pipeline.catalog_connector" style="stroke:#181818;stroke-width:1.0;"/><polygon fill="#181818" points="675.813,285.245,681.0384,293.5934,679.9585,288.0405,685.5113,286.9606,675.813,285.245" style="stroke:#181818;stroke-width:1.0;"/></g><g id="link_elyra.pipeline.catalog_connector_elyra.pipeline.component_parameter"><path d="M750.46,282.7 C756.185,283.534 761.86,284.308 767.421,285 C971.392,310.385 1508.963,248.454 1690.423,345 C1735.033,368.738 1766.843,420.091 1783.653,453.158 " fill="none" id="elyra.pipeline.catalog_connector-to-elyra.pipeline.component_parameter" style="stroke:#181818;stroke-width:1.0;"/><polygon fill="#181818" points="1786.023,457.898,1785.5758,448.0593,1783.7869,453.4259,1778.4204,451.637,1786.023,457.898" style="stroke:#181818;stroke-width:1.0;"/></g><g id="link_elyra.pipeline.catalog_connector_elyra.pipeline.runtime_type"><path d="M590.372,285.114 C539.071,322.208 455.421,396.093 455.421,483.5 C455.421,483.5 455.421,483.5 455.421,598.5 C455.421,727.174 875.186,789.5055 1078.1,812.1193 " fill="none" id="elyra.pipeline.catalog_connector-to-elyra.pipeline.runtime_type" style="stroke:#181818;stroke-width:1.0;"/><polygon fill="#181818" points="1083.149,812.6788,1074.6436,807.7131,1078.1793,812.1288,1073.7636,815.6645,1083.149,812.6788" style="stroke:#181818;stroke-width:1.0;"/></g><g id="link_elyra.pipeline.component_elyra.pipeline.component_parameter"><path d="M876.57,383.093 C1057.325,402.802 1445.953,445.177 1655.913,468.07 " fill="none" id="elyra.pipeline.component-to-elyra.pipeline.component_parameter" style="stroke:#181818;stroke-width:1.0;"/><polygon fill="#181818" points="1661.143,468.641,1652.6305,463.6874,1656.1726,468.0981,1651.7619,471.6401,1661.143,468.641" style="stroke:#181818;stroke-width:1.0;"/></g><g id="link_elyra.pipeline.component_elyra.pipeline.runtime_type"><path d="M767.123,398.007 C759.794,414.655 751.204,437.101 747.421,458 C741.112,492.857 749.199,614.353 753.421,624 C807.492,747.56 968.547,794.2579 1077.978,811.8738 " fill="none" id="elyra.pipeline.component-to-elyra.pipeline.runtime_type" style="stroke:#181818;stroke-width:1.0;"/><polygon fill="#181818" points="1083.15,812.6908,1074.8842,807.3358,1078.2112,811.9108,1073.6362,815.2378,1083.15,812.6908" style="stroke:#181818;stroke-width:1.0;"/></g><g id="link_elyra.pipeline.component_catalog_elyra.pipeline.catalog_connector"><path d="M880.722,689.758 C835.954,677.296 788.094,657.006 753.421,624 C656.455,531.697 635.315,360.719 630.706,290.666 " fill="none" id="elyra.pipeline.component_catalog-to-elyra.pipeline.catalog_connector" style="stroke:#181818;stroke-width:1.0;"/><polygon fill="#181818" points="630.379,285.4,626.9472,294.6316,630.6904,290.3903,634.9317,294.1334,630.379,285.4" style="stroke:#181818;stroke-width:1.0;"/></g><g id="link_elyra.pipeline.component_catalog_elyra.pipeline.component"><path d="M880.757,688.9 C843.71,676.393 807.066,656.295 784.421,624 C737.638,557.28 756.396,454.21 770.007,403.224 " fill="none" id="elyra.pipeline.component_catalog-to-elyra.pipeline.component" style="stroke:#181818;stroke-width:1.0;"/><polygon fill="#181818" points="771.389,398.159,765.1619,405.7894,770.0734,402.9828,772.88,407.8943,771.389,398.159" style="stroke:#181818;stroke-width:1.0;"/></g><g id="link_elyra.pipeline.component_catalog_elyra.pipeline.component_parameter"><path d="M1096.506,683.989 C1247.003,641.37 1548.193,556.077 1702.103,512.492 " fill="none" id="elyra.pipeline.component_catalog-to-elyra.pipeline.component_parameter" style="stroke:#181818;stroke-width:1.0;"/><polygon fill="#181818" points="1707.073,511.087,1697.3251,509.6805,1702.2608,512.4444,1699.4969,517.38,1707.073,511.087" style="stroke:#181818;stroke-width:1.0;"/></g><g id="link_elyra.pipeline.component_catalog_elyra.pipeline.runtime_type"><path d="M1047.937,737.245 C1075.387,754.2663 1111.386,776.5896 1139.661,794.1236 " fill="none" id="elyra.pipeline.component_catalog-to-elyra.pipeline.runtime_type" style="stroke:#181818;stroke-width:1.0;"/><polygon fill="#181818" points="1144.13,796.895,1138.5881,788.7533,1139.8803,794.2606,1134.373,795.5528,1144.13,796.895" style="stroke:#181818;stroke-width:1.0;"/></g><g id="link_elyra.pipeline.component_parameter_elyra.pipeline.pipeline_constants"><path d="M1825.003,511.001 C1856.663,539.77 1910.643,587.325 1960.423,624 C2035.863,679.583 2052.333,699.992 2138.423,737 C2206.133,766.109 2285.863,786.8103 2351.093,800.5449 " fill="none" id="elyra.pipeline.component_parameter-to-elyra.pipeline.pipeline_constants" style="stroke:#181818;stroke-width:1.0;"/><polygon fill="#181818" points="2356.163,801.6041,2348.1781,795.8386,2351.2699,800.5758,2346.5327,803.6676,2356.163,801.6041" style="stroke:#181818;stroke-width:1.0;"/></g><g id="link_elyra.pipeline.component_parameter_elyra.pipeline.processor"><path d="M1661.093,508.029 C1544.253,528.376 1378.993,557.996 1274.973,577.257 " fill="none" id="elyra.pipeline.component_parameter-to-elyra.pipeline.processor" style="stroke:#181818;stroke-width:1.0;"/><polygon fill="#181818" points="1269.763,578.223,1279.3426,580.5103,1274.6787,577.309,1277.8801,572.6452,1269.763,578.223" style="stroke:#181818;stroke-width:1.0;"/></g><g id="link_elyra.pipeline.processor_elyra.pipeline.component_parameter"><path d="M1269.443,581.732 C1373.073,563.971 1542.163,533.828 1661.093,512.003 " fill="none" id="elyra.pipeline.processor-to-elyra.pipeline.component_parameter" style="stroke:#181818;stroke-width:1.0;"/><polygon fill="#181818" points="1666.363,511.035,1656.79,508.7203,1661.4447,511.935,1658.23,516.5896,1666.363,511.035" style="stroke:#181818;stroke-width:1.0;"/></g><g id="link_elyra.pipeline.handlers_elyra.pipeline.component"><path d="M1860.173,35.402 C1694.213,40.399 1340.323,58.081 1236.423,119 C1157.663,165.178 1191.026,233.823 1115.421,285 C1095.772,298.301 972.859,327.653 881.343,348.238 " fill="none" id="elyra.pipeline.handlers-to-elyra.pipeline.component" style="stroke:#181818;stroke-width:1.0;"/><polygon fill="#181818" points="876.462,349.334,886.1198,351.2645,881.3405,348.2383,884.3667,343.459,876.462,349.334" style="stroke:#181818;stroke-width:1.0;"/></g><g id="link_elyra.pipeline.handlers_elyra.pipeline.component_catalog"><path d="M1860.153,34.881 C1533.743,40.464 400.778,63.769 348.421,119 C261.4907,210.703 6,156.177 705.421,624 C735.186,643.909 814.122,665.988 883.69,682.721 " fill="none" id="elyra.pipeline.handlers-to-elyra.pipeline.component_catalog" style="stroke:#181818;stroke-width:1.0;"/><polygon fill="#181818" points="888.682,683.917,880.8607,677.9314,883.8194,682.7528,878.998,685.7115,888.682,683.917" style="stroke:#181818;stroke-width:1.0;"/></g><g id="link_elyra.pipeline.handlers_elyra.pipeline.parser"><path d="M2034.563,56.346 C2113.303,77.463 2219.393,107.286 2236.423,119 C2277.203,147.053 2309.123,195.748 2326.863,227.288 " fill="none" id="elyra.pipeline.handlers-to-elyra.pipeline.parser" style="stroke:#181818;stroke-width:1.0;"/><polygon fill="#181818" points="2329.383,231.812,2328.5064,222.0022,2326.9537,227.4418,2321.5141,225.8891,2329.383,231.812" style="stroke:#181818;stroke-width:1.0;"/></g><g id="link_elyra.pipeline.handlers_elyra.pipeline.pipeline_definition"><path d="M2034.563,58.538 C2089.333,75.718 2153.463,98.946 2174.423,119 C2232.393,174.48 2204.803,215.797 2245.423,285 C2256.973,304.679 2272.453,324.968 2285.523,340.841 " fill="none" id="elyra.pipeline.handlers-to-elyra.pipeline.pipeline_definition" style="stroke:#181818;stroke-width:1.0;"/><polygon fill="#181818" points="2288.783,344.778,2286.1275,335.2939,2285.5956,340.9257,2279.9638,340.3938,2288.783,344.778" style="stroke:#181818;stroke-width:1.0;"/></g><g id="link_elyra.pipeline.handlers_elyra.pipeline.processor"><path d="M1860.383,51.086 C1716.333,84.389 1427.153,169.6 1254.423,345 C1210.697,389.399 1190.831,398.786 1171.421,458 C1159.776,493.525 1164.472,536.93 1169.965,565.573 " fill="none" id="elyra.pipeline.handlers-to-elyra.pipeline.processor" style="stroke:#181818;stroke-width:1.0;"/><polygon fill="#181818" points="1170.997,570.745,1173.158,561.1362,1170.0183,565.8417,1165.3128,562.702,1170.997,570.745" style="stroke:#181818;stroke-width:1.0;"/></g><g id="link_elyra.pipeline.handlers_elyra.pipeline.runtime_type"><path d="M2034.633,54.904 C2127.663,77.799 2264.983,111.801 2289.423,119 C2472.713,172.996 2696.423,66.424 2696.423,257.5 C2696.423,257.5 2696.423,257.5 2696.423,372.5 C2696.423,542.641 2713.753,632.586 2579.423,737 C2478.733,815.2637 1602.053,822.6358 1292.833,822.7781 " fill="none" id="elyra.pipeline.handlers-to-elyra.pipeline.runtime_type" style="stroke:#181818;stroke-width:1.0;"/><polygon fill="#181818" points="1287.423,822.7799,1296.423,826.7799,1292.423,822.7799,1296.423,818.7799,1287.423,822.7799" style="stroke:#181818;stroke-width:1.0;"/></g><g id="link_elyra.pipeline.handlers_elyra.pipeline.validation"><path d="M1926.163,59.088 C1905.593,87.125 1879.793,133.268 1896.423,172 C1906.143,194.646 1925.133,214.12 1943.183,228.738 " fill="none" id="elyra.pipeline.handlers-to-elyra.pipeline.validation" style="stroke:#181818;stroke-width:1.0;"/><polygon fill="#181818" points="1947.253,231.971,1942.6795,223.2484,1943.3328,228.8674,1937.7138,229.5208,1947.253,231.971" style="stroke:#181818;stroke-width:1.0;"/></g><g id="link_elyra.pipeline.handlers_elyra.pipeline.wfp.processor_wfp"><path d="M1967.833,59.245 C1980.933,75.776 1998.003,97.308 2011.713,114.597 " fill="none" id="elyra.pipeline.handlers-to-elyra.pipeline.wfp.processor_wfp" style="stroke:#181818;stroke-width:1.0;"/><polygon fill="#181818" points="2015.123,118.895,2012.6625,109.3584,2012.0152,114.9781,2006.3955,114.3309,2015.123,118.895" style="stroke:#181818;stroke-width:1.0;"/></g><g id="link_elyra.pipeline.kfp.component_parser_kfp_elyra.pipeline.catalog_connector"><path d="M857.91,172.105 C811.453,189.468 750.109,212.395 702.68,230.12 " fill="none" id="elyra.pipeline.kfp.component_parser_kfp-to-elyra.pipeline.catalog_connector" style="stroke:#181818;stroke-width:1.0;"/><polygon fill="#181818" points="697.844,231.928,707.6747,232.5254,702.5278,230.1782,704.875,225.0313,697.844,231.928" style="stroke:#181818;stroke-width:1.0;"/></g><g id="link_elyra.pipeline.kfp.component_parser_kfp_elyra.pipeline.component"><path d="M1010.65,172.043 C1039.188,185.172 1067.977,204.403 1084.421,232 C1096.479,252.235 1098.653,266.23 1084.421,285 C1071.716,301.756 965.316,329.011 881.716,348.237 " fill="none" id="elyra.pipeline.kfp.component_parser_kfp-to-elyra.pipeline.component" style="stroke:#181818;stroke-width:1.0;"/><polygon fill="#181818" points="876.749,349.377,886.4151,351.2653,881.6226,348.26,884.6279,343.4675,876.749,349.377" style="stroke:#181818;stroke-width:1.0;"/></g><g id="link_elyra.pipeline.kfp.component_parser_kfp_elyra.pipeline.component_parameter"><path d="M1075.781,165.764 C1284.013,195.385 1647.113,257.954 1745.423,345 C1776.593,372.603 1789.143,420.791 1794.153,452.42 " fill="none" id="elyra.pipeline.kfp.component_parser_kfp-to-elyra.pipeline.component_parameter" style="stroke:#181818;stroke-width:1.0;"/><polygon fill="#181818" points="1794.943,457.736,1797.5637,448.2422,1794.2013,452.7913,1789.6522,449.4289,1794.943,457.736" style="stroke:#181818;stroke-width:1.0;"/></g><g id="link_elyra.pipeline.kfp.component_parser_kfp_elyra.pipeline.kfp.kfp_component_utils"><path d="M926.421,172.245 C926.421,188.496 926.421,209.579 926.421,226.714 " fill="none" id="elyra.pipeline.kfp.component_parser_kfp-to-elyra.pipeline.kfp.kfp_component_utils" style="stroke:#181818;stroke-width:1.0;"/><polygon fill="#181818" points="926.421,231.895,930.421,222.895,926.421,226.895,922.421,222.895,926.421,231.895" style="stroke:#181818;stroke-width:1.0;"/></g><g id="link_elyra.pipeline.kfp.component_parser_kfp_elyra.pipeline.runtime_type"><path d="M777.286,164.301 C670.579,179.153 537.769,202.605 490.421,232 C424.566,272.885 384.421,292.985 384.421,370.5 C384.421,370.5 384.421,370.5 384.421,598.5 C384.421,685.71 445.123,698.595 523.421,737 C618.627,783.6987 916.039,807.3249 1077.888,817.001 " fill="none" id="elyra.pipeline.kfp.component_parser_kfp-to-elyra.pipeline.runtime_type" style="stroke:#181818;stroke-width:1.0;"/><polygon fill="#181818" points="1083.112,817.3112,1074.3656,812.7834,1078.1208,817.0141,1073.8902,820.7693,1083.112,817.3112" style="stroke:#181818;stroke-width:1.0;"/></g><g id="link_elyra.pipeline.kfp.processor_kfp_elyra.pipeline.component_catalog"><path d="M1435.623,387.023 C1364.513,399.099 1273.963,420.586 1200.421,458 C1131.288,493.172 1113.786,508.817 1067.421,571 C1042.553,604.352 1025.112,649.431 1015.423,678.971 " fill="none" id="elyra.pipeline.kfp.processor_kfp-to-elyra.pipeline.component_catalog" style="stroke:#181818;stroke-width:1.0;"/><polygon fill="#181818" points="1013.819,683.937,1020.3925,676.6029,1015.3564,679.1792,1012.78,674.1431,1013.819,683.937" style="stroke:#181818;stroke-width:1.0;"/></g><g id="link_elyra.pipeline.kfp.processor_kfp_elyra.pipeline.component_parameter"><path d="M1610.473,398.105 C1648.193,415.332 1697.893,438.036 1736.573,455.703 " fill="none" id="elyra.pipeline.kfp.processor_kfp-to-elyra.pipeline.component_parameter" style="stroke:#181818;stroke-width:1.0;"/><polygon fill="#181818" points="1741.233,457.832,1734.7001,450.4617,1736.6826,455.7598,1731.3846,457.7423,1741.233,457.832" style="stroke:#181818;stroke-width:1.0;"/></g><g id="link_elyra.pipeline.kfp.processor_kfp_elyra.pipeline.kfp.kfp_authentication"><path d="M1507.593,398.105 C1476.343,415.192 1435.243,437.667 1403.043,455.271 " fill="none" id="elyra.pipeline.kfp.processor_kfp-to-elyra.pipeline.kfp.kfp_authentication" style="stroke:#181818;stroke-width:1.0;"/><polygon fill="#181818" points="1398.363,457.832,1408.1785,457.0218,1402.7495,455.4323,1404.339,450.0034,1398.363,457.832" style="stroke:#181818;stroke-width:1.0;"/></g><g id="link_elyra.pipeline.kfp.processor_kfp_elyra.pipeline.pipeline"><path d="M1673.013,377.937 C1782.613,386.124 1948.433,406.633 2083.423,458 C2229.143,513.452 2378.223,626.976 2443.843,680.436 " fill="none" id="elyra.pipeline.kfp.processor_kfp-to-elyra.pipeline.pipeline" style="stroke:#181818;stroke-width:1.0;"/><polygon fill="#181818" points="2448.043,683.869,2443.5962,675.0812,2444.1681,680.709,2438.5403,681.281,2448.043,683.869" style="stroke:#181818;stroke-width:1.0;"/></g><g id="link_elyra.pipeline.kfp.processor_kfp_elyra.pipeline.pipeline_constants"><path d="M1672.923,385.744 C1753.623,397.696 1861.503,419.52 1950.423,458 C2056.793,504.035 2339.163,716.115 2441.073,793.8439 " fill="none" id="elyra.pipeline.kfp.processor_kfp-to-elyra.pipeline.pipeline_constants" style="stroke:#181818;stroke-width:1.0;"/><polygon fill="#181818" points="2445.213,796.9979,2440.4784,788.3617,2441.2359,793.9676,2435.63,794.7251,2445.213,796.9979" style="stroke:#181818;stroke-width:1.0;"/></g><g id="link_elyra.pipeline.kfp.processor_kfp_elyra.pipeline.processor"><path d="M1551.653,398.166 C1546.893,429.368 1534.273,481.501 1501.423,511 C1439.493,566.606 1345.593,586.764 1274.793,593.728 " fill="none" id="elyra.pipeline.kfp.processor_kfp-to-elyra.pipeline.processor" style="stroke:#181818;stroke-width:1.0;"/><polygon fill="#181818" points="1269.743,594.207,1279.0801,597.3405,1274.7207,593.7355,1278.3257,589.3762,1269.743,594.207" style="stroke:#181818;stroke-width:1.0;"/></g><g id="link_elyra.pipeline.kfp.processor_kfp_elyra.pipeline.runtime_type"><path d="M1558.173,398.026 C1561.203,427.029 1562.443,474.999 1544.423,511 C1476.703,646.291 1321.833,747.573 1239.393,794.164 " fill="none" id="elyra.pipeline.kfp.processor_kfp-to-elyra.pipeline.runtime_type" style="stroke:#181818;stroke-width:1.0;"/><polygon fill="#181818" points="1234.553,796.883,1244.3597,795.9726,1238.9148,794.4387,1240.4487,788.9938,1234.553,796.883" style="stroke:#181818;stroke-width:1.0;"/></g><g id="link_elyra.pipeline.parser_elyra.pipeline.pipeline"><path d="M2412.213,285.165 C2444.343,299.362 2481.433,319.371 2509.423,345 C2553.163,385.06 2564.003,401.005 2580.423,458 C2604.223,540.625 2542.253,633.255 2504.713,679.637 " fill="none" id="elyra.pipeline.parser-to-elyra.pipeline.pipeline" style="stroke:#181818;stroke-width:1.0;"/><polygon fill="#181818" points="2501.383,683.709,2510.1767,679.2739,2504.5481,679.8383,2503.9836,674.2097,2501.383,683.709" style="stroke:#181818;stroke-width:1.0;"/></g><g id="link_elyra.pipeline.parser_elyra.pipeline.pipeline_definition"><path d="M2335.233,285.245 C2330.693,301.496 2324.803,322.579 2320.023,339.714 " fill="none" id="elyra.pipeline.parser-to-elyra.pipeline.pipeline_definition" style="stroke:#181818;stroke-width:1.0;"/><polygon fill="#181818" points="2318.573,344.895,2324.8461,337.3024,2319.9177,340.0792,2317.1408,335.1508,2318.573,344.895" style="stroke:#181818;stroke-width:1.0;"/></g><g id="link_elyra.pipeline.pipeline_elyra.pipeline.component_parameter"><path d="M2394.193,695.408 C2317.093,681.324 2200.443,657.018 2102.423,624 C2010.973,593.195 1909.943,544.139 1850.163,513.431 " fill="none" id="elyra.pipeline.pipeline-to-elyra.pipeline.component_parameter" style="stroke:#181818;stroke-width:1.0;"/><polygon fill="#181818" points="1845.573,511.069,1851.7471,518.7424,1850.0194,513.3558,1855.406,511.6281,1845.573,511.069" style="stroke:#181818;stroke-width:1.0;"/></g><g id="link_elyra.pipeline.pipeline_elyra.pipeline.pipeline_constants"><path d="M2478.423,737.245 C2478.423,753.4958 2478.423,774.5795 2478.423,791.7139 " fill="none" id="elyra.pipeline.pipeline-to-elyra.pipeline.pipeline_constants" style="stroke:#181818;stroke-width:1.0;"/><polygon fill="#181818" points="2478.423,796.895,2482.423,787.895,2478.423,791.895,2474.423,787.895,2478.423,796.895" style="stroke:#181818;stroke-width:1.0;"/></g><g id="link_elyra.pipeline.pipeline_definition_elyra.pipeline.component_catalog"><path d="M2252.973,398.117 C2182.363,428.313 2059.463,478.49 1950.423,511 C1665.213,596.037 1321.073,658.666 1137.26,689.02 " fill="none" id="elyra.pipeline.pipeline_definition-to-elyra.pipeline.component_catalog" style="stroke:#181818;stroke-width:1.0;"/><polygon fill="#181818" points="1132.138,689.864,1141.6692,692.3452,1137.0713,689.0499,1140.3666,684.452,1132.138,689.864" style="stroke:#181818;stroke-width:1.0;"/></g><g id="link_elyra.pipeline.pipeline_definition_elyra.pipeline.component_parameter"><path d="M2193.173,398.035 C2111.503,415.672 2003.133,439.075 1920.453,456.932 " fill="none" id="elyra.pipeline.pipeline_definition-to-elyra.pipeline.component_parameter" style="stroke:#181818;stroke-width:1.0;"/><polygon fill="#181818" points="1915.533,457.992,1925.1752,459.9988,1920.42,456.9349,1923.4839,452.1796,1915.533,457.992" style="stroke:#181818;stroke-width:1.0;"/></g><g id="link_elyra.pipeline.pipeline_definition_elyra.pipeline.pipeline"><path d="M2329.723,398.012 C2341.253,414.661 2356.073,437.108 2367.423,458 C2409.283,535.032 2448.213,631.006 2466.873,679.077 " fill="none" id="elyra.pipeline.pipeline_definition-to-elyra.pipeline.pipeline" style="stroke:#181818;stroke-width:1.0;"/><polygon fill="#181818" points="2468.723,683.858,2469.2015,674.0208,2466.9167,679.1957,2461.7418,676.9108,2468.723,683.858" style="stroke:#181818;stroke-width:1.0;"/></g><g id="link_elyra.pipeline.pipeline_definition_elyra.pipeline.pipeline_constants"><path d="M2347.043,398.327 C2409.463,446.186 2536.103,555.561 2579.423,684 C2586.953,706.32 2589.333,715.63 2579.423,737 C2568.643,760.2525 2548.073,779.4761 2528.303,793.7665 " fill="none" id="elyra.pipeline.pipeline_definition-to-elyra.pipeline.pipeline_constants" style="stroke:#181818;stroke-width:1.0;"/><polygon fill="#181818" points="2523.833,796.9238,2533.4914,794.9965,2527.9163,794.0383,2528.8746,788.4631,2523.833,796.9238" style="stroke:#181818;stroke-width:1.0;"/></g><g id="link_elyra.pipeline.pipeline_definition_elyra.pipeline.runtime_type"><path d="M2317.053,398.219 C2326.123,446.324 2338.953,551.586 2296.423,624 C2249.153,704.475 2207.723,706.78 2119.423,737 C1969.033,788.4693 1504.773,811.1625 1292.873,819.0353 " fill="none" id="elyra.pipeline.pipeline_definition-to-elyra.pipeline.runtime_type" style="stroke:#181818;stroke-width:1.0;"/><polygon fill="#181818" points="1287.603,819.2299,1296.7454,822.8929,1292.5995,819.0442,1296.4482,814.8984,1287.603,819.2299" style="stroke:#181818;stroke-width:1.0;"/></g><g id="link_elyra.pipeline.processor_elyra.pipeline.component"><path d="M1085.344,575.316 C1035.986,561.51 975.423,540.505 926.421,511 C877.405,481.487 831.152,433.328 804.054,402.283 " fill="none" id="elyra.pipeline.processor-to-elyra.pipeline.component" style="stroke:#181818;stroke-width:1.0;"/><polygon fill="#181818" points="800.521,398.208,803.3919,407.6291,803.7954,401.9867,809.4378,402.3901,800.521,398.208" style="stroke:#181818;stroke-width:1.0;"/></g><g id="link_elyra.pipeline.processor_elyra.pipeline.component_catalog"><path d="M1137.761,624.245 C1111.538,641.266 1077.148,663.59 1050.136,681.124 " fill="none" id="elyra.pipeline.processor-to-elyra.pipeline.component_catalog" style="stroke:#181818;stroke-width:1.0;"/><polygon fill="#181818" points="1045.867,683.895,1055.594,682.3503,1050.061,681.1728,1051.2385,675.6399,1045.867,683.895" style="stroke:#181818;stroke-width:1.0;"/></g><g id="link_elyra.pipeline.processor_elyra.pipeline.pipeline"><path d="M1269.423,606.35 C1509.433,626.827 2152.333,681.678 2389.193,701.887 " fill="none" id="elyra.pipeline.processor-to-elyra.pipeline.pipeline" style="stroke:#181818;stroke-width:1.0;"/><polygon fill="#181818" points="2394.373,702.329,2385.7489,697.5725,2389.3914,701.9005,2385.0633,705.5431,2394.373,702.329" style="stroke:#181818;stroke-width:1.0;"/></g><g id="link_elyra.pipeline.processor_elyra.pipeline.runtime_type"><path d="M1178.339,624.196 C1179.818,665.606 1182.723,746.957 1184.315,791.5137 " fill="none" id="elyra.pipeline.processor-to-elyra.pipeline.runtime_type" style="stroke:#181818;stroke-width:1.0;"/><polygon fill="#181818" points="1184.502,796.76,1188.1783,787.623,1184.3236,791.7632,1180.1834,787.9085,1184.502,796.76" style="stroke:#181818;stroke-width:1.0;"/></g><g id="link_elyra.pipeline.validation_elyra.pipeline.component_catalog"><path d="M1897.283,263.833 C1728.473,273.032 1368.793,297.65 1254.423,345 C1123.753,399.095 1085.07,440.563 1030.421,571 C1015.729,606.068 1010.031,649.751 1007.821,678.574 " fill="none" id="elyra.pipeline.validation-to-elyra.pipeline.component_catalog" style="stroke:#181818;stroke-width:1.0;"/><polygon fill="#181818" points="1007.447,683.777,1012.0821,675.087,1007.8056,678.7899,1004.1027,674.5133,1007.447,683.777" style="stroke:#181818;stroke-width:1.0;"/></g><g id="link_elyra.pipeline.validation_elyra.pipeline.component_parameter"><path d="M1964.743,285.196 C1929.443,327.027 1859.763,409.614 1822.433,453.861 " fill="none" id="elyra.pipeline.validation-to-elyra.pipeline.component_parameter" style="stroke:#181818;stroke-width:1.0;"/><polygon fill="#181818" points="1819.143,457.76,1828,453.4526,1822.3638,453.9356,1821.8809,448.2994,1819.143,457.76" style="stroke:#181818;stroke-width:1.0;"/></g><g id="link_elyra.pipeline.validation_elyra.pipeline.pipeline"><path d="M2075.573,270.187 C2202.483,286.265 2422.693,317.704 2447.423,345 C2532.823,439.264 2503.573,609.134 2486.793,678.612 " fill="none" id="elyra.pipeline.validation-to-elyra.pipeline.pipeline" style="stroke:#181818;stroke-width:1.0;"/><polygon fill="#181818" points="2485.513,683.835,2491.5441,676.0487,2486.7055,678.9793,2483.7749,674.1407,2485.513,683.835" style="stroke:#181818;stroke-width:1.0;"/></g><g id="link_elyra.pipeline.validation_elyra.pipeline.pipeline_constants"><path d="M2075.643,269.664 C2211.843,285.914 2459.203,318.604 2490.423,345 C2629.353,462.481 2694.773,576.853 2608.423,737 C2594.963,761.958 2570.683,780.8235 2546.723,794.3967 " fill="none" id="elyra.pipeline.validation-to-elyra.pipeline.pipeline_constants" style="stroke:#181818;stroke-width:1.0;"/><polygon fill="#181818" points="2542.253,796.8698,2552.0633,795.9986,2546.6245,794.4429,2548.1802,789.0042,2542.253,796.8698" style="stroke:#181818;stroke-width:1.0;"/></g><g id="link_elyra.pipeline.validation_elyra.pipeline.pipeline_definition"><path d="M2061.393,285.105 C2112.333,302.503 2179.623,325.487 2231.573,343.228 " fill="none" id="elyra.pipeline.validation-to-elyra.pipeline.pipeline_definition" style="stroke:#181818;stroke-width:1.0;"/><polygon fill="#181818" points="2236.543,344.928,2229.3167,338.2361,2231.8108,343.3135,2226.7335,345.8076,2236.543,344.928" style="stroke:#181818;stroke-width:1.0;"/></g><g id="link_elyra.pipeline.validation_elyra.pipeline.processor"><path d="M1897.273,263.874 C1783.633,271.48 1582.273,291.823 1418.423,345 C1314.623,378.688 1264.593,369.727 1200.421,458 C1177.525,489.497 1174.248,535.621 1175.021,565.848 " fill="none" id="elyra.pipeline.validation-to-elyra.pipeline.processor" style="stroke:#181818;stroke-width:1.0;"/><polygon fill="#181818" points="1175.193,570.929,1178.8873,561.7993,1175.0244,565.9318,1170.8918,562.069,1175.193,570.929" style="stroke:#181818;stroke-width:1.0;"/></g><g id="link_elyra.pipeline.validation_elyra.pipeline.runtime_type"><path d="M1990.423,285.125 C1996.643,334.47 2002.963,443.739 1950.423,511 C1787.473,719.6 1461.783,789.3309 1292.753,812.0018 " fill="none" id="elyra.pipeline.validation-to-elyra.pipeline.runtime_type" style="stroke:#181818;stroke-width:1.0;"/><polygon fill="#181818" points="1287.553,812.6914,1297.0006,815.4739,1292.5096,812.0343,1295.9492,807.5433,1287.553,812.6914" style="stroke:#181818;stroke-width:1.0;"/></g><g id="link_elyra.pipeline.wfp.component_parser_wfp_elyra.pipeline.catalog_connector"><path d="M544.166,172.245 C560.837,188.916 582.594,210.673 599.956,228.035 " fill="none" id="elyra.pipeline.wfp.component_parser_wfp-to-elyra.pipeline.catalog_connector" style="stroke:#181818;stroke-width:1.0;"/><polygon fill="#181818" points="603.816,231.895,600.2805,222.7026,600.2805,228.3595,594.6236,228.3595,603.816,231.895" style="stroke:#181818;stroke-width:1.0;"/></g><g id="link_elyra.pipeline.wfp.component_parser_wfp_elyra.pipeline.component"><path d="M502.321,172.107 C485.76,202.065 465.61,251.785 490.421,285 C513.203,315.498 603.453,338.948 677.115,353.51 " fill="none" id="elyra.pipeline.wfp.component_parser_wfp-to-elyra.pipeline.component" style="stroke:#181818;stroke-width:1.0;"/><polygon fill="#181818" points="682.389,354.543,674.3263,348.8868,677.4823,353.5814,672.7877,356.7374,682.389,354.543" style="stroke:#181818;stroke-width:1.0;"/></g><g id="link_elyra.pipeline.wfp.component_parser_wfp_elyra.pipeline.runtime_type"><path d="M440.069,172.106 C358.471,204.285 242.4212,268.058 242.4212,370.5 C242.4212,370.5 242.4212,370.5 242.4212,598.5 C242.4212,697.689 325.6872,699.273 417.421,737 C534.428,785.1212 895.899,808.7454 1078.103,817.8486 " fill="none" id="elyra.pipeline.wfp.component_parser_wfp-to-elyra.pipeline.runtime_type" style="stroke:#181818;stroke-width:1.0;"/><polygon fill="#181818" points="1083.174,818.1005,1074.384,813.658,1078.1802,817.8519,1073.9863,821.6481,1083.174,818.1005" style="stroke:#181818;stroke-width:1.0;"/></g><g id="link_elyra.pipeline.wfp.processor_wfp_elyra.pipeline.parser"><path d="M2106.243,172.105 C2154.263,189.468 2217.673,212.395 2266.693,230.12 " fill="none" id="elyra.pipeline.wfp.processor_wfp-to-elyra.pipeline.parser" style="stroke:#181818;stroke-width:1.0;"/><polygon fill="#181818" points="2271.693,231.928,2264.5895,225.106,2266.991,230.2278,2261.8691,232.6292,2271.693,231.928" style="stroke:#181818;stroke-width:1.0;"/></g><g id="link_elyra.pipeline.wfp.processor_wfp_elyra.pipeline.processor"><path d="M1913.763,151.946 C1725.453,167.629 1367.703,227.878 1200.421,458 C1177.525,489.497 1174.248,535.621 1175.021,565.848 " fill="none" id="elyra.pipeline.wfp.processor_wfp-to-elyra.pipeline.processor" style="stroke:#181818;stroke-width:1.0;"/><polygon fill="#181818" points="1175.193,570.929,1178.8873,561.7993,1175.0244,565.9318,1170.8918,562.069,1175.193,570.929" style="stroke:#181818;stroke-width:1.0;"/></g><g id="link_elyra.pipeline.wfp.processor_wfp_elyra.pipeline.runtime_type"><path d="M2058.373,172.117 C2071.103,188.102 2085.703,209.803 2092.423,232 C2099.243,254.545 2097.373,261.972 2092.423,285 C2055.423,456.907 2024.553,512.697 1888.423,624 C1812.063,686.431 1790.083,703.193 1697.423,737 C1563.043,786.0307 1398.463,807.1299 1292.803,816.085 " fill="none" id="elyra.pipeline.wfp.processor_wfp-to-elyra.pipeline.runtime_type" style="stroke:#181818;stroke-width:1.0;"/><polygon fill="#181818" points="1287.813,816.5023,1297.1135,819.7428,1292.7958,816.088,1296.4506,811.7703,1287.813,816.5023" style="stroke:#181818;stroke-width:1.0;"/></g><g id="link_elyra.pipeline.wfp.processor_wfp_elyra.pipeline.validation"><path d="M2024.053,172.245 C2016.823,188.636 2007.413,209.943 1999.813,227.156 " fill="none" id="elyra.pipeline.wfp.processor_wfp-to-elyra.pipeline.validation" style="stroke:#181818;stroke-width:1.0;"/><polygon fill="#181818" points="1997.723,231.895,2005.0193,225.2796,1999.7439,227.3216,1997.7018,222.0462,1997.723,231.895" style="stroke:#181818;stroke-width:1.0;"/></g></g></svg>