<svg width="20" height="20" xmlns="http://www.w3.org/2000/svg" class="icon">
  <g id="svg_3" stroke="null">
   <path id="svg_1" fill="#616161" d="m17.97123,3.88382l-9.61304,0l-1.00013,-1.90924a1.26954,1.29618 0 0 0 -1.12085,-0.68571l-4.1511,0c-0.70085,0 -1.27081,0.58192 -1.27081,1.29747l0,14.92098c0,0.71556 0.56995,1.29747 1.27081,1.29747l15.88512,0c0.70085,0 1.27081,-0.58192 1.27081,-1.29747l0,-12.32603c0,-0.71556 -0.56995,-1.29747 -1.27081,-1.29747l0,-0.00001l0,0.00001zm-15.88512,-1.29747l4.1511,0l1.35913,2.59496l10.3749,0l0,1.98644c-0.00826,0 -0.01589,-0.00259 -0.02415,-0.00259l-15.8362,0c-0.00826,0 -0.01589,0.00259 -0.02478,0.00259l0,-4.58139l0,-0.00001zm0,14.92098l0,-1.94622l0.02478,-7.0985l15.86035,0.02466l0,7.07384l0.00127,0l0,1.94622l-15.8864,0l-0.00001,0l0.00001,0z" stroke="null"/>
   <text font-weight="bold" transform="matrix(0.2192297586390972,0,0,0.23865860435581207,-113.74289669888162,15.383672320914538) " xml:space="preserve" text-anchor="start" font-family="Noto Sans JP" font-size="24" id="svg_2" y="-1.88204" x="532.52218" fill="#616161" stroke="#616161">Logic</text>
  </g>
</svg>
