<svg xmlns="http://www.w3.org/2000/svg" viewBox="0 -60 276.93 274.55">
    <g id="Layer_2" data-name="Layer 2">
        <g id="Layer_1-2" data-name="Layer 1">
            <path d="M95.9,62.15,100,164.25l73.75-94.12a6.79,6.79,0,0,1,9.6-1.11l46,36.92-15-65.61Z" fill="#4279f4"/>
            <polygon points="102.55 182.98 167.97 182.98 127.8 150.75 102.55 182.98" fill="#0028aa"/>
            <polygon points="180.18 83.92 136.18 140.06 183.06 177.67 227.53 121.91 180.18 83.92" fill="#014bd1"/>
            <polygon points="83.56 52.3 83.57 52.29 122.26 3.77 59.87 33.82 44.46 101.33 83.56 52.3" fill="#bedcff"/>
            <polygon points="45.32 122.05 86.76 174.01 82.81 75.03 45.32 122.05" fill="#6ca1ff"/>
            <polygon points="202.31 28.73 142.65 0 105.52 46.56 202.31 28.73" fill="#a1c3ff"/>
        </g>
    </g>
</svg>