<?xml version="1.0" encoding="utf-8"?>
<!-- Generator: Adobe Illustrator 24.0.1, SVG Export Plug-In . SVG Version: 6.00 Build 0)  -->
<svg version="1.1" id="图层_1" xmlns="http://www.w3.org/2000/svg" xmlns:xlink="http://www.w3.org/1999/xlink" x="0px" y="0px"
	 viewBox="0 0 16 16" style="enable-background:new 0 0 16 16;" xml:space="preserve">
<style type="text/css">
	.st0{fill:none;}
	.st1{fill:none;stroke:#707070;}
	.st2{fill:#0077FF;}
	.st3{fill:#EBAF00;}
	.st4{fill:#B8D9FF;}
</style>
<title>workflow 2</title>
<g id="工作流_x2F_工作流实例">
	<g id="画板" transform="translate(-111.000000, -36.000000)">
		<g id="workflow" transform="translate(111.000000, 36.000000)">
			<polygon id="路径" class="st0" points="16,0 0,0 0,16 16,16 			"/>
			<path id="路径-12" class="st1" d="M8.5,3h5c0.6,0,1,0.4,1,1v3c0,0.6-0.4,1-1,1h-5l0,0"/>
			<path id="路径-12备份" class="st1" d="M7.5,8h-5c-0.6,0-1,0.4-1,1v3c0,0.6,0.4,1,1,1h5l0,0"/>
			<path id="路径_1_" class="st2" d="M14,11H8c-0.6,0-1,0.4-1,1v2c0,0.6,0.4,1,1,1h6c0.6,0,1-0.4,1-1v-2C15,11.4,14.6,11,14,11z"
				/>
			<path id="路径备份-9" class="st3" d="M11,6H5C4.4,6,4,6.4,4,7v2c0,0.6,0.4,1,1,1h6c0.6,0,1-0.4,1-1V7C12,6.4,11.6,6,11,6z"/>
			<path id="路径备份-10" class="st4" d="M8,1H2C1.4,1,1,1.4,1,2v2c0,0.6,0.4,1,1,1h6c0.6,0,1-0.4,1-1V2C9,1.4,8.6,1,8,1z"/>
		</g>
	</g>
</g>
</svg>
