<?xml version="1.0" encoding="utf-8"?>
<!-- Generator: Adobe Illustrator 24.0.1, SVG Export Plug-In . SVG Version: 6.00 Build 0)  -->
<svg version="1.1" id="图层_1" xmlns="http://www.w3.org/2000/svg" xmlns:xlink="http://www.w3.org/1999/xlink" x="0px" y="0px"
	 viewBox="0 0 16 16" style="enable-background:new 0 0 16 16;" xml:space="preserve">
<style type="text/css">
	.st0{fill:none;}
	.st1{fill:#979797;}
	.st2{filter:url(#Adobe_OpacityMaskFilter);}
	.st3{fill-rule:evenodd;clip-rule:evenodd;fill:#FFFFFF;}
	.st4{mask:url(#mask-2_1_);fill-rule:evenodd;clip-rule:evenodd;fill:#707070;}
</style>
<title>loop</title>
<g id="工作流_x2F_工作流实例">
	<g id="画板" transform="translate(-90.000000, -325.000000)">
		<g id="loop" transform="translate(90.000000, 325.000000)">
			<polygon id="路径" class="st0" points="16,0 0,0 0,16 16,16 			"/>
			<g id="形状结合">
				<path id="path-1_1_" class="st1" d="M8,1c1.4,0,2.5,1.1,2.5,2.5c0,0,0,0,0,0C12.6,4.5,14,6.6,14,9c0,0.2,0,0.3,0,0.5
					c0.6,0.5,1,1.2,1,2c0,1.4-1.1,2.5-2.5,2.5c-0.3,0-0.6-0.1-0.9-0.2l0.2-0.1C10.7,14.5,9.4,15,8,15c-1.3,0-2.5-0.4-3.6-1.2
					C4.1,13.9,3.8,14,3.5,14C2.1,14,1,12.9,1,11.5c0-0.8,0.4-1.6,1-2l0,0.2C2,9.5,2,9.2,2,9c0-2.4,1.4-4.5,3.5-5.5l0,0
					C5.5,2.1,6.6,1,8,1z M10.3,4.5L10.3,4.5C9.9,5.4,9,6,8,6C7,6,6.1,5.4,5.7,4.5C4.1,5.4,3,7.1,3,9l0,0c0.2,0,0.3,0,0.5,0
					C4.9,9,6,10.1,6,11.5c0,0.7-0.3,1.3-0.7,1.7C6.1,13.7,7,14,8,14c1,0,1.9-0.3,2.7-0.8c-0.4-0.4-0.7-1.1-0.7-1.7
					c0-1.4,1.1-2.5,2.5-2.5c0.2,0,0.3,0,0.5,0l0,0l0,0C13,7.1,11.9,5.4,10.3,4.5z M3.5,10C2.7,10,2,10.7,2,11.5S2.7,13,3.5,13
					S5,12.3,5,11.5S4.3,10,3.5,10z M12.5,10c-0.8,0-1.5,0.7-1.5,1.5s0.7,1.5,1.5,1.5s1.5-0.7,1.5-1.5S13.3,10,12.5,10z M8,2
					C7.2,2,6.5,2.7,6.5,3.5S7.2,5,8,5s1.5-0.7,1.5-1.5S8.8,2,8,2z"/>
			</g>
			<defs>
				<filter id="Adobe_OpacityMaskFilter" filterUnits="userSpaceOnUse" x="0" y="0" width="16" height="16">
					<feColorMatrix  type="matrix" values="1 0 0 0 0  0 1 0 0 0  0 0 1 0 0  0 0 0 1 0"/>
				</filter>
			</defs>
			<mask maskUnits="userSpaceOnUse" x="0" y="0" width="16" height="16" id="mask-2_1_">
				<g class="st2">
					<path id="path-1_2_" class="st3" d="M8,1c1.4,0,2.5,1.1,2.5,2.5c0,0,0,0,0,0C12.6,4.5,14,6.6,14,9c0,0.2,0,0.3,0,0.5
						c0.6,0.5,1,1.2,1,2c0,1.4-1.1,2.5-2.5,2.5c-0.3,0-0.6-0.1-0.9-0.2l0.2-0.1C10.7,14.5,9.4,15,8,15c-1.3,0-2.5-0.4-3.6-1.2
						C4.1,13.9,3.8,14,3.5,14C2.1,14,1,12.9,1,11.5c0-0.8,0.4-1.6,1-2l0,0.2C2,9.5,2,9.2,2,9c0-2.4,1.4-4.5,3.5-5.5l0,0
						C5.5,2.1,6.6,1,8,1z M10.3,4.5L10.3,4.5C9.9,5.4,9,6,8,6C7,6,6.1,5.4,5.7,4.5C4.1,5.4,3,7.1,3,9l0,0c0.2,0,0.3,0,0.5,0
						C4.9,9,6,10.1,6,11.5c0,0.7-0.3,1.3-0.7,1.7C6.1,13.7,7,14,8,14c1,0,1.9-0.3,2.7-0.8c-0.4-0.4-0.7-1.1-0.7-1.7
						c0-1.4,1.1-2.5,2.5-2.5c0.2,0,0.3,0,0.5,0l0,0l0,0C13,7.1,11.9,5.4,10.3,4.5z M3.5,10C2.7,10,2,10.7,2,11.5S2.7,13,3.5,13
						S5,12.3,5,11.5S4.3,10,3.5,10z M12.5,10c-0.8,0-1.5,0.7-1.5,1.5s0.7,1.5,1.5,1.5s1.5-0.7,1.5-1.5S13.3,10,12.5,10z M8,2
						C7.2,2,6.5,2.7,6.5,3.5S7.2,5,8,5s1.5-0.7,1.5-1.5S8.8,2,8,2z"/>
				</g>
			</mask>
			<polygon id="路径_1_" class="st4" points="16,0 0,0 0,16 16,16 			"/>
		</g>
	</g>
</g>
</svg>
