<?xml version="1.0" encoding="utf-8"?>
<!-- Generator: Adobe Illustrator 24.0.1, SVG Export Plug-In . SVG Version: 6.00 Build 0)  -->
<svg version="1.1" id="图层_1" xmlns="http://www.w3.org/2000/svg" xmlns:xlink="http://www.w3.org/1999/xlink" x="0px" y="0px"
	 viewBox="0 0 16 16" style="enable-background:new 0 0 16 16;" xml:space="preserve">
<style type="text/css">
	.st0{fill:none;}
	.st1{fill:#707070;}
</style>
<title>calendar</title>
<g id="工作流_x2F_工作流实例">
	<g id="画板" transform="translate(-111.000000, -100.000000)">
		<g id="calendar" transform="translate(111.000000, 100.000000)">
			<rect id="矩形" class="st0" width="16" height="16"/>
			<g id="形状结合">
				<path id="path-1_1_" class="st1" d="M11.5,1c0.2,0,0.4,0.2,0.5,0.4l0,0.1v1h1c0.8,0,1.4,0.6,1.5,1.4l0,0.1v9
					c0,0.8-0.7,1.5-1.5,1.5H3c-0.8,0-1.5-0.7-1.5-1.5V4c0-0.8,0.7-1.5,1.5-1.5h1v-1C4,1.2,4.2,1,4.5,1C4.7,1,4.9,1.2,5,1.4l0,0.1v1
					h6v-1C11,1.2,11.2,1,11.5,1z M4,3.5H3C2.7,3.5,2.5,3.7,2.5,4v9c0,0.3,0.2,0.5,0.5,0.5h10c0.3,0,0.5-0.2,0.5-0.5V4
					c0-0.3-0.2-0.5-0.5-0.5h-1v1C12,4.8,11.8,5,11.5,5c-0.2,0-0.4-0.2-0.5-0.4l0-0.1v-1H5v1C5,4.8,4.8,5,4.5,5C4.3,5,4.1,4.8,4,4.6
					l0-0.1V3.5z M6,10.5v1H5v-1H6z M8.5,10.5v1h-1v-1H8.5z M11,10.5v1h-1v-1H11z M6,8.2v1H5v-1H6z M8.5,8.2v1h-1v-1H8.5z M11,8.2v1
					h-1v-1H11z M6,6v1H5V6H6z M8.5,6v1h-1V6H8.5z M11,6v1h-1V6H11z"/>
			</g>
		</g>
	</g>
</g>
</svg>
