<?xml version="1.0" encoding="utf-8"?>
<!-- Generator: Adobe Illustrator 24.0.1, SVG Export Plug-In . SVG Version: 6.00 Build 0)  -->
<svg version="1.1" id="图层_1" xmlns="http://www.w3.org/2000/svg" xmlns:xlink="http://www.w3.org/1999/xlink" x="0px" y="0px"
	 viewBox="0 0 16 16" style="enable-background:new 0 0 16 16;" xml:space="preserve">
<style type="text/css">
	.st0{fill:none;}
	.st1{filter:url(#Adobe_OpacityMaskFilter);}
	.st2{fill-rule:evenodd;clip-rule:evenodd;fill:#FFFFFF;}
	.st3{mask:url(#mask-2_1_);fill-rule:evenodd;clip-rule:evenodd;fill:#707070;}
</style>
<title>dataset</title>
<g id="工作流_x2F_工作流实例">
	<g id="画板" transform="translate(-105.000000, -134.000000)">
		<g id="dataset" transform="translate(105.000000, 134.000000)">
			<rect id="矩形" class="st0" width="16" height="16"/>
			<g id="形状结合">
				<path id="path-1_1_" d="M12.9,1c0.7,0,1.3,0.6,1.3,1.3l0,0v1.4c0,0.7-0.6,1.3-1.3,1.3l0,0H3.3C2.6,5,2,4.4,2,3.7l0,0V2.3
					C2,1.6,2.6,1,3.3,1l0,0H12.9z M12.9,2H3.3C3.1,2,3,2.1,3,2.3l0,0v1.4C3,3.9,3.1,4,3.3,4l0,0h9.6c0.2,0,0.3-0.1,0.3-0.3l0,0V2.3
					C13.2,2.1,13.1,2,12.9,2L12.9,2z M4.4,2.4c0.2,0,0.4,0.2,0.4,0.4v0.4c0,0.2-0.2,0.4-0.4,0.4H4c-0.2,0-0.4-0.2-0.4-0.4V2.8
					c0-0.2,0.2-0.4,0.4-0.4H4.4z M12.9,6c0.7,0,1.3,0.6,1.3,1.3l0,0v1.4c0,0.7-0.6,1.3-1.3,1.3l0,0H3.3C2.6,10,2,9.4,2,8.7l0,0V7.3
					C2,6.6,2.6,6,3.3,6l0,0H12.9z M12.9,7H3.3C3.1,7,3,7.1,3,7.3l0,0v1.4C3,8.9,3.1,9,3.3,9l0,0h9.6c0.2,0,0.3-0.1,0.3-0.3l0,0V7.3
					C13.2,7.1,13.1,7,12.9,7L12.9,7z M4.4,7.4c0.2,0,0.4,0.2,0.4,0.4v0.4c0,0.2-0.2,0.4-0.4,0.4H4c-0.2,0-0.4-0.2-0.4-0.4V7.8
					c0-0.2,0.2-0.4,0.4-0.4H4.4z M12.9,11c0.7,0,1.3,0.6,1.3,1.3l0,0v1.4c0,0.7-0.6,1.3-1.3,1.3l0,0H3.3C2.6,15,2,14.4,2,13.7l0,0
					v-1.4C2,11.6,2.6,11,3.3,11l0,0H12.9z M12.9,12H3.3C3.1,12,3,12.1,3,12.3l0,0v1.4C3,13.9,3.1,14,3.3,14l0,0h9.6
					c0.2,0,0.3-0.1,0.3-0.3l0,0v-1.4C13.2,12.1,13.1,12,12.9,12L12.9,12z M4.4,12.4c0.2,0,0.4,0.2,0.4,0.4v0.4
					c0,0.2-0.2,0.4-0.4,0.4H4c-0.2,0-0.4-0.2-0.4-0.4v-0.4c0-0.2,0.2-0.4,0.4-0.4H4.4z"/>
			</g>
			<defs>
				<filter id="Adobe_OpacityMaskFilter" filterUnits="userSpaceOnUse" x="0" y="0" width="16" height="16">
					<feColorMatrix  type="matrix" values="1 0 0 0 0  0 1 0 0 0  0 0 1 0 0  0 0 0 1 0"/>
				</filter>
			</defs>
			<mask maskUnits="userSpaceOnUse" x="0" y="0" width="16" height="16" id="mask-2_1_">
				<g class="st1">
					<path id="path-1_2_" class="st2" d="M12.9,1c0.7,0,1.3,0.6,1.3,1.3l0,0v1.4c0,0.7-0.6,1.3-1.3,1.3l0,0H3.3C2.6,5,2,4.4,2,3.7
						l0,0V2.3C2,1.6,2.6,1,3.3,1l0,0H12.9z M12.9,2H3.3C3.1,2,3,2.1,3,2.3l0,0v1.4C3,3.9,3.1,4,3.3,4l0,0h9.6c0.2,0,0.3-0.1,0.3-0.3
						l0,0V2.3C13.2,2.1,13.1,2,12.9,2L12.9,2z M4.4,2.4c0.2,0,0.4,0.2,0.4,0.4v0.4c0,0.2-0.2,0.4-0.4,0.4H4c-0.2,0-0.4-0.2-0.4-0.4
						V2.8c0-0.2,0.2-0.4,0.4-0.4H4.4z M12.9,6c0.7,0,1.3,0.6,1.3,1.3l0,0v1.4c0,0.7-0.6,1.3-1.3,1.3l0,0H3.3C2.6,10,2,9.4,2,8.7l0,0
						V7.3C2,6.6,2.6,6,3.3,6l0,0H12.9z M12.9,7H3.3C3.1,7,3,7.1,3,7.3l0,0v1.4C3,8.9,3.1,9,3.3,9l0,0h9.6c0.2,0,0.3-0.1,0.3-0.3l0,0
						V7.3C13.2,7.1,13.1,7,12.9,7L12.9,7z M4.4,7.4c0.2,0,0.4,0.2,0.4,0.4v0.4c0,0.2-0.2,0.4-0.4,0.4H4c-0.2,0-0.4-0.2-0.4-0.4V7.8
						c0-0.2,0.2-0.4,0.4-0.4H4.4z M12.9,11c0.7,0,1.3,0.6,1.3,1.3l0,0v1.4c0,0.7-0.6,1.3-1.3,1.3l0,0H3.3C2.6,15,2,14.4,2,13.7l0,0
						v-1.4C2,11.6,2.6,11,3.3,11l0,0H12.9z M12.9,12H3.3C3.1,12,3,12.1,3,12.3l0,0v1.4C3,13.9,3.1,14,3.3,14l0,0h9.6
						c0.2,0,0.3-0.1,0.3-0.3l0,0v-1.4C13.2,12.1,13.1,12,12.9,12L12.9,12z M4.4,12.4c0.2,0,0.4,0.2,0.4,0.4v0.4
						c0,0.2-0.2,0.4-0.4,0.4H4c-0.2,0-0.4-0.2-0.4-0.4v-0.4c0-0.2,0.2-0.4,0.4-0.4H4.4z"/>
				</g>
			</mask>
			<rect id="矩形_1_" class="st3" width="16" height="16"/>
		</g>
	</g>
</g>
</svg>
