<svg t="1670848390568" class="icon" viewBox="0 0 1024 1024" version="1.1" xmlns="http://www.w3.org/2000/svg" p-id="12406">
	<path d="M869 112H155c-23.75 0-43 19.26-43 43v134c0 23.75 19.25 43 43 43h714c23.75 0 43-19.25 43-43V155c0-23.74-19.25-43-43-43z m-43 134H390.39c1.03-1.77 1.61-3.82 1.61-6v-36c0-2.18-0.58-4.23-1.61-6H826v48zM869 402H155c-23.75 0-43 19.26-43 43v134c0 23.75 19.25 43 43 43h714c23.75 0 43-19.25 43-43V445c0-23.74-19.25-43-43-43z m-43 134H390.39c1.03-1.77 1.61-3.82 1.61-6v-36c0-2.18-0.58-4.23-1.61-6H826v48zM869 692H155c-23.75 0-43 19.26-43 43v134c0 23.75 19.25 43 43 43h714c23.75 0 43-19.25 43-43V735c0-23.74-19.25-43-43-43z m-43 134H390.39c1.03-1.77 1.61-3.82 1.61-6v-36c0-2.18-0.58-4.23-1.61-6H826v48z" fill="#616161" p-id="12407"></path>
</svg>