<?xml version="1.0" encoding="utf-8"?>
<!-- Generator: Adobe Illustrator 24.0.1, SVG Export Plug-In . SVG Version: 6.00 Build 0)  -->
<svg version="1.1" id="图层_1" xmlns="http://www.w3.org/2000/svg" xmlns:xlink="http://www.w3.org/1999/xlink" x="0px" y="0px"
	 viewBox="0 0 16 16" style="enable-background:new 0 0 16 16;" xml:space="preserve">
<style type="text/css">
	.st0{fill:none;}
	.st1{fill:#707070;}
	.st2{filter:url(#Adobe_OpacityMaskFilter);}
	.st3{fill-rule:evenodd;clip-rule:evenodd;fill:#FFFFFF;}
	.st4{mask:url(#mask-2_1_);fill-rule:evenodd;clip-rule:evenodd;fill:#707070;}
</style>
<title>event pipeline</title>
<g id="工作流_x2F_工作流实例">
	<g id="画板" transform="translate(-105.000000, -153.000000)">
		
			<g id="event-pipeline" transform="translate(113.000000, 161.000000) rotate(-90.000000) translate(-113.000000, -161.000000) translate(105.000000, 153.000000)">
			<polygon id="路径" class="st0" points="16,0 0,0 0,16 16,16 			"/>
			<g id="形状结合">
				<path id="path-1_1_" class="st1" d="M11,1c0.5,0,0.9,0.4,1,0.9L12,2v2c0,0.5-0.4,0.9-0.9,1L11,5H8.5v2h4c0.5,0,0.9,0.4,1,0.9
					l0,0.1v3H14c0.5,0,0.9,0.4,1,0.9l0,0.1v2c0,0.6-0.4,1-1,1l0,0h-2c-0.6,0-1-0.4-1-1l0,0v-2c0-0.6,0.4-1,1-1l0,0h0.5V8h-4v3H9
					c0.5,0,0.9,0.4,1,0.9l0,0.1v2c0,0.6-0.4,1-1,1l0,0H7c-0.6,0-1-0.4-1-1l0,0v-2c0-0.6,0.4-1,1-1l0,0h0.5V8h-4v3H4
					c0.5,0,0.9,0.4,1,0.9L5,12v2c0,0.5-0.4,0.9-0.9,1L4,15H2c-0.5,0-0.9-0.4-1-0.9L1,14v-2c0-0.5,0.4-0.9,0.9-1L2,11h0.5V8
					c0-0.5,0.4-0.9,0.9-1l0.1,0h4V5L5,5C4.5,5,4.1,4.6,4,4.1L4,4V2c0-0.5,0.4-0.9,0.9-1L5,1H11z M4,12H2v2h2V12z M9,12H7v2h2V12z
					 M14,12h-2v2h2V12z M5,2v2h6V2H5z"/>
			</g>
			<defs>
				<filter id="Adobe_OpacityMaskFilter" filterUnits="userSpaceOnUse" x="0" y="-16" width="16" height="16">
					<feColorMatrix  type="matrix" values="1 0 0 0 0  0 1 0 0 0  0 0 1 0 0  0 0 0 1 0"/>
				</filter>
			</defs>
			<mask maskUnits="userSpaceOnUse" x="0" y="-16" width="16" height="16" id="mask-2_1_">
				<g class="st2">
					<path id="path-1_2_" class="st3" d="M11,1c0.5,0,0.9,0.4,1,0.9L12,2v2c0,0.5-0.4,0.9-0.9,1L11,5H8.5v2h4c0.5,0,0.9,0.4,1,0.9
						l0,0.1v3H14c0.5,0,0.9,0.4,1,0.9l0,0.1v2c0,0.6-0.4,1-1,1l0,0h-2c-0.6,0-1-0.4-1-1l0,0v-2c0-0.6,0.4-1,1-1l0,0h0.5V8h-4v3H9
						c0.5,0,0.9,0.4,1,0.9l0,0.1v2c0,0.6-0.4,1-1,1l0,0H7c-0.6,0-1-0.4-1-1l0,0v-2c0-0.6,0.4-1,1-1l0,0h0.5V8h-4v3H4
						c0.5,0,0.9,0.4,1,0.9L5,12v2c0,0.5-0.4,0.9-0.9,1L4,15H2c-0.5,0-0.9-0.4-1-0.9L1,14v-2c0-0.5,0.4-0.9,0.9-1L2,11h0.5V8
						c0-0.5,0.4-0.9,0.9-1l0.1,0h4V5L5,5C4.5,5,4.1,4.6,4,4.1L4,4V2c0-0.5,0.4-0.9,0.9-1L5,1H11z M4,12H2v2h2V12z M9,12H7v2h2V12z
						 M14,12h-2v2h2V12z M5,2v2h6V2H5z"/>
				</g>
			</mask>
			<polygon id="路径_1_" class="st4" points="16,0 0,0 0,16 16,16 			"/>
		</g>
	</g>
</g>
</svg>
