<?xml version="1.0" encoding="utf-8"?>
<!-- Generator: Adobe Illustrator 24.0.1, SVG Export Plug-In . SVG Version: 6.00 Build 0)  -->
<svg version="1.1" id="图层_1" xmlns="http://www.w3.org/2000/svg" xmlns:xlink="http://www.w3.org/1999/xlink" x="0px" y="0px"
	 viewBox="0 0 16 16" style="enable-background:new 0 0 16 16;" xml:space="preserve">
<style type="text/css">
	.st0{fill:none;}
	.st1{fill-rule:evenodd;clip-rule:evenodd;fill:#707070;}
</style>
<title>model</title>
<g id="工作流_x2F_工作流实例">
	<g id="画板" transform="translate(-97.000000, -117.000000)">
		<g id="model" transform="translate(97.000000, 117.000000)">
			<rect id="矩形" class="st0" width="16" height="16"/>
			<g id="蒙版">
				<path id="path-1_1_" class="st1" d="M7.7,0.1C7.9,0,8.1,0,8.3,0.1l6.4,3.5C14.9,3.7,15,3.8,15,4v7c0,0.2-0.1,0.4-0.3,0.5
					l-6.4,3.5c-0.2,0.1-0.4,0.1-0.6,0l-6.4-3.5C1.1,11.4,1,11.2,1,11V4c0-0.2,0.1-0.4,0.3-0.5L7.7,0.1z M8,1L2,4.2v6.5L8,14l6-3.2
					V4.3L8,1z M11.6,5c0.2-0.1,0.5-0.1,0.7,0.2c0.1,0.2,0.1,0.5-0.2,0.6L8.5,7.8v3.9c0,0.3-0.2,0.5-0.5,0.5c-0.3,0-0.5-0.2-0.5-0.5
					V7.8l-3.6-2C3.7,5.7,3.6,5.4,3.7,5.2c0,0,0,0,0,0C3.9,5,4.2,4.9,4.4,5L8,7L11.6,5z"/>
			</g>
		</g>
	</g>
</g>
</svg>
