<svg t="1670848990886" class="icon" viewBox="0 0 1024 1024" version="1.1" xmlns="http://www.w3.org/2000/svg" p-id="30017">
	<path d="M730.73268 37.779963V106.262463h-214.992726a32.01253 32.01253 0 0 0-32.012529 32.012529v350.652011H293.048012V420.444503a32.01253 32.01253 0 0 0-32.01253-32.012529H69.095379A32.01253 32.01253 0 0 0 37.08285 420.444503V612.339582a32.01253 32.01253 0 0 0 32.012529 27.510064h191.940103a32.01253 32.01253 0 0 0 32.01253-32.01253v-68.39245h190.724437V891.492441a32.01253 32.01253 0 0 0 32.01253 32.01253h214.992726v68.482499a32.01253 32.01253 0 0 0 32.01253 32.01253h191.985127a32.01253 32.01253 0 0 0 32.01253-32.01253v-192.075177a32.01253 32.01253 0 0 0-32.01253-32.012529h-192.030152a32.01253 32.01253 0 0 0-32.01253 32.012529v68.4825h-191.985127v-328.950127h191.985127V607.837116a32.01253 32.01253 0 0 0 32.01253 32.01253h191.985128a32.01253 32.01253 0 0 0 32.012529-32.01253V415.942038a32.01253 32.01253 0 0 0-32.012529-32.01253h-191.985128a32.01253 32.01253 0 0 0-32.01253 32.01253v72.984965h-191.985127V155.47441h191.985127v68.4825a32.01253 32.01253 0 0 0 32.01253 32.01253h191.985128a32.01253 32.01253 0 0 0 32.012529-32.01253V32.016807A32.01253 32.01253 0 0 0 954.730338 0.004277h-191.985128a32.01253 32.01253 0 0 0-32.01253 37.775686zM92.057953 584.919567V438.949636h146.014955v145.969931z m839.664786 237.9553v145.969931h-146.014955v-145.969931z m0-383.925231v145.969931h-146.014955V438.949636z m0-383.925231v145.969931h-146.014955V54.979381z" p-id="30018" fill="#616161"></path>
</svg>