<?xml version="1.0" encoding="utf-8"?>
<!-- Generator: Adobe Illustrator 24.0.1, SVG Export Plug-In . SVG Version: 6.00 Build 0)  -->
<svg version="1.1" id="图层_1" xmlns="http://www.w3.org/2000/svg" xmlns:xlink="http://www.w3.org/1999/xlink" x="0px" y="0px"
	 viewBox="0 0 16 16" style="enable-background:new 0 0 16 16;" xml:space="preserve">
<style type="text/css">
	.st0{fill:none;}
	.st1{fill:#979797;}
	.st2{filter:url(#Adobe_OpacityMaskFilter);}
	.st3{fill-rule:evenodd;clip-rule:evenodd;fill:#FFFFFF;}
	.st4{mask:url(#mask-2_1_);fill-rule:evenodd;clip-rule:evenodd;fill:#707070;}
</style>
<title>S3</title>
<g id="工作流_x2F_工作流实例">
	<g id="画板" transform="translate(-342.000000, -437.000000)">
		<g id="S3" transform="translate(342.000000, 437.000000)">
			<rect id="矩形" class="st0" width="16" height="16"/>
			<g id="形状结合">
				<path id="path-1_1_" class="st1" d="M12.5,1C13.3,1,14,1.7,14,2.5l0,0v11c0,0.8-0.7,1.5-1.5,1.5l0,0h-9C2.7,15,2,14.3,2,13.5
					l0,0v-11C2,1.7,2.7,1,3.5,1l0,0H12.5z M4,2H3.5C3.2,2,3,2.2,3,2.5l0,0v11C3,13.8,3.2,14,3.5,14l0,0h9c0.3,0,0.5-0.2,0.5-0.5l0,0
					v-11C13,2.2,12.8,2,12.5,2l0,0H12v3.5c0,0.8-0.6,1.4-1.4,1.5l-0.1,0h-5C4.7,7,4,6.3,4,5.5l0,0V2z M11,2H5v3.5C5,5.7,5.3,6,5.5,6
					l0,0h5C10.8,6,11,5.8,11,5.5l0,0V2z M9.5,3C9.8,3,10,3.2,10,3.5v1C10,4.8,9.8,5,9.5,5S9,4.8,9,4.5v-1C9,3.2,9.2,3,9.5,3z"/>
			</g>
			<defs>
				<filter id="Adobe_OpacityMaskFilter" filterUnits="userSpaceOnUse" x="0" y="0" width="16" height="16">
					<feColorMatrix  type="matrix" values="1 0 0 0 0  0 1 0 0 0  0 0 1 0 0  0 0 0 1 0"/>
				</filter>
			</defs>
			<mask maskUnits="userSpaceOnUse" x="0" y="0" width="16" height="16" id="mask-2_1_">
				<g class="st2">
					<path id="path-1_2_" class="st3" d="M12.5,1C13.3,1,14,1.7,14,2.5l0,0v11c0,0.8-0.7,1.5-1.5,1.5l0,0h-9C2.7,15,2,14.3,2,13.5
						l0,0v-11C2,1.7,2.7,1,3.5,1l0,0H12.5z M4,2H3.5C3.2,2,3,2.2,3,2.5l0,0v11C3,13.8,3.2,14,3.5,14l0,0h9c0.3,0,0.5-0.2,0.5-0.5
						l0,0v-11C13,2.2,12.8,2,12.5,2l0,0H12v3.5c0,0.8-0.6,1.4-1.4,1.5l-0.1,0h-5C4.7,7,4,6.3,4,5.5l0,0V2z M11,2H5v3.5
						C5,5.7,5.3,6,5.5,6l0,0h5C10.8,6,11,5.8,11,5.5l0,0V2z M9.5,3C9.8,3,10,3.2,10,3.5v1C10,4.8,9.8,5,9.5,5S9,4.8,9,4.5v-1
						C9,3.2,9.2,3,9.5,3z"/>
				</g>
			</mask>
			<rect id="矩形备份-11" class="st4" width="16" height="16"/>
		</g>
	</g>
</g>
</svg>
