<?xml version="1.0" encoding="utf-8"?>
<!-- Generator: Adobe Illustrator 24.0.1, SVG Export Plug-In . SVG Version: 6.00 Build 0)  -->
<svg version="1.1" id="图层_1" xmlns="http://www.w3.org/2000/svg" xmlns:xlink="http://www.w3.org/1999/xlink" x="0px" y="0px"
	 viewBox="0 0 16 16" style="enable-background:new 0 0 16 16;" xml:space="preserve">
<style type="text/css">
	.st0{fill:none;}
	.st1{fill:#979797;}
	.st2{filter:url(#Adobe_OpacityMaskFilter);}
	.st3{fill-rule:evenodd;clip-rule:evenodd;fill:#FFFFFF;}
	.st4{mask:url(#mask-2_1_);fill-rule:evenodd;clip-rule:evenodd;fill:#707070;}
</style>
<title>actions</title>
<g id="工作流_x2F_工作流实例">
	<g id="画板" transform="translate(-154.000000, -213.000000)">
		<g id="actions" transform="translate(154.000000, 213.000000)">
			<rect id="矩形" class="st0" width="16" height="16"/>
			<g id="形状结合">
				<path id="path-1_1_" class="st1" d="M5.6,2c0.1,0,0.3,0.1,0.4,0.1L6,2.2L6.5,3l6,0c0.2,0,0.3,0.1,0.4,0.2l0,0.1L13.8,5
					c0.6,0.1,1,0.6,1.1,1.2l0,0.1l0,0.1v6c0,0.8-0.6,1.4-1.4,1.5l-0.1,0h-11c-0.8,0-1.4-0.6-1.5-1.4l0-0.1v-9C1,2.7,1.6,2.1,2.4,2
					l0.1,0H5.6z M5.3,3H2.5C2.3,3,2.1,3.2,2,3.4l0,0.1v9c0,0.2,0.2,0.4,0.4,0.5l0.1,0h11c0.2,0,0.4-0.2,0.5-0.4l0-0.1l0-1.9
					c0,0.1-0.1,0.2-0.2,0.3C13.7,11,13.5,11,13.3,11c-0.2,0-0.4,0-0.5-0.1c-0.1-0.1-0.2-0.2-0.3-0.3l0.4-0.2c0,0.1,0.1,0.2,0.2,0.2
					c0.1,0,0.2,0.1,0.3,0.1c0.1,0,0.1,0,0.2,0s0.1-0.1,0.1-0.1c0-0.1,0-0.1-0.1-0.1s-0.1-0.1-0.3-0.1c-0.1,0-0.2-0.1-0.3-0.1
					c-0.1,0-0.1-0.1-0.2-0.2c-0.1-0.1-0.1-0.2-0.1-0.3c0-0.1,0-0.2,0.1-0.3c0.1-0.1,0.2-0.2,0.3-0.2c0.1,0,0.2-0.1,0.4-0.1
					c0.2,0,0.3,0,0.5,0.1C13.9,9.3,14,9.4,14,9.6l-0.4,0.2c-0.1-0.2-0.2-0.2-0.4-0.2c-0.1,0-0.1,0-0.2,0c0,0-0.1,0.1-0.1,0.1
					c0,0.1,0,0.1,0.1,0.1c0.1,0,0.1,0.1,0.3,0.1c0.1,0,0.2,0.1,0.3,0.1c0.1,0,0.2,0.1,0.2,0.2c0,0,0.1,0.1,0.1,0.2l0-3.8
					c0-0.2-0.2-0.4-0.4-0.5l-0.1,0h-6L7.5,6c0,0,0,0,0,0c0,0,0,0-0.1,0c0,0,0,0,0,0c0,0,0,0-0.1,0l0,0l0,0c0,0,0,0,0,0l0,0l0-0.1
					l0,0l0,0l0,0l0,0l0,0l0,0L5.3,3z M5.4,9.1c0.2,0,0.3,0,0.4,0.1C6,9.3,6.1,9.4,6.1,9.6L5.8,9.8C5.7,9.6,5.6,9.6,5.4,9.6
					c-0.1,0-0.2,0-0.3,0.1C5.1,9.8,5,9.9,5,10.1c0,0.2,0,0.3,0.1,0.4c0.1,0.1,0.2,0.1,0.3,0.1c0.1,0,0.3-0.1,0.3-0.2l0.4,0.2
					c-0.1,0.1-0.2,0.2-0.3,0.3C5.7,11,5.6,11,5.4,11c-0.2,0-0.3,0-0.5-0.1c-0.1-0.1-0.3-0.2-0.3-0.3c-0.1-0.1-0.1-0.3-0.1-0.5
					c0-0.2,0-0.4,0.1-0.5C4.7,9.4,4.8,9.3,5,9.3C5.1,9.2,5.3,9.1,5.4,9.1z M9.5,9.1c0.2,0,0.3,0,0.5,0.1s0.3,0.2,0.3,0.3
					c0.1,0.1,0.1,0.3,0.1,0.5s0,0.4-0.1,0.5c-0.1,0.1-0.2,0.3-0.3,0.3C9.8,11,9.6,11,9.5,11c-0.2,0-0.3,0-0.5-0.1
					c-0.1-0.1-0.3-0.2-0.3-0.3c-0.1-0.1-0.1-0.3-0.1-0.5s0-0.4,0.1-0.5C8.7,9.4,8.8,9.3,9,9.3S9.3,9.1,9.5,9.1z M7,8.6v0.6h0.5v0.4
					H7v0.7c0,0.1,0,0.2,0.1,0.3s0.1,0.1,0.2,0.1c0.1,0,0.2,0,0.2-0.1l0.2,0.4C7.5,11,7.4,11,7.1,11c-0.2,0-0.4-0.1-0.5-0.2
					c-0.1-0.1-0.2-0.3-0.2-0.6V9.6H6.2V9.2h0.3V8.6H7z M3.5,8.4l1,2.6H4l-0.2-0.6h-1L2.5,11H2l1-2.6H3.5z M8.3,9.2V11H7.8V9.2H8.3z
					 M11.7,9.1c0.2,0,0.4,0.1,0.5,0.2c0.1,0.1,0.2,0.3,0.2,0.6V11h-0.5v-0.9c0-0.3-0.1-0.5-0.3-0.5c-0.1,0-0.2,0-0.3,0.1
					c-0.1,0.1-0.1,0.2-0.1,0.4V11h-0.5V9.2h0.4c0,0.1,0,0.2,0,0.3C11.2,9.3,11.4,9.1,11.7,9.1z M9.4,9.6c-0.1,0-0.2,0-0.3,0.1
					C9.1,9.8,9,9.9,9,10.1s0,0.3,0.1,0.4c0.1,0.1,0.2,0.1,0.3,0.1s0.2,0,0.3-0.1c0.1-0.1,0.1-0.2,0.1-0.4s0-0.3-0.1-0.4
					S9.6,9.6,9.4,9.6z M3.2,9.1L2.9,10h0.7L3.2,9.1z M8,8.4c0.1,0,0.1,0,0.2,0.1c0.1,0.1,0.1,0.1,0.1,0.2s0,0.1-0.1,0.2
					C8.2,8.9,8.1,9,8,9c-0.1,0-0.1,0-0.2-0.1C7.8,8.8,7.7,8.7,7.7,8.7c0-0.1,0-0.2,0.1-0.2C7.9,8.4,7.9,8.4,8,8.4z M12.2,4h-5l0.6,1
					h4.9L12.2,4z"/>
			</g>
			<defs>
				<filter id="Adobe_OpacityMaskFilter" filterUnits="userSpaceOnUse" x="0" y="0" width="16" height="16">
					<feColorMatrix  type="matrix" values="1 0 0 0 0  0 1 0 0 0  0 0 1 0 0  0 0 0 1 0"/>
				</filter>
			</defs>
			<mask maskUnits="userSpaceOnUse" x="0" y="0" width="16" height="16" id="mask-2_1_">
				<g class="st2">
					<path id="path-1_2_" class="st3" d="M5.6,2c0.1,0,0.3,0.1,0.4,0.1L6,2.2L6.5,3l6,0c0.2,0,0.3,0.1,0.4,0.2l0,0.1L13.8,5
						c0.6,0.1,1,0.6,1.1,1.2l0,0.1l0,0.1v6c0,0.8-0.6,1.4-1.4,1.5l-0.1,0h-11c-0.8,0-1.4-0.6-1.5-1.4l0-0.1v-9C1,2.7,1.6,2.1,2.4,2
						l0.1,0H5.6z M5.3,3H2.5C2.3,3,2.1,3.2,2,3.4l0,0.1v9c0,0.2,0.2,0.4,0.4,0.5l0.1,0h11c0.2,0,0.4-0.2,0.5-0.4l0-0.1l0-1.9
						c0,0.1-0.1,0.2-0.2,0.3C13.7,11,13.5,11,13.3,11c-0.2,0-0.4,0-0.5-0.1c-0.1-0.1-0.2-0.2-0.3-0.3l0.4-0.2c0,0.1,0.1,0.2,0.2,0.2
						c0.1,0,0.2,0.1,0.3,0.1c0.1,0,0.1,0,0.2,0s0.1-0.1,0.1-0.1c0-0.1,0-0.1-0.1-0.1s-0.1-0.1-0.3-0.1c-0.1,0-0.2-0.1-0.3-0.1
						c-0.1,0-0.1-0.1-0.2-0.2c-0.1-0.1-0.1-0.2-0.1-0.3c0-0.1,0-0.2,0.1-0.3c0.1-0.1,0.2-0.2,0.3-0.2c0.1,0,0.2-0.1,0.4-0.1
						c0.2,0,0.3,0,0.5,0.1C13.9,9.3,14,9.4,14,9.6l-0.4,0.2c-0.1-0.2-0.2-0.2-0.4-0.2c-0.1,0-0.1,0-0.2,0c0,0-0.1,0.1-0.1,0.1
						c0,0.1,0,0.1,0.1,0.1c0.1,0,0.1,0.1,0.3,0.1c0.1,0,0.2,0.1,0.3,0.1c0.1,0,0.2,0.1,0.2,0.2c0,0,0.1,0.1,0.1,0.2l0-3.8
						c0-0.2-0.2-0.4-0.4-0.5l-0.1,0h-6L7.5,6c0,0,0,0,0,0c0,0,0,0-0.1,0c0,0,0,0,0,0c0,0,0,0-0.1,0l0,0l0,0c0,0,0,0,0,0l0,0l0-0.1
						l0,0l0,0l0,0l0,0l0,0l0,0L5.3,3z M5.4,9.1c0.2,0,0.3,0,0.4,0.1C6,9.3,6.1,9.4,6.1,9.6L5.8,9.8C5.7,9.6,5.6,9.6,5.4,9.6
						c-0.1,0-0.2,0-0.3,0.1C5.1,9.8,5,9.9,5,10.1c0,0.2,0,0.3,0.1,0.4c0.1,0.1,0.2,0.1,0.3,0.1c0.1,0,0.3-0.1,0.3-0.2l0.4,0.2
						c-0.1,0.1-0.2,0.2-0.3,0.3C5.7,11,5.6,11,5.4,11c-0.2,0-0.3,0-0.5-0.1c-0.1-0.1-0.3-0.2-0.3-0.3c-0.1-0.1-0.1-0.3-0.1-0.5
						c0-0.2,0-0.4,0.1-0.5C4.7,9.4,4.8,9.3,5,9.3C5.1,9.2,5.3,9.1,5.4,9.1z M9.5,9.1c0.2,0,0.3,0,0.5,0.1s0.3,0.2,0.3,0.3
						c0.1,0.1,0.1,0.3,0.1,0.5s0,0.4-0.1,0.5c-0.1,0.1-0.2,0.3-0.3,0.3C9.8,11,9.6,11,9.5,11c-0.2,0-0.3,0-0.5-0.1
						c-0.1-0.1-0.3-0.2-0.3-0.3c-0.1-0.1-0.1-0.3-0.1-0.5s0-0.4,0.1-0.5C8.7,9.4,8.8,9.3,9,9.3S9.3,9.1,9.5,9.1z M7,8.6v0.6h0.5v0.4
						H7v0.7c0,0.1,0,0.2,0.1,0.3s0.1,0.1,0.2,0.1c0.1,0,0.2,0,0.2-0.1l0.2,0.4C7.5,11,7.4,11,7.1,11c-0.2,0-0.4-0.1-0.5-0.2
						c-0.1-0.1-0.2-0.3-0.2-0.6V9.6H6.2V9.2h0.3V8.6H7z M3.5,8.4l1,2.6H4l-0.2-0.6h-1L2.5,11H2l1-2.6H3.5z M8.3,9.2V11H7.8V9.2H8.3z
						 M11.7,9.1c0.2,0,0.4,0.1,0.5,0.2c0.1,0.1,0.2,0.3,0.2,0.6V11h-0.5v-0.9c0-0.3-0.1-0.5-0.3-0.5c-0.1,0-0.2,0-0.3,0.1
						c-0.1,0.1-0.1,0.2-0.1,0.4V11h-0.5V9.2h0.4c0,0.1,0,0.2,0,0.3C11.2,9.3,11.4,9.1,11.7,9.1z M9.4,9.6c-0.1,0-0.2,0-0.3,0.1
						C9.1,9.8,9,9.9,9,10.1s0,0.3,0.1,0.4c0.1,0.1,0.2,0.1,0.3,0.1s0.2,0,0.3-0.1c0.1-0.1,0.1-0.2,0.1-0.4s0-0.3-0.1-0.4
						S9.6,9.6,9.4,9.6z M3.2,9.1L2.9,10h0.7L3.2,9.1z M8,8.4c0.1,0,0.1,0,0.2,0.1c0.1,0.1,0.1,0.1,0.1,0.2s0,0.1-0.1,0.2
						C8.2,8.9,8.1,9,8,9c-0.1,0-0.1,0-0.2-0.1C7.8,8.8,7.7,8.7,7.7,8.7c0-0.1,0-0.2,0.1-0.2C7.9,8.4,7.9,8.4,8,8.4z M12.2,4h-5
						l0.6,1h4.9L12.2,4z"/>
				</g>
			</mask>
			<rect id="矩形_1_" class="st4" width="16" height="16"/>
		</g>
	</g>
</g>
</svg>
