<?xml version="1.0" encoding="utf-8"?>
<!-- Generator: Adobe Illustrator 24.0.1, SVG Export Plug-In . SVG Version: 6.00 Build 0)  -->
<svg version="1.1" id="图层_1" xmlns="http://www.w3.org/2000/svg" xmlns:xlink="http://www.w3.org/1999/xlink" x="0px" y="0px"
	 viewBox="0 0 16 16" style="enable-background:new 0 0 16 16;" xml:space="preserve">
<style type="text/css">
	.st0{fill:none;}
	.st1{fill:#979797;}
	.st2{filter:url(#Adobe_OpacityMaskFilter);}
	.st3{fill-rule:evenodd;clip-rule:evenodd;fill:#FFFFFF;}
	.st4{mask:url(#mask-2_1_);fill-rule:evenodd;clip-rule:evenodd;fill:#707070;}
</style>
<title>event</title>
<g id="工作流_x2F_工作流实例">
	<g id="画板" transform="translate(-149.000000, -84.000000)">
		<g id="event" transform="translate(149.000000, 84.000000)">
			<rect id="矩形" class="st0" width="16" height="16"/>
			<g id="形状结合">
				<path id="path-1_1_" class="st1" d="M5.6,2c0.1,0,0.3,0.1,0.4,0.1L6,2.2L6.5,3l6,0c0.2,0,0.3,0.1,0.4,0.2l0,0.1L13.8,5
					c0.6,0.1,1,0.6,1.1,1.2l0,0.1l0,0.1v6c0,0.8-0.6,1.4-1.4,1.5l-0.1,0h-11c-0.8,0-1.4-0.6-1.5-1.4l0-0.1v-9C1,2.7,1.6,2.1,2.4,2
					l0.1,0H5.6z M5.3,3H2.5C2.3,3,2.1,3.2,2,3.4l0,0.1v9c0,0.2,0.2,0.4,0.4,0.5l0.1,0h11c0.2,0,0.4-0.2,0.5-0.4l0-0.1v-6
					c0-0.2-0.2-0.4-0.4-0.5l-0.1,0h-6L7.5,6c0,0,0,0,0,0c0,0,0,0-0.1,0c0,0,0,0,0,0c0,0,0,0-0.1,0l0,0l0,0c0,0,0,0,0,0l0,0l0-0.1
					l0,0l0,0l0,0l0,0l0,0l0,0L5.3,3z M11.3,8.6v0.6h0.5v0.4h-0.5v0.7c0,0.1,0,0.2,0.1,0.3s0.1,0.1,0.2,0.1c0.1,0,0.2,0,0.2-0.1
					l0.2,0.4C11.8,11,11.7,11,11.5,11c-0.2,0-0.4-0.1-0.5-0.2c-0.1-0.1-0.2-0.3-0.2-0.6V9.6h-0.3V9.2h0.3V8.6H11.3z M7.4,9.1
					c0.2,0,0.3,0,0.4,0.1C8,9.3,8.1,9.4,8.2,9.5C8.2,9.7,8.3,9.8,8.3,10c0,0.1,0,0.2,0,0.2H7c0,0.1,0.1,0.2,0.1,0.3
					c0.1,0.1,0.2,0.1,0.3,0.1c0.1,0,0.2,0,0.2-0.1c0.1,0,0.1-0.1,0.1-0.2l0.4,0.2c0,0.1-0.1,0.2-0.3,0.3S7.6,11,7.5,11
					c-0.2,0-0.3,0-0.5-0.1c-0.1-0.1-0.3-0.2-0.3-0.3c-0.1-0.1-0.1-0.3-0.1-0.5c0-0.2,0-0.4,0.1-0.5C6.7,9.4,6.9,9.3,7,9.2
					C7.1,9.2,7.3,9.1,7.4,9.1z M12.8,9.1c0.2,0,0.3,0,0.5,0.1s0.2,0.2,0.2,0.3l-0.4,0.2c-0.1-0.2-0.2-0.2-0.4-0.2
					c-0.1,0-0.1,0-0.2,0c0,0-0.1,0.1-0.1,0.1c0,0.1,0,0.1,0.1,0.1c0.1,0,0.1,0.1,0.3,0.1c0.1,0,0.2,0.1,0.3,0.1
					c0.1,0,0.2,0.1,0.2,0.2c0.1,0.1,0.1,0.2,0.1,0.3c0,0.2-0.1,0.3-0.2,0.4C13.2,11,13,11,12.8,11c-0.2,0-0.4,0-0.5-0.1
					c-0.1-0.1-0.2-0.2-0.3-0.3l0.4-0.2c0,0.1,0.1,0.2,0.2,0.2c0.1,0,0.2,0.1,0.3,0.1c0.1,0,0.1,0,0.2,0c0,0,0.1-0.1,0.1-0.1
					c0-0.1,0-0.1-0.1-0.1c-0.1,0-0.1-0.1-0.3-0.1c-0.1,0-0.2-0.1-0.3-0.1s-0.1-0.1-0.2-0.2c-0.1-0.1-0.1-0.2-0.1-0.3
					c0-0.1,0-0.2,0.1-0.3c0.1-0.1,0.2-0.2,0.3-0.2C12.6,9.2,12.7,9.1,12.8,9.1z M4.2,8.4v0.4H3.1v0.6h1v0.4h-1v0.6h1.2V11H2.6V8.4
					H4.2z M9.6,9.1c0.2,0,0.4,0.1,0.5,0.2c0.1,0.1,0.2,0.3,0.2,0.6V11H9.8v-0.9c0-0.3-0.1-0.5-0.3-0.5c-0.1,0-0.2,0-0.3,0.1
					c-0.1,0.1-0.1,0.2-0.1,0.4V11H8.6V9.2H9c0,0.1,0,0.2,0,0.3C9.2,9.3,9.4,9.1,9.6,9.1z M5,9.2l0.5,1.2l0.4-1.2h0.5L5.6,11H5.2
					L4.4,9.2H5z M7.4,9.5c-0.1,0-0.2,0-0.2,0.1C7.1,9.7,7.1,9.8,7,9.9h0.7c0-0.1,0-0.2-0.1-0.3C7.6,9.6,7.5,9.5,7.4,9.5z M12.2,4h-5
					l0.6,1h4.9L12.2,4z"/>
			</g>
			<defs>
				<filter id="Adobe_OpacityMaskFilter" filterUnits="userSpaceOnUse" x="0" y="0" width="16" height="16">
					<feColorMatrix  type="matrix" values="1 0 0 0 0  0 1 0 0 0  0 0 1 0 0  0 0 0 1 0"/>
				</filter>
			</defs>
			<mask maskUnits="userSpaceOnUse" x="0" y="0" width="16" height="16" id="mask-2_1_">
				<g class="st2">
					<path id="path-1_2_" class="st3" d="M5.6,2c0.1,0,0.3,0.1,0.4,0.1L6,2.2L6.5,3l6,0c0.2,0,0.3,0.1,0.4,0.2l0,0.1L13.8,5
						c0.6,0.1,1,0.6,1.1,1.2l0,0.1l0,0.1v6c0,0.8-0.6,1.4-1.4,1.5l-0.1,0h-11c-0.8,0-1.4-0.6-1.5-1.4l0-0.1v-9C1,2.7,1.6,2.1,2.4,2
						l0.1,0H5.6z M5.3,3H2.5C2.3,3,2.1,3.2,2,3.4l0,0.1v9c0,0.2,0.2,0.4,0.4,0.5l0.1,0h11c0.2,0,0.4-0.2,0.5-0.4l0-0.1v-6
						c0-0.2-0.2-0.4-0.4-0.5l-0.1,0h-6L7.5,6c0,0,0,0,0,0c0,0,0,0-0.1,0c0,0,0,0,0,0c0,0,0,0-0.1,0l0,0l0,0c0,0,0,0,0,0l0,0l0-0.1
						l0,0l0,0l0,0l0,0l0,0l0,0L5.3,3z M11.3,8.6v0.6h0.5v0.4h-0.5v0.7c0,0.1,0,0.2,0.1,0.3s0.1,0.1,0.2,0.1c0.1,0,0.2,0,0.2-0.1
						l0.2,0.4C11.8,11,11.7,11,11.5,11c-0.2,0-0.4-0.1-0.5-0.2c-0.1-0.1-0.2-0.3-0.2-0.6V9.6h-0.3V9.2h0.3V8.6H11.3z M7.4,9.1
						c0.2,0,0.3,0,0.4,0.1C8,9.3,8.1,9.4,8.2,9.5C8.2,9.7,8.3,9.8,8.3,10c0,0.1,0,0.2,0,0.2H7c0,0.1,0.1,0.2,0.1,0.3
						c0.1,0.1,0.2,0.1,0.3,0.1c0.1,0,0.2,0,0.2-0.1c0.1,0,0.1-0.1,0.1-0.2l0.4,0.2c0,0.1-0.1,0.2-0.3,0.3S7.6,11,7.5,11
						c-0.2,0-0.3,0-0.5-0.1c-0.1-0.1-0.3-0.2-0.3-0.3c-0.1-0.1-0.1-0.3-0.1-0.5c0-0.2,0-0.4,0.1-0.5C6.7,9.4,6.9,9.3,7,9.2
						C7.1,9.2,7.3,9.1,7.4,9.1z M12.8,9.1c0.2,0,0.3,0,0.5,0.1s0.2,0.2,0.2,0.3l-0.4,0.2c-0.1-0.2-0.2-0.2-0.4-0.2
						c-0.1,0-0.1,0-0.2,0c0,0-0.1,0.1-0.1,0.1c0,0.1,0,0.1,0.1,0.1c0.1,0,0.1,0.1,0.3,0.1c0.1,0,0.2,0.1,0.3,0.1
						c0.1,0,0.2,0.1,0.2,0.2c0.1,0.1,0.1,0.2,0.1,0.3c0,0.2-0.1,0.3-0.2,0.4C13.2,11,13,11,12.8,11c-0.2,0-0.4,0-0.5-0.1
						c-0.1-0.1-0.2-0.2-0.3-0.3l0.4-0.2c0,0.1,0.1,0.2,0.2,0.2c0.1,0,0.2,0.1,0.3,0.1c0.1,0,0.1,0,0.2,0c0,0,0.1-0.1,0.1-0.1
						c0-0.1,0-0.1-0.1-0.1c-0.1,0-0.1-0.1-0.3-0.1c-0.1,0-0.2-0.1-0.3-0.1s-0.1-0.1-0.2-0.2c-0.1-0.1-0.1-0.2-0.1-0.3
						c0-0.1,0-0.2,0.1-0.3c0.1-0.1,0.2-0.2,0.3-0.2C12.6,9.2,12.7,9.1,12.8,9.1z M4.2,8.4v0.4H3.1v0.6h1v0.4h-1v0.6h1.2V11H2.6V8.4
						H4.2z M9.6,9.1c0.2,0,0.4,0.1,0.5,0.2c0.1,0.1,0.2,0.3,0.2,0.6V11H9.8v-0.9c0-0.3-0.1-0.5-0.3-0.5c-0.1,0-0.2,0-0.3,0.1
						c-0.1,0.1-0.1,0.2-0.1,0.4V11H8.6V9.2H9c0,0.1,0,0.2,0,0.3C9.2,9.3,9.4,9.1,9.6,9.1z M5,9.2l0.5,1.2l0.4-1.2h0.5L5.6,11H5.2
						L4.4,9.2H5z M7.4,9.5c-0.1,0-0.2,0-0.2,0.1C7.1,9.7,7.1,9.8,7,9.9h0.7c0-0.1,0-0.2-0.1-0.3C7.6,9.6,7.5,9.5,7.4,9.5z M12.2,4
						h-5l0.6,1h4.9L12.2,4z"/>
				</g>
			</mask>
			<rect id="矩形_1_" class="st4" width="16" height="16"/>
		</g>
	</g>
</g>
</svg>
