<?xml version="1.0" encoding="utf-8"?>
<!-- Generator: Adobe Illustrator 24.0.1, SVG Export Plug-In . SVG Version: 6.00 Build 0)  -->
<svg version="1.1" id="图层_1" xmlns="http://www.w3.org/2000/svg" xmlns:xlink="http://www.w3.org/1999/xlink" x="0px" y="0px"
	 viewBox="0 0 16 16" style="enable-background:new 0 0 16 16;" xml:space="preserve">
<style type="text/css">
	.st0{fill:none;}
	.st1{fill:#979797;}
	.st2{filter:url(#Adobe_OpacityMaskFilter);}
	.st3{fill-rule:evenodd;clip-rule:evenodd;fill:#FFFFFF;}
	.st4{mask:url(#mask-2_1_);fill-rule:evenodd;clip-rule:evenodd;fill:#707070;}
</style>
<title>logic</title>
<g id="工作流_x2F_工作流实例">
	<g id="画板" transform="translate(-157.000000, -309.000000)">
		<g id="logic" transform="translate(157.000000, 309.000000)">
			<rect id="矩形" class="st0" width="16" height="16"/>
			<g id="形状结合">
				<path id="path-1_1_" class="st1" d="M5.6,2c0.1,0,0.3,0.1,0.4,0.1L6,2.2L6.5,3l6,0c0.2,0,0.3,0.1,0.4,0.2l0,0.1L13.8,5
					c0.6,0.1,1,0.6,1.1,1.2l0,0.1l0,0.1v6c0,0.8-0.6,1.4-1.4,1.5l-0.1,0h-11c-0.8,0-1.4-0.6-1.5-1.4l0-0.1v-9C1,2.7,1.6,2.1,2.4,2
					l0.1,0H5.6z M5.3,3H2.5C2.3,3,2.1,3.2,2,3.4l0,0.1v9c0,0.2,0.2,0.4,0.4,0.5l0.1,0h11c0.2,0,0.4-0.2,0.5-0.4l0-0.1v-6
					c0-0.2-0.2-0.4-0.4-0.5l-0.1,0h-6L7.5,6c0,0,0,0,0,0c0,0,0,0-0.1,0c0,0,0,0,0,0c0,0,0,0-0.1,0l0,0l0,0c0,0,0,0,0,0l0,0l0-0.1
					l0,0l0,0l0,0l0,0l0,0l0,0L5.3,3z M8.8,8.6c0.2,0,0.3,0,0.4,0.1S9.4,8.9,9.5,9c0-0.1,0-0.2,0-0.3h0.5v2.1c0,0.5-0.1,0.8-0.4,1
					c-0.2,0.2-0.5,0.3-0.9,0.3c-0.3,0-0.5-0.1-0.7-0.2c-0.2-0.1-0.3-0.3-0.4-0.4l0.5-0.3c0.1,0.2,0.3,0.3,0.6,0.3
					c0.2,0,0.4-0.1,0.5-0.2c0.1-0.1,0.1-0.3,0.1-0.6c-0.2,0.2-0.4,0.3-0.7,0.3c-0.2,0-0.4,0-0.5-0.1s-0.3-0.2-0.4-0.4
					c-0.1-0.2-0.2-0.4-0.2-0.7c0-0.3,0.1-0.5,0.2-0.7C7.9,9,8.1,8.9,8.2,8.8S8.6,8.6,8.8,8.6z M6.3,8.6c0.2,0,0.4,0.1,0.6,0.2
					C7.1,8.9,7.2,9,7.3,9.2s0.2,0.4,0.2,0.6s-0.1,0.5-0.2,0.6s-0.3,0.3-0.4,0.4s-0.4,0.1-0.6,0.1c-0.2,0-0.4,0-0.6-0.1
					c-0.2-0.1-0.3-0.2-0.4-0.4s-0.2-0.4-0.2-0.6s0.1-0.5,0.2-0.6s0.3-0.3,0.4-0.4C5.9,8.7,6.1,8.6,6.3,8.6z M12.7,8.6
					c0.2,0,0.4,0,0.6,0.1c0.2,0.1,0.3,0.2,0.4,0.4l-0.5,0.3c-0.1-0.2-0.2-0.3-0.4-0.3c-0.2,0-0.3,0.1-0.4,0.2
					c-0.1,0.1-0.1,0.3-0.1,0.5c0,0.2,0,0.4,0.1,0.5s0.2,0.2,0.4,0.2c0.2,0,0.3-0.1,0.4-0.3l0.5,0.3c-0.1,0.2-0.2,0.3-0.4,0.4
					c-0.2,0.1-0.3,0.1-0.6,0.1c-0.2,0-0.4,0-0.6-0.1c-0.2-0.1-0.3-0.2-0.4-0.4c-0.1-0.2-0.2-0.4-0.2-0.7c0-0.3,0.1-0.5,0.2-0.7
					c0.1-0.2,0.3-0.3,0.4-0.4C12.3,8.7,12.4,8.6,12.7,8.6z M3.5,7.7v2.7H5V11H2.8V7.7H3.5z M11.1,8.7V11h-0.6V8.7H11.1z M8.9,9.2
					c-0.2,0-0.3,0.1-0.4,0.2C8.4,9.5,8.3,9.6,8.3,9.8s0.1,0.4,0.2,0.5c0.1,0.1,0.2,0.2,0.4,0.2c0.2,0,0.3-0.1,0.4-0.2
					s0.2-0.3,0.2-0.5c0-0.2-0.1-0.4-0.2-0.5S9,9.2,8.9,9.2z M6.3,9.2C6.1,9.2,6,9.2,5.9,9.3C5.8,9.5,5.7,9.6,5.7,9.8
					c0,0.2,0.1,0.4,0.2,0.5c0.1,0.1,0.2,0.2,0.4,0.2c0.2,0,0.3-0.1,0.4-0.2c0.1-0.1,0.2-0.3,0.2-0.5c0-0.2-0.1-0.4-0.2-0.5
					C6.6,9.2,6.4,9.2,6.3,9.2z M10.8,7.6c0.1,0,0.2,0,0.3,0.1c0.1,0.1,0.1,0.2,0.1,0.3s0,0.2-0.1,0.3s-0.2,0.1-0.3,0.1
					c-0.1,0-0.2,0-0.3-0.1S10.4,8.1,10.4,8c0-0.1,0-0.2,0.1-0.3C10.6,7.6,10.7,7.6,10.8,7.6z M12.2,4h-5l0.6,1h4.9L12.2,4z"/>
			</g>
			<defs>
				<filter id="Adobe_OpacityMaskFilter" filterUnits="userSpaceOnUse" x="0" y="0" width="16" height="16">
					<feColorMatrix  type="matrix" values="1 0 0 0 0  0 1 0 0 0  0 0 1 0 0  0 0 0 1 0"/>
				</filter>
			</defs>
			<mask maskUnits="userSpaceOnUse" x="0" y="0" width="16" height="16" id="mask-2_1_">
				<g class="st2">
					<path id="path-1_2_" class="st3" d="M5.6,2c0.1,0,0.3,0.1,0.4,0.1L6,2.2L6.5,3l6,0c0.2,0,0.3,0.1,0.4,0.2l0,0.1L13.8,5
						c0.6,0.1,1,0.6,1.1,1.2l0,0.1l0,0.1v6c0,0.8-0.6,1.4-1.4,1.5l-0.1,0h-11c-0.8,0-1.4-0.6-1.5-1.4l0-0.1v-9C1,2.7,1.6,2.1,2.4,2
						l0.1,0H5.6z M5.3,3H2.5C2.3,3,2.1,3.2,2,3.4l0,0.1v9c0,0.2,0.2,0.4,0.4,0.5l0.1,0h11c0.2,0,0.4-0.2,0.5-0.4l0-0.1v-6
						c0-0.2-0.2-0.4-0.4-0.5l-0.1,0h-6L7.5,6c0,0,0,0,0,0c0,0,0,0-0.1,0c0,0,0,0,0,0c0,0,0,0-0.1,0l0,0l0,0c0,0,0,0,0,0l0,0l0-0.1
						l0,0l0,0l0,0l0,0l0,0l0,0L5.3,3z M8.8,8.6c0.2,0,0.3,0,0.4,0.1S9.4,8.9,9.5,9c0-0.1,0-0.2,0-0.3h0.5v2.1c0,0.5-0.1,0.8-0.4,1
						c-0.2,0.2-0.5,0.3-0.9,0.3c-0.3,0-0.5-0.1-0.7-0.2c-0.2-0.1-0.3-0.3-0.4-0.4l0.5-0.3c0.1,0.2,0.3,0.3,0.6,0.3
						c0.2,0,0.4-0.1,0.5-0.2c0.1-0.1,0.1-0.3,0.1-0.6c-0.2,0.2-0.4,0.3-0.7,0.3c-0.2,0-0.4,0-0.5-0.1s-0.3-0.2-0.4-0.4
						c-0.1-0.2-0.2-0.4-0.2-0.7c0-0.3,0.1-0.5,0.2-0.7C7.9,9,8.1,8.9,8.2,8.8S8.6,8.6,8.8,8.6z M6.3,8.6c0.2,0,0.4,0.1,0.6,0.2
						C7.1,8.9,7.2,9,7.3,9.2s0.2,0.4,0.2,0.6s-0.1,0.5-0.2,0.6s-0.3,0.3-0.4,0.4s-0.4,0.1-0.6,0.1c-0.2,0-0.4,0-0.6-0.1
						c-0.2-0.1-0.3-0.2-0.4-0.4s-0.2-0.4-0.2-0.6s0.1-0.5,0.2-0.6s0.3-0.3,0.4-0.4C5.9,8.7,6.1,8.6,6.3,8.6z M12.7,8.6
						c0.2,0,0.4,0,0.6,0.1c0.2,0.1,0.3,0.2,0.4,0.4l-0.5,0.3c-0.1-0.2-0.2-0.3-0.4-0.3c-0.2,0-0.3,0.1-0.4,0.2
						c-0.1,0.1-0.1,0.3-0.1,0.5c0,0.2,0,0.4,0.1,0.5s0.2,0.2,0.4,0.2c0.2,0,0.3-0.1,0.4-0.3l0.5,0.3c-0.1,0.2-0.2,0.3-0.4,0.4
						c-0.2,0.1-0.3,0.1-0.6,0.1c-0.2,0-0.4,0-0.6-0.1c-0.2-0.1-0.3-0.2-0.4-0.4c-0.1-0.2-0.2-0.4-0.2-0.7c0-0.3,0.1-0.5,0.2-0.7
						c0.1-0.2,0.3-0.3,0.4-0.4C12.3,8.7,12.4,8.6,12.7,8.6z M3.5,7.7v2.7H5V11H2.8V7.7H3.5z M11.1,8.7V11h-0.6V8.7H11.1z M8.9,9.2
						c-0.2,0-0.3,0.1-0.4,0.2C8.4,9.5,8.3,9.6,8.3,9.8s0.1,0.4,0.2,0.5c0.1,0.1,0.2,0.2,0.4,0.2c0.2,0,0.3-0.1,0.4-0.2
						s0.2-0.3,0.2-0.5c0-0.2-0.1-0.4-0.2-0.5S9,9.2,8.9,9.2z M6.3,9.2C6.1,9.2,6,9.2,5.9,9.3C5.8,9.5,5.7,9.6,5.7,9.8
						c0,0.2,0.1,0.4,0.2,0.5c0.1,0.1,0.2,0.2,0.4,0.2c0.2,0,0.3-0.1,0.4-0.2c0.1-0.1,0.2-0.3,0.2-0.5c0-0.2-0.1-0.4-0.2-0.5
						C6.6,9.2,6.4,9.2,6.3,9.2z M10.8,7.6c0.1,0,0.2,0,0.3,0.1c0.1,0.1,0.1,0.2,0.1,0.3s0,0.2-0.1,0.3s-0.2,0.1-0.3,0.1
						c-0.1,0-0.2,0-0.3-0.1S10.4,8.1,10.4,8c0-0.1,0-0.2,0.1-0.3C10.6,7.6,10.7,7.6,10.8,7.6z M12.2,4h-5l0.6,1h4.9L12.2,4z"/>
				</g>
			</mask>
			<rect id="矩形_1_" class="st4" width="16" height="16"/>
		</g>
	</g>
</g>
</svg>
