<svg t="1670849276548" class="icon" viewBox="0 0 1024 1024" version="1.1" xmlns="http://www.w3.org/2000/svg" p-id="38977">
	<path d="M772.608 110.884571a128.073143 128.073143 0 0 0-38.326857 250.148572v109.568L292.571429 615.277714V290.377143A128.073143 128.073143 0 1 0 123.392 169.106286c0 56.32 36.352 104.009143 86.893714 121.270857v443.318857a128.073143 128.073143 0 1 0 169.179429 121.270857c0-56.246857-36.352-104.009143-86.893714-121.270857v-31.744L776.557714 543.451429a57.782857 57.782857 0 0 0 39.862857-55.076572V359.058286c49.005714-18.066286 84.114286-65.097143 84.114286-120.173715 0-70.656-57.344-128-128-128z m-576.073143 58.221715a54.857143 54.857143 0 1 1 109.714286 0 54.857143 54.857143 0 0 1-109.714286 0z m109.714286 685.787428a54.857143 54.857143 0 1 1-109.714286 0 54.857143 54.857143 0 0 1 109.714286 0z m466.358857-561.152a54.857143 54.857143 0 1 1 0-109.714285 54.857143 54.857143 0 0 1 0 109.714285z" fill="#616161" p-id="38978"></path>
</svg>