<?xml version="1.0" encoding="utf-8"?>
<!-- Generator: Adobe Illustrator 24.0.1, SVG Export Plug-In . SVG Version: 6.00 Build 0)  -->
<svg version="1.1" id="图层_1" xmlns="http://www.w3.org/2000/svg" xmlns:xlink="http://www.w3.org/1999/xlink" x="0px" y="0px"
	 viewBox="0 0 16 16" style="enable-background:new 0 0 16 16;" xml:space="preserve">
<style type="text/css">
	.st0{fill:none;}
	.st1{fill:#979797;}
	.st2{filter:url(#Adobe_OpacityMaskFilter);}
	.st3{fill-rule:evenodd;clip-rule:evenodd;fill:#FFFFFF;}
	.st4{mask:url(#mask-2_1_);fill-rule:evenodd;clip-rule:evenodd;fill:#707070;}
</style>
<title>branch</title>
<g id="工作流_x2F_工作流实例">
	<g id="画板" transform="translate(-98.000000, -344.000000)">
		<g id="branch" transform="translate(98.000000, 344.000000)">
			<polygon id="路径" class="st0" points="16,0 0,0 0,16 16,16 			"/>
			<g id="形状结合">
				<path id="path-1_1_" class="st1" d="M13,1c1.1,0,2,0.9,2,2s-0.9,2-2,2c-0.9,0-1.7-0.6-1.9-1.5l-0.1,0H7.2C7,3.5,6.8,3.6,6.8,3.7
					l0,0.1L5.2,7.5l5.8,0C11.3,6.7,12,6.1,12.9,6L13,6c1.1,0,2,0.9,2,2s-0.9,2-2,2c-0.9,0-1.7-0.6-1.9-1.5l-5.8,0l1.5,3.7
					c0.1,0.2,0.2,0.3,0.4,0.3l0.1,0H11l0.1,0c0.2-0.9,1-1.5,1.9-1.5c1.1,0,2,0.9,2,2s-0.9,2-2,2c-0.9,0-1.7-0.6-1.9-1.5l-0.1,0H7.2
					c-0.6,0-1.1-0.3-1.3-0.8l-0.1-0.1L4.5,9.3C4.1,9.7,3.6,10,3,10c-1.1,0-2-0.9-2-2s0.9-2,2-2c0.6,0,1.1,0.3,1.5,0.7l1.3-3.2
					C6,2.9,6.5,2.6,7,2.5l0.1,0H11l0.1,0C11.3,1.6,12.1,1,13,1z M13,12c-0.6,0-1,0.4-1,1s0.4,1,1,1s1-0.4,1-1S13.6,12,13,12z M3,7
					C2.4,7,2,7.4,2,8s0.4,1,1,1s1-0.4,1-1S3.6,7,3,7z M13,7c-0.6,0-1,0.4-1,1s0.4,1,1,1s1-0.4,1-1S13.6,7,13,7z M13,2
					c-0.6,0-1,0.4-1,1s0.4,1,1,1s1-0.4,1-1S13.6,2,13,2z"/>
			</g>
			<defs>
				<filter id="Adobe_OpacityMaskFilter" filterUnits="userSpaceOnUse" x="0" y="0" width="16" height="16">
					<feColorMatrix  type="matrix" values="1 0 0 0 0  0 1 0 0 0  0 0 1 0 0  0 0 0 1 0"/>
				</filter>
			</defs>
			<mask maskUnits="userSpaceOnUse" x="0" y="0" width="16" height="16" id="mask-2_1_">
				<g class="st2">
					<path id="path-1_2_" class="st3" d="M13,1c1.1,0,2,0.9,2,2s-0.9,2-2,2c-0.9,0-1.7-0.6-1.9-1.5l-0.1,0H7.2
						C7,3.5,6.8,3.6,6.8,3.7l0,0.1L5.2,7.5l5.8,0C11.3,6.7,12,6.1,12.9,6L13,6c1.1,0,2,0.9,2,2s-0.9,2-2,2c-0.9,0-1.7-0.6-1.9-1.5
						l-5.8,0l1.5,3.7c0.1,0.2,0.2,0.3,0.4,0.3l0.1,0H11l0.1,0c0.2-0.9,1-1.5,1.9-1.5c1.1,0,2,0.9,2,2s-0.9,2-2,2
						c-0.9,0-1.7-0.6-1.9-1.5l-0.1,0H7.2c-0.6,0-1.1-0.3-1.3-0.8l-0.1-0.1L4.5,9.3C4.1,9.7,3.6,10,3,10c-1.1,0-2-0.9-2-2s0.9-2,2-2
						c0.6,0,1.1,0.3,1.5,0.7l1.3-3.2C6,2.9,6.5,2.6,7,2.5l0.1,0H11l0.1,0C11.3,1.6,12.1,1,13,1z M13,12c-0.6,0-1,0.4-1,1s0.4,1,1,1
						s1-0.4,1-1S13.6,12,13,12z M3,7C2.4,7,2,7.4,2,8s0.4,1,1,1s1-0.4,1-1S3.6,7,3,7z M13,7c-0.6,0-1,0.4-1,1s0.4,1,1,1s1-0.4,1-1
						S13.6,7,13,7z M13,2c-0.6,0-1,0.4-1,1s0.4,1,1,1s1-0.4,1-1S13.6,2,13,2z"/>
				</g>
			</mask>
			<polygon id="路径_1_" class="st4" points="16,0 0,0 0,16 16,16 			"/>
		</g>
	</g>
</g>
</svg>
