<?xml version="1.0" encoding="utf-8"?>
<!-- Generator: Adobe Illustrator 24.0.1, SVG Export Plug-In . SVG Version: 6.00 Build 0)  -->
<svg version="1.1" id="图层_1" xmlns="http://www.w3.org/2000/svg" xmlns:xlink="http://www.w3.org/1999/xlink" x="0px" y="0px"
	 viewBox="0 0 57 48" style="enable-background:new 0 0 57 48;" xml:space="preserve">
<style type="text/css">
	.st0{fill:#B8D9FF;}
	.st1{fill:#7AB8FF;}
	.st2{filter:url(#Adobe_OpacityMaskFilter);}
	.st3{fill-rule:evenodd;clip-rule:evenodd;fill:#FFFFFF;}
	.st4{mask:url(#mask-2_1_);fill-rule:evenodd;clip-rule:evenodd;fill:#52A3FF;}
	.st5{fill:none;stroke:#B8D9FF;}
	.st6{fill:none;stroke:#FFFFFF;}
	.st7{fill:#FFFFFF;stroke:#003E85;}
	.st8{fill:none;stroke:#003E85;}
	.st9{fill:#0077FF;}
	.st10{fill:#FFFFFF;}
</style>
<title>null</title>
<g id="工作流_x2F_工作流实例">
	<g id="画板" transform="translate(-172.000000, -352.000000)">
		<g id="null" transform="translate(173.000000, 352.000000)">
			<path id="路径" class="st0" d="M52,8.7V44c0,2.2-1.7,4-3.9,4L9,47.9V8.7c0-2,1.6-3.7,3.6-3.7c10.7,0,18.7,0,24.1,0
				c2.6,0,6.5,0,11.7,0C50.4,5,52,6.7,52,8.7z"/>
			<g id="路径-7" transform="translate(14.000000, 0.000000)">
				<g id="蒙版">
					<path id="path-1_1_" class="st1" d="M0,1v46c0,0.6,0.4,1,1,1h31c0.6,0,1-0.4,1-1V6.4c0-0.2-0.1-0.5-0.2-0.6l-4.5-5.4
						C28.1,0.1,27.8,0,27.5,0H1C0.4,0,0,0.4,0,1z"/>
				</g>
				<defs>
					<filter id="Adobe_OpacityMaskFilter" filterUnits="userSpaceOnUse" x="28" y="0" width="5" height="6">
						<feColorMatrix  type="matrix" values="1 0 0 0 0  0 1 0 0 0  0 0 1 0 0  0 0 0 1 0"/>
					</filter>
				</defs>
				<mask maskUnits="userSpaceOnUse" x="28" y="0" width="5" height="6" id="mask-2_1_">
					<g class="st2">
						<path id="path-1_2_" class="st3" d="M0,1v46c0,0.6,0.4,1,1,1h31c0.6,0,1-0.4,1-1V6.4c0-0.2-0.1-0.5-0.2-0.6l-4.5-5.4
							C28.1,0.1,27.8,0,27.5,0H1C0.4,0,0,0.4,0,1z"/>
					</g>
				</mask>
				<polygon class="st4" points="28,0 28,6 33,6 33,0 				"/>
			</g>
			<g id="编组-3" transform="translate(19.000000, 5.000000)">
				<path id="路径-8" class="st5" d="M5,5.5h5.5v-2c0-0.6,0.4-1,1-1H17l0,0"/>
				<path id="路径-8备份" class="st5" d="M5,22.5h5.5v-6c0-0.6,0.4-1,1-1H17l0,0"/>
				<path id="路径-9" class="st5" d="M10.5,5.5v3c0,0.6,0.4,1,1,1H17l0,0"/>
				<line id="路径-9备份" class="st5" x1="10.5" y1="22.5" x2="17" y2="22.5"/>
				<path id="路径-9备份-2" class="st5" d="M10.5,22.5v6c0,0.6,0.4,1,1,1H17l0,0"/>
				<path id="路径_1_" class="st6" d="M21,0.5L21.5,4L17,4.5L16.5,1L21,0.5z"/>
				<path id="路径备份-5" class="st6" d="M21,13.5l0.5,3.5L17,17.5L16.5,14L21,13.5z"/>
				<path id="路径_2_" class="st6" d="M21,7.5l0.5,3.5L17,11.5L16.5,8L21,7.5z"/>
				<path id="路径备份-6" class="st6" d="M21,20.5l0.5,3.5L17,24.5L16.5,21L21,20.5z"/>
				<path id="路径备份-8" class="st6" d="M21,27.5l0.5,3.5L17,31.5L16.5,28L21,27.5z"/>
				<path id="路径_3_" class="st6" d="M5,3.5L5.5,7L1,7.5L0.5,4L5,3.5z"/>
				<path id="路径备份-7" class="st6" d="M5,20.5L5.5,24L1,24.5L0.5,21L5,20.5z"/>
			</g>
			<g id="编组" transform="translate(0.000000, 14.500000)">
				<path id="路径_4_" class="st7" d="M8.1,31.5l-8-28.9l0,0C-0.3,1.3,0.7,0,2.1,0h15.3c0.6,0,1.2,0.3,1.6,0.8
					c2.2,2.9,4,4.3,5.2,4.3l20.1-0.1c0.9,0,1.7,0.6,2,1.5l5.2,24.2c0.2,1.1-0.5,2.1-1.5,2.4c-0.1,0-0.3,0-0.4,0H10
					C9.1,33,8.3,32.4,8.1,31.5z"/>
				<line id="路径_5_" class="st8" x1="2" y1="9" x2="46.5" y2="9"/>
			</g>
			<g id="编组-2" transform="translate(43.000000, 35.000000)">
				<path id="路径_6_" class="st9" d="M6.5,13c3.6,0,6.5-2.9,6.5-6.5C13,2.9,10.1,0,6.5,0C2.9,0,0,2.9,0,6.5C0,10.1,2.9,13,6.5,13
					z"/>
				<path id="路径_7_" class="st10" d="M2,6l0,0.5C2,6.7,2.2,7,2.5,7c0,0,0,0,0,0l8,0C10.8,7,11,6.8,11,6.5C11,6.3,10.8,6,10.5,6
					c0,0,0,0,0,0L2,6L2,6z"/>
				<path id="路径_8_" class="st10" d="M6,2.5l0,8C6,10.8,6.2,11,6.5,11C6.7,11,7,10.8,7,10.5c0,0,0,0,0,0l0-8C7,2.2,6.8,2,6.5,2
					C6.3,2,6,2.2,6,2.5C6,2.5,6,2.5,6,2.5z"/>
			</g>
		</g>
	</g>
</g>
</svg>
