<?xml version="1.0" encoding="UTF-8" standalone="no"?><svg xmlns="http://www.w3.org/2000/svg" xmlns:xlink="http://www.w3.org/1999/xlink" contentStyleType="text/css" height="202px" preserveAspectRatio="none" style="width:3639px;height:202px;background:#FFFFFF;" version="1.1" viewBox="0 0 3639 202" width="3639px" zoomAndPan="magnify"><defs/><g><g id="elem_elyra.pipeline.kfp.kfp_authentication.AbstractAuthenticator"><rect codeLine="2" fill="#F1F1F1" height="64.2969" id="elyra.pipeline.kfp.kfp_authentication.AbstractAuthenticator" rx="2.5" ry="2.5" style="stroke:#181818;stroke-width:0.5;" width="661" x="1673" y="131"/><ellipse cx="1924.25" cy="147" fill="#ADD1B2" rx="11" ry="11" style="stroke:#181818;stroke-width:1.0;"/><path d="M1927.2188,152.6406 Q1926.6406,152.9375 1926,153.0781 Q1925.3594,153.2344 1924.6563,153.2344 Q1922.1563,153.2344 1920.8281,151.5938 Q1919.5156,149.9375 1919.5156,146.8125 Q1919.5156,143.6875 1920.8281,142.0313 Q1922.1563,140.375 1924.6563,140.375 Q1925.3594,140.375 1926,140.5313 Q1926.6563,140.6875 1927.2188,140.9844 L1927.2188,143.7031 Q1926.5938,143.125 1926,142.8594 Q1925.4063,142.5781 1924.7813,142.5781 Q1923.4375,142.5781 1922.75,143.6563 Q1922.0625,144.7188 1922.0625,146.8125 Q1922.0625,148.9063 1922.75,149.9844 Q1923.4375,151.0469 1924.7813,151.0469 Q1925.4063,151.0469 1926,150.7813 Q1926.5938,150.5 1927.2188,149.9219 L1927.2188,152.6406 Z " fill="#000000"/><text fill="#000000" font-family="sans-serif" font-size="14" lengthAdjust="spacing" textLength="150" x="1944.75" y="151.8467">AbstractAuthenticator</text><line style="stroke:#181818;stroke-width:0.5;" x1="1674" x2="2333" y1="163" y2="163"/><line style="stroke:#181818;stroke-width:0.5;" x1="1674" x2="2333" y1="171" y2="171"/><text fill="#000000" font-family="sans-serif" font-size="14" font-style="italic" lengthAdjust="spacing" textLength="649" x="1679" y="187.9951">authenticate(kf_endpoint: str, runtime_config_name: str) -&gt; Optional[SupportedAuthProviders]</text></g><g id="elem_elyra.pipeline.kfp.kfp_authentication.DEXLDAPAuthenticator"><rect codeLine="5" fill="#F1F1F1" height="64.2969" id="elyra.pipeline.kfp.kfp_authentication.DEXLDAPAuthenticator" rx="2.5" ry="2.5" style="stroke:#181818;stroke-width:0.5;" width="717" x="7" y="7"/><ellipse cx="282.25" cy="23" fill="#ADD1B2" rx="11" ry="11" style="stroke:#181818;stroke-width:1.0;"/><path d="M285.2188,28.6406 Q284.6406,28.9375 284,29.0781 Q283.3594,29.2344 282.6563,29.2344 Q280.1563,29.2344 278.8281,27.5938 Q277.5156,25.9375 277.5156,22.8125 Q277.5156,19.6875 278.8281,18.0313 Q280.1563,16.375 282.6563,16.375 Q283.3594,16.375 284,16.5313 Q284.6563,16.6875 285.2188,16.9844 L285.2188,19.7031 Q284.5938,19.125 284,18.8594 Q283.4063,18.5781 282.7813,18.5781 Q281.4375,18.5781 280.75,19.6563 Q280.0625,20.7188 280.0625,22.8125 Q280.0625,24.9063 280.75,25.9844 Q281.4375,27.0469 282.7813,27.0469 Q283.4063,27.0469 284,26.7813 Q284.5938,26.5 285.2188,25.9219 L285.2188,28.6406 Z " fill="#000000"/><text fill="#000000" font-family="sans-serif" font-size="14" lengthAdjust="spacing" textLength="158" x="302.75" y="27.8467">DEXLDAPAuthenticator</text><line style="stroke:#181818;stroke-width:0.5;" x1="8" x2="723" y1="39" y2="39"/><line style="stroke:#181818;stroke-width:0.5;" x1="8" x2="723" y1="47" y2="47"/><text fill="#000000" font-family="sans-serif" font-size="14" lengthAdjust="spacing" textLength="705" x="13" y="63.9951">authenticate(kf_endpoint: str, runtime_config_name: str, username: str, password: str) -&gt; Optional[str]</text></g><g id="elem_elyra.pipeline.kfp.kfp_authentication.DEXLegacyAuthenticator"><rect codeLine="8" fill="#F1F1F1" height="64.2969" id="elyra.pipeline.kfp.kfp_authentication.DEXLegacyAuthenticator" rx="2.5" ry="2.5" style="stroke:#181818;stroke-width:0.5;" width="851" x="759" y="7"/><ellipse cx="1095.25" cy="23" fill="#ADD1B2" rx="11" ry="11" style="stroke:#181818;stroke-width:1.0;"/><path d="M1098.2188,28.6406 Q1097.6406,28.9375 1097,29.0781 Q1096.3594,29.2344 1095.6563,29.2344 Q1093.1563,29.2344 1091.8281,27.5938 Q1090.5156,25.9375 1090.5156,22.8125 Q1090.5156,19.6875 1091.8281,18.0313 Q1093.1563,16.375 1095.6563,16.375 Q1096.3594,16.375 1097,16.5313 Q1097.6563,16.6875 1098.2188,16.9844 L1098.2188,19.7031 Q1097.5938,19.125 1097,18.8594 Q1096.4063,18.5781 1095.7813,18.5781 Q1094.4375,18.5781 1093.75,19.6563 Q1093.0625,20.7188 1093.0625,22.8125 Q1093.0625,24.9063 1093.75,25.9844 Q1094.4375,27.0469 1095.7813,27.0469 Q1096.4063,27.0469 1097,26.7813 Q1097.5938,26.5 1098.2188,25.9219 L1098.2188,28.6406 Z " fill="#000000"/><text fill="#000000" font-family="sans-serif" font-size="14" lengthAdjust="spacing" textLength="170" x="1115.75" y="27.8467">DEXLegacyAuthenticator</text><line style="stroke:#181818;stroke-width:0.5;" x1="760" x2="1609" y1="39" y2="39"/><line style="stroke:#181818;stroke-width:0.5;" x1="760" x2="1609" y1="47" y2="47"/><text fill="#000000" font-family="sans-serif" font-size="14" lengthAdjust="spacing" textLength="839" x="765" y="63.9951">authenticate(kf_endpoint: str, runtime_config_name: str, username: Optional[str], password: Optional[str]) -&gt; Optional[str]</text></g><g id="elem_elyra.pipeline.kfp.kfp_authentication.DEXStaticPasswordAuthenticator"><rect codeLine="11" fill="#F1F1F1" height="64.2969" id="elyra.pipeline.kfp.kfp_authentication.DEXStaticPasswordAuthenticator" rx="2.5" ry="2.5" style="stroke:#181818;stroke-width:0.5;" width="717" x="1645" y="7"/><ellipse cx="1885.75" cy="23" fill="#ADD1B2" rx="11" ry="11" style="stroke:#181818;stroke-width:1.0;"/><path d="M1888.7188,28.6406 Q1888.1406,28.9375 1887.5,29.0781 Q1886.8594,29.2344 1886.1563,29.2344 Q1883.6563,29.2344 1882.3281,27.5938 Q1881.0156,25.9375 1881.0156,22.8125 Q1881.0156,19.6875 1882.3281,18.0313 Q1883.6563,16.375 1886.1563,16.375 Q1886.8594,16.375 1887.5,16.5313 Q1888.1563,16.6875 1888.7188,16.9844 L1888.7188,19.7031 Q1888.0938,19.125 1887.5,18.8594 Q1886.9063,18.5781 1886.2813,18.5781 Q1884.9375,18.5781 1884.25,19.6563 Q1883.5625,20.7188 1883.5625,22.8125 Q1883.5625,24.9063 1884.25,25.9844 Q1884.9375,27.0469 1886.2813,27.0469 Q1886.9063,27.0469 1887.5,26.7813 Q1888.0938,26.5 1888.7188,25.9219 L1888.7188,28.6406 Z " fill="#000000"/><text fill="#000000" font-family="sans-serif" font-size="14" lengthAdjust="spacing" textLength="227" x="1906.25" y="27.8467">DEXStaticPasswordAuthenticator</text><line style="stroke:#181818;stroke-width:0.5;" x1="1646" x2="2361" y1="39" y2="39"/><line style="stroke:#181818;stroke-width:0.5;" x1="1646" x2="2361" y1="47" y2="47"/><text fill="#000000" font-family="sans-serif" font-size="14" lengthAdjust="spacing" textLength="705" x="1651" y="63.9951">authenticate(kf_endpoint: str, runtime_config_name: str, username: str, password: str) -&gt; Optional[str]</text></g><g id="elem_elyra.pipeline.kfp.kfp_authentication.K8sServiceAccountTokenAuthenticator"><rect codeLine="14" fill="#F1F1F1" height="64.2969" id="elyra.pipeline.kfp.kfp_authentication.K8sServiceAccountTokenAuthenticator" rx="2.5" ry="2.5" style="stroke:#181818;stroke-width:0.5;" width="706" x="2397.5" y="7"/><ellipse cx="2611.25" cy="23" fill="#ADD1B2" rx="11" ry="11" style="stroke:#181818;stroke-width:1.0;"/><path d="M2614.2188,28.6406 Q2613.6406,28.9375 2613,29.0781 Q2612.3594,29.2344 2611.6563,29.2344 Q2609.1563,29.2344 2607.8281,27.5938 Q2606.5156,25.9375 2606.5156,22.8125 Q2606.5156,19.6875 2607.8281,18.0313 Q2609.1563,16.375 2611.6563,16.375 Q2612.3594,16.375 2613,16.5313 Q2613.6563,16.6875 2614.2188,16.9844 L2614.2188,19.7031 Q2613.5938,19.125 2613,18.8594 Q2612.4063,18.5781 2611.7813,18.5781 Q2610.4375,18.5781 2609.75,19.6563 Q2609.0625,20.7188 2609.0625,22.8125 Q2609.0625,24.9063 2609.75,25.9844 Q2610.4375,27.0469 2611.7813,27.0469 Q2612.4063,27.0469 2613,26.7813 Q2613.5938,26.5 2614.2188,25.9219 L2614.2188,28.6406 Z " fill="#000000"/><text fill="#000000" font-family="sans-serif" font-size="14" lengthAdjust="spacing" textLength="270" x="2631.75" y="27.8467">K8sServiceAccountTokenAuthenticator</text><line style="stroke:#181818;stroke-width:0.5;" x1="2398.5" x2="3102.5" y1="39" y2="39"/><line style="stroke:#181818;stroke-width:0.5;" x1="2398.5" x2="3102.5" y1="47" y2="47"/><text fill="#000000" font-family="sans-serif" font-size="14" lengthAdjust="spacing" textLength="694" x="2403.5" y="63.9951">authenticate(kf_endpoint: str, runtime_config_name: str) -&gt; ServiceAccountTokenVolumeCredentials</text></g><g id="elem_elyra.pipeline.kfp.kfp_authentication.NoAuthenticationAuthenticator"><rect fill="#F1F1F1" height="48" id="elyra.pipeline.kfp.kfp_authentication.NoAuthenticationAuthenticator" rx="2.5" ry="2.5" style="stroke:#181818;stroke-width:0.5;" width="494" x="3138.5" y="15"/><ellipse cx="3153.5" cy="31" fill="#ADD1B2" rx="11" ry="11" style="stroke:#181818;stroke-width:1.0;"/><path d="M3156.4688,36.6406 Q3155.8906,36.9375 3155.25,37.0781 Q3154.6094,37.2344 3153.9063,37.2344 Q3151.4063,37.2344 3150.0781,35.5938 Q3148.7656,33.9375 3148.7656,30.8125 Q3148.7656,27.6875 3150.0781,26.0313 Q3151.4063,24.375 3153.9063,24.375 Q3154.6094,24.375 3155.25,24.5313 Q3155.9063,24.6875 3156.4688,24.9844 L3156.4688,27.7031 Q3155.8438,27.125 3155.25,26.8594 Q3154.6563,26.5781 3154.0313,26.5781 Q3152.6875,26.5781 3152,27.6563 Q3151.3125,28.7188 3151.3125,30.8125 Q3151.3125,32.9063 3152,33.9844 Q3152.6875,35.0469 3154.0313,35.0469 Q3154.6563,35.0469 3155.25,34.7813 Q3155.8438,34.5 3156.4688,33.9219 L3156.4688,36.6406 Z " fill="#000000"/><text fill="#000000" font-family="sans-serif" font-size="14" lengthAdjust="spacing" textLength="462" x="3167.5" y="35.8467">elyra.pipeline.kfp.kfp_authentication.NoAuthenticationAuthenticator</text><line style="stroke:#181818;stroke-width:0.5;" x1="3139.5" x2="3631.5" y1="47" y2="47"/><line style="stroke:#181818;stroke-width:0.5;" x1="3139.5" x2="3631.5" y1="55" y2="55"/></g><g id="link_elyra.pipeline.kfp.kfp_authentication.DEXLDAPAuthenticator_elyra.pipeline.kfp.kfp_authentication.AbstractAuthenticator"><path codeLine="17" d="M724.222,69.658 C730.023,70.111 735.786,70.558 741.5,71 C1049.38,94.792 1399.68,119.8946 1652.97,137.6943 " fill="none" id="elyra.pipeline.kfp.kfp_authentication.DEXLDAPAuthenticator-to-elyra.pipeline.kfp.kfp_authentication.AbstractAuthenticator" style="stroke:#181818;stroke-width:1.0;"/><polygon fill="none" points="1653.49,130.7134,1672.95,139.0973,1652.51,144.679,1653.49,130.7134" style="stroke:#181818;stroke-width:1.0;"/></g><g id="link_elyra.pipeline.kfp.kfp_authentication.DEXLegacyAuthenticator_elyra.pipeline.kfp.kfp_authentication.AbstractAuthenticator"><path codeLine="18" d="M1392.76,71.022 C1509.47,88.408 1655.21,110.1173 1775.04,127.9685 " fill="none" id="elyra.pipeline.kfp.kfp_authentication.DEXLegacyAuthenticator-to-elyra.pipeline.kfp.kfp_authentication.AbstractAuthenticator" style="stroke:#181818;stroke-width:1.0;"/><polygon fill="none" points="1776.44,121.099,1795.19,130.9695,1774.38,134.9462,1776.44,121.099" style="stroke:#181818;stroke-width:1.0;"/></g><g id="link_elyra.pipeline.kfp.kfp_authentication.DEXStaticPasswordAuthenticator_elyra.pipeline.kfp.kfp_authentication.AbstractAuthenticator"><path codeLine="19" d="M2003.5,71.101 C2003.5,83.147 2003.5,97.2591 2003.5,110.7225 " fill="none" id="elyra.pipeline.kfp.kfp_authentication.DEXStaticPasswordAuthenticator-to-elyra.pipeline.kfp.kfp_authentication.AbstractAuthenticator" style="stroke:#181818;stroke-width:1.0;"/><polygon fill="none" points="2010.5,110.9554,2003.5,130.9554,1996.5,110.9553,2010.5,110.9554" style="stroke:#181818;stroke-width:1.0;"/></g><g id="link_elyra.pipeline.kfp.kfp_authentication.K8sServiceAccountTokenAuthenticator_elyra.pipeline.kfp.kfp_authentication.AbstractAuthenticator"><path codeLine="20" d="M2560.55,71.022 C2454.65,88.318 2322.55,109.8934 2213.57,127.6919 " fill="none" id="elyra.pipeline.kfp.kfp_authentication.K8sServiceAccountTokenAuthenticator-to-elyra.pipeline.kfp.kfp_authentication.AbstractAuthenticator" style="stroke:#181818;stroke-width:1.0;"/><polygon fill="none" points="2214.37,134.6542,2193.5,130.9695,2212.11,120.8372,2214.37,134.6542" style="stroke:#181818;stroke-width:1.0;"/></g><g id="link_elyra.pipeline.kfp.kfp_authentication.NoAuthenticationAuthenticator_elyra.pipeline.kfp.kfp_authentication.AbstractAuthenticator"><path codeLine="21" d="M3196.67,63.001 C3171.42,65.835 3145.84,68.581 3121.5,71 C2864.98,96.4924 2574.82,119.9526 2354.39,136.6662 " fill="none" id="elyra.pipeline.kfp.kfp_authentication.NoAuthenticationAuthenticator-to-elyra.pipeline.kfp.kfp_authentication.AbstractAuthenticator" style="stroke:#181818;stroke-width:1.0;"/><polygon fill="none" points="2354.76,143.6581,2334.29,138.1863,2353.71,129.6979,2354.76,143.6581" style="stroke:#181818;stroke-width:1.0;"/></g></g></svg>