<?xml version="1.0" encoding="UTF-8" standalone="no"?><svg xmlns="http://www.w3.org/2000/svg" xmlns:xlink="http://www.w3.org/1999/xlink" contentStyleType="text/css" height="1073px" preserveAspectRatio="none" style="width:733px;height:1073px;background:#FFFFFF;" version="1.1" viewBox="0 0 733 1073" width="733px" zoomAndPan="magnify"><defs/><g><g id="elem_elyra.pipeline.component_catalog.CacheUpdateManager"><rect codeLine="2" fill="#F1F1F1" height="194.6719" id="elyra.pipeline.component_catalog.CacheUpdateManager" rx="2.5" ry="2.5" style="stroke:#181818;stroke-width:0.5;" width="186" x="273.5" y="197"/><ellipse cx="288.5" cy="213" fill="#ADD1B2" rx="11" ry="11" style="stroke:#181818;stroke-width:1.0;"/><path d="M291.4688,218.6406 Q290.8906,218.9375 290.25,219.0781 Q289.6094,219.2344 288.9063,219.2344 Q286.4063,219.2344 285.0781,217.5938 Q283.7656,215.9375 283.7656,212.8125 Q283.7656,209.6875 285.0781,208.0313 Q286.4063,206.375 288.9063,206.375 Q289.6094,206.375 290.25,206.5313 Q290.9063,206.6875 291.4688,206.9844 L291.4688,209.7031 Q290.8438,209.125 290.25,208.8594 Q289.6563,208.5781 289.0313,208.5781 Q287.6875,208.5781 287,209.6563 Q286.3125,210.7188 286.3125,212.8125 Q286.3125,214.9063 287,215.9844 Q287.6875,217.0469 289.0313,217.0469 Q289.6563,217.0469 290.25,216.7813 Q290.8438,216.5 291.4688,215.9219 L291.4688,218.6406 Z " fill="#000000"/><text fill="#000000" font-family="sans-serif" font-size="14" lengthAdjust="spacing" textLength="154" x="302.5" y="217.8467">CacheUpdateManager</text><line style="stroke:#181818;stroke-width:0.5;" x1="274.5" x2="458.5" y1="229" y2="229"/><text fill="#000000" font-family="sans-serif" font-size="14" lengthAdjust="spacing" textLength="100" x="279.5" y="245.9951">daemon : bool</text><text fill="#000000" font-family="sans-serif" font-size="14" lengthAdjust="spacing" textLength="82" x="279.5" y="262.292">log : Logger</text><text fill="#000000" font-family="sans-serif" font-size="14" lengthAdjust="spacing" textLength="70" x="279.5" y="278.5889">name : str</text><text fill="#000000" font-family="sans-serif" font-size="14" lengthAdjust="spacing" textLength="129" x="279.5" y="294.8857">stop_event : Event</text><line style="stroke:#181818;stroke-width:0.5;" x1="274.5" x2="458.5" y1="302.1875" y2="302.1875"/><text fill="#000000" font-family="sans-serif" font-size="14" lengthAdjust="spacing" textLength="148" x="279.5" y="319.1826">init_refresh() -&gt; None</text><text fill="#000000" font-family="sans-serif" font-size="14" lengthAdjust="spacing" textLength="153" x="279.5" y="335.4795">is_refreshing() -&gt; bool</text><text fill="#000000" font-family="sans-serif" font-size="14" lengthAdjust="spacing" textLength="159" x="279.5" y="351.7764">manage_cache_tasks()</text><text fill="#000000" font-family="sans-serif" font-size="14" lengthAdjust="spacing" textLength="33" x="279.5" y="368.0732">run()</text><text fill="#000000" font-family="sans-serif" font-size="14" lengthAdjust="spacing" textLength="41" x="279.5" y="384.3701">stop()</text></g><g id="elem_elyra.pipeline.component_catalog.ComponentCache"><rect codeLine="13" fill="#F1F1F1" height="406.5313" id="elyra.pipeline.component_catalog.ComponentCache" rx="2.5" ry="2.5" style="stroke:#181818;stroke-width:0.5;" width="719" x="7" y="469"/><ellipse cx="299.25" cy="485" fill="#ADD1B2" rx="11" ry="11" style="stroke:#181818;stroke-width:1.0;"/><path d="M302.2188,490.6406 Q301.6406,490.9375 301,491.0781 Q300.3594,491.2344 299.6563,491.2344 Q297.1563,491.2344 295.8281,489.5938 Q294.5156,487.9375 294.5156,484.8125 Q294.5156,481.6875 295.8281,480.0313 Q297.1563,478.375 299.6563,478.375 Q300.3594,478.375 301,478.5313 Q301.6563,478.6875 302.2188,478.9844 L302.2188,481.7031 Q301.5938,481.125 301,480.8594 Q300.4063,480.5781 299.7813,480.5781 Q298.4375,480.5781 297.75,481.6563 Q297.0625,482.7188 297.0625,484.8125 Q297.0625,486.9063 297.75,487.9844 Q298.4375,489.0469 299.7813,489.0469 Q300.4063,489.0469 301,488.7813 Q301.5938,488.5 302.2188,487.9219 L302.2188,490.6406 Z " fill="#000000"/><text fill="#000000" font-family="sans-serif" font-size="14" lengthAdjust="spacing" textLength="126" x="319.75" y="489.8467">ComponentCache</text><line style="stroke:#181818;stroke-width:0.5;" x1="8" x2="725" y1="501" y2="501"/><text fill="#000000" font-family="sans-serif" font-size="14" lengthAdjust="spacing" textLength="110" x="13" y="517.9951">cache_manager</text><text fill="#000000" font-family="sans-serif" font-size="14" lengthAdjust="spacing" textLength="167" x="13" y="534.292">is_server_process : bool</text><text fill="#000000" font-family="sans-serif" font-size="14" lengthAdjust="spacing" textLength="83" x="13" y="550.5889">manifest_dir</text><text fill="#000000" font-family="sans-serif" font-size="14" lengthAdjust="spacing" textLength="124" x="13" y="566.8857">manifest_filename</text><text fill="#000000" font-family="sans-serif" font-size="14" lengthAdjust="spacing" textLength="707" x="13" y="583.1826">observer : WindowsApiObserver, PollingObserver, KqueueObserver, FSEventsObserver, InotifyObserver</text><text fill="#000000" font-family="sans-serif" font-size="14" lengthAdjust="spacing" textLength="282" x="13" y="599.4795">refresh_queue : Optional[RefreshQueue]</text><text fill="#000000" font-family="sans-serif" font-size="14" lengthAdjust="spacing" textLength="278" x="13" y="615.7764">update_queue : Optional[UpdateQueue]</text><line style="stroke:#181818;stroke-width:0.5;" x1="8" x2="725" y1="623.0781" y2="623.0781"/><text fill="#000000" font-family="sans-serif" font-size="14" lengthAdjust="spacing" textLength="516" x="13" y="640.0732">get_all_components(platform: RuntimeProcessorType) -&gt; List[Component]</text><text fill="#000000" font-family="sans-serif" font-size="14" lengthAdjust="spacing" textLength="655" x="13" y="656.3701">get_component(platform: RuntimeProcessorType, component_id: str) -&gt; Optional[Component]</text><text fill="#000000" font-family="sans-serif" font-size="14" lengthAdjust="spacing" textLength="479" x="13" y="672.667">get_generic_component(component_id: str) -&gt; Optional[Component]</text><text fill="#000000" font-family="sans-serif" font-size="14" lengthAdjust="spacing" textLength="548" x="13" y="688.9639">get_generic_component_from_op(component_op: str) -&gt; Optional[Component]</text><text fill="#000000" font-family="sans-serif" font-size="14" lengthAdjust="spacing" textLength="288" x="13" y="705.2607">get_generic_component_ops() -&gt; List[str]</text><text fill="#000000" font-family="sans-serif" font-size="14" lengthAdjust="spacing" textLength="327" x="13" y="721.5576">get_generic_components() -&gt; List[Component]</text><text fill="#000000" font-family="sans-serif" font-size="14" lengthAdjust="spacing" textLength="39" x="13" y="737.8545">load()</text><text fill="#000000" font-family="sans-serif" font-size="14" lengthAdjust="spacing" textLength="364" x="13" y="754.1514">load_jinja_template(template_name: str) -&gt; Template</text><text fill="#000000" font-family="sans-serif" font-size="14" lengthAdjust="spacing" textLength="612" x="13" y="770.4482">read_component_catalog(catalog: ComponentCatalogMetadata) -&gt; Dict[str, Component]</text><text fill="#000000" font-family="sans-serif" font-size="14" lengthAdjust="spacing" textLength="59" x="13" y="786.7451">refresh()</text><text fill="#000000" font-family="sans-serif" font-size="14" lengthAdjust="spacing" textLength="398" x="13" y="803.042">to_canvas_palette(components: List[Component]) -&gt; Dict</text><text fill="#000000" font-family="sans-serif" font-size="14" lengthAdjust="spacing" textLength="380" x="13" y="819.3389">to_canvas_properties(component: Component) -&gt; Dict</text><text fill="#000000" font-family="sans-serif" font-size="14" lengthAdjust="spacing" textLength="259" x="13" y="835.6357">update(catalog: Metadata, action: str)</text><text fill="#000000" font-family="sans-serif" font-size="14" lengthAdjust="spacing" textLength="563" x="13" y="851.9326">update_manifest(filename: Optional[str], manifest: Optional[Dict[str, str]]) -&gt; None</text><text fill="#000000" font-family="sans-serif" font-size="14" lengthAdjust="spacing" textLength="176" x="13" y="868.2295">wait_for_all_cache_tasks()</text></g><g id="elem_elyra.pipeline.component_catalog.ManifestFileChangeHandler"><rect codeLine="37" fill="#F1F1F1" height="113.1875" id="elyra.pipeline.component_catalog.ManifestFileChangeHandler" rx="2.5" ry="2.5" style="stroke:#181818;stroke-width:0.5;" width="220" x="256.5" y="953"/><ellipse cx="271.5" cy="969" fill="#ADD1B2" rx="11" ry="11" style="stroke:#181818;stroke-width:1.0;"/><path d="M274.4688,974.6406 Q273.8906,974.9375 273.25,975.0781 Q272.6094,975.2344 271.9063,975.2344 Q269.4063,975.2344 268.0781,973.5938 Q266.7656,971.9375 266.7656,968.8125 Q266.7656,965.6875 268.0781,964.0313 Q269.4063,962.375 271.9063,962.375 Q272.6094,962.375 273.25,962.5313 Q273.9063,962.6875 274.4688,962.9844 L274.4688,965.7031 Q273.8438,965.125 273.25,964.8594 Q272.6563,964.5781 272.0313,964.5781 Q270.6875,964.5781 270,965.6563 Q269.3125,966.7188 269.3125,968.8125 Q269.3125,970.9063 270,971.9844 Q270.6875,973.0469 272.0313,973.0469 Q272.6563,973.0469 273.25,972.7813 Q273.8438,972.5 274.4688,971.9219 L274.4688,974.6406 Z " fill="#000000"/><text fill="#000000" font-family="sans-serif" font-size="14" lengthAdjust="spacing" textLength="188" x="285.5" y="973.8467">ManifestFileChangeHandler</text><line style="stroke:#181818;stroke-width:0.5;" x1="257.5" x2="475.5" y1="985" y2="985"/><text fill="#000000" font-family="sans-serif" font-size="14" lengthAdjust="spacing" textLength="129" x="262.5" y="1001.9951">component_cache</text><text fill="#000000" font-family="sans-serif" font-size="14" lengthAdjust="spacing" textLength="21" x="262.5" y="1018.292">log</text><line style="stroke:#181818;stroke-width:0.5;" x1="257.5" x2="475.5" y1="1025.5938" y2="1025.5938"/><text fill="#000000" font-family="sans-serif" font-size="14" lengthAdjust="spacing" textLength="108" x="262.5" y="1042.5889">dispatch(event)</text><text fill="#000000" font-family="sans-serif" font-size="14" lengthAdjust="spacing" textLength="133" x="262.5" y="1058.8857">on_modified(event)</text></g><g id="elem_elyra.pipeline.component_catalog.RefreshQueue"><rect codeLine="43" fill="#F1F1F1" height="113.1875" id="elyra.pipeline.component_catalog.RefreshQueue" rx="2.5" ry="2.5" style="stroke:#181818;stroke-width:0.5;" width="287" x="15" y="7"/><ellipse cx="103.75" cy="23" fill="#ADD1B2" rx="11" ry="11" style="stroke:#181818;stroke-width:1.0;"/><path d="M106.7188,28.6406 Q106.1406,28.9375 105.5,29.0781 Q104.8594,29.2344 104.1563,29.2344 Q101.6563,29.2344 100.3281,27.5938 Q99.0156,25.9375 99.0156,22.8125 Q99.0156,19.6875 100.3281,18.0313 Q101.6563,16.375 104.1563,16.375 Q104.8594,16.375 105.5,16.5313 Q106.1563,16.6875 106.7188,16.9844 L106.7188,19.7031 Q106.0938,19.125 105.5,18.8594 Q104.9063,18.5781 104.2813,18.5781 Q102.9375,18.5781 102.25,19.6563 Q101.5625,20.7188 101.5625,22.8125 Q101.5625,24.9063 102.25,25.9844 Q102.9375,27.0469 104.2813,27.0469 Q104.9063,27.0469 105.5,26.7813 Q106.0938,26.5 106.7188,25.9219 L106.7188,28.6406 Z " fill="#000000"/><text fill="#000000" font-family="sans-serif" font-size="14" lengthAdjust="spacing" textLength="101" x="124.25" y="27.8467">RefreshQueue</text><line style="stroke:#181818;stroke-width:0.5;" x1="16" x2="301" y1="39" y2="39"/><text fill="#000000" font-family="sans-serif" font-size="14" lengthAdjust="spacing" textLength="70" x="21" y="55.9951">refreshing</text><text fill="#000000" font-family="sans-serif" font-size="14" lengthAdjust="spacing" textLength="113" x="21" y="72.292">refreshing : bool</text><line style="stroke:#181818;stroke-width:0.5;" x1="16" x2="301" y1="79.5938" y2="79.5938"/><text fill="#000000" font-family="sans-serif" font-size="14" lengthAdjust="spacing" textLength="275" x="21" y="96.5889">get(block: bool, timeout: Optional[float])</text><text fill="#000000" font-family="sans-serif" font-size="14" lengthAdjust="spacing" textLength="169" x="21" y="112.8857">put(item, block, timeout)</text></g><g id="elem_elyra.pipeline.component_catalog.UpdateQueue"><rect codeLine="49" fill="#F1F1F1" height="48" id="elyra.pipeline.component_catalog.UpdateQueue" rx="2.5" ry="2.5" style="stroke:#181818;stroke-width:0.5;" width="129" x="344" y="39.5"/><ellipse cx="359" cy="55.5" fill="#ADD1B2" rx="11" ry="11" style="stroke:#181818;stroke-width:1.0;"/><path d="M361.9688,61.1406 Q361.3906,61.4375 360.75,61.5781 Q360.1094,61.7344 359.4063,61.7344 Q356.9063,61.7344 355.5781,60.0938 Q354.2656,58.4375 354.2656,55.3125 Q354.2656,52.1875 355.5781,50.5313 Q356.9063,48.875 359.4063,48.875 Q360.1094,48.875 360.75,49.0313 Q361.4063,49.1875 361.9688,49.4844 L361.9688,52.2031 Q361.3438,51.625 360.75,51.3594 Q360.1563,51.0781 359.5313,51.0781 Q358.1875,51.0781 357.5,52.1563 Q356.8125,53.2188 356.8125,55.3125 Q356.8125,57.4063 357.5,58.4844 Q358.1875,59.5469 359.5313,59.5469 Q360.1563,59.5469 360.75,59.2813 Q361.3438,59 361.9688,58.4219 L361.9688,61.1406 Z " fill="#000000"/><text fill="#000000" font-family="sans-serif" font-size="14" lengthAdjust="spacing" textLength="97" x="373" y="60.3467">UpdateQueue</text><line style="stroke:#181818;stroke-width:0.5;" x1="345" x2="472" y1="71.5" y2="71.5"/><line style="stroke:#181818;stroke-width:0.5;" x1="345" x2="472" y1="79.5" y2="79.5"/></g><g id="link_elyra.pipeline.component_catalog.RefreshQueue_elyra.pipeline.component_catalog.ComponentCache"><path codeLine="51" d="M149.135,120.083 C140.174,186.629 132.058,300.553 162.5,392 C169.899,414.225 179.776,436.164 191.206,457.389 " fill="none" id="elyra.pipeline.component_catalog.RefreshQueue-to-elyra.pipeline.component_catalog.ComponentCache" style="stroke:#181818;stroke-width:1.0;"/><polygon fill="#181818" points="197.513,468.761,198.1003,461.5739,191.6919,458.2674,191.1046,465.4546,197.513,468.761" style="stroke:#181818;stroke-width:1.0;"/><text fill="#000000" font-family="sans-serif" font-size="13" lengthAdjust="spacing" textLength="92" x="163.5" y="299.0669">refresh_queue</text></g><g id="link_elyra.pipeline.component_catalog.UpdateQueue_elyra.pipeline.component_catalog.ComponentCache"><path codeLine="52" d="M445.664,87.711 C465.989,102.705 489.262,124.214 500.5,150 C551.952,268.058 513.196,314.703 479.5,439 C477.956,444.697 476.272,450.422 474.466,456.158 " fill="none" id="elyra.pipeline.component_catalog.UpdateQueue-to-elyra.pipeline.component_catalog.ComponentCache" style="stroke:#181818;stroke-width:1.0;"/><polygon fill="#181818" points="470.328,468.724,476.0044,464.2767,474.0824,457.3264,468.406,461.7738,470.328,468.724" style="stroke:#181818;stroke-width:1.0;"/><text fill="#000000" font-family="sans-serif" font-size="13" lengthAdjust="spacing" textLength="92" x="525.5" y="299.0669">update_queue</text></g><g id="link_elyra.pipeline.component_catalog.CacheUpdateManager_elyra.pipeline.component_catalog.ComponentCache"><path codeLine="53" d="M366.5,392.329 C366.5,412.156 366.5,433.767 366.5,455.899 " fill="none" id="elyra.pipeline.component_catalog.CacheUpdateManager-to-elyra.pipeline.component_catalog.ComponentCache" style="stroke:#181818;stroke-width:1.0;"/><polygon fill="none" points="366.5,468.982,370.5,462.982,366.5,456.982,362.5,462.982,366.5,468.982" style="stroke:#181818;stroke-width:1.0;"/><text fill="#000000" font-family="sans-serif" font-size="13" lengthAdjust="spacing" textLength="103" x="367.5" y="435.0669">cache_manager</text></g><g id="link_elyra.pipeline.component_catalog.ComponentCache_elyra.pipeline.component_catalog.ManifestFileChangeHandler"><path codeLine="54" d="M366.5,876.099 C366.5,898.828 366.5,920.655 366.5,939.801 " fill="none" id="elyra.pipeline.component_catalog.ComponentCache-to-elyra.pipeline.component_catalog.ManifestFileChangeHandler" style="stroke:#181818;stroke-width:1.0;"/><polygon fill="none" points="366.5,952.923,370.5,946.923,366.5,940.923,362.5,946.923,366.5,952.923" style="stroke:#181818;stroke-width:1.0;"/><text fill="#000000" font-family="sans-serif" font-size="13" lengthAdjust="spacing" textLength="118" x="367.5" y="919.0669">component_cache</text></g><g id="link_elyra.pipeline.component_catalog.RefreshQueue_elyra.pipeline.component_catalog.CacheUpdateManager"><path codeLine="55" d="M209.117,120.227 C227.425,140.384 248.761,163.874 269.706,186.934 " fill="none" id="elyra.pipeline.component_catalog.RefreshQueue-to-elyra.pipeline.component_catalog.CacheUpdateManager" style="stroke:#181818;stroke-width:1.0;"/><polygon fill="none" points="278.648,196.779,277.575,189.6482,270.58,187.896,271.653,195.0268,278.648,196.779" style="stroke:#181818;stroke-width:1.0;"/><text fill="#000000" font-family="sans-serif" font-size="13" lengthAdjust="spacing" textLength="99" x="250.5" y="163.0669">_refresh_queue</text></g><g id="link_elyra.pipeline.component_catalog.UpdateQueue_elyra.pipeline.component_catalog.CacheUpdateManager"><path codeLine="56" d="M404.242,87.718 C400.016,110.756 393.225,147.786 386.56,184.126 " fill="none" id="elyra.pipeline.component_catalog.UpdateQueue-to-elyra.pipeline.component_catalog.CacheUpdateManager" style="stroke:#181818;stroke-width:1.0;"/><polygon fill="none" points="384.212,196.927,389.2284,191.7467,386.3759,185.1237,381.3595,190.3041,384.212,196.927" style="stroke:#181818;stroke-width:1.0;"/><text fill="#000000" font-family="sans-serif" font-size="13" lengthAdjust="spacing" textLength="99" x="392.5" y="163.0669">_update_queue</text></g></g></svg>