<?xml version="1.0" encoding="UTF-8" standalone="no"?><svg xmlns="http://www.w3.org/2000/svg" xmlns:xlink="http://www.w3.org/1999/xlink" contentStyleType="text/css" height="817px" preserveAspectRatio="none" style="width:2023px;height:817px;background:#FFFFFF;" version="1.1" viewBox="0 0 2023 817" width="2023px" zoomAndPan="magnify"><defs/><g><g id="elem_elyra.pipeline.component.Component"><rect codeLine="2" fill="#F1F1F1" height="357.6406" id="elyra.pipeline.component.Component" rx="2.5" ry="2.5" style="stroke:#181818;stroke-width:0.5;" width="381" x="7" y="7"/><ellipse cx="152.25" cy="23" fill="#ADD1B2" rx="11" ry="11" style="stroke:#181818;stroke-width:1.0;"/><path d="M155.2188,28.6406 Q154.6406,28.9375 154,29.0781 Q153.3594,29.2344 152.6563,29.2344 Q150.1563,29.2344 148.8281,27.5938 Q147.5156,25.9375 147.5156,22.8125 Q147.5156,19.6875 148.8281,18.0313 Q150.1563,16.375 152.6563,16.375 Q153.3594,16.375 154,16.5313 Q154.6563,16.6875 155.2188,16.9844 L155.2188,19.7031 Q154.5938,19.125 154,18.8594 Q153.4063,18.5781 152.7813,18.5781 Q151.4375,18.5781 150.75,19.6563 Q150.0625,20.7188 150.0625,22.8125 Q150.0625,24.9063 150.75,25.9844 Q151.4375,27.0469 152.7813,27.0469 Q153.4063,27.0469 154,26.7813 Q154.5938,26.5 155.2188,25.9219 L155.2188,28.6406 Z " fill="#000000"/><text fill="#000000" font-family="sans-serif" font-size="14" lengthAdjust="spacing" textLength="82" x="172.75" y="27.8467">Component</text><line style="stroke:#181818;stroke-width:0.5;" x1="8" x2="387" y1="39" y2="39"/><text fill="#000000" font-family="sans-serif" font-size="14" lengthAdjust="spacing" textLength="87" x="13" y="55.9951">catalog_type</text><text fill="#000000" font-family="sans-serif" font-size="14" lengthAdjust="spacing" textLength="73" x="13" y="72.292">categories</text><text fill="#000000" font-family="sans-serif" font-size="14" lengthAdjust="spacing" textLength="154" x="13" y="88.5889">component_reference</text><text fill="#000000" font-family="sans-serif" font-size="14" lengthAdjust="spacing" textLength="135" x="13" y="104.8857">component_source</text><text fill="#000000" font-family="sans-serif" font-size="14" lengthAdjust="spacing" textLength="63" x="13" y="121.1826">definition</text><text fill="#000000" font-family="sans-serif" font-size="14" lengthAdjust="spacing" textLength="77" x="13" y="137.4795">description</text><text fill="#000000" font-family="sans-serif" font-size="14" lengthAdjust="spacing" textLength="76" x="13" y="153.7764">extensions</text><text fill="#000000" font-family="sans-serif" font-size="14" lengthAdjust="spacing" textLength="94" x="13" y="170.0732">file_extension</text><text fill="#000000" font-family="sans-serif" font-size="14" lengthAdjust="spacing" textLength="12" x="13" y="186.3701">id</text><text fill="#000000" font-family="sans-serif" font-size="14" lengthAdjust="spacing" textLength="122" x="13" y="202.667">import_statement</text><text fill="#000000" font-family="sans-serif" font-size="14" lengthAdjust="spacing" textLength="113" x="13" y="218.9639">input_properties</text><text fill="#000000" font-family="sans-serif" font-size="14" lengthAdjust="spacing" textLength="39" x="13" y="235.2607">name</text><text fill="#000000" font-family="sans-serif" font-size="14" lengthAdjust="spacing" textLength="18" x="13" y="251.5576">op</text><text fill="#000000" font-family="sans-serif" font-size="14" lengthAdjust="spacing" textLength="124" x="13" y="267.8545">output_properties</text><text fill="#000000" font-family="sans-serif" font-size="14" lengthAdjust="spacing" textLength="104" x="13" y="284.1514">parameter_refs</text><text fill="#000000" font-family="sans-serif" font-size="14" lengthAdjust="spacing" textLength="71" x="13" y="300.4482">properties</text><text fill="#000000" font-family="sans-serif" font-size="14" lengthAdjust="spacing" textLength="136" x="13" y="316.7451">required_properties</text><text fill="#000000" font-family="sans-serif" font-size="14" lengthAdjust="spacing" textLength="90" x="13" y="333.042">runtime_type</text><line style="stroke:#181818;stroke-width:0.5;" x1="8" x2="387" y1="340.3438" y2="340.3438"/><text fill="#000000" font-family="sans-serif" font-size="14" lengthAdjust="spacing" textLength="369" x="13" y="357.3389">get_elyra_parameters() -&gt; List[ComponentParameter]</text></g><g id="elem_elyra.pipeline.component_parameter.ComponentParameter"><rect codeLine="23" fill="#F1F1F1" height="227.2656" id="elyra.pipeline.component_parameter.ComponentParameter" rx="2.5" ry="2.5" style="stroke:#181818;stroke-width:0.5;" width="446" x="422.5" y="72.5"/><ellipse cx="564.75" cy="88.5" fill="#ADD1B2" rx="11" ry="11" style="stroke:#181818;stroke-width:1.0;"/><path d="M567.7188,94.1406 Q567.1406,94.4375 566.5,94.5781 Q565.8594,94.7344 565.1563,94.7344 Q562.6563,94.7344 561.3281,93.0938 Q560.0156,91.4375 560.0156,88.3125 Q560.0156,85.1875 561.3281,83.5313 Q562.6563,81.875 565.1563,81.875 Q565.8594,81.875 566.5,82.0313 Q567.1563,82.1875 567.7188,82.4844 L567.7188,85.2031 Q567.0938,84.625 566.5,84.3594 Q565.9063,84.0781 565.2813,84.0781 Q563.9375,84.0781 563.25,85.1563 Q562.5625,86.2188 562.5625,88.3125 Q562.5625,90.4063 563.25,91.4844 Q563.9375,92.5469 565.2813,92.5469 Q565.9063,92.5469 566.5,92.2813 Q567.0938,92 567.7188,91.4219 L567.7188,94.1406 Z " fill="#000000"/><text fill="#000000" font-family="sans-serif" font-size="14" lengthAdjust="spacing" textLength="153" x="585.25" y="93.3467">ComponentParameter</text><line style="stroke:#181818;stroke-width:0.5;" x1="423.5" x2="867.5" y1="104.5" y2="104.5"/><text fill="#000000" font-family="sans-serif" font-size="14" lengthAdjust="spacing" textLength="118" x="428.5" y="121.4951">allow_no_options</text><text fill="#000000" font-family="sans-serif" font-size="14" lengthAdjust="spacing" textLength="139" x="428.5" y="137.792">allowed_input_types</text><text fill="#000000" font-family="sans-serif" font-size="14" lengthAdjust="spacing" textLength="77" x="428.5" y="154.0889">description</text><text fill="#000000" font-family="sans-serif" font-size="14" lengthAdjust="spacing" textLength="38" x="428.5" y="170.3857">items</text><text fill="#000000" font-family="sans-serif" font-size="14" lengthAdjust="spacing" textLength="103" x="428.5" y="186.6826">json_data_type</text><text fill="#000000" font-family="sans-serif" font-size="14" lengthAdjust="spacing" textLength="39" x="428.5" y="202.9795">name</text><text fill="#000000" font-family="sans-serif" font-size="14" lengthAdjust="spacing" textLength="18" x="428.5" y="219.2764">ref</text><text fill="#000000" font-family="sans-serif" font-size="14" lengthAdjust="spacing" textLength="58" x="428.5" y="235.5732">required</text><text fill="#000000" font-family="sans-serif" font-size="14" lengthAdjust="spacing" textLength="36" x="428.5" y="251.8701">value</text><text fill="#000000" font-family="sans-serif" font-size="14" lengthAdjust="spacing" textLength="115" x="428.5" y="268.167">value_entry_type</text><line style="stroke:#181818;stroke-width:0.5;" x1="423.5" x2="867.5" y1="275.4688" y2="275.4688"/><text fill="#000000" font-family="sans-serif" font-size="14" lengthAdjust="spacing" textLength="434" x="428.5" y="292.4639">render_parameter_details(param: ComponentParameter) -&gt; str</text></g><g id="elem_elyra.pipeline.component.ComponentParser"><rect codeLine="36" fill="#F1F1F1" height="129.4844" id="elyra.pipeline.component.ComponentParser" rx="2.5" ry="2.5" style="stroke:#181818;stroke-width:0.5;" width="588" x="461.5" y="681"/><ellipse cx="688.25" cy="697" fill="#ADD1B2" rx="11" ry="11" style="stroke:#181818;stroke-width:1.0;"/><path d="M691.2188,702.6406 Q690.6406,702.9375 690,703.0781 Q689.3594,703.2344 688.6563,703.2344 Q686.1563,703.2344 684.8281,701.5938 Q683.5156,699.9375 683.5156,696.8125 Q683.5156,693.6875 684.8281,692.0313 Q686.1563,690.375 688.6563,690.375 Q689.3594,690.375 690,690.5313 Q690.6563,690.6875 691.2188,690.9844 L691.2188,693.7031 Q690.5938,693.125 690,692.8594 Q689.4063,692.5781 688.7813,692.5781 Q687.4375,692.5781 686.75,693.6563 Q686.0625,694.7188 686.0625,696.8125 Q686.0625,698.9063 686.75,699.9844 Q687.4375,701.0469 688.7813,701.0469 Q689.4063,701.0469 690,700.7813 Q690.5938,700.5 691.2188,699.9219 L691.2188,702.6406 Z " fill="#000000"/><text fill="#000000" font-family="sans-serif" font-size="14" lengthAdjust="spacing" textLength="126" x="708.75" y="701.8467">ComponentParser</text><line style="stroke:#181818;stroke-width:0.5;" x1="462.5" x2="1048.5" y1="713" y2="713"/><text fill="#000000" font-family="sans-serif" font-size="14" lengthAdjust="spacing" textLength="385" x="467.5" y="729.9951">component_platform : Optional[RuntimeProcessorType]</text><text fill="#000000" font-family="sans-serif" font-size="14" lengthAdjust="spacing" textLength="64" x="467.5" y="746.292">file_types</text><line style="stroke:#181818;stroke-width:0.5;" x1="462.5" x2="1048.5" y1="753.5938" y2="753.5938"/><text fill="#000000" font-family="sans-serif" font-size="14" lengthAdjust="spacing" textLength="498" x="467.5" y="770.5889">create_instance(platform: RuntimeProcessorType) -&gt; ComponentParser</text><text fill="#000000" font-family="sans-serif" font-size="14" lengthAdjust="spacing" textLength="475" x="467.5" y="786.8857">determine_type_information(parsed_type: str) -&gt; 'ParameterTypeInfo'</text><text fill="#000000" font-family="sans-serif" font-size="14" font-style="italic" lengthAdjust="spacing" textLength="576" x="467.5" y="803.1826">parse(catalog_entry: catalog_connector.CatalogEntry) -&gt; Optional[List[Component]]</text></g><g id="elem_elyra.pipeline.kfp.component_parser_kfp.KfpComponentParser"><rect codeLine="43" fill="#F1F1F1" height="96.8906" id="elyra.pipeline.kfp.component_parser_kfp.KfpComponentParser" rx="2.5" ry="2.5" style="stroke:#181818;stroke-width:0.5;" width="479" x="381" y="482.5"/><ellipse cx="542.25" cy="498.5" fill="#ADD1B2" rx="11" ry="11" style="stroke:#181818;stroke-width:1.0;"/><path d="M545.2188,504.1406 Q544.6406,504.4375 544,504.5781 Q543.3594,504.7344 542.6563,504.7344 Q540.1563,504.7344 538.8281,503.0938 Q537.5156,501.4375 537.5156,498.3125 Q537.5156,495.1875 538.8281,493.5313 Q540.1563,491.875 542.6563,491.875 Q543.3594,491.875 544,492.0313 Q544.6563,492.1875 545.2188,492.4844 L545.2188,495.2031 Q544.5938,494.625 544,494.3594 Q543.4063,494.0781 542.7813,494.0781 Q541.4375,494.0781 540.75,495.1563 Q540.0625,496.2188 540.0625,498.3125 Q540.0625,500.4063 540.75,501.4844 Q541.4375,502.5469 542.7813,502.5469 Q543.4063,502.5469 544,502.2813 Q544.5938,502 545.2188,501.4219 L545.2188,504.1406 Z " fill="#000000"/><text fill="#000000" font-family="sans-serif" font-size="14" lengthAdjust="spacing" textLength="148" x="562.75" y="503.3467">KfpComponentParser</text><line style="stroke:#181818;stroke-width:0.5;" x1="382" x2="859" y1="514.5" y2="514.5"/><text fill="#000000" font-family="sans-serif" font-size="14" lengthAdjust="spacing" textLength="143" x="387" y="531.4951">component_platform</text><line style="stroke:#181818;stroke-width:0.5;" x1="382" x2="859" y1="538.7969" y2="538.7969"/><text fill="#000000" font-family="sans-serif" font-size="14" lengthAdjust="spacing" textLength="467" x="387" y="555.792">determine_type_information(parsed_type: str) -&gt; SimpleNamespace</text><text fill="#000000" font-family="sans-serif" font-size="14" lengthAdjust="spacing" textLength="444" x="387" y="572.0889">parse(catalog_entry: CatalogEntry) -&gt; Optional[List[Component]]</text></g><g id="elem_elyra.pipeline.runtime_type.KubeflowPipelinesResources"><rect codeLine="48" fill="#F1F1F1" height="96.8906" id="elyra.pipeline.runtime_type.KubeflowPipelinesResources" rx="2.5" ry="2.5" style="stroke:#181818;stroke-width:0.5;" width="232" x="1481.5" y="137.5"/><ellipse cx="1496.5" cy="153.5" fill="#ADD1B2" rx="11" ry="11" style="stroke:#181818;stroke-width:1.0;"/><path d="M1499.4688,159.1406 Q1498.8906,159.4375 1498.25,159.5781 Q1497.6094,159.7344 1496.9063,159.7344 Q1494.4063,159.7344 1493.0781,158.0938 Q1491.7656,156.4375 1491.7656,153.3125 Q1491.7656,150.1875 1493.0781,148.5313 Q1494.4063,146.875 1496.9063,146.875 Q1497.6094,146.875 1498.25,147.0313 Q1498.9063,147.1875 1499.4688,147.4844 L1499.4688,150.2031 Q1498.8438,149.625 1498.25,149.3594 Q1497.6563,149.0781 1497.0313,149.0781 Q1495.6875,149.0781 1495,150.1563 Q1494.3125,151.2188 1494.3125,153.3125 Q1494.3125,155.4063 1495,156.4844 Q1495.6875,157.5469 1497.0313,157.5469 Q1497.6563,157.5469 1498.25,157.2813 Q1498.8438,157 1499.4688,156.4219 L1499.4688,159.1406 Z " fill="#000000"/><text fill="#000000" font-family="sans-serif" font-size="14" lengthAdjust="spacing" textLength="200" x="1510.5" y="158.3467">KubeflowPipelinesResources</text><line style="stroke:#181818;stroke-width:0.5;" x1="1482.5" x2="1712.5" y1="169.5" y2="169.5"/><text fill="#000000" font-family="sans-serif" font-size="14" lengthAdjust="spacing" textLength="147" x="1487.5" y="186.4951">export_file_types : list</text><text fill="#000000" font-family="sans-serif" font-size="14" lengthAdjust="spacing" textLength="129" x="1487.5" y="202.792">icon_endpoint : str</text><text fill="#000000" font-family="sans-serif" font-size="14" lengthAdjust="spacing" textLength="195" x="1487.5" y="219.0889">type : KUBEFLOW_PIPELINES</text><line style="stroke:#181818;stroke-width:0.5;" x1="1482.5" x2="1712.5" y1="226.3906" y2="226.3906"/></g><g id="elem_elyra.pipeline.runtime_type.RuntimeProcessorType"><rect codeLine="53" fill="#F1F1F1" height="96.8906" id="elyra.pipeline.runtime_type.RuntimeProcessorType" rx="2.5" ry="2.5" style="stroke:#181818;stroke-width:0.5;" width="439" x="904" y="137.5"/><ellipse cx="1038.25" cy="153.5" fill="#ADD1B2" rx="11" ry="11" style="stroke:#181818;stroke-width:1.0;"/><path d="M1041.2188,159.1406 Q1040.6406,159.4375 1040,159.5781 Q1039.3594,159.7344 1038.6563,159.7344 Q1036.1563,159.7344 1034.8281,158.0938 Q1033.5156,156.4375 1033.5156,153.3125 Q1033.5156,150.1875 1034.8281,148.5313 Q1036.1563,146.875 1038.6563,146.875 Q1039.3594,146.875 1040,147.0313 Q1040.6563,147.1875 1041.2188,147.4844 L1041.2188,150.2031 Q1040.5938,149.625 1040,149.3594 Q1039.4063,149.0781 1038.7813,149.0781 Q1037.4375,149.0781 1036.75,150.1563 Q1036.0625,151.2188 1036.0625,153.3125 Q1036.0625,155.4063 1036.75,156.4844 Q1037.4375,157.5469 1038.7813,157.5469 Q1039.4063,157.5469 1040,157.2813 Q1040.5938,157 1041.2188,156.4219 L1041.2188,159.1406 Z " fill="#000000"/><text fill="#000000" font-family="sans-serif" font-size="14" lengthAdjust="spacing" textLength="162" x="1058.75" y="158.3467">RuntimeProcessorType</text><line style="stroke:#181818;stroke-width:0.5;" x1="905" x2="1342" y1="169.5" y2="169.5"/><text fill="#000000" font-family="sans-serif" font-size="14" lengthAdjust="spacing" textLength="39" x="910" y="186.4951">name</text><line style="stroke:#181818;stroke-width:0.5;" x1="905" x2="1342" y1="193.7969" y2="193.7969"/><text fill="#000000" font-family="sans-serif" font-size="14" lengthAdjust="spacing" textLength="427" x="910" y="210.792">get_instance_by_name(name: str) -&gt; 'RuntimeProcessorType'</text><text fill="#000000" font-family="sans-serif" font-size="14" lengthAdjust="spacing" textLength="421" x="910" y="227.0889">get_instance_by_value(value: str) -&gt; 'RuntimeProcessorType'</text></g><g id="elem_elyra.pipeline.runtime_type.RuntimeTypeResources"><rect codeLine="58" fill="#F1F1F1" height="178.375" id="elyra.pipeline.runtime_type.RuntimeTypeResources" rx="2.5" ry="2.5" style="stroke:#181818;stroke-width:0.5;" width="630" x="1386.5" y="442"/><ellipse cx="1613.75" cy="458" fill="#ADD1B2" rx="11" ry="11" style="stroke:#181818;stroke-width:1.0;"/><path d="M1616.7188,463.6406 Q1616.1406,463.9375 1615.5,464.0781 Q1614.8594,464.2344 1614.1563,464.2344 Q1611.6563,464.2344 1610.3281,462.5938 Q1609.0156,460.9375 1609.0156,457.8125 Q1609.0156,454.6875 1610.3281,453.0313 Q1611.6563,451.375 1614.1563,451.375 Q1614.8594,451.375 1615.5,451.5313 Q1616.1563,451.6875 1616.7188,451.9844 L1616.7188,454.7031 Q1616.0938,454.125 1615.5,453.8594 Q1614.9063,453.5781 1614.2813,453.5781 Q1612.9375,453.5781 1612.25,454.6563 Q1611.5625,455.7188 1611.5625,457.8125 Q1611.5625,459.9063 1612.25,460.9844 Q1612.9375,462.0469 1614.2813,462.0469 Q1614.9063,462.0469 1615.5,461.7813 Q1616.0938,461.5 1616.7188,460.9219 L1616.7188,463.6406 Z " fill="#000000"/><text fill="#000000" font-family="sans-serif" font-size="14" lengthAdjust="spacing" textLength="167" x="1634.25" y="462.8467">RuntimeTypeResources</text><line style="stroke:#181818;stroke-width:0.5;" x1="1387.5" x2="2015.5" y1="474" y2="474"/><text fill="#000000" font-family="sans-serif" font-size="14" lengthAdjust="spacing" textLength="93" x="1392.5" y="490.9951">display_name</text><text fill="#000000" font-family="sans-serif" font-size="14" lengthAdjust="spacing" textLength="242" x="1392.5" y="507.292">export_file_types : List[Dict[str, str]]</text><text fill="#000000" font-family="sans-serif" font-size="14" lengthAdjust="spacing" textLength="129" x="1392.5" y="523.5889">icon_endpoint : str</text><text fill="#000000" font-family="sans-serif" font-size="14" lengthAdjust="spacing" textLength="12" x="1392.5" y="539.8857">id</text><text fill="#000000" font-family="sans-serif" font-size="14" lengthAdjust="spacing" textLength="30" x="1392.5" y="556.1826">type</text><line style="stroke:#181818;stroke-width:0.5;" x1="1387.5" x2="2015.5" y1="563.4844" y2="563.4844"/><text fill="#000000" font-family="sans-serif" font-size="14" lengthAdjust="spacing" textLength="243" x="1392.5" y="580.4795">get_export_extensions() -&gt; List[str]</text><text fill="#000000" font-family="sans-serif" font-size="14" lengthAdjust="spacing" textLength="618" x="1392.5" y="596.7764">get_instance_by_type(runtime_type: RuntimeProcessorType) -&gt; 'RuntimeTypeResources'</text><text fill="#000000" font-family="sans-serif" font-size="14" lengthAdjust="spacing" textLength="169" x="1392.5" y="613.0732">to_dict() -&gt; Dict[str, Any]</text></g><g id="elem_elyra.pipeline.wfp.component_parser_wfp.WfpComponentParser"><rect codeLine="68" fill="#F1F1F1" height="80.5938" id="elyra.pipeline.wfp.component_parser_wfp.WfpComponentParser" rx="2.5" ry="2.5" style="stroke:#181818;stroke-width:0.5;" width="456" x="895.5" y="490.5"/><ellipse cx="1043.25" cy="506.5" fill="#ADD1B2" rx="11" ry="11" style="stroke:#181818;stroke-width:1.0;"/><path d="M1046.2188,512.1406 Q1045.6406,512.4375 1045,512.5781 Q1044.3594,512.7344 1043.6563,512.7344 Q1041.1563,512.7344 1039.8281,511.0938 Q1038.5156,509.4375 1038.5156,506.3125 Q1038.5156,503.1875 1039.8281,501.5313 Q1041.1563,499.875 1043.6563,499.875 Q1044.3594,499.875 1045,500.0313 Q1045.6563,500.1875 1046.2188,500.4844 L1046.2188,503.2031 Q1045.5938,502.625 1045,502.3594 Q1044.4063,502.0781 1043.7813,502.0781 Q1042.4375,502.0781 1041.75,503.1563 Q1041.0625,504.2188 1041.0625,506.3125 Q1041.0625,508.4063 1041.75,509.4844 Q1042.4375,510.5469 1043.7813,510.5469 Q1044.4063,510.5469 1045,510.2813 Q1045.5938,510 1046.2188,509.4219 L1046.2188,512.1406 Z " fill="#000000"/><text fill="#000000" font-family="sans-serif" font-size="14" lengthAdjust="spacing" textLength="152" x="1063.75" y="511.3467">WfpComponentParser</text><line style="stroke:#181818;stroke-width:0.5;" x1="896.5" x2="1350.5" y1="522.5" y2="522.5"/><text fill="#000000" font-family="sans-serif" font-size="14" lengthAdjust="spacing" textLength="143" x="901.5" y="539.4951">component_platform</text><line style="stroke:#181818;stroke-width:0.5;" x1="896.5" x2="1350.5" y1="546.7969" y2="546.7969"/><text fill="#000000" font-family="sans-serif" font-size="14" lengthAdjust="spacing" textLength="444" x="901.5" y="563.792">parse(catalog_entry: CatalogEntry) -&gt; Optional[List[Component]]</text></g><g id="elem_elyra.pipeline.runtime_type.WfpPipelinesResources"><rect codeLine="72" fill="#F1F1F1" height="96.8906" id="elyra.pipeline.runtime_type.WfpPipelinesResources" rx="2.5" ry="2.5" style="stroke:#181818;stroke-width:0.5;" width="212" x="1748.5" y="137.5"/><ellipse cx="1771.15" cy="153.5" fill="#ADD1B2" rx="11" ry="11" style="stroke:#181818;stroke-width:1.0;"/><path d="M1774.1188,159.1406 Q1773.5406,159.4375 1772.9,159.5781 Q1772.2594,159.7344 1771.5563,159.7344 Q1769.0563,159.7344 1767.7281,158.0938 Q1766.4156,156.4375 1766.4156,153.3125 Q1766.4156,150.1875 1767.7281,148.5313 Q1769.0563,146.875 1771.5563,146.875 Q1772.2594,146.875 1772.9,147.0313 Q1773.5563,147.1875 1774.1188,147.4844 L1774.1188,150.2031 Q1773.4938,149.625 1772.9,149.3594 Q1772.3063,149.0781 1771.6813,149.0781 Q1770.3375,149.0781 1769.65,150.1563 Q1768.9625,151.2188 1768.9625,153.3125 Q1768.9625,155.4063 1769.65,156.4844 Q1770.3375,157.5469 1771.6813,157.5469 Q1772.3063,157.5469 1772.9,157.2813 Q1773.4938,157 1774.1188,156.4219 L1774.1188,159.1406 Z " fill="#000000"/><text fill="#000000" font-family="sans-serif" font-size="14" lengthAdjust="spacing" textLength="163" x="1786.85" y="158.3467">WfpPipelinesResources</text><line style="stroke:#181818;stroke-width:0.5;" x1="1749.5" x2="1959.5" y1="169.5" y2="169.5"/><text fill="#000000" font-family="sans-serif" font-size="14" lengthAdjust="spacing" textLength="147" x="1754.5" y="186.4951">export_file_types : list</text><text fill="#000000" font-family="sans-serif" font-size="14" lengthAdjust="spacing" textLength="129" x="1754.5" y="202.792">icon_endpoint : str</text><text fill="#000000" font-family="sans-serif" font-size="14" lengthAdjust="spacing" textLength="200" x="1754.5" y="219.0889">type : WORKFLOW_PIPELINES</text><line style="stroke:#181818;stroke-width:0.5;" x1="1749.5" x2="1959.5" y1="226.3906" y2="226.3906"/></g><g id="link_elyra.pipeline.kfp.component_parser_kfp.KfpComponentParser_elyra.pipeline.component.ComponentParser"><path codeLine="77" d="M650.797,579.689 C666.505,604.415 686.122,635.294 704.116,663.618 " fill="none" id="elyra.pipeline.kfp.component_parser_kfp.KfpComponentParser-to-elyra.pipeline.component.ComponentParser" style="stroke:#181818;stroke-width:1.0;"/><polygon fill="none" points="710.245,660.211,715.061,680.846,698.428,667.719,710.245,660.211" style="stroke:#181818;stroke-width:1.0;"/></g><g id="link_elyra.pipeline.runtime_type.KubeflowPipelinesResources_elyra.pipeline.runtime_type.RuntimeTypeResources"><path codeLine="78" d="M1611.96,234.693 C1626.6,282.966 1649.73,359.261 1668.82,422.209 " fill="none" id="elyra.pipeline.runtime_type.KubeflowPipelinesResources-to-elyra.pipeline.runtime_type.RuntimeTypeResources" style="stroke:#181818;stroke-width:1.0;"/><polygon fill="none" points="1675.62,420.526,1674.73,441.697,1662.22,424.588,1675.62,420.526" style="stroke:#181818;stroke-width:1.0;"/></g><g id="link_elyra.pipeline.runtime_type.WfpPipelinesResources_elyra.pipeline.runtime_type.RuntimeTypeResources"><path codeLine="79" d="M1833.23,234.693 C1811.55,283.279 1777.22,360.251 1749.04,423.431 " fill="none" id="elyra.pipeline.runtime_type.WfpPipelinesResources-to-elyra.pipeline.runtime_type.RuntimeTypeResources" style="stroke:#181818;stroke-width:1.0;"/><polygon fill="none" points="1755.43,426.283,1740.89,441.697,1742.64,420.58,1755.43,426.283" style="stroke:#181818;stroke-width:1.0;"/></g><g id="link_elyra.pipeline.wfp.component_parser_wfp.WfpComponentParser_elyra.pipeline.component.ComponentParser"><path codeLine="80" d="M1054.71,571.72 C1006.544,599.535 940.748,637.529 883.119,670.807 " fill="none" id="elyra.pipeline.wfp.component_parser_wfp.WfpComponentParser-to-elyra.pipeline.component.ComponentParser" style="stroke:#181818;stroke-width:1.0;"/><polygon fill="none" points="886.345,677.027,865.525,680.966,879.344,664.903,886.345,677.027" style="stroke:#181818;stroke-width:1.0;"/></g><g id="link_elyra.pipeline.runtime_type.RuntimeProcessorType_elyra.pipeline.kfp.component_parser_kfp.KfpComponentParser"><path codeLine="81" d="M1063.21,234.622 C1015.95,271.376 948.095,322.888 886.5,365 C829.869,403.718 764.408,444.373 712.596,475.64 " fill="none" id="elyra.pipeline.runtime_type.RuntimeProcessorType-to-elyra.pipeline.kfp.component_parser_kfp.KfpComponentParser" style="stroke:#181818;stroke-width:1.0;"/><polygon fill="#181818" points="701.42,482.366,708.6234,482.6996,711.7019,476.1787,704.4985,475.845,701.42,482.366" style="stroke:#181818;stroke-width:1.0;"/><text fill="#000000" font-family="sans-serif" font-size="13" lengthAdjust="spacing" textLength="134" x="837.5" y="408.0669">component_platform</text></g><g id="link_elyra.pipeline.runtime_type.RuntimeProcessorType_elyra.pipeline.runtime_type.RuntimeTypeResources"><path codeLine="82" d="M1203.56,234.512 C1290.61,286.169 1431.99,370.066 1541.9,435.29 " fill="none" id="elyra.pipeline.runtime_type.RuntimeProcessorType-to-elyra.pipeline.runtime_type.RuntimeTypeResources" style="stroke:#181818;stroke-width:1.0;"/><polygon fill="#181818" points="1553.11,441.942,1549.9889,435.4413,1542.7879,435.8221,1545.909,442.3227,1553.11,441.942" style="stroke:#181818;stroke-width:1.0;"/><text fill="#000000" font-family="sans-serif" font-size="13" lengthAdjust="spacing" textLength="28" x="1498.5" y="408.0669">type</text></g><g id="link_elyra.pipeline.runtime_type.RuntimeProcessorType_elyra.pipeline.wfp.component_parser_wfp.WfpComponentParser"><path codeLine="83" d="M1123.5,234.693 C1123.5,298.364 1123.5,410.786 1123.5,477.028 " fill="none" id="elyra.pipeline.runtime_type.RuntimeProcessorType-to-elyra.pipeline.wfp.component_parser_wfp.WfpComponentParser" style="stroke:#181818;stroke-width:1.0;"/><polygon fill="#181818" points="1123.5,490.429,1127.5,484.429,1123.5,478.429,1119.5,484.429,1123.5,490.429" style="stroke:#181818;stroke-width:1.0;"/><text fill="#000000" font-family="sans-serif" font-size="13" lengthAdjust="spacing" textLength="134" x="1124.5" y="408.0669">component_platform</text></g></g></svg>