<?xml version="1.0" encoding="UTF-8" standalone="no"?><svg xmlns="http://www.w3.org/2000/svg" xmlns:xlink="http://www.w3.org/1999/xlink" contentStyleType="text/css" height="381px" preserveAspectRatio="none" style="width:1774px;height:381px;background:#FFFFFF;" version="1.1" viewBox="0 0 1774 381" width="1774px" zoomAndPan="magnify"><defs/><g><g id="elem_elyra.pipeline.catalog_connector.ComponentCatalogConnector"><rect codeLine="2" fill="#F1F1F1" height="194.6719" id="elyra.pipeline.catalog_connector.ComponentCatalogConnector" rx="2.5" ry="2.5" style="stroke:#181818;stroke-width:0.5;" width="736" x="519" y="180"/><ellipse cx="779.25" cy="196" fill="#ADD1B2" rx="11" ry="11" style="stroke:#181818;stroke-width:1.0;"/><path d="M782.2188,201.6406 Q781.6406,201.9375 781,202.0781 Q780.3594,202.2344 779.6563,202.2344 Q777.1563,202.2344 775.8281,200.5938 Q774.5156,198.9375 774.5156,195.8125 Q774.5156,192.6875 775.8281,191.0313 Q777.1563,189.375 779.6563,189.375 Q780.3594,189.375 781,189.5313 Q781.6563,189.6875 782.2188,189.9844 L782.2188,192.7031 Q781.5938,192.125 781,191.8594 Q780.4063,191.5781 779.7813,191.5781 Q778.4375,191.5781 777.75,192.6563 Q777.0625,193.7188 777.0625,195.8125 Q777.0625,197.9063 777.75,198.9844 Q778.4375,200.0469 779.7813,200.0469 Q780.4063,200.0469 781,199.7813 Q781.5938,199.5 782.2188,198.9219 L782.2188,201.6406 Z " fill="#000000"/><text fill="#000000" font-family="sans-serif" font-size="14" lengthAdjust="spacing" textLength="207" x="799.75" y="200.8467">ComponentCatalogConnector</text><line style="stroke:#181818;stroke-width:0.5;" x1="520" x2="1254" y1="212" y2="212"/><text fill="#000000" font-family="sans-serif" font-size="14" lengthAdjust="spacing" textLength="118" x="525" y="228.9951">max_readers : Int</text><text fill="#000000" font-family="sans-serif" font-size="14" lengthAdjust="spacing" textLength="151" x="525" y="245.292">max_readers_env : str</text><text fill="#000000" font-family="sans-serif" font-size="14" lengthAdjust="spacing" textLength="172" x="525" y="261.5889">max_threads_default : int</text><line style="stroke:#181818;stroke-width:0.5;" x1="520" x2="1254" y1="268.8906" y2="268.8906"/><text fill="#000000" font-family="sans-serif" font-size="14" font-style="italic" lengthAdjust="spacing" textLength="510" x="525" y="285.8857">get_catalog_entries(catalog_metadata: Dict[str, Any]) -&gt; List[Dict[str, Any]]</text><text fill="#000000" font-family="sans-serif" font-size="14" font-style="italic" lengthAdjust="spacing" textLength="724" x="525" y="302.1826">get_entry_data(catalog_entry_data: Dict[str, Any], catalog_metadata: Dict[str, Any]) -&gt; Optional[EntryData]</text><text fill="#000000" font-family="sans-serif" font-size="14" font-style="italic" lengthAdjust="spacing" textLength="196" x="525" y="318.4795">get_hash_keys() -&gt; List[Any]</text><text fill="#000000" font-family="sans-serif" font-size="14" lengthAdjust="spacing" textLength="152" x="525" y="334.7764">max_readers_default()</text><text fill="#000000" font-family="sans-serif" font-size="14" font-style="italic" lengthAdjust="spacing" textLength="703" x="525" y="351.0732">read_catalog_entry(catalog_entry_data: Dict[str, Any], catalog_metadata: Dict[str, Any]) -&gt; Optional[str]</text><text fill="#000000" font-family="sans-serif" font-size="14" lengthAdjust="spacing" textLength="540" x="525" y="367.3701">read_component_definitions(catalog_instance: Metadata) -&gt; List[CatalogEntry]</text></g><g id="elem_elyra.pipeline.catalog_connector.FilesystemComponentCatalogConnector"><rect codeLine="13" fill="#F1F1F1" height="113.1875" id="elyra.pipeline.catalog_connector.FilesystemComponentCatalogConnector" rx="2.5" ry="2.5" style="stroke:#181818;stroke-width:0.5;" width="736" x="7" y="7"/><ellipse cx="230.75" cy="23" fill="#ADD1B2" rx="11" ry="11" style="stroke:#181818;stroke-width:1.0;"/><path d="M233.7188,28.6406 Q233.1406,28.9375 232.5,29.0781 Q231.8594,29.2344 231.1563,29.2344 Q228.6563,29.2344 227.3281,27.5938 Q226.0156,25.9375 226.0156,22.8125 Q226.0156,19.6875 227.3281,18.0313 Q228.6563,16.375 231.1563,16.375 Q231.8594,16.375 232.5,16.5313 Q233.1563,16.6875 233.7188,16.9844 L233.7188,19.7031 Q233.0938,19.125 232.5,18.8594 Q231.9063,18.5781 231.2813,18.5781 Q229.9375,18.5781 229.25,19.6563 Q228.5625,20.7188 228.5625,22.8125 Q228.5625,24.9063 229.25,25.9844 Q229.9375,27.0469 231.2813,27.0469 Q231.9063,27.0469 232.5,26.7813 Q233.0938,26.5 233.7188,25.9219 L233.7188,28.6406 Z " fill="#000000"/><text fill="#000000" font-family="sans-serif" font-size="14" lengthAdjust="spacing" textLength="280" x="251.25" y="27.8467">FilesystemComponentCatalogConnector</text><line style="stroke:#181818;stroke-width:0.5;" x1="8" x2="742" y1="39" y2="39"/><line style="stroke:#181818;stroke-width:0.5;" x1="8" x2="742" y1="47" y2="47"/><text fill="#000000" font-family="sans-serif" font-size="14" lengthAdjust="spacing" textLength="239" x="13" y="63.9951">get_absolute_path(path: str) -&gt; str</text><text fill="#000000" font-family="sans-serif" font-size="14" lengthAdjust="spacing" textLength="510" x="13" y="80.292">get_catalog_entries(catalog_metadata: Dict[str, Any]) -&gt; List[Dict[str, Any]]</text><text fill="#000000" font-family="sans-serif" font-size="14" lengthAdjust="spacing" textLength="724" x="13" y="96.5889">get_entry_data(catalog_entry_data: Dict[str, Any], catalog_metadata: Dict[str, Any]) -&gt; Optional[EntryData]</text><text fill="#000000" font-family="sans-serif" font-size="14" lengthAdjust="spacing" textLength="196" x="13" y="112.8857">get_hash_keys() -&gt; List[Any]</text></g><g id="elem_elyra.pipeline.catalog_connector.NewComponentConnector"><rect codeLine="19" fill="#F1F1F1" height="48" id="elyra.pipeline.catalog_connector.NewComponentConnector" rx="2.5" ry="2.5" style="stroke:#181818;stroke-width:0.5;" width="217" x="778.5" y="39.5"/><ellipse cx="793.5" cy="55.5" fill="#ADD1B2" rx="11" ry="11" style="stroke:#181818;stroke-width:1.0;"/><path d="M796.4688,61.1406 Q795.8906,61.4375 795.25,61.5781 Q794.6094,61.7344 793.9063,61.7344 Q791.4063,61.7344 790.0781,60.0938 Q788.7656,58.4375 788.7656,55.3125 Q788.7656,52.1875 790.0781,50.5313 Q791.4063,48.875 793.9063,48.875 Q794.6094,48.875 795.25,49.0313 Q795.9063,49.1875 796.4688,49.4844 L796.4688,52.2031 Q795.8438,51.625 795.25,51.3594 Q794.6563,51.0781 794.0313,51.0781 Q792.6875,51.0781 792,52.1563 Q791.3125,53.2188 791.3125,55.3125 Q791.3125,57.4063 792,58.4844 Q792.6875,59.5469 794.0313,59.5469 Q794.6563,59.5469 795.25,59.2813 Q795.8438,59 796.4688,58.4219 L796.4688,61.1406 Z " fill="#000000"/><text fill="#000000" font-family="sans-serif" font-size="14" lengthAdjust="spacing" textLength="185" x="807.5" y="60.3467">NewComponentConnector</text><line style="stroke:#181818;stroke-width:0.5;" x1="779.5" x2="994.5" y1="71.5" y2="71.5"/><line style="stroke:#181818;stroke-width:0.5;" x1="779.5" x2="994.5" y1="79.5" y2="79.5"/></g><g id="elem_elyra.pipeline.catalog_connector.UrlComponentCatalogConnector"><rect codeLine="21" fill="#F1F1F1" height="113.1875" id="elyra.pipeline.catalog_connector.UrlComponentCatalogConnector" rx="2.5" ry="2.5" style="stroke:#181818;stroke-width:0.5;" width="736" x="1031" y="7"/><ellipse cx="1282.25" cy="23" fill="#ADD1B2" rx="11" ry="11" style="stroke:#181818;stroke-width:1.0;"/><path d="M1285.2188,28.6406 Q1284.6406,28.9375 1284,29.0781 Q1283.3594,29.2344 1282.6563,29.2344 Q1280.1563,29.2344 1278.8281,27.5938 Q1277.5156,25.9375 1277.5156,22.8125 Q1277.5156,19.6875 1278.8281,18.0313 Q1280.1563,16.375 1282.6563,16.375 Q1283.3594,16.375 1284,16.5313 Q1284.6563,16.6875 1285.2188,16.9844 L1285.2188,19.7031 Q1284.5938,19.125 1284,18.8594 Q1283.4063,18.5781 1282.7813,18.5781 Q1281.4375,18.5781 1280.75,19.6563 Q1280.0625,20.7188 1280.0625,22.8125 Q1280.0625,24.9063 1280.75,25.9844 Q1281.4375,27.0469 1282.7813,27.0469 Q1283.4063,27.0469 1284,26.7813 Q1284.5938,26.5 1285.2188,25.9219 L1285.2188,28.6406 Z " fill="#000000"/><text fill="#000000" font-family="sans-serif" font-size="14" lengthAdjust="spacing" textLength="225" x="1302.75" y="27.8467">UrlComponentCatalogConnector</text><line style="stroke:#181818;stroke-width:0.5;" x1="1032" x2="1766" y1="39" y2="39"/><text fill="#000000" font-family="sans-serif" font-size="14" lengthAdjust="spacing" textLength="167" x="1037" y="55.9951">REQUEST_TIMEOUT : int</text><line style="stroke:#181818;stroke-width:0.5;" x1="1032" x2="1766" y1="63.2969" y2="63.2969"/><text fill="#000000" font-family="sans-serif" font-size="14" lengthAdjust="spacing" textLength="510" x="1037" y="80.292">get_catalog_entries(catalog_metadata: Dict[str, Any]) -&gt; List[Dict[str, Any]]</text><text fill="#000000" font-family="sans-serif" font-size="14" lengthAdjust="spacing" textLength="724" x="1037" y="96.5889">get_entry_data(catalog_entry_data: Dict[str, Any], catalog_metadata: Dict[str, Any]) -&gt; Optional[EntryData]</text><text fill="#000000" font-family="sans-serif" font-size="14" lengthAdjust="spacing" textLength="196" x="1037" y="112.8857">get_hash_keys() -&gt; List[Any]</text></g><g id="link_elyra.pipeline.catalog_connector.FilesystemComponentCatalogConnector_elyra.pipeline.catalog_connector.ComponentCatalogConnector"><path codeLine="27" d="M509.187,120.062 C547.946,136.11 591.561,154.17 635.022,172.165 " fill="none" id="elyra.pipeline.catalog_connector.FilesystemComponentCatalogConnector-to-elyra.pipeline.catalog_connector.ComponentCatalogConnector" style="stroke:#181818;stroke-width:1.0;"/><polygon fill="none" points="637.824,165.749,653.624,179.868,632.468,178.684,637.824,165.749" style="stroke:#181818;stroke-width:1.0;"/></g><g id="link_elyra.pipeline.catalog_connector.NewComponentConnector_elyra.pipeline.catalog_connector.ComponentCatalogConnector"><path codeLine="28" d="M887,87.591 C887,105.64 887,132.214 887,159.765 " fill="none" id="elyra.pipeline.catalog_connector.NewComponentConnector-to-elyra.pipeline.catalog_connector.ComponentCatalogConnector" style="stroke:#181818;stroke-width:1.0;"/><polygon fill="none" points="894,159.892,887,179.892,880,159.892,894,159.892" style="stroke:#181818;stroke-width:1.0;"/></g><g id="link_elyra.pipeline.catalog_connector.UrlComponentCatalogConnector_elyra.pipeline.catalog_connector.ComponentCatalogConnector"><path codeLine="29" d="M1264.81,120.062 C1226.05,136.11 1182.44,154.17 1138.98,172.165 " fill="none" id="elyra.pipeline.catalog_connector.UrlComponentCatalogConnector-to-elyra.pipeline.catalog_connector.ComponentCatalogConnector" style="stroke:#181818;stroke-width:1.0;"/><polygon fill="none" points="1141.53,178.684,1120.38,179.868,1136.18,165.749,1141.53,178.684" style="stroke:#181818;stroke-width:1.0;"/></g></g></svg>