<?xml version="1.0" encoding="UTF-8" standalone="no"?><svg xmlns="http://www.w3.org/2000/svg" xmlns:xlink="http://www.w3.org/1999/xlink" contentStyleType="text/css" height="491px" preserveAspectRatio="none" style="width:668px;height:491px;background:#FFFFFF;" version="1.1" viewBox="0 0 668 491" width="668px" zoomAndPan="magnify"><defs/><g><g id="elem_elyra.pipeline.component_catalog.CacheUpdateWorker"><rect codeLine="2" fill="#F1F1F1" height="194.6719" id="elyra.pipeline.component_catalog.CacheUpdateWorker" rx="2.5" ry="2.5" style="stroke:#181818;stroke-width:0.5;" width="391" x="160.5" y="290"/><ellipse cx="280.25" cy="306" fill="#ADD1B2" rx="11" ry="11" style="stroke:#181818;stroke-width:1.0;"/><path d="M283.2188,311.6406 Q282.6406,311.9375 282,312.0781 Q281.3594,312.2344 280.6563,312.2344 Q278.1563,312.2344 276.8281,310.5938 Q275.5156,308.9375 275.5156,305.8125 Q275.5156,302.6875 276.8281,301.0313 Q278.1563,299.375 280.6563,299.375 Q281.3594,299.375 282,299.5313 Q282.6563,299.6875 283.2188,299.9844 L283.2188,302.7031 Q282.5938,302.125 282,301.8594 Q281.4063,301.5781 280.7813,301.5781 Q279.4375,301.5781 278.75,302.6563 Q278.0625,303.7188 278.0625,305.8125 Q278.0625,307.9063 278.75,308.9844 Q279.4375,310.0469 280.7813,310.0469 Q281.4063,310.0469 282,309.7813 Q282.5938,309.5 283.2188,308.9219 L283.2188,311.6406 Z " fill="#000000"/><text fill="#000000" font-family="sans-serif" font-size="14" lengthAdjust="spacing" textLength="143" x="300.75" y="310.8467">CacheUpdateWorker</text><line style="stroke:#181818;stroke-width:0.5;" x1="161.5" x2="550.5" y1="322" y2="322"/><text fill="#000000" font-family="sans-serif" font-size="14" lengthAdjust="spacing" textLength="140" x="166.5" y="338.9951">action : Optional[str]</text><text fill="#000000" font-family="sans-serif" font-size="14" lengthAdjust="spacing" textLength="50" x="166.5" y="355.292">catalog</text><text fill="#000000" font-family="sans-serif" font-size="14" lengthAdjust="spacing" textLength="100" x="166.5" y="371.5889">daemon : bool</text><text fill="#000000" font-family="sans-serif" font-size="14" lengthAdjust="spacing" textLength="101" x="166.5" y="387.8857">last_warn_time</text><text fill="#000000" font-family="sans-serif" font-size="14" lengthAdjust="spacing" textLength="39" x="166.5" y="404.1826">name</text><text fill="#000000" font-family="sans-serif" font-size="14" lengthAdjust="spacing" textLength="105" x="166.5" y="420.4795">queue : Queue</text><text fill="#000000" font-family="sans-serif" font-size="14" lengthAdjust="spacing" textLength="104" x="166.5" y="436.7764">task_start_time</text><line style="stroke:#181818;stroke-width:0.5;" x1="161.5" x2="550.5" y1="444.0781" y2="444.0781"/><text fill="#000000" font-family="sans-serif" font-size="14" lengthAdjust="spacing" textLength="379" x="166.5" y="461.0732">prepare_cache_for_catalog(runtime_type: Optional[str])</text><text fill="#000000" font-family="sans-serif" font-size="14" lengthAdjust="spacing" textLength="33" x="166.5" y="477.3701">run()</text></g><g id="elem_elyra.pipeline.component_metadata.ComponentCatalogMetadata"><rect codeLine="13" fill="#F1F1F1" height="96.8906" id="elyra.pipeline.component_metadata.ComponentCatalogMetadata" rx="2.5" ry="2.5" style="stroke:#181818;stroke-width:0.5;" width="230" x="241" y="116"/><ellipse cx="256" cy="132" fill="#ADD1B2" rx="11" ry="11" style="stroke:#181818;stroke-width:1.0;"/><path d="M258.9688,137.6406 Q258.3906,137.9375 257.75,138.0781 Q257.1094,138.2344 256.4063,138.2344 Q253.9063,138.2344 252.5781,136.5938 Q251.2656,134.9375 251.2656,131.8125 Q251.2656,128.6875 252.5781,127.0313 Q253.9063,125.375 256.4063,125.375 Q257.1094,125.375 257.75,125.5313 Q258.4063,125.6875 258.9688,125.9844 L258.9688,128.7031 Q258.3438,128.125 257.75,127.8594 Q257.1563,127.5781 256.5313,127.5781 Q255.1875,127.5781 254.5,128.6563 Q253.8125,129.7188 253.8125,131.8125 Q253.8125,133.9063 254.5,134.9844 Q255.1875,136.0469 256.5313,136.0469 Q257.1563,136.0469 257.75,135.7813 Q258.3438,135.5 258.9688,134.9219 L258.9688,137.6406 Z " fill="#000000"/><text fill="#000000" font-family="sans-serif" font-size="14" lengthAdjust="spacing" textLength="198" x="270" y="136.8467">ComponentCatalogMetadata</text><line style="stroke:#181818;stroke-width:0.5;" x1="242" x2="470" y1="148" y2="148"/><text fill="#000000" font-family="sans-serif" font-size="14" lengthAdjust="spacing" textLength="90" x="247" y="164.9951">runtime_type</text><line style="stroke:#181818;stroke-width:0.5;" x1="242" x2="470" y1="172.2969" y2="172.2969"/><text fill="#000000" font-family="sans-serif" font-size="14" lengthAdjust="spacing" textLength="154" x="247" y="189.292">post_delete() -&gt; None</text><text fill="#000000" font-family="sans-serif" font-size="14" lengthAdjust="spacing" textLength="142" x="247" y="205.5889">post_save() -&gt; None</text></g><g id="elem_elyra.pipeline.component_metadata.FilenameCatalogMetadata"><rect codeLine="18" fill="#F1F1F1" height="48" id="elyra.pipeline.component_metadata.FilenameCatalogMetadata" rx="2.5" ry="2.5" style="stroke:#181818;stroke-width:0.5;" width="210" x="7" y="7"/><ellipse cx="22" cy="23" fill="#ADD1B2" rx="11" ry="11" style="stroke:#181818;stroke-width:1.0;"/><path d="M24.9688,28.6406 Q24.3906,28.9375 23.75,29.0781 Q23.1094,29.2344 22.4063,29.2344 Q19.9063,29.2344 18.5781,27.5938 Q17.2656,25.9375 17.2656,22.8125 Q17.2656,19.6875 18.5781,18.0313 Q19.9063,16.375 22.4063,16.375 Q23.1094,16.375 23.75,16.5313 Q24.4063,16.6875 24.9688,16.9844 L24.9688,19.7031 Q24.3438,19.125 23.75,18.8594 Q23.1563,18.5781 22.5313,18.5781 Q21.1875,18.5781 20.5,19.6563 Q19.8125,20.7188 19.8125,22.8125 Q19.8125,24.9063 20.5,25.9844 Q21.1875,27.0469 22.5313,27.0469 Q23.1563,27.0469 23.75,26.7813 Q24.3438,26.5 24.9688,25.9219 L24.9688,28.6406 Z " fill="#000000"/><text fill="#000000" font-family="sans-serif" font-size="14" lengthAdjust="spacing" textLength="178" x="36" y="27.8467">FilenameCatalogMetadata</text><line style="stroke:#181818;stroke-width:0.5;" x1="8" x2="216" y1="39" y2="39"/><line style="stroke:#181818;stroke-width:0.5;" x1="8" x2="216" y1="47" y2="47"/></g><g id="elem_elyra.pipeline.component_metadata.NewComponentMetadata"><rect codeLine="20" fill="#F1F1F1" height="48" id="elyra.pipeline.component_metadata.NewComponentMetadata" rx="2.5" ry="2.5" style="stroke:#181818;stroke-width:0.5;" width="208" x="252" y="7"/><ellipse cx="267" cy="23" fill="#ADD1B2" rx="11" ry="11" style="stroke:#181818;stroke-width:1.0;"/><path d="M269.9688,28.6406 Q269.3906,28.9375 268.75,29.0781 Q268.1094,29.2344 267.4063,29.2344 Q264.9063,29.2344 263.5781,27.5938 Q262.2656,25.9375 262.2656,22.8125 Q262.2656,19.6875 263.5781,18.0313 Q264.9063,16.375 267.4063,16.375 Q268.1094,16.375 268.75,16.5313 Q269.4063,16.6875 269.9688,16.9844 L269.9688,19.7031 Q269.3438,19.125 268.75,18.8594 Q268.1563,18.5781 267.5313,18.5781 Q266.1875,18.5781 265.5,19.6563 Q264.8125,20.7188 264.8125,22.8125 Q264.8125,24.9063 265.5,25.9844 Q266.1875,27.0469 267.5313,27.0469 Q268.1563,27.0469 268.75,26.7813 Q269.3438,26.5 269.9688,25.9219 L269.9688,28.6406 Z " fill="#000000"/><text fill="#000000" font-family="sans-serif" font-size="14" lengthAdjust="spacing" textLength="176" x="281" y="27.8467">NewComponentMetadata</text><line style="stroke:#181818;stroke-width:0.5;" x1="253" x2="459" y1="39" y2="39"/><line style="stroke:#181818;stroke-width:0.5;" x1="253" x2="459" y1="47" y2="47"/></g><g id="elem_elyra.pipeline.component_metadata.UrlCatalogMetadata"><rect codeLine="22" fill="#F1F1F1" height="48" id="elyra.pipeline.component_metadata.UrlCatalogMetadata" rx="2.5" ry="2.5" style="stroke:#181818;stroke-width:0.5;" width="166" x="495" y="7"/><ellipse cx="510" cy="23" fill="#ADD1B2" rx="11" ry="11" style="stroke:#181818;stroke-width:1.0;"/><path d="M512.9688,28.6406 Q512.3906,28.9375 511.75,29.0781 Q511.1094,29.2344 510.4063,29.2344 Q507.9063,29.2344 506.5781,27.5938 Q505.2656,25.9375 505.2656,22.8125 Q505.2656,19.6875 506.5781,18.0313 Q507.9063,16.375 510.4063,16.375 Q511.1094,16.375 511.75,16.5313 Q512.4063,16.6875 512.9688,16.9844 L512.9688,19.7031 Q512.3438,19.125 511.75,18.8594 Q511.1563,18.5781 510.5313,18.5781 Q509.1875,18.5781 508.5,19.6563 Q507.8125,20.7188 507.8125,22.8125 Q507.8125,24.9063 508.5,25.9844 Q509.1875,27.0469 510.5313,27.0469 Q511.1563,27.0469 511.75,26.7813 Q512.3438,26.5 512.9688,25.9219 L512.9688,28.6406 Z " fill="#000000"/><text fill="#000000" font-family="sans-serif" font-size="14" lengthAdjust="spacing" textLength="134" x="524" y="27.8467">UrlCatalogMetadata</text><line style="stroke:#181818;stroke-width:0.5;" x1="496" x2="660" y1="39" y2="39"/><line style="stroke:#181818;stroke-width:0.5;" x1="496" x2="660" y1="47" y2="47"/></g><g id="link_elyra.pipeline.component_metadata.FilenameCatalogMetadata_elyra.pipeline.component_metadata.ComponentCatalogMetadata"><path codeLine="24" d="M154.781,55.056 C181.196,69.292 216.339,88.232 249.859,106.297 " fill="none" id="elyra.pipeline.component_metadata.FilenameCatalogMetadata-to-elyra.pipeline.component_metadata.ComponentCatalogMetadata" style="stroke:#181818;stroke-width:1.0;"/><polygon fill="none" points="253.429,100.269,267.714,115.919,246.787,112.593,253.429,100.269" style="stroke:#181818;stroke-width:1.0;"/></g><g id="link_elyra.pipeline.component_metadata.NewComponentMetadata_elyra.pipeline.component_metadata.ComponentCatalogMetadata"><path codeLine="25" d="M356,55.207 C356,66.648 356,81.102 356,95.691 " fill="none" id="elyra.pipeline.component_metadata.NewComponentMetadata-to-elyra.pipeline.component_metadata.ComponentCatalogMetadata" style="stroke:#181818;stroke-width:1.0;"/><polygon fill="none" points="363,95.75,356,115.75,349,95.75,363,95.75" style="stroke:#181818;stroke-width:1.0;"/></g><g id="link_elyra.pipeline.component_metadata.UrlCatalogMetadata_elyra.pipeline.component_metadata.ComponentCatalogMetadata"><path codeLine="26" d="M539.077,55.056 C515.376,69.095 483.951,87.709 453.837,105.547 " fill="none" id="elyra.pipeline.component_metadata.UrlCatalogMetadata-to-elyra.pipeline.component_metadata.ComponentCatalogMetadata" style="stroke:#181818;stroke-width:1.0;"/><polygon fill="none" points="457.101,111.749,436.326,115.919,449.966,99.704,457.101,111.749" style="stroke:#181818;stroke-width:1.0;"/></g><g id="link_elyra.pipeline.component_metadata.ComponentCatalogMetadata_elyra.pipeline.component_catalog.CacheUpdateWorker"><path codeLine="27" d="M356,213.182 C356,231.956 356,254.354 356,276.713 " fill="none" id="elyra.pipeline.component_metadata.ComponentCatalogMetadata-to-elyra.pipeline.component_catalog.CacheUpdateWorker" style="stroke:#181818;stroke-width:1.0;"/><polygon fill="none" points="356,289.846,360,283.846,356,277.846,352,283.846,356,289.846" style="stroke:#181818;stroke-width:1.0;"/><text fill="#000000" font-family="sans-serif" font-size="13" lengthAdjust="spacing" textLength="47" x="357" y="256.0669">catalog</text></g></g></svg>