<?xml version="1.0" encoding="UTF-8" standalone="no"?><svg xmlns="http://www.w3.org/2000/svg" xmlns:xlink="http://www.w3.org/1999/xlink" contentStyleType="text/css" height="799px" preserveAspectRatio="none" style="width:5359px;height:799px;background:#FFFFFF;" version="1.1" viewBox="0 0 5359 799" width="5359px" zoomAndPan="magnify"><defs/><g><g id="elem_elyra.pipeline.component_parameter.DisableNodeCaching"><rect codeLine="2" fill="#F1F1F1" height="162.0781" id="elyra.pipeline.component_parameter.DisableNodeCaching" rx="2.5" ry="2.5" style="stroke:#181818;stroke-width:0.5;" width="675" x="1941" y="294"/><ellipse cx="2202.25" cy="310" fill="#ADD1B2" rx="11" ry="11" style="stroke:#181818;stroke-width:1.0;"/><path d="M2205.2188,315.6406 Q2204.6406,315.9375 2204,316.0781 Q2203.3594,316.2344 2202.6563,316.2344 Q2200.1563,316.2344 2198.8281,314.5938 Q2197.5156,312.9375 2197.5156,309.8125 Q2197.5156,306.6875 2198.8281,305.0313 Q2200.1563,303.375 2202.6563,303.375 Q2203.3594,303.375 2204,303.5313 Q2204.6563,303.6875 2205.2188,303.9844 L2205.2188,306.7031 Q2204.5938,306.125 2204,305.8594 Q2203.4063,305.5781 2202.7813,305.5781 Q2201.4375,305.5781 2200.75,306.6563 Q2200.0625,307.7188 2200.0625,309.8125 Q2200.0625,311.9063 2200.75,312.9844 Q2201.4375,314.0469 2202.7813,314.0469 Q2203.4063,314.0469 2204,313.7813 Q2204.5938,313.5 2205.2188,312.9219 L2205.2188,315.6406 Z " fill="#000000"/><text fill="#000000" font-family="sans-serif" font-size="14" lengthAdjust="spacing" textLength="144" x="2222.75" y="314.8467">DisableNodeCaching</text><line style="stroke:#181818;stroke-width:0.5;" x1="1942" x2="2615" y1="326" y2="326"/><text fill="#000000" font-family="sans-serif" font-size="14" lengthAdjust="spacing" textLength="95" x="1947" y="342.9951">custom : bool</text><text fill="#000000" font-family="sans-serif" font-size="14" lengthAdjust="spacing" textLength="95" x="1947" y="359.292">generic : bool</text><text fill="#000000" font-family="sans-serif" font-size="14" lengthAdjust="spacing" textLength="77" x="1947" y="375.5889">property_id</text><text fill="#000000" font-family="sans-serif" font-size="14" lengthAdjust="spacing" textLength="63" x="1947" y="391.8857">selection</text><line style="stroke:#181818;stroke-width:0.5;" x1="1942" x2="2615" y1="399.1875" y2="399.1875"/><text fill="#000000" font-family="sans-serif" font-size="14" lengthAdjust="spacing" textLength="663" x="1947" y="416.1826">add_to_execution_object(runtime_processor: RuntimePipelineProcessor, execution_object: Any)</text><text fill="#000000" font-family="sans-serif" font-size="14" lengthAdjust="spacing" textLength="512" x="1947" y="432.4795">create_instance(prop_id: str, value: Optional[Any]) -&gt; DisableNodeCaching</text><text fill="#000000" font-family="sans-serif" font-size="14" lengthAdjust="spacing" textLength="208" x="1947" y="448.7764">get_schema() -&gt; Dict[str, Any]</text></g><g id="elem_elyra.pipeline.component_parameter.ElyraProperty"><rect codeLine="11" fill="#F1F1F1" height="276.1563" id="elyra.pipeline.component_parameter.ElyraProperty" rx="2.5" ry="2.5" style="stroke:#181818;stroke-width:0.5;" width="677" x="2196" y="516"/><ellipse cx="2485.25" cy="532" fill="#ADD1B2" rx="11" ry="11" style="stroke:#181818;stroke-width:1.0;"/><path d="M2488.2188,537.6406 Q2487.6406,537.9375 2487,538.0781 Q2486.3594,538.2344 2485.6563,538.2344 Q2483.1563,538.2344 2481.8281,536.5938 Q2480.5156,534.9375 2480.5156,531.8125 Q2480.5156,528.6875 2481.8281,527.0313 Q2483.1563,525.375 2485.6563,525.375 Q2486.3594,525.375 2487,525.5313 Q2487.6563,525.6875 2488.2188,525.9844 L2488.2188,528.7031 Q2487.5938,528.125 2487,527.8594 Q2486.4063,527.5781 2485.7813,527.5781 Q2484.4375,527.5781 2483.75,528.6563 Q2483.0625,529.7188 2483.0625,531.8125 Q2483.0625,533.9063 2483.75,534.9844 Q2484.4375,536.0469 2485.7813,536.0469 Q2486.4063,536.0469 2487,535.7813 Q2487.5938,535.5 2488.2188,534.9219 L2488.2188,537.6406 Z " fill="#000000"/><text fill="#000000" font-family="sans-serif" font-size="14" lengthAdjust="spacing" textLength="90" x="2505.75" y="536.8467">ElyraProperty</text><line style="stroke:#181818;stroke-width:0.5;" x1="2197" x2="2872" y1="548" y2="548"/><text fill="#000000" font-family="sans-serif" font-size="14" lengthAdjust="spacing" textLength="95" x="2202" y="564.9951">custom : bool</text><text fill="#000000" font-family="sans-serif" font-size="14" lengthAdjust="spacing" textLength="95" x="2202" y="581.292">generic : bool</text><text fill="#000000" font-family="sans-serif" font-size="14" lengthAdjust="spacing" textLength="108" x="2202" y="597.5889">property_id : str</text><line style="stroke:#181818;stroke-width:0.5;" x1="2197" x2="2872" y1="604.8906" y2="604.8906"/><text fill="#000000" font-family="sans-serif" font-size="14" font-style="italic" lengthAdjust="spacing" textLength="663" x="2202" y="621.8857">add_to_execution_object(runtime_processor: RuntimePipelineProcessor, execution_object: Any)</text><text fill="#000000" font-family="sans-serif" font-size="14" lengthAdjust="spacing" textLength="109" x="2202" y="638.1826">all_subclasses()</text><text fill="#000000" font-family="sans-serif" font-size="14" lengthAdjust="spacing" textLength="207" x="2202" y="654.4795">build_property_map() -&gt; None</text><text fill="#000000" font-family="sans-serif" font-size="14" lengthAdjust="spacing" textLength="634" x="2202" y="670.7764">create_instance(prop_id: str, value: Optional[Any]) -&gt; ElyraProperty | ElyraPropertyList | None</text><text fill="#000000" font-family="sans-serif" font-size="14" lengthAdjust="spacing" textLength="249" x="2202" y="687.0732">get_all_validation_errors() -&gt; List[str]</text><text fill="#000000" font-family="sans-serif" font-size="14" lengthAdjust="spacing" textLength="665" x="2202" y="703.3701">get_classes_for_component_type(component_type: str, runtime_type: Optional[str]) -&gt; Set[type]</text><text fill="#000000" font-family="sans-serif" font-size="14" lengthAdjust="spacing" textLength="208" x="2202" y="719.667">get_schema() -&gt; Dict[str, Any]</text><text fill="#000000" font-family="sans-serif" font-size="14" font-style="italic" lengthAdjust="spacing" textLength="268" x="2202" y="735.9639">get_value_for_display() -&gt; Dict[str, Any]</text><text fill="#000000" font-family="sans-serif" font-size="14" lengthAdjust="spacing" textLength="192" x="2202" y="752.2607">is_empty_instance() -&gt; bool</text><text fill="#000000" font-family="sans-serif" font-size="14" lengthAdjust="spacing" textLength="204" x="2202" y="768.5576">strip_if_string(var: Any) -&gt; Any</text><text fill="#000000" font-family="sans-serif" font-size="14" lengthAdjust="spacing" textLength="163" x="2202" y="784.8545">unpack(value_dict: dict)</text></g><g id="elem_elyra.pipeline.component_parameter.ElyraPropertyListItem"><rect codeLine="27" fill="#F1F1F1" height="129.4844" id="elyra.pipeline.component_parameter.ElyraPropertyListItem" rx="2.5" ry="2.5" style="stroke:#181818;stroke-width:0.5;" width="280" x="2651.5" y="310.5"/><ellipse cx="2715.75" cy="326.5" fill="#ADD1B2" rx="11" ry="11" style="stroke:#181818;stroke-width:1.0;"/><path d="M2718.7188,332.1406 Q2718.1406,332.4375 2717.5,332.5781 Q2716.8594,332.7344 2716.1563,332.7344 Q2713.6563,332.7344 2712.3281,331.0938 Q2711.0156,329.4375 2711.0156,326.3125 Q2711.0156,323.1875 2712.3281,321.5313 Q2713.6563,319.875 2716.1563,319.875 Q2716.8594,319.875 2717.5,320.0313 Q2718.1563,320.1875 2718.7188,320.4844 L2718.7188,323.2031 Q2718.0938,322.625 2717.5,322.3594 Q2716.9063,322.0781 2716.2813,322.0781 Q2714.9375,322.0781 2714.25,323.1563 Q2713.5625,324.2188 2713.5625,326.3125 Q2713.5625,328.4063 2714.25,329.4844 Q2714.9375,330.5469 2716.2813,330.5469 Q2716.9063,330.5469 2717.5,330.2813 Q2718.0938,330 2718.7188,329.4219 L2718.7188,332.1406 Z " fill="#000000"/><text fill="#000000" font-family="sans-serif" font-size="14" lengthAdjust="spacing" textLength="143" x="2736.25" y="331.3467">ElyraPropertyListItem</text><line style="stroke:#181818;stroke-width:0.5;" x1="2652.5" x2="2930.5" y1="342.5" y2="342.5"/><line style="stroke:#181818;stroke-width:0.5;" x1="2652.5" x2="2930.5" y1="350.5" y2="350.5"/><text fill="#000000" font-family="sans-serif" font-size="14" lengthAdjust="spacing" textLength="206" x="2657.5" y="367.4951">get_key_for_dict_entry() -&gt; str</text><text fill="#000000" font-family="sans-serif" font-size="14" lengthAdjust="spacing" textLength="208" x="2657.5" y="383.792">get_schema() -&gt; Dict[str, Any]</text><text fill="#000000" font-family="sans-serif" font-size="14" lengthAdjust="spacing" textLength="218" x="2657.5" y="400.0889">get_value_for_dict_entry() -&gt; str</text><text fill="#000000" font-family="sans-serif" font-size="14" lengthAdjust="spacing" textLength="268" x="2657.5" y="416.3857">get_value_for_display() -&gt; Dict[str, Any]</text><text fill="#000000" font-family="sans-serif" font-size="14" lengthAdjust="spacing" textLength="169" x="2657.5" y="432.6826">to_dict() -&gt; Dict[str, Any]</text></g><g id="elem_elyra.pipeline.component_parameter.EnvironmentVariable"><rect codeLine="34" fill="#F1F1F1" height="227.2656" id="elyra.pipeline.component_parameter.EnvironmentVariable" rx="2.5" ry="2.5" style="stroke:#181818;stroke-width:0.5;" width="899" x="7" y="7"/><ellipse cx="381.75" cy="23" fill="#ADD1B2" rx="11" ry="11" style="stroke:#181818;stroke-width:1.0;"/><path d="M384.7188,28.6406 Q384.1406,28.9375 383.5,29.0781 Q382.8594,29.2344 382.1563,29.2344 Q379.6563,29.2344 378.3281,27.5938 Q377.0156,25.9375 377.0156,22.8125 Q377.0156,19.6875 378.3281,18.0313 Q379.6563,16.375 382.1563,16.375 Q382.8594,16.375 383.5,16.5313 Q384.1563,16.6875 384.7188,16.9844 L384.7188,19.7031 Q384.0938,19.125 383.5,18.8594 Q382.9063,18.5781 382.2813,18.5781 Q380.9375,18.5781 380.25,19.6563 Q379.5625,20.7188 379.5625,22.8125 Q379.5625,24.9063 380.25,25.9844 Q380.9375,27.0469 382.2813,27.0469 Q382.9063,27.0469 383.5,26.7813 Q384.0938,26.5 384.7188,25.9219 L384.7188,28.6406 Z " fill="#000000"/><text fill="#000000" font-family="sans-serif" font-size="14" lengthAdjust="spacing" textLength="141" x="402.25" y="27.8467">EnvironmentVariable</text><line style="stroke:#181818;stroke-width:0.5;" x1="8" x2="905" y1="39" y2="39"/><text fill="#000000" font-family="sans-serif" font-size="14" lengthAdjust="spacing" textLength="95" x="13" y="55.9951">custom : bool</text><text fill="#000000" font-family="sans-serif" font-size="14" lengthAdjust="spacing" textLength="52" x="13" y="72.292">env_var</text><text fill="#000000" font-family="sans-serif" font-size="14" lengthAdjust="spacing" textLength="95" x="13" y="88.5889">generic : bool</text><text fill="#000000" font-family="sans-serif" font-size="14" lengthAdjust="spacing" textLength="77" x="13" y="104.8857">property_id</text><text fill="#000000" font-family="sans-serif" font-size="14" lengthAdjust="spacing" textLength="30" x="13" y="121.1826">type</text><text fill="#000000" font-family="sans-serif" font-size="14" lengthAdjust="spacing" textLength="36" x="13" y="137.4795">value</text><line style="stroke:#181818;stroke-width:0.5;" x1="8" x2="905" y1="144.7813" y2="144.7813"/><text fill="#000000" font-family="sans-serif" font-size="14" lengthAdjust="spacing" textLength="887" x="13" y="161.7764">add_to_execution_object(runtime_processor: RuntimePipelineProcessor, execution_object: Any, pipeline_input_parameters: Any)</text><text fill="#000000" font-family="sans-serif" font-size="14" lengthAdjust="spacing" textLength="559" x="13" y="178.0732">create_instance(prop_id: str, value: Optional[Any]) -&gt; EnvironmentVariable | None</text><text fill="#000000" font-family="sans-serif" font-size="14" lengthAdjust="spacing" textLength="249" x="13" y="194.3701">get_all_validation_errors() -&gt; List[str]</text><text fill="#000000" font-family="sans-serif" font-size="14" lengthAdjust="spacing" textLength="208" x="13" y="210.667">get_schema() -&gt; Dict[str, Any]</text><text fill="#000000" font-family="sans-serif" font-size="14" lengthAdjust="spacing" textLength="218" x="13" y="226.9639">get_value_for_dict_entry() -&gt; str</text></g><g id="elem_elyra.pipeline.component_parameter.KubernetesAnnotation"><rect codeLine="47" fill="#F1F1F1" height="210.9688" id="elyra.pipeline.component_parameter.KubernetesAnnotation" rx="2.5" ry="2.5" style="stroke:#181818;stroke-width:0.5;" width="899" x="941" y="15"/><ellipse cx="1308.25" cy="31" fill="#ADD1B2" rx="11" ry="11" style="stroke:#181818;stroke-width:1.0;"/><path d="M1311.2188,36.6406 Q1310.6406,36.9375 1310,37.0781 Q1309.3594,37.2344 1308.6563,37.2344 Q1306.1563,37.2344 1304.8281,35.5938 Q1303.5156,33.9375 1303.5156,30.8125 Q1303.5156,27.6875 1304.8281,26.0313 Q1306.1563,24.375 1308.6563,24.375 Q1309.3594,24.375 1310,24.5313 Q1310.6563,24.6875 1311.2188,24.9844 L1311.2188,27.7031 Q1310.5938,27.125 1310,26.8594 Q1309.4063,26.5781 1308.7813,26.5781 Q1307.4375,26.5781 1306.75,27.6563 Q1306.0625,28.7188 1306.0625,30.8125 Q1306.0625,32.9063 1306.75,33.9844 Q1307.4375,35.0469 1308.7813,35.0469 Q1309.4063,35.0469 1310,34.7813 Q1310.5938,34.5 1311.2188,33.9219 L1311.2188,36.6406 Z " fill="#000000"/><text fill="#000000" font-family="sans-serif" font-size="14" lengthAdjust="spacing" textLength="156" x="1328.75" y="35.8467">KubernetesAnnotation</text><line style="stroke:#181818;stroke-width:0.5;" x1="942" x2="1839" y1="47" y2="47"/><text fill="#000000" font-family="sans-serif" font-size="14" lengthAdjust="spacing" textLength="95" x="947" y="63.9951">custom : bool</text><text fill="#000000" font-family="sans-serif" font-size="14" lengthAdjust="spacing" textLength="95" x="947" y="80.292">generic : bool</text><text fill="#000000" font-family="sans-serif" font-size="14" lengthAdjust="spacing" textLength="24" x="947" y="96.5889">key</text><text fill="#000000" font-family="sans-serif" font-size="14" lengthAdjust="spacing" textLength="77" x="947" y="112.8857">property_id</text><text fill="#000000" font-family="sans-serif" font-size="14" lengthAdjust="spacing" textLength="30" x="947" y="129.1826">type</text><text fill="#000000" font-family="sans-serif" font-size="14" lengthAdjust="spacing" textLength="67" x="947" y="145.4795">value : str</text><line style="stroke:#181818;stroke-width:0.5;" x1="942" x2="1839" y1="152.7813" y2="152.7813"/><text fill="#000000" font-family="sans-serif" font-size="14" lengthAdjust="spacing" textLength="887" x="947" y="169.7764">add_to_execution_object(runtime_processor: RuntimePipelineProcessor, execution_object: Any, pipeline_input_parameters: Any)</text><text fill="#000000" font-family="sans-serif" font-size="14" lengthAdjust="spacing" textLength="574" x="947" y="186.0732">create_instance(prop_id: str, value: Optional[Any]) -&gt; KubernetesAnnotation | None</text><text fill="#000000" font-family="sans-serif" font-size="14" lengthAdjust="spacing" textLength="249" x="947" y="202.3701">get_all_validation_errors() -&gt; List[str]</text><text fill="#000000" font-family="sans-serif" font-size="14" lengthAdjust="spacing" textLength="218" x="947" y="218.667">get_value_for_dict_entry() -&gt; str</text></g><g id="elem_elyra.pipeline.component_parameter.KubernetesLabel"><rect codeLine="59" fill="#F1F1F1" height="210.9688" id="elyra.pipeline.component_parameter.KubernetesLabel" rx="2.5" ry="2.5" style="stroke:#181818;stroke-width:0.5;" width="899" x="1875" y="15"/><ellipse cx="2261.75" cy="31" fill="#ADD1B2" rx="11" ry="11" style="stroke:#181818;stroke-width:1.0;"/><path d="M2264.7188,36.6406 Q2264.1406,36.9375 2263.5,37.0781 Q2262.8594,37.2344 2262.1563,37.2344 Q2259.6563,37.2344 2258.3281,35.5938 Q2257.0156,33.9375 2257.0156,30.8125 Q2257.0156,27.6875 2258.3281,26.0313 Q2259.6563,24.375 2262.1563,24.375 Q2262.8594,24.375 2263.5,24.5313 Q2264.1563,24.6875 2264.7188,24.9844 L2264.7188,27.7031 Q2264.0938,27.125 2263.5,26.8594 Q2262.9063,26.5781 2262.2813,26.5781 Q2260.9375,26.5781 2260.25,27.6563 Q2259.5625,28.7188 2259.5625,30.8125 Q2259.5625,32.9063 2260.25,33.9844 Q2260.9375,35.0469 2262.2813,35.0469 Q2262.9063,35.0469 2263.5,34.7813 Q2264.0938,34.5 2264.7188,33.9219 L2264.7188,36.6406 Z " fill="#000000"/><text fill="#000000" font-family="sans-serif" font-size="14" lengthAdjust="spacing" textLength="117" x="2282.25" y="35.8467">KubernetesLabel</text><line style="stroke:#181818;stroke-width:0.5;" x1="1876" x2="2773" y1="47" y2="47"/><text fill="#000000" font-family="sans-serif" font-size="14" lengthAdjust="spacing" textLength="95" x="1881" y="63.9951">custom : bool</text><text fill="#000000" font-family="sans-serif" font-size="14" lengthAdjust="spacing" textLength="95" x="1881" y="80.292">generic : bool</text><text fill="#000000" font-family="sans-serif" font-size="14" lengthAdjust="spacing" textLength="24" x="1881" y="96.5889">key</text><text fill="#000000" font-family="sans-serif" font-size="14" lengthAdjust="spacing" textLength="77" x="1881" y="112.8857">property_id</text><text fill="#000000" font-family="sans-serif" font-size="14" lengthAdjust="spacing" textLength="30" x="1881" y="129.1826">type</text><text fill="#000000" font-family="sans-serif" font-size="14" lengthAdjust="spacing" textLength="67" x="1881" y="145.4795">value : str</text><line style="stroke:#181818;stroke-width:0.5;" x1="1876" x2="2773" y1="152.7813" y2="152.7813"/><text fill="#000000" font-family="sans-serif" font-size="14" lengthAdjust="spacing" textLength="887" x="1881" y="169.7764">add_to_execution_object(runtime_processor: RuntimePipelineProcessor, execution_object: Any, pipeline_input_parameters: Any)</text><text fill="#000000" font-family="sans-serif" font-size="14" lengthAdjust="spacing" textLength="535" x="1881" y="186.0732">create_instance(prop_id: str, value: Optional[Any]) -&gt; KubernetesLabel | None</text><text fill="#000000" font-family="sans-serif" font-size="14" lengthAdjust="spacing" textLength="249" x="1881" y="202.3701">get_all_validation_errors() -&gt; List[str]</text><text fill="#000000" font-family="sans-serif" font-size="14" lengthAdjust="spacing" textLength="218" x="1881" y="218.667">get_value_for_dict_entry() -&gt; str</text></g><g id="elem_elyra.pipeline.component_parameter.KubernetesSecret"><rect codeLine="71" fill="#F1F1F1" height="227.2656" id="elyra.pipeline.component_parameter.KubernetesSecret" rx="2.5" ry="2.5" style="stroke:#181818;stroke-width:0.5;" width="899" x="2809" y="7"/><ellipse cx="3191.25" cy="23" fill="#ADD1B2" rx="11" ry="11" style="stroke:#181818;stroke-width:1.0;"/><path d="M3194.2188,28.6406 Q3193.6406,28.9375 3193,29.0781 Q3192.3594,29.2344 3191.6563,29.2344 Q3189.1563,29.2344 3187.8281,27.5938 Q3186.5156,25.9375 3186.5156,22.8125 Q3186.5156,19.6875 3187.8281,18.0313 Q3189.1563,16.375 3191.6563,16.375 Q3192.3594,16.375 3193,16.5313 Q3193.6563,16.6875 3194.2188,16.9844 L3194.2188,19.7031 Q3193.5938,19.125 3193,18.8594 Q3192.4063,18.5781 3191.7813,18.5781 Q3190.4375,18.5781 3189.75,19.6563 Q3189.0625,20.7188 3189.0625,22.8125 Q3189.0625,24.9063 3189.75,25.9844 Q3190.4375,27.0469 3191.7813,27.0469 Q3192.4063,27.0469 3193,26.7813 Q3193.5938,26.5 3194.2188,25.9219 L3194.2188,28.6406 Z " fill="#000000"/><text fill="#000000" font-family="sans-serif" font-size="14" lengthAdjust="spacing" textLength="126" x="3211.75" y="27.8467">KubernetesSecret</text><line style="stroke:#181818;stroke-width:0.5;" x1="2810" x2="3707" y1="39" y2="39"/><text fill="#000000" font-family="sans-serif" font-size="14" lengthAdjust="spacing" textLength="95" x="2815" y="55.9951">custom : bool</text><text fill="#000000" font-family="sans-serif" font-size="14" lengthAdjust="spacing" textLength="52" x="2815" y="72.292">env_var</text><text fill="#000000" font-family="sans-serif" font-size="14" lengthAdjust="spacing" textLength="95" x="2815" y="88.5889">generic : bool</text><text fill="#000000" font-family="sans-serif" font-size="14" lengthAdjust="spacing" textLength="55" x="2815" y="104.8857">key : str</text><text fill="#000000" font-family="sans-serif" font-size="14" lengthAdjust="spacing" textLength="61" x="2815" y="121.1826">key_type</text><text fill="#000000" font-family="sans-serif" font-size="14" lengthAdjust="spacing" textLength="70" x="2815" y="137.4795">name : str</text><text fill="#000000" font-family="sans-serif" font-size="14" lengthAdjust="spacing" textLength="76" x="2815" y="153.7764">name_type</text><text fill="#000000" font-family="sans-serif" font-size="14" lengthAdjust="spacing" textLength="77" x="2815" y="170.0732">property_id</text><line style="stroke:#181818;stroke-width:0.5;" x1="2810" x2="3707" y1="177.375" y2="177.375"/><text fill="#000000" font-family="sans-serif" font-size="14" lengthAdjust="spacing" textLength="887" x="2815" y="194.3701">add_to_execution_object(runtime_processor: RuntimePipelineProcessor, execution_object: Any, pipeline_input_parameters: Any)</text><text fill="#000000" font-family="sans-serif" font-size="14" lengthAdjust="spacing" textLength="544" x="2815" y="210.667">create_instance(prop_id: str, value: Optional[Any]) -&gt; KubernetesSecret | None</text><text fill="#000000" font-family="sans-serif" font-size="14" lengthAdjust="spacing" textLength="249" x="2815" y="226.9639">get_all_validation_errors() -&gt; List[str]</text></g><g id="elem_elyra.pipeline.component_parameter.KubernetesToleration"><rect codeLine="84" fill="#F1F1F1" height="227.2656" id="elyra.pipeline.component_parameter.KubernetesToleration" rx="2.5" ry="2.5" style="stroke:#181818;stroke-width:0.5;" width="675" x="3743" y="7"/><ellipse cx="4001.25" cy="23" fill="#ADD1B2" rx="11" ry="11" style="stroke:#181818;stroke-width:1.0;"/><path d="M4004.2188,28.6406 Q4003.6406,28.9375 4003,29.0781 Q4002.3594,29.2344 4001.6563,29.2344 Q3999.1563,29.2344 3997.8281,27.5938 Q3996.5156,25.9375 3996.5156,22.8125 Q3996.5156,19.6875 3997.8281,18.0313 Q3999.1563,16.375 4001.6563,16.375 Q4002.3594,16.375 4003,16.5313 Q4003.6563,16.6875 4004.2188,16.9844 L4004.2188,19.7031 Q4003.5938,19.125 4003,18.8594 Q4002.4063,18.5781 4001.7813,18.5781 Q4000.4375,18.5781 3999.75,19.6563 Q3999.0625,20.7188 3999.0625,22.8125 Q3999.0625,24.9063 3999.75,25.9844 Q4000.4375,27.0469 4001.7813,27.0469 Q4002.4063,27.0469 4003,26.7813 Q4003.5938,26.5 4004.2188,25.9219 L4004.2188,28.6406 Z " fill="#000000"/><text fill="#000000" font-family="sans-serif" font-size="14" lengthAdjust="spacing" textLength="150" x="4021.75" y="27.8467">KubernetesToleration</text><line style="stroke:#181818;stroke-width:0.5;" x1="3744" x2="4417" y1="39" y2="39"/><text fill="#000000" font-family="sans-serif" font-size="14" lengthAdjust="spacing" textLength="95" x="3749" y="55.9951">custom : bool</text><text fill="#000000" font-family="sans-serif" font-size="14" lengthAdjust="spacing" textLength="39" x="3749" y="72.292">effect</text><text fill="#000000" font-family="sans-serif" font-size="14" lengthAdjust="spacing" textLength="95" x="3749" y="88.5889">generic : bool</text><text fill="#000000" font-family="sans-serif" font-size="14" lengthAdjust="spacing" textLength="24" x="3749" y="104.8857">key</text><text fill="#000000" font-family="sans-serif" font-size="14" lengthAdjust="spacing" textLength="59" x="3749" y="121.1826">operator</text><text fill="#000000" font-family="sans-serif" font-size="14" lengthAdjust="spacing" textLength="77" x="3749" y="137.4795">property_id</text><text fill="#000000" font-family="sans-serif" font-size="14" lengthAdjust="spacing" textLength="36" x="3749" y="153.7764">value</text><line style="stroke:#181818;stroke-width:0.5;" x1="3744" x2="4417" y1="161.0781" y2="161.0781"/><text fill="#000000" font-family="sans-serif" font-size="14" lengthAdjust="spacing" textLength="663" x="3749" y="178.0732">add_to_execution_object(runtime_processor: RuntimePipelineProcessor, execution_object: Any)</text><text fill="#000000" font-family="sans-serif" font-size="14" lengthAdjust="spacing" textLength="568" x="3749" y="194.3701">create_instance(prop_id: str, value: Optional[Any]) -&gt; KubernetesToleration | None</text><text fill="#000000" font-family="sans-serif" font-size="14" lengthAdjust="spacing" textLength="249" x="3749" y="210.667">get_all_validation_errors() -&gt; List[str]</text><text fill="#000000" font-family="sans-serif" font-size="14" lengthAdjust="spacing" textLength="208" x="3749" y="226.9639">get_schema() -&gt; Dict[str, Any]</text></g><g id="elem_elyra.pipeline.component_parameter.VolumeMount"><rect codeLine="97" fill="#F1F1F1" height="194.6719" id="elyra.pipeline.component_parameter.VolumeMount" rx="2.5" ry="2.5" style="stroke:#181818;stroke-width:0.5;" width="899" x="4453" y="23"/><ellipse cx="4850.25" cy="39" fill="#ADD1B2" rx="11" ry="11" style="stroke:#181818;stroke-width:1.0;"/><path d="M4853.2188,44.6406 Q4852.6406,44.9375 4852,45.0781 Q4851.3594,45.2344 4850.6563,45.2344 Q4848.1563,45.2344 4846.8281,43.5938 Q4845.5156,41.9375 4845.5156,38.8125 Q4845.5156,35.6875 4846.8281,34.0313 Q4848.1563,32.375 4850.6563,32.375 Q4851.3594,32.375 4852,32.5313 Q4852.6563,32.6875 4853.2188,32.9844 L4853.2188,35.7031 Q4852.5938,35.125 4852,34.8594 Q4851.4063,34.5781 4850.7813,34.5781 Q4849.4375,34.5781 4848.75,35.6563 Q4848.0625,36.7188 4848.0625,38.8125 Q4848.0625,40.9063 4848.75,41.9844 Q4849.4375,43.0469 4850.7813,43.0469 Q4851.4063,43.0469 4852,42.7813 Q4852.5938,42.5 4853.2188,41.9219 L4853.2188,44.6406 Z " fill="#000000"/><text fill="#000000" font-family="sans-serif" font-size="14" lengthAdjust="spacing" textLength="96" x="4870.75" y="43.8467">VolumeMount</text><line style="stroke:#181818;stroke-width:0.5;" x1="4454" x2="5351" y1="55" y2="55"/><text fill="#000000" font-family="sans-serif" font-size="14" lengthAdjust="spacing" textLength="95" x="4459" y="71.9951">custom : bool</text><text fill="#000000" font-family="sans-serif" font-size="14" lengthAdjust="spacing" textLength="95" x="4459" y="88.292">generic : bool</text><text fill="#000000" font-family="sans-serif" font-size="14" lengthAdjust="spacing" textLength="31" x="4459" y="104.5889">path</text><text fill="#000000" font-family="sans-serif" font-size="14" lengthAdjust="spacing" textLength="77" x="4459" y="120.8857">property_id</text><text fill="#000000" font-family="sans-serif" font-size="14" lengthAdjust="spacing" textLength="101" x="4459" y="137.1826">pvc_name : str</text><text fill="#000000" font-family="sans-serif" font-size="14" lengthAdjust="spacing" textLength="30" x="4459" y="153.4795">type</text><line style="stroke:#181818;stroke-width:0.5;" x1="4454" x2="5351" y1="160.7813" y2="160.7813"/><text fill="#000000" font-family="sans-serif" font-size="14" lengthAdjust="spacing" textLength="887" x="4459" y="177.7764">add_to_execution_object(runtime_processor: RuntimePipelineProcessor, execution_object: Any, pipeline_input_parameters: Any)</text><text fill="#000000" font-family="sans-serif" font-size="14" lengthAdjust="spacing" textLength="514" x="4459" y="194.0732">create_instance(prop_id: str, value: Optional[Any]) -&gt; VolumeMount | None</text><text fill="#000000" font-family="sans-serif" font-size="14" lengthAdjust="spacing" textLength="249" x="4459" y="210.3701">get_all_validation_errors() -&gt; List[str]</text></g><g id="link_elyra.pipeline.component_parameter.DisableNodeCaching_elyra.pipeline.component_parameter.ElyraProperty"><path codeLine="108" d="M2352.55,456.12 C2365.69,470.347 2379.77,485.581 2394.06,501.04 " fill="none" id="elyra.pipeline.component_parameter.DisableNodeCaching-to-elyra.pipeline.component_parameter.ElyraProperty" style="stroke:#181818;stroke-width:1.0;"/><polygon fill="none" points="2399.37,496.467,2407.8,515.906,2389.08,505.969,2399.37,496.467" style="stroke:#181818;stroke-width:1.0;"/></g><g id="link_elyra.pipeline.component_parameter.ElyraPropertyListItem_elyra.pipeline.component_parameter.ElyraProperty"><path codeLine="109" d="M2732.54,439.549 C2715.24,458.197 2695.53,479.438 2675.41,501.121 " fill="none" id="elyra.pipeline.component_parameter.ElyraPropertyListItem-to-elyra.pipeline.component_parameter.ElyraProperty" style="stroke:#181818;stroke-width:1.0;"/><polygon fill="none" points="2680.54,505.891,2661.8,515.792,2670.27,496.369,2680.54,505.891" style="stroke:#181818;stroke-width:1.0;"/></g><g id="link_elyra.pipeline.component_parameter.EnvironmentVariable_elyra.pipeline.component_parameter.ElyraPropertyListItem"><path codeLine="110" d="M906.056,231.51 C911.899,232.379 917.716,233.21 923.5,234 C1300.24,285.452 2265.26,199.234 2633.5,294 C2642.78,296.389 2652.15,299.382 2661.43,302.797 " fill="none" id="elyra.pipeline.component_parameter.EnvironmentVariable-to-elyra.pipeline.component_parameter.ElyraPropertyListItem" style="stroke:#181818;stroke-width:1.0;"/><polygon fill="none" points="2664.36,296.428,2680.34,310.34,2659.17,309.431,2664.36,296.428" style="stroke:#181818;stroke-width:1.0;"/></g><g id="link_elyra.pipeline.component_parameter.KubernetesAnnotation_elyra.pipeline.component_parameter.ElyraPropertyListItem"><path codeLine="111" d="M1810.87,226.045 C1826.58,228.907 1842.16,231.575 1857.5,234 C2199.18,288.011 2300.39,200.756 2633.5,294 C2642.35,296.477 2651.28,299.465 2660.16,302.812 " fill="none" id="elyra.pipeline.component_parameter.KubernetesAnnotation-to-elyra.pipeline.component_parameter.ElyraPropertyListItem" style="stroke:#181818;stroke-width:1.0;"/><polygon fill="none" points="2662.96,296.391,2678.86,310.391,2657.7,309.366,2662.96,296.391" style="stroke:#181818;stroke-width:1.0;"/></g><g id="link_elyra.pipeline.component_parameter.KubernetesLabel_elyra.pipeline.component_parameter.ElyraPropertyListItem"><path codeLine="112" d="M2517.82,226.024 C2564.25,251.129 2612.86,277.415 2656.02,300.749 " fill="none" id="elyra.pipeline.component_parameter.KubernetesLabel-to-elyra.pipeline.component_parameter.ElyraPropertyListItem" style="stroke:#181818;stroke-width:1.0;"/><polygon fill="none" points="2659.58,294.716,2673.85,310.386,2652.92,307.031,2659.58,294.716" style="stroke:#181818;stroke-width:1.0;"/></g><g id="link_elyra.pipeline.component_parameter.KubernetesSecret_elyra.pipeline.component_parameter.ElyraPropertyListItem"><path codeLine="113" d="M3050.27,234.089 C3008.39,256.732 2965.41,279.969 2926.81,300.839 " fill="none" id="elyra.pipeline.component_parameter.KubernetesSecret-to-elyra.pipeline.component_parameter.ElyraPropertyListItem" style="stroke:#181818;stroke-width:1.0;"/><polygon fill="none" points="2930.04,307.053,2909.11,310.408,2923.38,294.738,2930.04,307.053" style="stroke:#181818;stroke-width:1.0;"/></g><g id="link_elyra.pipeline.component_parameter.KubernetesToleration_elyra.pipeline.component_parameter.ElyraPropertyListItem"><path codeLine="114" d="M3742.62,229.922 C3736.88,231.325 3731.17,232.686 3725.5,234 C3457.15,296.22 3138.76,337.07 2951.58,357.802 " fill="none" id="elyra.pipeline.component_parameter.KubernetesToleration-to-elyra.pipeline.component_parameter.ElyraPropertyListItem" style="stroke:#181818;stroke-width:1.0;"/><polygon fill="none" points="2952.3,364.765,2931.65,359.988,2950.77,350.849,2952.3,364.765" style="stroke:#181818;stroke-width:1.0;"/></g><g id="link_elyra.pipeline.component_parameter.VolumeMount_elyra.pipeline.component_parameter.ElyraPropertyListItem"><path codeLine="115" d="M4522.76,218.019 C4493.34,223.952 4464,229.38 4435.5,234 C3895.91,321.452 3247.26,356.319 2951.97,368.403 " fill="none" id="elyra.pipeline.component_parameter.VolumeMount-to-elyra.pipeline.component_parameter.ElyraPropertyListItem" style="stroke:#181818;stroke-width:1.0;"/><polygon fill="none" points="2952.02,375.407,2931.76,369.217,2951.46,361.418,2952.02,375.407" style="stroke:#181818;stroke-width:1.0;"/></g></g></svg>