<?xml version="1.0" encoding="UTF-8" standalone="no"?><svg xmlns="http://www.w3.org/2000/svg" xmlns:xlink="http://www.w3.org/1999/xlink" contentStyleType="text/css" height="702px" preserveAspectRatio="none" style="width:1367px;height:702px;background:#FFFFFF;" version="1.1" viewBox="0 0 1367 702" width="1367px" zoomAndPan="magnify"><defs/><g><g id="elem_elyra.pipeline.component_metadata.ComponentCatalogMetadata"><rect codeLine="2" fill="#F1F1F1" height="96.8906" id="elyra.pipeline.component_metadata.ComponentCatalogMetadata" rx="2.5" ry="2.5" style="stroke:#181818;stroke-width:0.5;" width="230" x="696" y="148"/><ellipse cx="711" cy="164" fill="#ADD1B2" rx="11" ry="11" style="stroke:#181818;stroke-width:1.0;"/><path d="M713.9688,169.6406 Q713.3906,169.9375 712.75,170.0781 Q712.1094,170.2344 711.4063,170.2344 Q708.9063,170.2344 707.5781,168.5938 Q706.2656,166.9375 706.2656,163.8125 Q706.2656,160.6875 707.5781,159.0313 Q708.9063,157.375 711.4063,157.375 Q712.1094,157.375 712.75,157.5313 Q713.4063,157.6875 713.9688,157.9844 L713.9688,160.7031 Q713.3438,160.125 712.75,159.8594 Q712.1563,159.5781 711.5313,159.5781 Q710.1875,159.5781 709.5,160.6563 Q708.8125,161.7188 708.8125,163.8125 Q708.8125,165.9063 709.5,166.9844 Q710.1875,168.0469 711.5313,168.0469 Q712.1563,168.0469 712.75,167.7813 Q713.3438,167.5 713.9688,166.9219 L713.9688,169.6406 Z " fill="#000000"/><text fill="#000000" font-family="sans-serif" font-size="14" lengthAdjust="spacing" textLength="198" x="725" y="168.8467">ComponentCatalogMetadata</text><line style="stroke:#181818;stroke-width:0.5;" x1="697" x2="925" y1="180" y2="180"/><text fill="#000000" font-family="sans-serif" font-size="14" lengthAdjust="spacing" textLength="90" x="702" y="196.9951">runtime_type</text><line style="stroke:#181818;stroke-width:0.5;" x1="697" x2="925" y1="204.2969" y2="204.2969"/><text fill="#000000" font-family="sans-serif" font-size="14" lengthAdjust="spacing" textLength="154" x="702" y="221.292">post_delete() -&gt; None</text><text fill="#000000" font-family="sans-serif" font-size="14" lengthAdjust="spacing" textLength="142" x="702" y="237.5889">post_save() -&gt; None</text></g><g id="elem_elyra.pipeline.component_metadata.ComponentRegistryMetadata"><rect codeLine="7" fill="#F1F1F1" height="48" id="elyra.pipeline.component_metadata.ComponentRegistryMetadata" rx="2.5" ry="2.5" style="stroke:#181818;stroke-width:0.5;" width="234" x="7" y="172.5"/><ellipse cx="22" cy="188.5" fill="#ADD1B2" rx="11" ry="11" style="stroke:#181818;stroke-width:1.0;"/><path d="M24.9688,194.1406 Q24.3906,194.4375 23.75,194.5781 Q23.1094,194.7344 22.4063,194.7344 Q19.9063,194.7344 18.5781,193.0938 Q17.2656,191.4375 17.2656,188.3125 Q17.2656,185.1875 18.5781,183.5313 Q19.9063,181.875 22.4063,181.875 Q23.1094,181.875 23.75,182.0313 Q24.4063,182.1875 24.9688,182.4844 L24.9688,185.2031 Q24.3438,184.625 23.75,184.3594 Q23.1563,184.0781 22.5313,184.0781 Q21.1875,184.0781 20.5,185.1563 Q19.8125,186.2188 19.8125,188.3125 Q19.8125,190.4063 20.5,191.4844 Q21.1875,192.5469 22.5313,192.5469 Q23.1563,192.5469 23.75,192.2813 Q24.3438,192 24.9688,191.4219 L24.9688,194.1406 Z " fill="#000000"/><text fill="#000000" font-family="sans-serif" font-size="14" lengthAdjust="spacing" textLength="202" x="36" y="193.3467">ComponentRegistryMetadata</text><line style="stroke:#181818;stroke-width:0.5;" x1="8" x2="240" y1="204.5" y2="204.5"/><line style="stroke:#181818;stroke-width:0.5;" x1="8" x2="240" y1="212.5" y2="212.5"/></g><g id="elem_elyra.pipeline.component_metadata.DirectoryCatalogMetadata"><rect codeLine="9" fill="#F1F1F1" height="48" id="elyra.pipeline.component_metadata.DirectoryCatalogMetadata" rx="2.5" ry="2.5" style="stroke:#181818;stroke-width:0.5;" width="210" x="461" y="23.5"/><ellipse cx="476" cy="39.5" fill="#ADD1B2" rx="11" ry="11" style="stroke:#181818;stroke-width:1.0;"/><path d="M478.9688,45.1406 Q478.3906,45.4375 477.75,45.5781 Q477.1094,45.7344 476.4063,45.7344 Q473.9063,45.7344 472.5781,44.0938 Q471.2656,42.4375 471.2656,39.3125 Q471.2656,36.1875 472.5781,34.5313 Q473.9063,32.875 476.4063,32.875 Q477.1094,32.875 477.75,33.0313 Q478.4063,33.1875 478.9688,33.4844 L478.9688,36.2031 Q478.3438,35.625 477.75,35.3594 Q477.1563,35.0781 476.5313,35.0781 Q475.1875,35.0781 474.5,36.1563 Q473.8125,37.2188 473.8125,39.3125 Q473.8125,41.4063 474.5,42.4844 Q475.1875,43.5469 476.5313,43.5469 Q477.1563,43.5469 477.75,43.2813 Q478.3438,43 478.9688,42.4219 L478.9688,45.1406 Z " fill="#000000"/><text fill="#000000" font-family="sans-serif" font-size="14" lengthAdjust="spacing" textLength="178" x="490" y="44.3467">DirectoryCatalogMetadata</text><line style="stroke:#181818;stroke-width:0.5;" x1="462" x2="670" y1="55.5" y2="55.5"/><line style="stroke:#181818;stroke-width:0.5;" x1="462" x2="670" y1="63.5" y2="63.5"/></g><g id="elem_elyra.pipeline.component_metadata.FilenameCatalogMetadata"><rect codeLine="11" fill="#F1F1F1" height="48" id="elyra.pipeline.component_metadata.FilenameCatalogMetadata" rx="2.5" ry="2.5" style="stroke:#181818;stroke-width:0.5;" width="210" x="706" y="23.5"/><ellipse cx="721" cy="39.5" fill="#ADD1B2" rx="11" ry="11" style="stroke:#181818;stroke-width:1.0;"/><path d="M723.9688,45.1406 Q723.3906,45.4375 722.75,45.5781 Q722.1094,45.7344 721.4063,45.7344 Q718.9063,45.7344 717.5781,44.0938 Q716.2656,42.4375 716.2656,39.3125 Q716.2656,36.1875 717.5781,34.5313 Q718.9063,32.875 721.4063,32.875 Q722.1094,32.875 722.75,33.0313 Q723.4063,33.1875 723.9688,33.4844 L723.9688,36.2031 Q723.3438,35.625 722.75,35.3594 Q722.1563,35.0781 721.5313,35.0781 Q720.1875,35.0781 719.5,36.1563 Q718.8125,37.2188 718.8125,39.3125 Q718.8125,41.4063 719.5,42.4844 Q720.1875,43.5469 721.5313,43.5469 Q722.1563,43.5469 722.75,43.2813 Q723.3438,43 723.9688,42.4219 L723.9688,45.1406 Z " fill="#000000"/><text fill="#000000" font-family="sans-serif" font-size="14" lengthAdjust="spacing" textLength="178" x="735" y="44.3467">FilenameCatalogMetadata</text><line style="stroke:#181818;stroke-width:0.5;" x1="707" x2="915" y1="55.5" y2="55.5"/><line style="stroke:#181818;stroke-width:0.5;" x1="707" x2="915" y1="63.5" y2="63.5"/></g><g id="elem_elyra.pipeline.kfp.kfp_metadata.KfpMetadata"><rect codeLine="13" fill="#F1F1F1" height="80.5938" id="elyra.pipeline.kfp.kfp_metadata.KfpMetadata" rx="2.5" ry="2.5" style="stroke:#181818;stroke-width:0.5;" width="146" x="107" y="7"/><ellipse cx="134.6" cy="23" fill="#ADD1B2" rx="11" ry="11" style="stroke:#181818;stroke-width:1.0;"/><path d="M137.5688,28.6406 Q136.9906,28.9375 136.35,29.0781 Q135.7094,29.2344 135.0063,29.2344 Q132.5063,29.2344 131.1781,27.5938 Q129.8656,25.9375 129.8656,22.8125 Q129.8656,19.6875 131.1781,18.0313 Q132.5063,16.375 135.0063,16.375 Q135.7094,16.375 136.35,16.5313 Q137.0063,16.6875 137.5688,16.9844 L137.5688,19.7031 Q136.9438,19.125 136.35,18.8594 Q135.7563,18.5781 135.1313,18.5781 Q133.7875,18.5781 133.1,19.6563 Q132.4125,20.7188 132.4125,22.8125 Q132.4125,24.9063 133.1,25.9844 Q133.7875,27.0469 135.1313,27.0469 Q135.7563,27.0469 136.35,26.7813 Q136.9438,26.5 137.5688,25.9219 L137.5688,28.6406 Z " fill="#000000"/><text fill="#000000" font-family="sans-serif" font-size="14" lengthAdjust="spacing" textLength="86" x="151.4" y="27.8467">KfpMetadata</text><line style="stroke:#181818;stroke-width:0.5;" x1="108" x2="252" y1="39" y2="39"/><line style="stroke:#181818;stroke-width:0.5;" x1="108" x2="252" y1="47" y2="47"/><text fill="#000000" font-family="sans-serif" font-size="14" lengthAdjust="spacing" textLength="126" x="113" y="63.9951">on_load() -&gt; None</text><text fill="#000000" font-family="sans-serif" font-size="14" lengthAdjust="spacing" textLength="134" x="113" y="80.292">pre_save() -&gt; None</text></g><g id="elem_elyra.metadata.metadata.Metadata"><rect codeLine="17" fill="#F1F1F1" height="390.2344" id="elyra.metadata.metadata.Metadata" rx="2.5" ry="2.5" style="stroke:#181818;stroke-width:0.5;" width="385" x="164.5" y="305"/><ellipse cx="320.75" cy="321" fill="#ADD1B2" rx="11" ry="11" style="stroke:#181818;stroke-width:1.0;"/><path d="M323.7188,326.6406 Q323.1406,326.9375 322.5,327.0781 Q321.8594,327.2344 321.1563,327.2344 Q318.6563,327.2344 317.3281,325.5938 Q316.0156,323.9375 316.0156,320.8125 Q316.0156,317.6875 317.3281,316.0313 Q318.6563,314.375 321.1563,314.375 Q321.8594,314.375 322.5,314.5313 Q323.1563,314.6875 323.7188,314.9844 L323.7188,317.7031 Q323.0938,317.125 322.5,316.8594 Q321.9063,316.5781 321.2813,316.5781 Q319.9375,316.5781 319.25,317.6563 Q318.5625,318.7188 318.5625,320.8125 Q318.5625,322.9063 319.25,323.9844 Q319.9375,325.0469 321.2813,325.0469 Q321.9063,325.0469 322.5,324.7813 Q323.0938,324.5 323.7188,323.9219 L323.7188,326.6406 Z " fill="#000000"/><text fill="#000000" font-family="sans-serif" font-size="14" lengthAdjust="spacing" textLength="64" x="341.25" y="325.8467">Metadata</text><line style="stroke:#181818;stroke-width:0.5;" x1="165.5" x2="548.5" y1="337" y2="337"/><text fill="#000000" font-family="sans-serif" font-size="14" lengthAdjust="spacing" textLength="93" x="170.5" y="353.9951">display_name</text><text fill="#000000" font-family="sans-serif" font-size="14" lengthAdjust="spacing" textLength="177" x="170.5" y="370.292">display_name : NoneType</text><text fill="#000000" font-family="sans-serif" font-size="14" lengthAdjust="spacing" textLength="65" x="170.5" y="386.5889">metadata</text><text fill="#000000" font-family="sans-serif" font-size="14" lengthAdjust="spacing" textLength="103" x="170.5" y="402.8857">metadata : dict</text><text fill="#000000" font-family="sans-serif" font-size="14" lengthAdjust="spacing" textLength="39" x="170.5" y="419.1826">name</text><text fill="#000000" font-family="sans-serif" font-size="14" lengthAdjust="spacing" textLength="123" x="170.5" y="435.4795">name : NoneType</text><text fill="#000000" font-family="sans-serif" font-size="14" lengthAdjust="spacing" textLength="48" x="170.5" y="451.7764">reason</text><text fill="#000000" font-family="sans-serif" font-size="14" lengthAdjust="spacing" textLength="132" x="170.5" y="468.0732">reason : NoneType</text><text fill="#000000" font-family="sans-serif" font-size="14" lengthAdjust="spacing" textLength="62" x="170.5" y="484.3701">resource</text><text fill="#000000" font-family="sans-serif" font-size="14" lengthAdjust="spacing" textLength="146" x="170.5" y="500.667">resource : NoneType</text><text fill="#000000" font-family="sans-serif" font-size="14" lengthAdjust="spacing" textLength="101" x="170.5" y="516.9639">schema_name</text><text fill="#000000" font-family="sans-serif" font-size="14" lengthAdjust="spacing" textLength="185" x="170.5" y="533.2607">schema_name : NoneType</text><line style="stroke:#181818;stroke-width:0.5;" x1="165.5" x2="548.5" y1="540.5625" y2="540.5625"/><text fill="#000000" font-family="sans-serif" font-size="14" lengthAdjust="spacing" textLength="373" x="170.5" y="557.5576">from_dict(schemaspace: str, metadata_dict: dict) -&gt; M</text><text fill="#000000" font-family="sans-serif" font-size="14" font-style="italic" lengthAdjust="spacing" textLength="126" x="170.5" y="573.8545">on_load() -&gt; None</text><text fill="#000000" font-family="sans-serif" font-size="14" font-style="italic" lengthAdjust="spacing" textLength="154" x="170.5" y="590.1514">post_delete() -&gt; None</text><text fill="#000000" font-family="sans-serif" font-size="14" font-style="italic" lengthAdjust="spacing" textLength="142" x="170.5" y="606.4482">post_save() -&gt; None</text><text fill="#000000" font-family="sans-serif" font-size="14" font-style="italic" lengthAdjust="spacing" textLength="146" x="170.5" y="622.7451">pre_delete() -&gt; None</text><text fill="#000000" font-family="sans-serif" font-size="14" font-style="italic" lengthAdjust="spacing" textLength="134" x="170.5" y="639.042">pre_save() -&gt; None</text><text fill="#000000" font-family="sans-serif" font-size="14" lengthAdjust="spacing" textLength="154" x="170.5" y="655.3389">prepare_write() -&gt; dict</text><text fill="#000000" font-family="sans-serif" font-size="14" lengthAdjust="spacing" textLength="171" x="170.5" y="671.6357">to_dict(trim: bool) -&gt; dict</text><text fill="#000000" font-family="sans-serif" font-size="14" lengthAdjust="spacing" textLength="168" x="170.5" y="687.9326">to_json(trim: bool) -&gt; str</text></g><g id="elem_elyra.pipeline.component_metadata.NewComponentMetadata"><rect codeLine="40" fill="#F1F1F1" height="48" id="elyra.pipeline.component_metadata.NewComponentMetadata" rx="2.5" ry="2.5" style="stroke:#181818;stroke-width:0.5;" width="208" x="951" y="23.5"/><ellipse cx="966" cy="39.5" fill="#ADD1B2" rx="11" ry="11" style="stroke:#181818;stroke-width:1.0;"/><path d="M968.9688,45.1406 Q968.3906,45.4375 967.75,45.5781 Q967.1094,45.7344 966.4063,45.7344 Q963.9063,45.7344 962.5781,44.0938 Q961.2656,42.4375 961.2656,39.3125 Q961.2656,36.1875 962.5781,34.5313 Q963.9063,32.875 966.4063,32.875 Q967.1094,32.875 967.75,33.0313 Q968.4063,33.1875 968.9688,33.4844 L968.9688,36.2031 Q968.3438,35.625 967.75,35.3594 Q967.1563,35.0781 966.5313,35.0781 Q965.1875,35.0781 964.5,36.1563 Q963.8125,37.2188 963.8125,39.3125 Q963.8125,41.4063 964.5,42.4844 Q965.1875,43.5469 966.5313,43.5469 Q967.1563,43.5469 967.75,43.2813 Q968.3438,43 968.9688,42.4219 L968.9688,45.1406 Z " fill="#000000"/><text fill="#000000" font-family="sans-serif" font-size="14" lengthAdjust="spacing" textLength="176" x="980" y="44.3467">NewComponentMetadata</text><line style="stroke:#181818;stroke-width:0.5;" x1="952" x2="1158" y1="55.5" y2="55.5"/><line style="stroke:#181818;stroke-width:0.5;" x1="952" x2="1158" y1="63.5" y2="63.5"/></g><g id="elem_elyra.pipeline.runtimes_metadata.RuntimesMetadata"><rect codeLine="42" fill="#F1F1F1" height="64.2969" id="elyra.pipeline.runtimes_metadata.RuntimesMetadata" rx="2.5" ry="2.5" style="stroke:#181818;stroke-width:0.5;" width="162" x="276" y="164.5"/><ellipse cx="291" cy="180.5" fill="#ADD1B2" rx="11" ry="11" style="stroke:#181818;stroke-width:1.0;"/><path d="M293.9688,186.1406 Q293.3906,186.4375 292.75,186.5781 Q292.1094,186.7344 291.4063,186.7344 Q288.9063,186.7344 287.5781,185.0938 Q286.2656,183.4375 286.2656,180.3125 Q286.2656,177.1875 287.5781,175.5313 Q288.9063,173.875 291.4063,173.875 Q292.1094,173.875 292.75,174.0313 Q293.4063,174.1875 293.9688,174.4844 L293.9688,177.2031 Q293.3438,176.625 292.75,176.3594 Q292.1563,176.0781 291.5313,176.0781 Q290.1875,176.0781 289.5,177.1563 Q288.8125,178.2188 288.8125,180.3125 Q288.8125,182.4063 289.5,183.4844 Q290.1875,184.5469 291.5313,184.5469 Q292.1563,184.5469 292.75,184.2813 Q293.3438,184 293.9688,183.4219 L293.9688,186.1406 Z " fill="#000000"/><text fill="#000000" font-family="sans-serif" font-size="14" lengthAdjust="spacing" textLength="130" x="305" y="185.3467">RuntimesMetadata</text><line style="stroke:#181818;stroke-width:0.5;" x1="277" x2="437" y1="196.5" y2="196.5"/><line style="stroke:#181818;stroke-width:0.5;" x1="277" x2="437" y1="204.5" y2="204.5"/><text fill="#000000" font-family="sans-serif" font-size="14" lengthAdjust="spacing" textLength="126" x="282" y="221.4951">on_load() -&gt; None</text></g><g id="elem_elyra.pipeline.component_metadata.UrlCatalogMetadata"><rect codeLine="45" fill="#F1F1F1" height="48" id="elyra.pipeline.component_metadata.UrlCatalogMetadata" rx="2.5" ry="2.5" style="stroke:#181818;stroke-width:0.5;" width="166" x="1194" y="23.5"/><ellipse cx="1209" cy="39.5" fill="#ADD1B2" rx="11" ry="11" style="stroke:#181818;stroke-width:1.0;"/><path d="M1211.9688,45.1406 Q1211.3906,45.4375 1210.75,45.5781 Q1210.1094,45.7344 1209.4063,45.7344 Q1206.9063,45.7344 1205.5781,44.0938 Q1204.2656,42.4375 1204.2656,39.3125 Q1204.2656,36.1875 1205.5781,34.5313 Q1206.9063,32.875 1209.4063,32.875 Q1210.1094,32.875 1210.75,33.0313 Q1211.4063,33.1875 1211.9688,33.4844 L1211.9688,36.2031 Q1211.3438,35.625 1210.75,35.3594 Q1210.1563,35.0781 1209.5313,35.0781 Q1208.1875,35.0781 1207.5,36.1563 Q1206.8125,37.2188 1206.8125,39.3125 Q1206.8125,41.4063 1207.5,42.4844 Q1208.1875,43.5469 1209.5313,43.5469 Q1210.1563,43.5469 1210.75,43.2813 Q1211.3438,43 1211.9688,42.4219 L1211.9688,45.1406 Z " fill="#000000"/><text fill="#000000" font-family="sans-serif" font-size="14" lengthAdjust="spacing" textLength="134" x="1223" y="44.3467">UrlCatalogMetadata</text><line style="stroke:#181818;stroke-width:0.5;" x1="1195" x2="1359" y1="55.5" y2="55.5"/><line style="stroke:#181818;stroke-width:0.5;" x1="1195" x2="1359" y1="63.5" y2="63.5"/></g><g id="elem_elyra.pipeline.wfp.wfp_metadata.WfpMetadata"><rect codeLine="47" fill="#F1F1F1" height="64.2969" id="elyra.pipeline.wfp.wfp_metadata.WfpMetadata" rx="2.5" ry="2.5" style="stroke:#181818;stroke-width:0.5;" width="138" x="288" y="15.5"/><ellipse cx="310.2" cy="31.5" fill="#ADD1B2" rx="11" ry="11" style="stroke:#181818;stroke-width:1.0;"/><path d="M313.1688,37.1406 Q312.5906,37.4375 311.95,37.5781 Q311.3094,37.7344 310.6063,37.7344 Q308.1063,37.7344 306.7781,36.0938 Q305.4656,34.4375 305.4656,31.3125 Q305.4656,28.1875 306.7781,26.5313 Q308.1063,24.875 310.6063,24.875 Q311.3094,24.875 311.95,25.0313 Q312.6063,25.1875 313.1688,25.4844 L313.1688,28.2031 Q312.5438,27.625 311.95,27.3594 Q311.3563,27.0781 310.7313,27.0781 Q309.3875,27.0781 308.7,28.1563 Q308.0125,29.2188 308.0125,31.3125 Q308.0125,33.4063 308.7,34.4844 Q309.3875,35.5469 310.7313,35.5469 Q311.3563,35.5469 311.95,35.2813 Q312.5438,35 313.1688,34.4219 L313.1688,37.1406 Z " fill="#000000"/><text fill="#000000" font-family="sans-serif" font-size="14" lengthAdjust="spacing" textLength="90" x="325.8" y="36.3467">WfpMetadata</text><line style="stroke:#181818;stroke-width:0.5;" x1="289" x2="425" y1="47.5" y2="47.5"/><line style="stroke:#181818;stroke-width:0.5;" x1="289" x2="425" y1="55.5" y2="55.5"/><text fill="#000000" font-family="sans-serif" font-size="14" lengthAdjust="spacing" textLength="126" x="294" y="72.4951">on_load() -&gt; None</text></g><g id="link_elyra.pipeline.component_metadata.ComponentCatalogMetadata_elyra.metadata.metadata.Metadata"><path codeLine="50" d="M739.313,245.107 C692.506,276.192 628.772,318.517 566.764,359.696 " fill="none" id="elyra.pipeline.component_metadata.ComponentCatalogMetadata-to-elyra.metadata.metadata.Metadata" style="stroke:#181818;stroke-width:1.0;"/><polygon fill="none" points="570.3,365.751,549.767,370.984,562.555,354.089,570.3,365.751" style="stroke:#181818;stroke-width:1.0;"/></g><g id="link_elyra.pipeline.component_metadata.ComponentRegistryMetadata_elyra.metadata.metadata.Metadata"><path codeLine="51" d="M141.896,220.658 C154.739,237.276 173.454,261.493 194.565,288.81 " fill="none" id="elyra.pipeline.component_metadata.ComponentRegistryMetadata-to-elyra.metadata.metadata.Metadata" style="stroke:#181818;stroke-width:1.0;"/><polygon fill="none" points="200.189,284.64,206.879,304.745,189.111,293.201,200.189,284.64" style="stroke:#181818;stroke-width:1.0;"/></g><g id="link_elyra.pipeline.component_metadata.DirectoryCatalogMetadata_elyra.pipeline.component_metadata.ComponentCatalogMetadata"><path codeLine="52" d="M604.551,71.63 C633.999,89.3 675.919,114.452 714.3,137.48 " fill="none" id="elyra.pipeline.component_metadata.DirectoryCatalogMetadata-to-elyra.pipeline.component_metadata.ComponentCatalogMetadata" style="stroke:#181818;stroke-width:1.0;"/><polygon fill="none" points="718.079,131.584,731.627,147.876,710.876,143.589,718.079,131.584" style="stroke:#181818;stroke-width:1.0;"/></g><g id="link_elyra.pipeline.component_metadata.FilenameCatalogMetadata_elyra.pipeline.component_metadata.ComponentCatalogMetadata"><path codeLine="53" d="M811,71.793 C811,87.014 811,107.738 811,127.871 " fill="none" id="elyra.pipeline.component_metadata.FilenameCatalogMetadata-to-elyra.pipeline.component_metadata.ComponentCatalogMetadata" style="stroke:#181818;stroke-width:1.0;"/><polygon fill="none" points="818,127.98,811,147.979,804,127.979,818,127.98" style="stroke:#181818;stroke-width:1.0;"/></g><g id="link_elyra.pipeline.component_metadata.NewComponentMetadata_elyra.pipeline.component_metadata.ComponentCatalogMetadata"><path codeLine="54" d="M1016.61,71.63 C987.278,89.3 945.529,114.452 907.306,137.48 " fill="none" id="elyra.pipeline.component_metadata.NewComponentMetadata-to-elyra.pipeline.component_metadata.ComponentCatalogMetadata" style="stroke:#181818;stroke-width:1.0;"/><polygon fill="none" points="910.792,143.551,890.049,147.876,903.568,131.56,910.792,143.551" style="stroke:#181818;stroke-width:1.0;"/></g><g id="link_elyra.pipeline.component_metadata.UrlCatalogMetadata_elyra.pipeline.component_metadata.ComponentCatalogMetadata"><path codeLine="55" d="M1221.27,71.545 C1206.94,77.186 1191.48,83.027 1177,88 C1101.16,114.055 1015.19,139.512 945.629,159.108 " fill="none" id="elyra.pipeline.component_metadata.UrlCatalogMetadata-to-elyra.pipeline.component_metadata.ComponentCatalogMetadata" style="stroke:#181818;stroke-width:1.0;"/><polygon fill="none" points="947.149,165.951,926.002,164.604,943.373,152.47,947.149,165.951" style="stroke:#181818;stroke-width:1.0;"/></g><g id="link_elyra.pipeline.kfp.kfp_metadata.KfpMetadata_elyra.pipeline.runtimes_metadata.RuntimesMetadata"><path codeLine="56" d="M227.899,88.28 C251.386,107.787 279.744,131.339 303.893,151.395 " fill="none" id="elyra.pipeline.kfp.kfp_metadata.KfpMetadata-to-elyra.pipeline.runtimes_metadata.RuntimesMetadata" style="stroke:#181818;stroke-width:1.0;"/><polygon fill="none" points="308.53,146.146,319.443,164.309,299.585,156.916,308.53,146.146" style="stroke:#181818;stroke-width:1.0;"/></g><g id="link_elyra.pipeline.runtimes_metadata.RuntimesMetadata_elyra.metadata.metadata.Metadata"><path codeLine="57" d="M357,228.63 C357,243.605 357,262.975 357,284.466 " fill="none" id="elyra.pipeline.runtimes_metadata.RuntimesMetadata-to-elyra.metadata.metadata.Metadata" style="stroke:#181818;stroke-width:1.0;"/><polygon fill="none" points="364,284.733,357,304.733,350,284.733,364,284.733" style="stroke:#181818;stroke-width:1.0;"/></g><g id="link_elyra.pipeline.wfp.wfp_metadata.WfpMetadata_elyra.pipeline.runtimes_metadata.RuntimesMetadata"><path codeLine="58" d="M357,79.675 C357,98.385 357,122.645 357,144.125 " fill="none" id="elyra.pipeline.wfp.wfp_metadata.WfpMetadata-to-elyra.pipeline.runtimes_metadata.RuntimesMetadata" style="stroke:#181818;stroke-width:1.0;"/><polygon fill="none" points="364,144.37,357,164.37,350,144.37,364,144.37" style="stroke:#181818;stroke-width:1.0;"/></g></g></svg>