<?xml version="1.0" encoding="UTF-8" standalone="no"?><svg xmlns="http://www.w3.org/2000/svg" xmlns:xlink="http://www.w3.org/1999/xlink" contentStyleType="text/css" height="642px" preserveAspectRatio="none" style="width:1363px;height:642px;background:#FFFFFF;" version="1.1" viewBox="0 0 1363 642" width="1363px" zoomAndPan="magnify"><defs/><g><g id="elem_elyra.pipeline.pipeline.GenericOperation"><rect codeLine="2" fill="#F1F1F1" height="259.8594" id="elyra.pipeline.pipeline.GenericOperation" rx="2.5" ry="2.5" style="stroke:#181818;stroke-width:0.5;" width="168" x="597.5" y="7"/><ellipse cx="618.8" cy="23" fill="#ADD1B2" rx="11" ry="11" style="stroke:#181818;stroke-width:1.0;"/><path d="M621.7688,28.6406 Q621.1906,28.9375 620.55,29.0781 Q619.9094,29.2344 619.2063,29.2344 Q616.7063,29.2344 615.3781,27.5938 Q614.0656,25.9375 614.0656,22.8125 Q614.0656,19.6875 615.3781,18.0313 Q616.7063,16.375 619.2063,16.375 Q619.9094,16.375 620.55,16.5313 Q621.2063,16.6875 621.7688,16.9844 L621.7688,19.7031 Q621.1438,19.125 620.55,18.8594 Q619.9563,18.5781 619.3313,18.5781 Q617.9875,18.5781 617.3,19.6563 Q616.6125,20.7188 616.6125,22.8125 Q616.6125,24.9063 617.3,25.9844 Q617.9875,27.0469 619.3313,27.0469 Q619.9563,27.0469 620.55,26.7813 Q621.1438,26.5 621.7688,25.9219 L621.7688,28.6406 Z " fill="#000000"/><text fill="#000000" font-family="sans-serif" font-size="14" lengthAdjust="spacing" textLength="122" x="634.2" y="27.8467">GenericOperation</text><line style="stroke:#181818;stroke-width:0.5;" x1="598.5" x2="764.5" y1="39" y2="39"/><text fill="#000000" font-family="sans-serif" font-size="14" lengthAdjust="spacing" textLength="26" x="603.5" y="55.9951">cpu</text><text fill="#000000" font-family="sans-serif" font-size="14" lengthAdjust="spacing" textLength="100" x="603.5" y="72.292">dependencies</text><text fill="#000000" font-family="sans-serif" font-size="14" lengthAdjust="spacing" textLength="26" x="603.5" y="88.5889">doc</text><text fill="#000000" font-family="sans-serif" font-size="14" lengthAdjust="spacing" textLength="60" x="603.5" y="104.8857">env_vars</text><text fill="#000000" font-family="sans-serif" font-size="14" lengthAdjust="spacing" textLength="58" x="603.5" y="121.1826">filename</text><text fill="#000000" font-family="sans-serif" font-size="14" lengthAdjust="spacing" textLength="27" x="603.5" y="137.4795">gpu</text><text fill="#000000" font-family="sans-serif" font-size="14" lengthAdjust="spacing" textLength="156" x="603.5" y="153.7764">include_subdirectories</text><text fill="#000000" font-family="sans-serif" font-size="14" lengthAdjust="spacing" textLength="56" x="603.5" y="170.0732">memory</text><text fill="#000000" font-family="sans-serif" font-size="14" lengthAdjust="spacing" textLength="39" x="603.5" y="186.3701">name</text><text fill="#000000" font-family="sans-serif" font-size="14" lengthAdjust="spacing" textLength="99" x="603.5" y="202.667">node_selector</text><text fill="#000000" font-family="sans-serif" font-size="14" lengthAdjust="spacing" textLength="54" x="603.5" y="218.9639">npu310</text><text fill="#000000" font-family="sans-serif" font-size="14" lengthAdjust="spacing" textLength="54" x="603.5" y="235.2607">npu910</text><text fill="#000000" font-family="sans-serif" font-size="14" lengthAdjust="spacing" textLength="102" x="603.5" y="251.5576">runtime_image</text><line style="stroke:#181818;stroke-width:0.5;" x1="598.5" x2="764.5" y1="258.8594" y2="258.8594"/></g><g id="elem_elyra.pipeline.pipeline.Operation"><rect codeLine="17" fill="#F1F1F1" height="308.75" id="elyra.pipeline.pipeline.Operation" rx="2.5" ry="2.5" style="stroke:#181818;stroke-width:0.5;" width="1349" x="7" y="327"/><ellipse cx="643.25" cy="343" fill="#ADD1B2" rx="11" ry="11" style="stroke:#181818;stroke-width:1.0;"/><path d="M646.2188,348.6406 Q645.6406,348.9375 645,349.0781 Q644.3594,349.2344 643.6563,349.2344 Q641.1563,349.2344 639.8281,347.5938 Q638.5156,345.9375 638.5156,342.8125 Q638.5156,339.6875 639.8281,338.0313 Q641.1563,336.375 643.6563,336.375 Q644.3594,336.375 645,336.5313 Q645.6563,336.6875 646.2188,336.9844 L646.2188,339.7031 Q645.5938,339.125 645,338.8594 Q644.4063,338.5781 643.7813,338.5781 Q642.4375,338.5781 641.75,339.6563 Q641.0625,340.7188 641.0625,342.8125 Q641.0625,344.9063 641.75,345.9844 Q642.4375,347.0469 643.7813,347.0469 Q644.4063,347.0469 645,346.7813 Q645.5938,346.5 646.2188,345.9219 L646.2188,348.6406 Z " fill="#000000"/><text fill="#000000" font-family="sans-serif" font-size="14" lengthAdjust="spacing" textLength="68" x="663.75" y="347.8467">Operation</text><line style="stroke:#181818;stroke-width:0.5;" x1="8" x2="1355" y1="359" y2="359"/><text fill="#000000" font-family="sans-serif" font-size="14" lengthAdjust="spacing" textLength="59" x="13" y="375.9951">classifier</text><text fill="#000000" font-family="sans-serif" font-size="14" lengthAdjust="spacing" textLength="138" x="13" y="392.292">component_params</text><text fill="#000000" font-family="sans-serif" font-size="14" lengthAdjust="spacing" textLength="193" x="13" y="408.5889">component_params_as_dict</text><text fill="#000000" font-family="sans-serif" font-size="14" lengthAdjust="spacing" textLength="26" x="13" y="424.8857">doc</text><text fill="#000000" font-family="sans-serif" font-size="14" lengthAdjust="spacing" textLength="26" x="13" y="441.1826">doc</text><text fill="#000000" font-family="sans-serif" font-size="14" lengthAdjust="spacing" textLength="90" x="13" y="457.4795">elyra_params</text><text fill="#000000" font-family="sans-serif" font-size="14" lengthAdjust="spacing" textLength="172" x="13" y="473.7764">generic_node_types : list</text><text fill="#000000" font-family="sans-serif" font-size="14" lengthAdjust="spacing" textLength="12" x="13" y="490.0732">id</text><text fill="#000000" font-family="sans-serif" font-size="14" lengthAdjust="spacing" textLength="43" x="13" y="506.3701">inputs</text><text fill="#000000" font-family="sans-serif" font-size="14" lengthAdjust="spacing" textLength="70" x="13" y="522.667">is_generic</text><text fill="#000000" font-family="sans-serif" font-size="14" lengthAdjust="spacing" textLength="39" x="13" y="538.9639">name</text><text fill="#000000" font-family="sans-serif" font-size="14" lengthAdjust="spacing" textLength="54" x="13" y="555.2607">outputs</text><text fill="#000000" font-family="sans-serif" font-size="14" lengthAdjust="spacing" textLength="145" x="13" y="571.5576">parent_operation_ids</text><text fill="#000000" font-family="sans-serif" font-size="14" lengthAdjust="spacing" textLength="30" x="13" y="587.8545">type</text><line style="stroke:#181818;stroke-width:0.5;" x1="8" x2="1355" y1="595.1563" y2="595.1563"/><text fill="#000000" font-family="sans-serif" font-size="14" lengthAdjust="spacing" textLength="1337" x="13" y="612.1514">create_instance(id: str, type: str, name: str, classifier: str, parent_operation_ids: Optional[List[str]], component_params: Optional[Dict[str, Any]], elyra_params: Optional[Dict[str, Any]]) -&gt; Operation</text><text fill="#000000" font-family="sans-serif" font-size="14" lengthAdjust="spacing" textLength="340" x="13" y="628.4482">is_generic_operation(operation_classifier) -&gt; bool</text></g><g id="link_elyra.pipeline.pipeline.GenericOperation_elyra.pipeline.pipeline.Operation"><path codeLine="35" d="M681.5,267.485 C681.5,280.379 681.5,293.609 681.5,306.859 " fill="none" id="elyra.pipeline.pipeline.GenericOperation-to-elyra.pipeline.pipeline.Operation" style="stroke:#181818;stroke-width:1.0;"/><polygon fill="none" points="688.5,306.94,681.5,326.94,674.5,306.94,688.5,306.94" style="stroke:#181818;stroke-width:1.0;"/></g></g></svg>