<?xml version="1.0" encoding="UTF-8" standalone="no"?><svg xmlns="http://www.w3.org/2000/svg" xmlns:xlink="http://www.w3.org/1999/xlink" contentStyleType="text/css" height="801px" preserveAspectRatio="none" style="width:2254px;height:801px;background:#FFFFFF;" version="1.1" viewBox="0 0 2254 801" width="2254px" zoomAndPan="magnify"><defs/><g><g id="elem_elyra.pipeline.kfp.processor_kfp.KfpPipelineProcessor"><rect codeLine="2" fill="#F1F1F1" height="243.5625" id="elyra.pipeline.kfp.processor_kfp.KfpPipelineProcessor" rx="2.5" ry="2.5" style="stroke:#181818;stroke-width:0.5;" width="920" x="7" y="7"/><ellipse cx="389.75" cy="23" fill="#ADD1B2" rx="11" ry="11" style="stroke:#181818;stroke-width:1.0;"/><path d="M392.7188,28.6406 Q392.1406,28.9375 391.5,29.0781 Q390.8594,29.2344 390.1563,29.2344 Q387.6563,29.2344 386.3281,27.5938 Q385.0156,25.9375 385.0156,22.8125 Q385.0156,19.6875 386.3281,18.0313 Q387.6563,16.375 390.1563,16.375 Q390.8594,16.375 391.5,16.5313 Q392.1563,16.6875 392.7188,16.9844 L392.7188,19.7031 Q392.0938,19.125 391.5,18.8594 Q390.9063,18.5781 390.2813,18.5781 Q388.9375,18.5781 388.25,19.6563 Q387.5625,20.7188 387.5625,22.8125 Q387.5625,24.9063 388.25,25.9844 Q388.9375,27.0469 390.2813,27.0469 Q390.9063,27.0469 391.5,26.7813 Q392.0938,26.5 392.7188,25.9219 L392.7188,28.6406 Z " fill="#000000"/><text fill="#000000" font-family="sans-serif" font-size="14" lengthAdjust="spacing" textLength="146" x="410.25" y="27.8467">KfpPipelineProcessor</text><line style="stroke:#181818;stroke-width:0.5;" x1="8" x2="926" y1="39" y2="39"/><text fill="#000000" font-family="sans-serif" font-size="14" lengthAdjust="spacing" textLength="34" x="13" y="55.9951">WCD</text><text fill="#000000" font-family="sans-serif" font-size="14" lengthAdjust="spacing" textLength="150" x="13" y="72.292">supported_properties</text><line style="stroke:#181818;stroke-width:0.5;" x1="8" x2="926" y1="79.5938" y2="79.5938"/><text fill="#000000" font-family="sans-serif" font-size="14" lengthAdjust="spacing" textLength="630" x="13" y="96.5889">add_disable_node_caching(instance: DisableNodeCaching, execution_object: Any) -&gt; None</text><text fill="#000000" font-family="sans-serif" font-size="14" lengthAdjust="spacing" textLength="750" x="13" y="112.8857">add_env_var(instance: EnvironmentVariable, execution_object: Any, pipeline_input_parameters: Any) -&gt; None</text><text fill="#000000" font-family="sans-serif" font-size="14" lengthAdjust="spacing" textLength="908" x="13" y="129.1826">add_kubernetes_pod_annotation(instance: KubernetesAnnotation, execution_object: Any, pipeline_input_parameters: Any) -&gt; None</text><text fill="#000000" font-family="sans-serif" font-size="14" lengthAdjust="spacing" textLength="827" x="13" y="145.4795">add_kubernetes_pod_label(instance: KubernetesLabel, execution_object: Any, pipeline_input_parameters: Any) -&gt; None</text><text fill="#000000" font-family="sans-serif" font-size="14" lengthAdjust="spacing" textLength="814" x="13" y="161.7764">add_kubernetes_secret(instance: KubernetesSecret, execution_object: Any, pipeline_input_parameters: Any) -&gt; None</text><text fill="#000000" font-family="sans-serif" font-size="14" lengthAdjust="spacing" textLength="635" x="13" y="178.0732">add_kubernetes_toleration(instance: KubernetesToleration, execution_object: Any) -&gt; None</text><text fill="#000000" font-family="sans-serif" font-size="14" lengthAdjust="spacing" textLength="773" x="13" y="194.3701">add_mounted_volume(instance: VolumeMount, execution_object: Any, pipeline_input_parameters: Any) -&gt; None</text><text fill="#000000" font-family="sans-serif" font-size="14" lengthAdjust="spacing" textLength="650" x="13" y="210.667">export(pipeline: Pipeline, pipeline_export_format: str, pipeline_export_path: str, overwrite: bool)</text><text fill="#000000" font-family="sans-serif" font-size="14" lengthAdjust="spacing" textLength="137" x="13" y="226.9639">get_operator_fn(op)</text><text fill="#000000" font-family="sans-serif" font-size="14" lengthAdjust="spacing" textLength="120" x="13" y="243.2607">process(pipeline)</text></g><g id="elem_elyra.pipeline.processor.PipelineProcessor"><rect codeLine="16" fill="#F1F1F1" height="194.6719" id="elyra.pipeline.processor.PipelineProcessor" rx="2.5" ry="2.5" style="stroke:#181818;stroke-width:0.5;" width="506" x="526" y="600"/><ellipse cx="712.75" cy="616" fill="#ADD1B2" rx="11" ry="11" style="stroke:#181818;stroke-width:1.0;"/><path d="M715.7188,621.6406 Q715.1406,621.9375 714.5,622.0781 Q713.8594,622.2344 713.1563,622.2344 Q710.6563,622.2344 709.3281,620.5938 Q708.0156,618.9375 708.0156,615.8125 Q708.0156,612.6875 709.3281,611.0313 Q710.6563,609.375 713.1563,609.375 Q713.8594,609.375 714.5,609.5313 Q715.1563,609.6875 715.7188,609.9844 L715.7188,612.7031 Q715.0938,612.125 714.5,611.8594 Q713.9063,611.5781 713.2813,611.5781 Q711.9375,611.5781 711.25,612.6563 Q710.5625,613.7188 710.5625,615.8125 Q710.5625,617.9063 711.25,618.9844 Q711.9375,620.0469 713.2813,620.0469 Q713.9063,620.0469 714.5,619.7813 Q715.0938,619.5 715.7188,618.9219 L715.7188,621.6406 Z " fill="#000000"/><text fill="#000000" font-family="sans-serif" font-size="14" lengthAdjust="spacing" textLength="124" x="733.25" y="620.8467">PipelineProcessor</text><line style="stroke:#181818;stroke-width:0.5;" x1="527" x2="1031" y1="632" y2="632"/><text fill="#000000" font-family="sans-serif" font-size="14" lengthAdjust="spacing" textLength="183" x="532" y="648.9951">enable_pipeline_info : bool</text><text fill="#000000" font-family="sans-serif" font-size="14" lengthAdjust="spacing" textLength="39" x="532" y="665.292">name</text><text fill="#000000" font-family="sans-serif" font-size="14" lengthAdjust="spacing" textLength="83" x="532" y="681.5889">root_dir : str</text><text fill="#000000" font-family="sans-serif" font-size="14" lengthAdjust="spacing" textLength="30" x="532" y="697.8857">type</text><line style="stroke:#181818;stroke-width:0.5;" x1="527" x2="1031" y1="705.1875" y2="705.1875"/><text fill="#000000" font-family="sans-serif" font-size="14" font-style="italic" lengthAdjust="spacing" textLength="494" x="532" y="722.1826">export(pipeline, pipeline_export_format, pipeline_export_path, overwrite)</text><text fill="#000000" font-family="sans-serif" font-size="14" lengthAdjust="spacing" textLength="420" x="532" y="738.4795">get_component(component_id: str) -&gt; Optional[Component]</text><text fill="#000000" font-family="sans-serif" font-size="14" lengthAdjust="spacing" textLength="268" x="532" y="754.7764">get_components() -&gt; List[Component]</text><text fill="#000000" font-family="sans-serif" font-size="14" lengthAdjust="spacing" textLength="380" x="532" y="771.0732">log_pipeline_info(pipeline_name: str, action_clause: str)</text><text fill="#000000" font-family="sans-serif" font-size="14" font-style="italic" lengthAdjust="spacing" textLength="340" x="532" y="787.3701">process(pipeline) -&gt; PipelineProcessorResponse</text></g><g id="elem_elyra.pipeline.processor.PipelineProcessorManager"><rect codeLine="27" fill="#F1F1F1" height="210.9688" id="elyra.pipeline.processor.PipelineProcessorManager" rx="2.5" ry="2.5" style="stroke:#181818;stroke-width:0.5;" width="662" x="1585" y="328"/><ellipse cx="1819.75" cy="344" fill="#ADD1B2" rx="11" ry="11" style="stroke:#181818;stroke-width:1.0;"/><path d="M1822.7188,349.6406 Q1822.1406,349.9375 1821.5,350.0781 Q1820.8594,350.2344 1820.1563,350.2344 Q1817.6563,350.2344 1816.3281,348.5938 Q1815.0156,346.9375 1815.0156,343.8125 Q1815.0156,340.6875 1816.3281,339.0313 Q1817.6563,337.375 1820.1563,337.375 Q1820.8594,337.375 1821.5,337.5313 Q1822.1563,337.6875 1822.7188,337.9844 L1822.7188,340.7031 Q1822.0938,340.125 1821.5,339.8594 Q1820.9063,339.5781 1820.2813,339.5781 Q1818.9375,339.5781 1818.25,340.6563 Q1817.5625,341.7188 1817.5625,343.8125 Q1817.5625,345.9063 1818.25,346.9844 Q1818.9375,348.0469 1820.2813,348.0469 Q1820.9063,348.0469 1821.5,347.7813 Q1822.0938,347.5 1822.7188,346.9219 L1822.7188,349.6406 Z " fill="#000000"/><text fill="#000000" font-family="sans-serif" font-size="14" lengthAdjust="spacing" textLength="184" x="1840.25" y="348.8467">PipelineProcessorManager</text><line style="stroke:#181818;stroke-width:0.5;" x1="1586" x2="2246" y1="360" y2="360"/><text fill="#000000" font-family="sans-serif" font-size="14" lengthAdjust="spacing" textLength="52" x="1591" y="376.9951">root_dir</text><line style="stroke:#181818;stroke-width:0.5;" x1="1586" x2="2246" y1="384.2969" y2="384.2969"/><text fill="#000000" font-family="sans-serif" font-size="14" lengthAdjust="spacing" textLength="650" x="1591" y="401.292">export(pipeline: Pipeline, pipeline_export_format: str, pipeline_export_path: str, overwrite: bool)</text><text fill="#000000" font-family="sans-serif" font-size="14" lengthAdjust="spacing" textLength="321" x="1591" y="417.5889">get_all_processors() -&gt; List[PipelineProcessor]</text><text fill="#000000" font-family="sans-serif" font-size="14" lengthAdjust="spacing" textLength="280" x="1591" y="433.8857">get_component(runtime, component_id)</text><text fill="#000000" font-family="sans-serif" font-size="14" lengthAdjust="spacing" textLength="181" x="1591" y="450.1826">get_components(runtime)</text><text fill="#000000" font-family="sans-serif" font-size="14" lengthAdjust="spacing" textLength="321" x="1591" y="466.4795">get_processor_for_runtime(runtime_name: str)</text><text fill="#000000" font-family="sans-serif" font-size="14" lengthAdjust="spacing" textLength="443" x="1591" y="482.7764">get_runtime_type(runtime_name: str) -&gt; RuntimeProcessorType</text><text fill="#000000" font-family="sans-serif" font-size="14" lengthAdjust="spacing" textLength="341" x="1591" y="499.0732">is_supported_runtime(runtime_name: str) -&gt; bool</text><text fill="#000000" font-family="sans-serif" font-size="14" lengthAdjust="spacing" textLength="388" x="1591" y="515.3701">is_supported_runtime_type(runtime_type_name) -&gt; bool</text><text fill="#000000" font-family="sans-serif" font-size="14" lengthAdjust="spacing" textLength="120" x="1591" y="531.667">process(pipeline)</text></g><g id="elem_elyra.pipeline.processor.PipelineProcessorRegistry"><rect codeLine="39" fill="#F1F1F1" height="162.0781" id="elyra.pipeline.processor.PipelineProcessorRegistry" rx="2.5" ry="2.5" style="stroke:#181818;stroke-width:0.5;" width="452" x="1690" y="48"/><ellipse cx="1821.75" cy="64" fill="#ADD1B2" rx="11" ry="11" style="stroke:#181818;stroke-width:1.0;"/><path d="M1824.7188,69.6406 Q1824.1406,69.9375 1823.5,70.0781 Q1822.8594,70.2344 1822.1563,70.2344 Q1819.6563,70.2344 1818.3281,68.5938 Q1817.0156,66.9375 1817.0156,63.8125 Q1817.0156,60.6875 1818.3281,59.0313 Q1819.6563,57.375 1822.1563,57.375 Q1822.8594,57.375 1823.5,57.5313 Q1824.1563,57.6875 1824.7188,57.9844 L1824.7188,60.7031 Q1824.0938,60.125 1823.5,59.8594 Q1822.9063,59.5781 1822.2813,59.5781 Q1820.9375,59.5781 1820.25,60.6563 Q1819.5625,61.7188 1819.5625,63.8125 Q1819.5625,65.9063 1820.25,66.9844 Q1820.9375,68.0469 1822.2813,68.0469 Q1822.9063,68.0469 1823.5,67.7813 Q1824.0938,67.5 1824.7188,66.9219 L1824.7188,69.6406 Z " fill="#000000"/><text fill="#000000" font-family="sans-serif" font-size="14" lengthAdjust="spacing" textLength="180" x="1842.25" y="68.8467">PipelineProcessorRegistry</text><line style="stroke:#181818;stroke-width:0.5;" x1="1691" x2="2141" y1="80" y2="80"/><text fill="#000000" font-family="sans-serif" font-size="14" lengthAdjust="spacing" textLength="52" x="1696" y="96.9951">root_dir</text><line style="stroke:#181818;stroke-width:0.5;" x1="1691" x2="2141" y1="104.2969" y2="104.2969"/><text fill="#000000" font-family="sans-serif" font-size="14" lengthAdjust="spacing" textLength="183" x="1696" y="121.292">add_processor(processor)</text><text fill="#000000" font-family="sans-serif" font-size="14" lengthAdjust="spacing" textLength="321" x="1696" y="137.5889">get_all_processors() -&gt; List[PipelineProcessor]</text><text fill="#000000" font-family="sans-serif" font-size="14" lengthAdjust="spacing" textLength="253" x="1696" y="153.8857">get_processor(processor_name: str)</text><text fill="#000000" font-family="sans-serif" font-size="14" lengthAdjust="spacing" textLength="440" x="1696" y="170.1826">get_runtime_types_resources() -&gt; List[RuntimeTypeResources]</text><text fill="#000000" font-family="sans-serif" font-size="14" lengthAdjust="spacing" textLength="333" x="1696" y="186.4795">is_valid_processor(processor_name: str) -&gt; bool</text><text fill="#000000" font-family="sans-serif" font-size="14" lengthAdjust="spacing" textLength="373" x="1696" y="202.7764">is_valid_runtime_type(runtime_type_name: str) -&gt; bool</text></g><g id="elem_elyra.pipeline.processor.RuntimePipelineProcessor"><rect codeLine="48" fill="#F1F1F1" height="162.0781" id="elyra.pipeline.processor.RuntimePipelineProcessor" rx="2.5" ry="2.5" style="stroke:#181818;stroke-width:0.5;" width="920" x="319" y="352.5"/><ellipse cx="683.75" cy="368.5" fill="#ADD1B2" rx="11" ry="11" style="stroke:#181818;stroke-width:1.0;"/><path d="M686.7188,374.1406 Q686.1406,374.4375 685.5,374.5781 Q684.8594,374.7344 684.1563,374.7344 Q681.6563,374.7344 680.3281,373.0938 Q679.0156,371.4375 679.0156,368.3125 Q679.0156,365.1875 680.3281,363.5313 Q681.6563,361.875 684.1563,361.875 Q684.8594,361.875 685.5,362.0313 Q686.1563,362.1875 686.7188,362.4844 L686.7188,365.2031 Q686.0938,364.625 685.5,364.3594 Q684.9063,364.0781 684.2813,364.0781 Q682.9375,364.0781 682.25,365.1563 Q681.5625,366.2188 681.5625,368.3125 Q681.5625,370.4063 682.25,371.4844 Q682.9375,372.5469 684.2813,372.5469 Q684.9063,372.5469 685.5,372.2813 Q686.0938,372 686.7188,371.4219 L686.7188,374.1406 Z " fill="#000000"/><text fill="#000000" font-family="sans-serif" font-size="14" lengthAdjust="spacing" textLength="182" x="704.25" y="373.3467">RuntimePipelineProcessor</text><line style="stroke:#181818;stroke-width:0.5;" x1="320" x2="1238" y1="384.5" y2="384.5"/><line style="stroke:#181818;stroke-width:0.5;" x1="320" x2="1238" y1="392.5" y2="392.5"/><text fill="#000000" font-family="sans-serif" font-size="14" font-style="italic" lengthAdjust="spacing" textLength="630" x="325" y="409.4951">add_disable_node_caching(instance: DisableNodeCaching, execution_object: Any) -&gt; None</text><text fill="#000000" font-family="sans-serif" font-size="14" font-style="italic" lengthAdjust="spacing" textLength="750" x="325" y="425.792">add_env_var(instance: EnvironmentVariable, execution_object: Any, pipeline_input_parameters: Any) -&gt; None</text><text fill="#000000" font-family="sans-serif" font-size="14" font-style="italic" lengthAdjust="spacing" textLength="908" x="325" y="442.0889">add_kubernetes_pod_annotation(instance: KubernetesAnnotation, execution_object: Any, pipeline_input_parameters: Any) -&gt; None</text><text fill="#000000" font-family="sans-serif" font-size="14" font-style="italic" lengthAdjust="spacing" textLength="827" x="325" y="458.3857">add_kubernetes_pod_label(instance: KubernetesLabel, execution_object: Any, pipeline_input_parameters: Any) -&gt; None</text><text fill="#000000" font-family="sans-serif" font-size="14" font-style="italic" lengthAdjust="spacing" textLength="814" x="325" y="474.6826">add_kubernetes_secret(instance: KubernetesSecret, execution_object: Any, pipeline_input_parameters: Any) -&gt; None</text><text fill="#000000" font-family="sans-serif" font-size="14" font-style="italic" lengthAdjust="spacing" textLength="635" x="325" y="490.9795">add_kubernetes_toleration(instance: KubernetesToleration, execution_object: Any) -&gt; None</text><text fill="#000000" font-family="sans-serif" font-size="14" font-style="italic" lengthAdjust="spacing" textLength="773" x="325" y="507.2764">add_mounted_volume(instance: VolumeMount, execution_object: Any, pipeline_input_parameters: Any) -&gt; None</text></g><g id="elem_elyra.pipeline.wfp.processor_wfp.WfpPipelineProcessor"><rect codeLine="57" fill="#F1F1F1" height="129.4844" id="elyra.pipeline.wfp.processor_wfp.WfpPipelineProcessor" rx="2.5" ry="2.5" style="stroke:#181818;stroke-width:0.5;" width="547" x="962.5" y="64.5"/><ellipse cx="1156.75" cy="80.5" fill="#ADD1B2" rx="11" ry="11" style="stroke:#181818;stroke-width:1.0;"/><path d="M1159.7188,86.1406 Q1159.1406,86.4375 1158.5,86.5781 Q1157.8594,86.7344 1157.1563,86.7344 Q1154.6563,86.7344 1153.3281,85.0938 Q1152.0156,83.4375 1152.0156,80.3125 Q1152.0156,77.1875 1153.3281,75.5313 Q1154.6563,73.875 1157.1563,73.875 Q1157.8594,73.875 1158.5,74.0313 Q1159.1563,74.1875 1159.7188,74.4844 L1159.7188,77.2031 Q1159.0938,76.625 1158.5,76.3594 Q1157.9063,76.0781 1157.2813,76.0781 Q1155.9375,76.0781 1155.25,77.1563 Q1154.5625,78.2188 1154.5625,80.3125 Q1154.5625,82.4063 1155.25,83.4844 Q1155.9375,84.5469 1157.2813,84.5469 Q1157.9063,84.5469 1158.5,84.2813 Q1159.0938,84 1159.7188,83.4219 L1159.7188,86.1406 Z " fill="#000000"/><text fill="#000000" font-family="sans-serif" font-size="14" lengthAdjust="spacing" textLength="150" x="1177.25" y="85.3467">WfpPipelineProcessor</text><line style="stroke:#181818;stroke-width:0.5;" x1="963.5" x2="1508.5" y1="96.5" y2="96.5"/><line style="stroke:#181818;stroke-width:0.5;" x1="963.5" x2="1508.5" y1="104.5" y2="104.5"/><text fill="#000000" font-family="sans-serif" font-size="14" lengthAdjust="spacing" textLength="391" x="968.5" y="121.4951">create_pipeline_template(path: str, resource: str, file_list)</text><text fill="#000000" font-family="sans-serif" font-size="14" lengthAdjust="spacing" textLength="535" x="968.5" y="137.792">export_custom(root, parent, node_json: dict, export_path: str, overwrite: bool)</text><text fill="#000000" font-family="sans-serif" font-size="14" lengthAdjust="spacing" textLength="422" x="968.5" y="154.0889">export_pipeline(path, runtime_config, root_dir, parent, file_list)</text><text fill="#000000" font-family="sans-serif" font-size="14" lengthAdjust="spacing" textLength="286" x="968.5" y="170.3857">file2zip(zip_file_name: str, file_names: list)</text><text fill="#000000" font-family="sans-serif" font-size="14" lengthAdjust="spacing" textLength="464" x="968.5" y="186.6826">upload(file_path: str, runtime_config: str, name: str, description: str)</text></g><g id="link_elyra.pipeline.kfp.processor_kfp.KfpPipelineProcessor_elyra.pipeline.processor.RuntimePipelineProcessor"><path codeLine="64" d="M592.105,251.295 C621.989,280.27 653.449,310.771 681.857,338.315 " fill="none" id="elyra.pipeline.kfp.processor_kfp.KfpPipelineProcessor-to-elyra.pipeline.processor.RuntimePipelineProcessor" style="stroke:#181818;stroke-width:1.0;"/><polygon fill="none" points="686.924,333.477,696.41,352.425,677.178,343.529,686.924,333.477" style="stroke:#181818;stroke-width:1.0;"/></g><g id="link_elyra.pipeline.processor.PipelineProcessorRegistry_elyra.pipeline.processor.PipelineProcessorManager"><path codeLine="65" d="M1916,210.27 C1916,242.243 1916,279.687 1916,314.631 " fill="none" id="elyra.pipeline.processor.PipelineProcessorRegistry-to-elyra.pipeline.processor.PipelineProcessorManager" style="stroke:#181818;stroke-width:1.0;"/><polygon fill="#181818" points="1916,327.884,1920,321.884,1916,315.884,1912,321.884,1916,327.884" style="stroke:#181818;stroke-width:1.0;"/><text fill="#000000" font-family="sans-serif" font-size="13" lengthAdjust="spacing" textLength="55" x="1917" y="294.0669">_registry</text></g><g id="link_elyra.pipeline.processor.RuntimePipelineProcessor_elyra.pipeline.processor.PipelineProcessor"><path codeLine="66" d="M779,514.532 C779,535.156 779,557.777 779,579.847 " fill="none" id="elyra.pipeline.processor.RuntimePipelineProcessor-to-elyra.pipeline.processor.PipelineProcessor" style="stroke:#181818;stroke-width:1.0;"/><polygon fill="none" points="786,579.889,779,599.889,772,579.889,786,579.889" style="stroke:#181818;stroke-width:1.0;"/></g><g id="link_elyra.pipeline.wfp.processor_wfp.WfpPipelineProcessor_elyra.pipeline.processor.RuntimePipelineProcessor"><path codeLine="67" d="M1139.92,193.598 C1075.33,236.354 989.179,293.377 917.247,340.991 " fill="none" id="elyra.pipeline.wfp.processor_wfp.WfpPipelineProcessor-to-elyra.pipeline.processor.RuntimePipelineProcessor" style="stroke:#181818;stroke-width:1.0;"/><polygon fill="none" points="920.781,347.046,900.24,352.248,913.054,335.372,920.781,347.046" style="stroke:#181818;stroke-width:1.0;"/></g></g></svg>