<?xml version="1.0" encoding="UTF-8" standalone="no"?><svg xmlns="http://www.w3.org/2000/svg" xmlns:xlink="http://www.w3.org/1999/xlink" contentStyleType="text/css" height="692px" preserveAspectRatio="none" style="width:1533px;height:692px;background:#FFFFFF;" version="1.1" viewBox="0 0 1533 692" width="1533px" zoomAndPan="magnify"><defs/><g><g id="elem_elyra.pipeline.pipeline_definition.AppDataBase"><rect codeLine="2" fill="#F1F1F1" height="113.1875" id="elyra.pipeline.pipeline_definition.AppDataBase" rx="2.5" ry="2.5" style="stroke:#181818;stroke-width:0.5;" width="244" x="138.5" y="490.5"/><ellipse cx="209.25" cy="506.5" fill="#ADD1B2" rx="11" ry="11" style="stroke:#181818;stroke-width:1.0;"/><path d="M212.2188,512.1406 Q211.6406,512.4375 211,512.5781 Q210.3594,512.7344 209.6563,512.7344 Q207.1563,512.7344 205.8281,511.0938 Q204.5156,509.4375 204.5156,506.3125 Q204.5156,503.1875 205.8281,501.5313 Q207.1563,499.875 209.6563,499.875 Q210.3594,499.875 211,500.0313 Q211.6563,500.1875 212.2188,500.4844 L212.2188,503.2031 Q211.5938,502.625 211,502.3594 Q210.4063,502.0781 209.7813,502.0781 Q208.4375,502.0781 207.75,503.1563 Q207.0625,504.2188 207.0625,506.3125 Q207.0625,508.4063 207.75,509.4844 Q208.4375,510.5469 209.7813,510.5469 Q210.4063,510.5469 211,510.2813 Q211.5938,510 212.2188,509.4219 L212.2188,512.1406 Z " fill="#000000"/><text fill="#000000" font-family="sans-serif" font-size="14" lengthAdjust="spacing" textLength="94" x="229.75" y="511.3467">AppDataBase</text><line style="stroke:#181818;stroke-width:0.5;" x1="139.5" x2="381.5" y1="522.5" y2="522.5"/><text fill="#000000" font-family="sans-serif" font-size="14" lengthAdjust="spacing" textLength="12" x="144.5" y="539.4951">id</text><line style="stroke:#181818;stroke-width:0.5;" x1="139.5" x2="381.5" y1="546.7969" y2="546.7969"/><text fill="#000000" font-family="sans-serif" font-size="14" lengthAdjust="spacing" textLength="232" x="144.5" y="563.792">get(key: str, default_value) -&gt; Any</text><text fill="#000000" font-family="sans-serif" font-size="14" lengthAdjust="spacing" textLength="161" x="144.5" y="580.0889">set(key: str, value: Any)</text><text fill="#000000" font-family="sans-serif" font-size="14" lengthAdjust="spacing" textLength="108" x="144.5" y="596.3857">to_dict() -&gt; Dict</text></g><g id="elem_elyra.pipeline.pipeline_definition.Node"><rect codeLine="8" fill="#F1F1F1" height="325.0469" id="elyra.pipeline.pipeline_definition.Node" rx="2.5" ry="2.5" style="stroke:#181818;stroke-width:0.5;" width="507" x="7" y="7"/><ellipse cx="237.75" cy="23" fill="#ADD1B2" rx="11" ry="11" style="stroke:#181818;stroke-width:1.0;"/><path d="M240.7188,28.6406 Q240.1406,28.9375 239.5,29.0781 Q238.8594,29.2344 238.1563,29.2344 Q235.6563,29.2344 234.3281,27.5938 Q233.0156,25.9375 233.0156,22.8125 Q233.0156,19.6875 234.3281,18.0313 Q235.6563,16.375 238.1563,16.375 Q238.8594,16.375 239.5,16.5313 Q240.1563,16.6875 240.7188,16.9844 L240.7188,19.7031 Q240.0938,19.125 239.5,18.8594 Q238.9063,18.5781 238.2813,18.5781 Q236.9375,18.5781 236.25,19.6563 Q235.5625,20.7188 235.5625,22.8125 Q235.5625,24.9063 236.25,25.9844 Q236.9375,27.0469 238.2813,27.0469 Q238.9063,27.0469 239.5,26.7813 Q240.0938,26.5 240.7188,25.9219 L240.7188,28.6406 Z " fill="#000000"/><text fill="#000000" font-family="sans-serif" font-size="14" lengthAdjust="spacing" textLength="37" x="258.25" y="27.8467">Node</text><line style="stroke:#181818;stroke-width:0.5;" x1="8" x2="513" y1="39" y2="39"/><text fill="#000000" font-family="sans-serif" font-size="14" lengthAdjust="spacing" textLength="118" x="13" y="55.9951">component_links</text><text fill="#000000" font-family="sans-serif" font-size="14" lengthAdjust="spacing" textLength="135" x="13" y="72.292">component_source</text><text fill="#000000" font-family="sans-serif" font-size="14" lengthAdjust="spacing" textLength="164" x="13" y="88.5889">elyra_owned_properties</text><text fill="#000000" font-family="sans-serif" font-size="14" lengthAdjust="spacing" textLength="164" x="13" y="104.8857">elyra_owned_properties</text><text fill="#000000" font-family="sans-serif" font-size="14" lengthAdjust="spacing" textLength="70" x="13" y="121.1826">is_generic</text><text fill="#000000" font-family="sans-serif" font-size="14" lengthAdjust="spacing" textLength="32" x="13" y="137.4795">label</text><text fill="#000000" font-family="sans-serif" font-size="14" lengthAdjust="spacing" textLength="18" x="13" y="153.7764">op</text><text fill="#000000" font-family="sans-serif" font-size="14" lengthAdjust="spacing" textLength="133" x="13" y="170.0732">subflow_pipeline_id</text><text fill="#000000" font-family="sans-serif" font-size="14" lengthAdjust="spacing" textLength="30" x="13" y="186.3701">type</text><line style="stroke:#181818;stroke-width:0.5;" x1="8" x2="513" y1="193.6719" y2="193.6719"/><text fill="#000000" font-family="sans-serif" font-size="14" lengthAdjust="spacing" textLength="295" x="13" y="210.667">convert_elyra_owned_properties() -&gt; None</text><text fill="#000000" font-family="sans-serif" font-size="14" lengthAdjust="spacing" textLength="340" x="13" y="226.9639">get_all_component_parameters() -&gt; Dict[str, Any]</text><text fill="#000000" font-family="sans-serif" font-size="14" lengthAdjust="spacing" textLength="397" x="13" y="243.2607">get_component_parameter(key: str, default_value) -&gt; Any</text><text fill="#000000" font-family="sans-serif" font-size="14" lengthAdjust="spacing" textLength="459" x="13" y="259.5576">pop_component_parameter(key: str, default: Optional[Any]) -&gt; Any</text><text fill="#000000" font-family="sans-serif" font-size="14" lengthAdjust="spacing" textLength="294" x="13" y="275.8545">remove_env_vars_with_matching_secrets()</text><text fill="#000000" font-family="sans-serif" font-size="14" lengthAdjust="spacing" textLength="326" x="13" y="292.1514">set_component_parameter(key: str, value: Any)</text><text fill="#000000" font-family="sans-serif" font-size="14" lengthAdjust="spacing" textLength="495" x="13" y="308.4482">set_elyra_owned_properties(runtime_type_name: Optional[str]) -&gt; None</text><text fill="#000000" font-family="sans-serif" font-size="14" lengthAdjust="spacing" textLength="283" x="13" y="324.7451">unset_elyra_owned_properties() -&gt; None</text></g><g id="elem_elyra.pipeline.pipeline_definition.Pipeline"><rect codeLine="27" fill="#F1F1F1" height="243.5625" id="elyra.pipeline.pipeline_definition.Pipeline" rx="2.5" ry="2.5" style="stroke:#181818;stroke-width:0.5;" width="309" x="605" y="47.5"/><ellipse cx="728.25" cy="63.5" fill="#ADD1B2" rx="11" ry="11" style="stroke:#181818;stroke-width:1.0;"/><path d="M731.2188,69.1406 Q730.6406,69.4375 730,69.5781 Q729.3594,69.7344 728.6563,69.7344 Q726.1563,69.7344 724.8281,68.0938 Q723.5156,66.4375 723.5156,63.3125 Q723.5156,60.1875 724.8281,58.5313 Q726.1563,56.875 728.6563,56.875 Q729.3594,56.875 730,57.0313 Q730.6563,57.1875 731.2188,57.4844 L731.2188,60.2031 Q730.5938,59.625 730,59.3594 Q729.4063,59.0781 728.7813,59.0781 Q727.4375,59.0781 726.75,60.1563 Q726.0625,61.2188 726.0625,63.3125 Q726.0625,65.4063 726.75,66.4844 Q727.4375,67.5469 728.7813,67.5469 Q729.4063,67.5469 730,67.2813 Q730.5938,67 731.2188,66.4219 L731.2188,69.1406 Z " fill="#000000"/><text fill="#000000" font-family="sans-serif" font-size="14" lengthAdjust="spacing" textLength="54" x="748.75" y="68.3467">Pipeline</text><line style="stroke:#181818;stroke-width:0.5;" x1="606" x2="913" y1="79.5" y2="79.5"/><text fill="#000000" font-family="sans-serif" font-size="14" lengthAdjust="spacing" textLength="74" x="611" y="96.4951">comments</text><text fill="#000000" font-family="sans-serif" font-size="14" lengthAdjust="spacing" textLength="39" x="611" y="112.792">name</text><text fill="#000000" font-family="sans-serif" font-size="14" lengthAdjust="spacing" textLength="44" x="611" y="129.0889">nodes</text><text fill="#000000" font-family="sans-serif" font-size="14" lengthAdjust="spacing" textLength="140" x="611" y="145.3857">pipeline_parameters</text><text fill="#000000" font-family="sans-serif" font-size="14" lengthAdjust="spacing" textLength="53" x="611" y="161.6826">runtime</text><text fill="#000000" font-family="sans-serif" font-size="14" lengthAdjust="spacing" textLength="102" x="611" y="177.9795">runtime_config</text><text fill="#000000" font-family="sans-serif" font-size="14" lengthAdjust="spacing" textLength="48" x="611" y="194.2764">source</text><text fill="#000000" font-family="sans-serif" font-size="14" lengthAdjust="spacing" textLength="30" x="611" y="210.5732">type</text><text fill="#000000" font-family="sans-serif" font-size="14" lengthAdjust="spacing" textLength="50" x="611" y="226.8701">version</text><line style="stroke:#181818;stroke-width:0.5;" x1="606" x2="913" y1="234.1719" y2="234.1719"/><text fill="#000000" font-family="sans-serif" font-size="14" lengthAdjust="spacing" textLength="295" x="611" y="251.167">convert_elyra_owned_properties() -&gt; None</text><text fill="#000000" font-family="sans-serif" font-size="14" lengthAdjust="spacing" textLength="297" x="611" y="267.4639">get_property(key: str, default_value) -&gt; Any</text><text fill="#000000" font-family="sans-serif" font-size="14" lengthAdjust="spacing" textLength="226" x="611" y="283.7607">set_property(key: str, value: Any)</text></g><g id="elem_elyra.pipeline.pipeline.Pipeline"><rect codeLine="41" fill="#F1F1F1" height="194.6719" id="elyra.pipeline.pipeline.Pipeline" rx="2.5" ry="2.5" style="stroke:#181818;stroke-width:0.5;" width="276" x="949.5" y="72"/><ellipse cx="1056.25" cy="88" fill="#ADD1B2" rx="11" ry="11" style="stroke:#181818;stroke-width:1.0;"/><path d="M1059.2188,93.6406 Q1058.6406,93.9375 1058,94.0781 Q1057.3594,94.2344 1056.6563,94.2344 Q1054.1563,94.2344 1052.8281,92.5938 Q1051.5156,90.9375 1051.5156,87.8125 Q1051.5156,84.6875 1052.8281,83.0313 Q1054.1563,81.375 1056.6563,81.375 Q1057.3594,81.375 1058,81.5313 Q1058.6563,81.6875 1059.2188,81.9844 L1059.2188,84.7031 Q1058.5938,84.125 1058,83.8594 Q1057.4063,83.5781 1056.7813,83.5781 Q1055.4375,83.5781 1054.75,84.6563 Q1054.0625,85.7188 1054.0625,87.8125 Q1054.0625,89.9063 1054.75,90.9844 Q1055.4375,92.0469 1056.7813,92.0469 Q1057.4063,92.0469 1058,91.7813 Q1058.5938,91.5 1059.2188,90.9219 L1059.2188,93.6406 Z " fill="#000000"/><text fill="#000000" font-family="sans-serif" font-size="14" lengthAdjust="spacing" textLength="54" x="1076.75" y="92.8467">Pipeline</text><line style="stroke:#181818;stroke-width:0.5;" x1="950.5" x2="1224.5" y1="104" y2="104"/><text fill="#000000" font-family="sans-serif" font-size="14" lengthAdjust="spacing" textLength="77" x="955.5" y="120.9951">description</text><text fill="#000000" font-family="sans-serif" font-size="14" lengthAdjust="spacing" textLength="12" x="955.5" y="137.292">id</text><text fill="#000000" font-family="sans-serif" font-size="14" lengthAdjust="spacing" textLength="39" x="955.5" y="153.5889">name</text><text fill="#000000" font-family="sans-serif" font-size="14" lengthAdjust="spacing" textLength="74" x="955.5" y="169.8857">operations</text><text fill="#000000" font-family="sans-serif" font-size="14" lengthAdjust="spacing" textLength="140" x="955.5" y="186.1826">pipeline_parameters</text><text fill="#000000" font-family="sans-serif" font-size="14" lengthAdjust="spacing" textLength="53" x="955.5" y="202.4795">runtime</text><text fill="#000000" font-family="sans-serif" font-size="14" lengthAdjust="spacing" textLength="102" x="955.5" y="218.7764">runtime_config</text><text fill="#000000" font-family="sans-serif" font-size="14" lengthAdjust="spacing" textLength="48" x="955.5" y="235.0732">source</text><line style="stroke:#181818;stroke-width:0.5;" x1="950.5" x2="1224.5" y1="242.375" y2="242.375"/><text fill="#000000" font-family="sans-serif" font-size="14" lengthAdjust="spacing" textLength="264" x="955.5" y="259.3701">contains_generic_operations() -&gt; bool</text></g><g id="elem_elyra.pipeline.pipeline_definition.PipelineDefinition"><rect codeLine="52" fill="#F1F1F1" height="276.1563" id="elyra.pipeline.pipeline_definition.PipelineDefinition" rx="2.5" ry="2.5" style="stroke:#181818;stroke-width:0.5;" width="796" x="417.5" y="409"/><ellipse cx="751.75" cy="425" fill="#ADD1B2" rx="11" ry="11" style="stroke:#181818;stroke-width:1.0;"/><path d="M754.7188,430.6406 Q754.1406,430.9375 753.5,431.0781 Q752.8594,431.2344 752.1563,431.2344 Q749.6563,431.2344 748.3281,429.5938 Q747.0156,427.9375 747.0156,424.8125 Q747.0156,421.6875 748.3281,420.0313 Q749.6563,418.375 752.1563,418.375 Q752.8594,418.375 753.5,418.5313 Q754.1563,418.6875 754.7188,418.9844 L754.7188,421.7031 Q754.0938,421.125 753.5,420.8594 Q752.9063,420.5781 752.2813,420.5781 Q750.9375,420.5781 750.25,421.6563 Q749.5625,422.7188 749.5625,424.8125 Q749.5625,426.9063 750.25,427.9844 Q750.9375,429.0469 752.2813,429.0469 Q752.9063,429.0469 753.5,428.7813 Q754.0938,428.5 754.7188,427.9219 L754.7188,430.6406 Z " fill="#000000"/><text fill="#000000" font-family="sans-serif" font-size="14" lengthAdjust="spacing" textLength="119" x="772.25" y="429.8467">PipelineDefinition</text><line style="stroke:#181818;stroke-width:0.5;" x1="418.5" x2="1212.5" y1="441" y2="441"/><text fill="#000000" font-family="sans-serif" font-size="14" lengthAdjust="spacing" textLength="12" x="423.5" y="457.9951">id</text><text fill="#000000" font-family="sans-serif" font-size="14" lengthAdjust="spacing" textLength="105" x="423.5" y="474.292">pipeline_nodes</text><text fill="#000000" font-family="sans-serif" font-size="14" lengthAdjust="spacing" textLength="62" x="423.5" y="490.5889">pipelines</text><text fill="#000000" font-family="sans-serif" font-size="14" lengthAdjust="spacing" textLength="111" x="423.5" y="506.8857">primary_pipeline</text><text fill="#000000" font-family="sans-serif" font-size="14" lengthAdjust="spacing" textLength="112" x="423.5" y="523.1826">schema_version</text><line style="stroke:#181818;stroke-width:0.5;" x1="418.5" x2="1212.5" y1="530.4844" y2="530.4844"/><text fill="#000000" font-family="sans-serif" font-size="14" lengthAdjust="spacing" textLength="784" x="423.5" y="547.4795">get_canvas_properties_from_template(package_name: str, template_name: str, runtime_type: str) -&gt; Dict[str, Any]</text><text fill="#000000" font-family="sans-serif" font-size="14" lengthAdjust="spacing" textLength="158" x="423.5" y="563.7764">get_node(node_id: str)</text><text fill="#000000" font-family="sans-serif" font-size="14" lengthAdjust="spacing" textLength="349" x="423.5" y="580.0732">get_node_comments(node_id: str) -&gt; Optional[str]</text><text fill="#000000" font-family="sans-serif" font-size="14" lengthAdjust="spacing" textLength="287" x="423.5" y="596.3701">get_pipeline_definition(pipeline_id) -&gt; Any</text><text fill="#000000" font-family="sans-serif" font-size="14" lengthAdjust="spacing" textLength="219" x="423.5" y="612.667">get_supernodes() -&gt; List[Node]</text><text fill="#000000" font-family="sans-serif" font-size="14" lengthAdjust="spacing" textLength="113" x="423.5" y="628.9639">is_valid() -&gt; bool</text><text fill="#000000" font-family="sans-serif" font-size="14" lengthAdjust="spacing" textLength="274" x="423.5" y="645.2607">propagate_pipeline_default_properties()</text><text fill="#000000" font-family="sans-serif" font-size="14" lengthAdjust="spacing" textLength="108" x="423.5" y="661.5576">to_dict() -&gt; Dict</text><text fill="#000000" font-family="sans-serif" font-size="14" lengthAdjust="spacing" textLength="106" x="423.5" y="677.8545">validate() -&gt; list</text></g><g id="elem_elyra.pipeline.parser.PipelineParser"><rect codeLine="68" fill="#F1F1F1" height="80.5938" id="elyra.pipeline.parser.PipelineParser" rx="2.5" ry="2.5" style="stroke:#181818;stroke-width:0.5;" width="266" x="1260.5" y="129"/><ellipse cx="1340.25" cy="145" fill="#ADD1B2" rx="11" ry="11" style="stroke:#181818;stroke-width:1.0;"/><path d="M1343.2188,150.6406 Q1342.6406,150.9375 1342,151.0781 Q1341.3594,151.2344 1340.6563,151.2344 Q1338.1563,151.2344 1336.8281,149.5938 Q1335.5156,147.9375 1335.5156,144.8125 Q1335.5156,141.6875 1336.8281,140.0313 Q1338.1563,138.375 1340.6563,138.375 Q1341.3594,138.375 1342,138.5313 Q1342.6563,138.6875 1343.2188,138.9844 L1343.2188,141.7031 Q1342.5938,141.125 1342,140.8594 Q1341.4063,140.5781 1340.7813,140.5781 Q1339.4375,140.5781 1338.75,141.6563 Q1338.0625,142.7188 1338.0625,144.8125 Q1338.0625,146.9063 1338.75,147.9844 Q1339.4375,149.0469 1340.7813,149.0469 Q1341.4063,149.0469 1342,148.7813 Q1342.5938,148.5 1343.2188,147.9219 L1343.2188,150.6406 Z " fill="#000000"/><text fill="#000000" font-family="sans-serif" font-size="14" lengthAdjust="spacing" textLength="98" x="1360.75" y="149.8467">PipelineParser</text><line style="stroke:#181818;stroke-width:0.5;" x1="1261.5" x2="1525.5" y1="161" y2="161"/><text fill="#000000" font-family="sans-serif" font-size="14" lengthAdjust="spacing" textLength="83" x="1266.5" y="177.9951">root_dir : str</text><line style="stroke:#181818;stroke-width:0.5;" x1="1261.5" x2="1525.5" y1="185.2969" y2="185.2969"/><text fill="#000000" font-family="sans-serif" font-size="14" lengthAdjust="spacing" textLength="254" x="1266.5" y="202.292">parse(pipeline_json: Dict) -&gt; Pipeline</text></g><g id="link_elyra.pipeline.pipeline_definition.Node_elyra.pipeline.pipeline_definition.AppDataBase"><path codeLine="72" d="M260.5,332.198 C260.5,380.126 260.5,430.364 260.5,470.091 " fill="none" id="elyra.pipeline.pipeline_definition.Node-to-elyra.pipeline.pipeline_definition.AppDataBase" style="stroke:#181818;stroke-width:1.0;"/><polygon fill="none" points="267.5,470.128,260.5,490.128,253.5,470.128,267.5,470.128" style="stroke:#181818;stroke-width:1.0;"/></g><g id="link_elyra.pipeline.pipeline_definition.Pipeline_elyra.pipeline.pipeline_definition.AppDataBase"><path codeLine="73" d="M604.994,282.689 C580.642,299.572 555.561,316.503 531.5,332 C474.399,368.776 453.441,367.728 399.5,409 C373.563,428.846 347.452,453.168 324.975,475.783 " fill="none" id="elyra.pipeline.pipeline_definition.Pipeline-to-elyra.pipeline.pipeline_definition.AppDataBase" style="stroke:#181818;stroke-width:1.0;"/><polygon fill="none" points="329.749,480.914,310.768,490.334,319.732,471.133,329.749,480.914" style="stroke:#181818;stroke-width:1.0;"/></g><g id="link_elyra.pipeline.pipeline_definition.Pipeline_elyra.pipeline.pipeline_definition.PipelineDefinition"><path codeLine="74" d="M777.566,291.636 C782.512,324.801 787.933,361.152 793.09,395.734 " fill="none" id="elyra.pipeline.pipeline_definition.Pipeline-to-elyra.pipeline.pipeline_definition.PipelineDefinition" style="stroke:#181818;stroke-width:1.0;"/><polygon fill="#181818" points="795.052,408.891,798.1235,402.3667,793.2824,397.0222,790.2109,403.5465,795.052,408.891" style="stroke:#181818;stroke-width:1.0;"/><text fill="#000000" font-family="sans-serif" font-size="13" lengthAdjust="spacing" textLength="112" x="790.5" y="375.0669">_primary_pipeline</text></g></g></svg>