<?xml version="1.0" encoding="UTF-8" standalone="no"?><svg xmlns="http://www.w3.org/2000/svg" xmlns:xlink="http://www.w3.org/1999/xlink" contentStyleType="text/css" height="381px" preserveAspectRatio="none" style="width:1675px;height:381px;background:#FFFFFF;" version="1.1" viewBox="0 0 1675 381" width="1675px" zoomAndPan="magnify"><defs/><g><g id="elem_elyra.metadata.schemaspaces.CodeSnippets"><rect codeLine="2" fill="#F1F1F1" height="96.8906" id="elyra.metadata.schemaspaces.CodeSnippets" rx="2.5" ry="2.5" style="stroke:#181818;stroke-width:0.5;" width="381" x="7" y="7"/><ellipse cx="144.25" cy="23" fill="#ADD1B2" rx="11" ry="11" style="stroke:#181818;stroke-width:1.0;"/><path d="M147.2188,28.6406 Q146.6406,28.9375 146,29.0781 Q145.3594,29.2344 144.6563,29.2344 Q142.1563,29.2344 140.8281,27.5938 Q139.5156,25.9375 139.5156,22.8125 Q139.5156,19.6875 140.8281,18.0313 Q142.1563,16.375 144.6563,16.375 Q145.3594,16.375 146,16.5313 Q146.6563,16.6875 147.2188,16.9844 L147.2188,19.7031 Q146.5938,19.125 146,18.8594 Q145.4063,18.5781 144.7813,18.5781 Q143.4375,18.5781 142.75,19.6563 Q142.0625,20.7188 142.0625,22.8125 Q142.0625,24.9063 142.75,25.9844 Q143.4375,27.0469 144.7813,27.0469 Q145.4063,27.0469 146,26.7813 Q146.5938,26.5 147.2188,25.9219 L147.2188,28.6406 Z " fill="#000000"/><text fill="#000000" font-family="sans-serif" font-size="14" lengthAdjust="spacing" textLength="98" x="164.75" y="27.8467">CodeSnippets</text><line style="stroke:#181818;stroke-width:0.5;" x1="8" x2="387" y1="39" y2="39"/><text fill="#000000" font-family="sans-serif" font-size="14" lengthAdjust="spacing" textLength="369" x="13" y="55.9951">CODE_SNIPPETS_SCHEMASPACE_DISPLAY_NAME : str</text><text fill="#000000" font-family="sans-serif" font-size="14" lengthAdjust="spacing" textLength="279" x="13" y="72.292">CODE_SNIPPETS_SCHEMASPACE_ID : str</text><text fill="#000000" font-family="sans-serif" font-size="14" lengthAdjust="spacing" textLength="305" x="13" y="88.5889">CODE_SNIPPETS_SCHEMASPACE_NAME : str</text><line style="stroke:#181818;stroke-width:0.5;" x1="8" x2="387" y1="95.8906" y2="95.8906"/></g><g id="elem_elyra.metadata.schemaspaces.ComponentCatalogs"><rect codeLine="7" fill="#F1F1F1" height="96.8906" id="elyra.metadata.schemaspaces.ComponentCatalogs" rx="2.5" ry="2.5" style="stroke:#181818;stroke-width:0.5;" width="439" x="423" y="7"/><ellipse cx="567.25" cy="23" fill="#ADD1B2" rx="11" ry="11" style="stroke:#181818;stroke-width:1.0;"/><path d="M570.2188,28.6406 Q569.6406,28.9375 569,29.0781 Q568.3594,29.2344 567.6563,29.2344 Q565.1563,29.2344 563.8281,27.5938 Q562.5156,25.9375 562.5156,22.8125 Q562.5156,19.6875 563.8281,18.0313 Q565.1563,16.375 567.6563,16.375 Q568.3594,16.375 569,16.5313 Q569.6563,16.6875 570.2188,16.9844 L570.2188,19.7031 Q569.5938,19.125 569,18.8594 Q568.4063,18.5781 567.7813,18.5781 Q566.4375,18.5781 565.75,19.6563 Q565.0625,20.7188 565.0625,22.8125 Q565.0625,24.9063 565.75,25.9844 Q566.4375,27.0469 567.7813,27.0469 Q568.4063,27.0469 569,26.7813 Q569.5938,26.5 570.2188,25.9219 L570.2188,28.6406 Z " fill="#000000"/><text fill="#000000" font-family="sans-serif" font-size="14" lengthAdjust="spacing" textLength="142" x="587.75" y="27.8467">ComponentCatalogs</text><line style="stroke:#181818;stroke-width:0.5;" x1="424" x2="861" y1="39" y2="39"/><text fill="#000000" font-family="sans-serif" font-size="14" lengthAdjust="spacing" textLength="427" x="429" y="55.9951">COMPONENT_CATALOGS_SCHEMASPACE_DISPLAY_NAME : str</text><text fill="#000000" font-family="sans-serif" font-size="14" lengthAdjust="spacing" textLength="337" x="429" y="72.292">COMPONENT_CATALOGS_SCHEMASPACE_ID : str</text><text fill="#000000" font-family="sans-serif" font-size="14" lengthAdjust="spacing" textLength="363" x="429" y="88.5889">COMPONENT_CATALOGS_SCHEMASPACE_NAME : str</text><line style="stroke:#181818;stroke-width:0.5;" x1="424" x2="861" y1="95.8906" y2="95.8906"/></g><g id="elem_elyra.metadata.schemaspaces.RuntimeImages"><rect codeLine="12" fill="#F1F1F1" height="96.8906" id="elyra.metadata.schemaspaces.RuntimeImages" rx="2.5" ry="2.5" style="stroke:#181818;stroke-width:0.5;" width="398" x="897.5" y="7"/><ellipse cx="1038.25" cy="23" fill="#ADD1B2" rx="11" ry="11" style="stroke:#181818;stroke-width:1.0;"/><path d="M1041.2188,28.6406 Q1040.6406,28.9375 1040,29.0781 Q1039.3594,29.2344 1038.6563,29.2344 Q1036.1563,29.2344 1034.8281,27.5938 Q1033.5156,25.9375 1033.5156,22.8125 Q1033.5156,19.6875 1034.8281,18.0313 Q1036.1563,16.375 1038.6563,16.375 Q1039.3594,16.375 1040,16.5313 Q1040.6563,16.6875 1041.2188,16.9844 L1041.2188,19.7031 Q1040.5938,19.125 1040,18.8594 Q1039.4063,18.5781 1038.7813,18.5781 Q1037.4375,18.5781 1036.75,19.6563 Q1036.0625,20.7188 1036.0625,22.8125 Q1036.0625,24.9063 1036.75,25.9844 Q1037.4375,27.0469 1038.7813,27.0469 Q1039.4063,27.0469 1040,26.7813 Q1040.5938,26.5 1041.2188,25.9219 L1041.2188,28.6406 Z " fill="#000000"/><text fill="#000000" font-family="sans-serif" font-size="14" lengthAdjust="spacing" textLength="108" x="1058.75" y="27.8467">RuntimeImages</text><line style="stroke:#181818;stroke-width:0.5;" x1="898.5" x2="1294.5" y1="39" y2="39"/><text fill="#000000" font-family="sans-serif" font-size="14" lengthAdjust="spacing" textLength="386" x="903.5" y="55.9951">RUNTIMES_IMAGES_SCHEMASPACE_DISPLAY_NAME : str</text><text fill="#000000" font-family="sans-serif" font-size="14" lengthAdjust="spacing" textLength="322" x="903.5" y="72.292">RUNTIMES_IMAGES_SCHEMASPACE_NAME : str</text><text fill="#000000" font-family="sans-serif" font-size="14" lengthAdjust="spacing" textLength="287" x="903.5" y="88.5889">RUNTIME_IMAGES_SCHEMASPACE_ID : str</text><line style="stroke:#181818;stroke-width:0.5;" x1="898.5" x2="1294.5" y1="95.8906" y2="95.8906"/></g><g id="elem_elyra.metadata.schemaspaces.Runtimes"><rect codeLine="17" fill="#F1F1F1" height="96.8906" id="elyra.metadata.schemaspaces.Runtimes" rx="2.5" ry="2.5" style="stroke:#181818;stroke-width:0.5;" width="338" x="1330.5" y="7"/><ellipse cx="1462.25" cy="23" fill="#ADD1B2" rx="11" ry="11" style="stroke:#181818;stroke-width:1.0;"/><path d="M1465.2188,28.6406 Q1464.6406,28.9375 1464,29.0781 Q1463.3594,29.2344 1462.6563,29.2344 Q1460.1563,29.2344 1458.8281,27.5938 Q1457.5156,25.9375 1457.5156,22.8125 Q1457.5156,19.6875 1458.8281,18.0313 Q1460.1563,16.375 1462.6563,16.375 Q1463.3594,16.375 1464,16.5313 Q1464.6563,16.6875 1465.2188,16.9844 L1465.2188,19.7031 Q1464.5938,19.125 1464,18.8594 Q1463.4063,18.5781 1462.7813,18.5781 Q1461.4375,18.5781 1460.75,19.6563 Q1460.0625,20.7188 1460.0625,22.8125 Q1460.0625,24.9063 1460.75,25.9844 Q1461.4375,27.0469 1462.7813,27.0469 Q1463.4063,27.0469 1464,26.7813 Q1464.5938,26.5 1465.2188,25.9219 L1465.2188,28.6406 Z " fill="#000000"/><text fill="#000000" font-family="sans-serif" font-size="14" lengthAdjust="spacing" textLength="66" x="1482.75" y="27.8467">Runtimes</text><line style="stroke:#181818;stroke-width:0.5;" x1="1331.5" x2="1667.5" y1="39" y2="39"/><text fill="#000000" font-family="sans-serif" font-size="14" lengthAdjust="spacing" textLength="326" x="1336.5" y="55.9951">RUNTIMES_SCHEMASPACE_DISPLAY_NAME : str</text><text fill="#000000" font-family="sans-serif" font-size="14" lengthAdjust="spacing" textLength="236" x="1336.5" y="72.292">RUNTIMES_SCHEMASPACE_ID : str</text><text fill="#000000" font-family="sans-serif" font-size="14" lengthAdjust="spacing" textLength="262" x="1336.5" y="88.5889">RUNTIMES_SCHEMASPACE_NAME : str</text><line style="stroke:#181818;stroke-width:0.5;" x1="1331.5" x2="1667.5" y1="95.8906" y2="95.8906"/></g><g id="elem_elyra.metadata.schema.Schemaspace"><rect codeLine="22" fill="#F1F1F1" height="210.9688" id="elyra.metadata.schema.Schemaspace" rx="2.5" ry="2.5" style="stroke:#181818;stroke-width:0.5;" width="263" x="738" y="164"/><ellipse cx="816.25" cy="180" fill="#ADD1B2" rx="11" ry="11" style="stroke:#181818;stroke-width:1.0;"/><path d="M819.2188,185.6406 Q818.6406,185.9375 818,186.0781 Q817.3594,186.2344 816.6563,186.2344 Q814.1563,186.2344 812.8281,184.5938 Q811.5156,182.9375 811.5156,179.8125 Q811.5156,176.6875 812.8281,175.0313 Q814.1563,173.375 816.6563,173.375 Q817.3594,173.375 818,173.5313 Q818.6563,173.6875 819.2188,173.9844 L819.2188,176.7031 Q818.5938,176.125 818,175.8594 Q817.4063,175.5781 816.7813,175.5781 Q815.4375,175.5781 814.75,176.6563 Q814.0625,177.7188 814.0625,179.8125 Q814.0625,181.9063 814.75,182.9844 Q815.4375,184.0469 816.7813,184.0469 Q817.4063,184.0469 818,183.7813 Q818.5938,183.5 819.2188,182.9219 L819.2188,185.6406 Z " fill="#000000"/><text fill="#000000" font-family="sans-serif" font-size="14" lengthAdjust="spacing" textLength="98" x="836.75" y="184.8467">Schemaspace</text><line style="stroke:#181818;stroke-width:0.5;" x1="739" x2="1000" y1="196" y2="196"/><text fill="#000000" font-family="sans-serif" font-size="14" lengthAdjust="spacing" textLength="196" x="744" y="212.9951">deprecated_schema_names</text><text fill="#000000" font-family="sans-serif" font-size="14" lengthAdjust="spacing" textLength="77" x="744" y="229.292">description</text><text fill="#000000" font-family="sans-serif" font-size="14" lengthAdjust="spacing" textLength="93" x="744" y="245.5889">display_name</text><text fill="#000000" font-family="sans-serif" font-size="14" lengthAdjust="spacing" textLength="12" x="744" y="261.8857">id</text><text fill="#000000" font-family="sans-serif" font-size="14" lengthAdjust="spacing" textLength="98" x="744" y="278.1826">is_deprecated</text><text fill="#000000" font-family="sans-serif" font-size="14" lengthAdjust="spacing" textLength="39" x="744" y="294.4795">name</text><text fill="#000000" font-family="sans-serif" font-size="14" lengthAdjust="spacing" textLength="63" x="744" y="310.7764">schemas</text><line style="stroke:#181818;stroke-width:0.5;" x1="739" x2="1000" y1="318.0781" y2="318.0781"/><text fill="#000000" font-family="sans-serif" font-size="14" lengthAdjust="spacing" textLength="251" x="744" y="335.0732">add_schema(schema: Dict) -&gt; None</text><text fill="#000000" font-family="sans-serif" font-size="14" lengthAdjust="spacing" textLength="244" x="744" y="351.3701">filter_schema(schema: Dict) -&gt; Dict</text><text fill="#000000" font-family="sans-serif" font-size="14" lengthAdjust="spacing" textLength="138" x="744" y="367.667">migrate() -&gt; List[str]</text></g><g id="link_elyra.metadata.schemaspaces.CodeSnippets_elyra.metadata.schema.Schemaspace"><path codeLine="34" d="M348.31,104.077 C458.852,138.95 608.285,186.093 718.801,220.958 " fill="none" id="elyra.metadata.schemaspaces.CodeSnippets-to-elyra.metadata.schema.Schemaspace" style="stroke:#181818;stroke-width:1.0;"/><polygon fill="none" points="720.955,214.297,737.922,226.99,716.743,227.649,720.955,214.297" style="stroke:#181818;stroke-width:1.0;"/></g><g id="link_elyra.metadata.schemaspaces.ComponentCatalogs_elyra.metadata.schema.Schemaspace"><path codeLine="35" d="M693.443,104.077 C708.353,118.002 725.358,133.882 742.783,150.157 " fill="none" id="elyra.metadata.schemaspaces.ComponentCatalogs-to-elyra.metadata.schema.Schemaspace" style="stroke:#181818;stroke-width:1.0;"/><polygon fill="none" points="747.644,145.118,757.483,163.885,738.089,155.35,747.644,145.118" style="stroke:#181818;stroke-width:1.0;"/></g><g id="link_elyra.metadata.schemaspaces.RuntimeImages_elyra.metadata.schema.Schemaspace"><path codeLine="36" d="M1045.56,104.077 C1030.65,118.002 1013.64,133.882 996.217,150.157 " fill="none" id="elyra.metadata.schemaspaces.RuntimeImages-to-elyra.metadata.schema.Schemaspace" style="stroke:#181818;stroke-width:1.0;"/><polygon fill="none" points="1000.911,155.35,981.517,163.885,991.356,145.118,1000.911,155.35" style="stroke:#181818;stroke-width:1.0;"/></g><g id="link_elyra.metadata.schemaspaces.Runtimes_elyra.metadata.schema.Schemaspace"><path codeLine="37" d="M1358.12,104.077 C1257.56,137.916 1122.66,183.308 1020.09,217.825 " fill="none" id="elyra.metadata.schemaspaces.Runtimes-to-elyra.metadata.schema.Schemaspace" style="stroke:#181818;stroke-width:1.0;"/><polygon fill="none" points="1022.19,224.503,1001.005,224.248,1017.73,211.234,1022.19,224.503" style="stroke:#181818;stroke-width:1.0;"/></g></g></svg>