<?xml version="1.0" encoding="UTF-8" standalone="no"?><svg xmlns="http://www.w3.org/2000/svg" xmlns:xlink="http://www.w3.org/1999/xlink" contentStyleType="text/css" height="522px" preserveAspectRatio="none" style="width:961px;height:522px;background:#FFFFFF;" version="1.1" viewBox="0 0 961 522" width="961px" zoomAndPan="magnify"><defs/><g><g id="elem_elyra.metadata.schemasproviders.CodeSnippetsSchemas"><rect codeLine="2" fill="#F1F1F1" height="64.2969" id="elyra.metadata.schemasproviders.CodeSnippetsSchemas" rx="2.5" ry="2.5" style="stroke:#181818;stroke-width:0.5;" width="200" x="7" y="7"/><ellipse cx="24.7" cy="23" fill="#ADD1B2" rx="11" ry="11" style="stroke:#181818;stroke-width:1.0;"/><path d="M27.6688,28.6406 Q27.0906,28.9375 26.45,29.0781 Q25.8094,29.2344 25.1063,29.2344 Q22.6063,29.2344 21.2781,27.5938 Q19.9656,25.9375 19.9656,22.8125 Q19.9656,19.6875 21.2781,18.0313 Q22.6063,16.375 25.1063,16.375 Q25.8094,16.375 26.45,16.5313 Q27.1063,16.6875 27.6688,16.9844 L27.6688,19.7031 Q27.0438,19.125 26.45,18.8594 Q25.8563,18.5781 25.2313,18.5781 Q23.8875,18.5781 23.2,19.6563 Q22.5125,20.7188 22.5125,22.8125 Q22.5125,24.9063 23.2,25.9844 Q23.8875,27.0469 25.2313,27.0469 Q25.8563,27.0469 26.45,26.7813 Q27.0438,26.5 27.6688,25.9219 L27.6688,28.6406 Z " fill="#000000"/><text fill="#000000" font-family="sans-serif" font-size="14" lengthAdjust="spacing" textLength="162" x="39.3" y="27.8467">CodeSnippetsSchemas</text><line style="stroke:#181818;stroke-width:0.5;" x1="8" x2="206" y1="39" y2="39"/><line style="stroke:#181818;stroke-width:0.5;" x1="8" x2="206" y1="47" y2="47"/><text fill="#000000" font-family="sans-serif" font-size="14" lengthAdjust="spacing" textLength="188" x="13" y="63.9951">get_schemas() -&gt; List[Dict]</text></g><g id="elem_elyra.metadata.schemasproviders.ComponentCatalogsSchemas"><rect codeLine="5" fill="#F1F1F1" height="64.2969" id="elyra.metadata.schemasproviders.ComponentCatalogsSchemas" rx="2.5" ry="2.5" style="stroke:#181818;stroke-width:0.5;" width="238" x="242" y="7"/><ellipse cx="257" cy="23" fill="#ADD1B2" rx="11" ry="11" style="stroke:#181818;stroke-width:1.0;"/><path d="M259.9688,28.6406 Q259.3906,28.9375 258.75,29.0781 Q258.1094,29.2344 257.4063,29.2344 Q254.9063,29.2344 253.5781,27.5938 Q252.2656,25.9375 252.2656,22.8125 Q252.2656,19.6875 253.5781,18.0313 Q254.9063,16.375 257.4063,16.375 Q258.1094,16.375 258.75,16.5313 Q259.4063,16.6875 259.9688,16.9844 L259.9688,19.7031 Q259.3438,19.125 258.75,18.8594 Q258.1563,18.5781 257.5313,18.5781 Q256.1875,18.5781 255.5,19.6563 Q254.8125,20.7188 254.8125,22.8125 Q254.8125,24.9063 255.5,25.9844 Q256.1875,27.0469 257.5313,27.0469 Q258.1563,27.0469 258.75,26.7813 Q259.3438,26.5 259.9688,25.9219 L259.9688,28.6406 Z " fill="#000000"/><text fill="#000000" font-family="sans-serif" font-size="14" lengthAdjust="spacing" textLength="206" x="271" y="27.8467">ComponentCatalogsSchemas</text><line style="stroke:#181818;stroke-width:0.5;" x1="243" x2="479" y1="39" y2="39"/><line style="stroke:#181818;stroke-width:0.5;" x1="243" x2="479" y1="47" y2="47"/><text fill="#000000" font-family="sans-serif" font-size="14" lengthAdjust="spacing" textLength="188" x="248" y="63.9951">get_schemas() -&gt; List[Dict]</text></g><g id="elem_elyra.metadata.schemasproviders.ElyraSchemasProvider"><rect codeLine="8" fill="#F1F1F1" height="194.6719" id="elyra.metadata.schemasproviders.ElyraSchemasProvider" rx="2.5" ry="2.5" style="stroke:#181818;stroke-width:0.5;" width="508" x="235" y="131"/><ellipse cx="408.75" cy="147" fill="#ADD1B2" rx="11" ry="11" style="stroke:#181818;stroke-width:1.0;"/><path d="M411.7188,152.6406 Q411.1406,152.9375 410.5,153.0781 Q409.8594,153.2344 409.1563,153.2344 Q406.6563,153.2344 405.3281,151.5938 Q404.0156,149.9375 404.0156,146.8125 Q404.0156,143.6875 405.3281,142.0313 Q406.6563,140.375 409.1563,140.375 Q409.8594,140.375 410.5,140.5313 Q411.1563,140.6875 411.7188,140.9844 L411.7188,143.7031 Q411.0938,143.125 410.5,142.8594 Q409.9063,142.5781 409.2813,142.5781 Q407.9375,142.5781 407.25,143.6563 Q406.5625,144.7188 406.5625,146.8125 Q406.5625,148.9063 407.25,149.9844 Q407.9375,151.0469 409.2813,151.0469 Q409.9063,151.0469 410.5,150.7813 Q411.0938,150.5 411.7188,149.9219 L411.7188,152.6406 Z " fill="#000000"/><text fill="#000000" font-family="sans-serif" font-size="14" lengthAdjust="spacing" textLength="152" x="429.25" y="151.8467">ElyraSchemasProvider</text><line style="stroke:#181818;stroke-width:0.5;" x1="236" x2="742" y1="163" y2="163"/><text fill="#000000" font-family="sans-serif" font-size="14" lengthAdjust="spacing" textLength="4" x="241" y="179.9951">f</text><text fill="#000000" font-family="sans-serif" font-size="14" lengthAdjust="spacing" textLength="55" x="241" y="196.292">json_file</text><text fill="#000000" font-family="sans-serif" font-size="14" lengthAdjust="spacing" textLength="133" x="241" y="212.5889">local_schemas : list</text><text fill="#000000" font-family="sans-serif" font-size="14" lengthAdjust="spacing" textLength="194" x="241" y="228.8857">log : RootLogger, NoneType</text><text fill="#000000" font-family="sans-serif" font-size="14" lengthAdjust="spacing" textLength="79" x="241" y="245.1826">schema_dir</text><text fill="#000000" font-family="sans-serif" font-size="14" lengthAdjust="spacing" textLength="81" x="241" y="261.4795">schema_file</text><text fill="#000000" font-family="sans-serif" font-size="14" lengthAdjust="spacing" textLength="89" x="241" y="277.7764">schema_files</text><text fill="#000000" font-family="sans-serif" font-size="14" lengthAdjust="spacing" textLength="91" x="241" y="294.0732">schema_json</text><line style="stroke:#181818;stroke-width:0.5;" x1="236" x2="742" y1="301.375" y2="301.375"/><text fill="#000000" font-family="sans-serif" font-size="14" lengthAdjust="spacing" textLength="496" x="241" y="318.3701">get_local_schemas_by_schemaspace(schemaspace_id: str) -&gt; List[Dict]</text></g><g id="elem_elyra.metadata.schemasproviders.RuntimeImagesSchemas"><rect codeLine="19" fill="#F1F1F1" height="64.2969" id="elyra.metadata.schemasproviders.RuntimeImagesSchemas" rx="2.5" ry="2.5" style="stroke:#181818;stroke-width:0.5;" width="204" x="515" y="7"/><ellipse cx="530" cy="23" fill="#ADD1B2" rx="11" ry="11" style="stroke:#181818;stroke-width:1.0;"/><path d="M532.9688,28.6406 Q532.3906,28.9375 531.75,29.0781 Q531.1094,29.2344 530.4063,29.2344 Q527.9063,29.2344 526.5781,27.5938 Q525.2656,25.9375 525.2656,22.8125 Q525.2656,19.6875 526.5781,18.0313 Q527.9063,16.375 530.4063,16.375 Q531.1094,16.375 531.75,16.5313 Q532.4063,16.6875 532.9688,16.9844 L532.9688,19.7031 Q532.3438,19.125 531.75,18.8594 Q531.1563,18.5781 530.5313,18.5781 Q529.1875,18.5781 528.5,19.6563 Q527.8125,20.7188 527.8125,22.8125 Q527.8125,24.9063 528.5,25.9844 Q529.1875,27.0469 530.5313,27.0469 Q531.1563,27.0469 531.75,26.7813 Q532.3438,26.5 532.9688,25.9219 L532.9688,28.6406 Z " fill="#000000"/><text fill="#000000" font-family="sans-serif" font-size="14" lengthAdjust="spacing" textLength="172" x="544" y="27.8467">RuntimeImagesSchemas</text><line style="stroke:#181818;stroke-width:0.5;" x1="516" x2="718" y1="39" y2="39"/><line style="stroke:#181818;stroke-width:0.5;" x1="516" x2="718" y1="47" y2="47"/><text fill="#000000" font-family="sans-serif" font-size="14" lengthAdjust="spacing" textLength="188" x="521" y="63.9951">get_schemas() -&gt; List[Dict]</text></g><g id="elem_elyra.metadata.schemasproviders.RuntimesSchemas"><rect codeLine="22" fill="#F1F1F1" height="64.2969" id="elyra.metadata.schemasproviders.RuntimesSchemas" rx="2.5" ry="2.5" style="stroke:#181818;stroke-width:0.5;" width="200" x="754" y="7"/><ellipse cx="786.1" cy="23" fill="#ADD1B2" rx="11" ry="11" style="stroke:#181818;stroke-width:1.0;"/><path d="M789.0688,28.6406 Q788.4906,28.9375 787.85,29.0781 Q787.2094,29.2344 786.5063,29.2344 Q784.0063,29.2344 782.6781,27.5938 Q781.3656,25.9375 781.3656,22.8125 Q781.3656,19.6875 782.6781,18.0313 Q784.0063,16.375 786.5063,16.375 Q787.2094,16.375 787.85,16.5313 Q788.5063,16.6875 789.0688,16.9844 L789.0688,19.7031 Q788.4438,19.125 787.85,18.8594 Q787.2563,18.5781 786.6313,18.5781 Q785.2875,18.5781 784.6,19.6563 Q783.9125,20.7188 783.9125,22.8125 Q783.9125,24.9063 784.6,25.9844 Q785.2875,27.0469 786.6313,27.0469 Q787.2563,27.0469 787.85,26.7813 Q788.4438,26.5 789.0688,25.9219 L789.0688,28.6406 Z " fill="#000000"/><text fill="#000000" font-family="sans-serif" font-size="14" lengthAdjust="spacing" textLength="130" x="803.9" y="27.8467">RuntimesSchemas</text><line style="stroke:#181818;stroke-width:0.5;" x1="755" x2="953" y1="39" y2="39"/><line style="stroke:#181818;stroke-width:0.5;" x1="755" x2="953" y1="47" y2="47"/><text fill="#000000" font-family="sans-serif" font-size="14" lengthAdjust="spacing" textLength="188" x="760" y="63.9951">get_schemas() -&gt; List[Dict]</text></g><g id="elem_elyra.metadata.schema.SchemasProvider"><rect codeLine="25" fill="#F1F1F1" height="129.4844" id="elyra.metadata.schema.SchemasProvider" rx="2.5" ry="2.5" style="stroke:#181818;stroke-width:0.5;" width="262" x="358" y="386"/><ellipse cx="424.75" cy="402" fill="#ADD1B2" rx="11" ry="11" style="stroke:#181818;stroke-width:1.0;"/><path d="M427.7188,407.6406 Q427.1406,407.9375 426.5,408.0781 Q425.8594,408.2344 425.1563,408.2344 Q422.6563,408.2344 421.3281,406.5938 Q420.0156,404.9375 420.0156,401.8125 Q420.0156,398.6875 421.3281,397.0313 Q422.6563,395.375 425.1563,395.375 Q425.8594,395.375 426.5,395.5313 Q427.1563,395.6875 427.7188,395.9844 L427.7188,398.7031 Q427.0938,398.125 426.5,397.8594 Q425.9063,397.5781 425.2813,397.5781 Q423.9375,397.5781 423.25,398.6563 Q422.5625,399.7188 422.5625,401.8125 Q422.5625,403.9063 423.25,404.9844 Q423.9375,406.0469 425.2813,406.0469 Q425.9063,406.0469 426.5,405.7813 Q427.0938,405.5 427.7188,404.9219 L427.7188,407.6406 Z " fill="#000000"/><text fill="#000000" font-family="sans-serif" font-size="14" lengthAdjust="spacing" textLength="120" x="445.25" y="406.8467">SchemasProvider</text><line style="stroke:#181818;stroke-width:0.5;" x1="359" x2="619" y1="418" y2="418"/><text fill="#000000" font-family="sans-serif" font-size="14" lengthAdjust="spacing" textLength="82" x="364" y="434.9951">log : Logger</text><text fill="#000000" font-family="sans-serif" font-size="14" lengthAdjust="spacing" textLength="250" x="364" y="451.292">log : RootLogger, NoneType, Logger</text><line style="stroke:#181818;stroke-width:0.5;" x1="359" x2="619" y1="458.5938" y2="458.5938"/><text fill="#000000" font-family="sans-serif" font-size="14" font-style="italic" lengthAdjust="spacing" textLength="188" x="364" y="475.5889">get_schemas() -&gt; List[Dict]</text><text fill="#000000" font-family="sans-serif" font-size="14" lengthAdjust="spacing" textLength="236" x="364" y="491.8857">get_validator(schema: dict) -&gt; Any</text><text fill="#000000" font-family="sans-serif" font-size="14" lengthAdjust="spacing" textLength="138" x="364" y="508.1826">migrate() -&gt; List[str]</text></g><g id="link_elyra.metadata.schemasproviders.CodeSnippetsSchemas_elyra.metadata.schemasproviders.ElyraSchemasProvider"><path codeLine="32" d="M170.508,71.172 C199.721,85.511 236.255,103.443 274.062,122 " fill="none" id="elyra.metadata.schemasproviders.CodeSnippetsSchemas-to-elyra.metadata.schemasproviders.ElyraSchemasProvider" style="stroke:#181818;stroke-width:1.0;"/><polygon fill="none" points="277.226,115.755,292.095,130.852,271.057,128.323,277.226,115.755" style="stroke:#181818;stroke-width:1.0;"/></g><g id="link_elyra.metadata.schemasproviders.ComponentCatalogsSchemas_elyra.metadata.schemasproviders.ElyraSchemasProvider"><path codeLine="33" d="M382.424,71.383 C390.823,83.686 401.011,98.611 411.719,114.295 " fill="none" id="elyra.metadata.schemasproviders.ComponentCatalogsSchemas-to-elyra.metadata.schemasproviders.ElyraSchemasProvider" style="stroke:#181818;stroke-width:1.0;"/><polygon fill="none" points="417.517,110.373,423.012,130.838,405.954,118.266,417.517,110.373" style="stroke:#181818;stroke-width:1.0;"/></g><g id="link_elyra.metadata.schemasproviders.ElyraSchemasProvider_elyra.metadata.schema.SchemasProvider"><path codeLine="34" d="M489,326.315 C489,339.397 489,352.731 489,365.563 " fill="none" id="elyra.metadata.schemasproviders.ElyraSchemasProvider-to-elyra.metadata.schema.SchemasProvider" style="stroke:#181818;stroke-width:1.0;"/><polygon fill="none" points="496,365.871,489,385.871,482,365.871,496,365.871" style="stroke:#181818;stroke-width:1.0;"/></g><g id="link_elyra.metadata.schemasproviders.RuntimeImagesSchemas_elyra.metadata.schemasproviders.ElyraSchemasProvider"><path codeLine="35" d="M595.576,71.383 C587.177,83.686 576.989,98.611 566.281,114.295 " fill="none" id="elyra.metadata.schemasproviders.RuntimeImagesSchemas-to-elyra.metadata.schemasproviders.ElyraSchemasProvider" style="stroke:#181818;stroke-width:1.0;"/><polygon fill="none" points="572.046,118.266,554.988,130.838,560.483,110.373,572.046,118.266" style="stroke:#181818;stroke-width:1.0;"/></g><g id="link_elyra.metadata.schemasproviders.RuntimesSchemas_elyra.metadata.schemasproviders.ElyraSchemasProvider"><path codeLine="36" d="M793.318,71.172 C765.658,85.381 731.128,103.119 695.354,121.496 " fill="none" id="elyra.metadata.schemasproviders.RuntimesSchemas-to-elyra.metadata.schemasproviders.ElyraSchemasProvider" style="stroke:#181818;stroke-width:1.0;"/><polygon fill="none" points="698.131,127.939,677.142,130.852,691.733,115.486,698.131,127.939" style="stroke:#181818;stroke-width:1.0;"/></g></g></svg>