<?xml version="1.0" encoding="UTF-8" standalone="no"?><svg xmlns="http://www.w3.org/2000/svg" xmlns:xlink="http://www.w3.org/1999/xlink" contentStyleType="text/css" height="447px" preserveAspectRatio="none" style="width:1261px;height:447px;background:#FFFFFF;" version="1.1" viewBox="0 0 1261 447" width="1261px" zoomAndPan="magnify"><defs/><g><g id="elem_elyra.metadata.storage.FileChangeHandler"><rect codeLine="2" fill="#F1F1F1" height="129.4844" id="elyra.metadata.storage.FileChangeHandler" rx="2.5" ry="2.5" style="stroke:#181818;stroke-width:0.5;" width="162" x="285.5" y="303.5"/><ellipse cx="300.5" cy="319.5" fill="#ADD1B2" rx="11" ry="11" style="stroke:#181818;stroke-width:1.0;"/><path d="M303.4688,325.1406 Q302.8906,325.4375 302.25,325.5781 Q301.6094,325.7344 300.9063,325.7344 Q298.4063,325.7344 297.0781,324.0938 Q295.7656,322.4375 295.7656,319.3125 Q295.7656,316.1875 297.0781,314.5313 Q298.4063,312.875 300.9063,312.875 Q301.6094,312.875 302.25,313.0313 Q302.9063,313.1875 303.4688,313.4844 L303.4688,316.2031 Q302.8438,315.625 302.25,315.3594 Q301.6563,315.0781 301.0313,315.0781 Q299.6875,315.0781 299,316.1563 Q298.3125,317.2188 298.3125,319.3125 Q298.3125,321.4063 299,322.4844 Q299.6875,323.5469 301.0313,323.5469 Q301.6563,323.5469 302.25,323.2813 Q302.8438,323 303.4688,322.4219 L303.4688,325.1406 Z " fill="#000000"/><text fill="#000000" font-family="sans-serif" font-size="14" lengthAdjust="spacing" textLength="130" x="314.5" y="324.3467">FileChangeHandler</text><line style="stroke:#181818;stroke-width:0.5;" x1="286.5" x2="446.5" y1="335.5" y2="335.5"/><text fill="#000000" font-family="sans-serif" font-size="14" lengthAdjust="spacing" textLength="140" x="291.5" y="352.4951">file_metadata_cache</text><text fill="#000000" font-family="sans-serif" font-size="14" lengthAdjust="spacing" textLength="21" x="291.5" y="368.792">log</text><line style="stroke:#181818;stroke-width:0.5;" x1="286.5" x2="446.5" y1="376.0938" y2="376.0938"/><text fill="#000000" font-family="sans-serif" font-size="14" lengthAdjust="spacing" textLength="108" x="291.5" y="393.0889">dispatch(event)</text><text fill="#000000" font-family="sans-serif" font-size="14" lengthAdjust="spacing" textLength="127" x="291.5" y="409.3857">on_deleted(event)</text><text fill="#000000" font-family="sans-serif" font-size="14" lengthAdjust="spacing" textLength="133" x="291.5" y="425.6826">on_modified(event)</text></g><g id="elem_elyra.metadata.storage.FileMetadataCache"><rect codeLine="9" fill="#F1F1F1" height="210.9688" id="elyra.metadata.storage.FileMetadataCache" rx="2.5" ry="2.5" style="stroke:#181818;stroke-width:0.5;" width="719" x="7" y="7"/><ellipse cx="296.75" cy="23" fill="#ADD1B2" rx="11" ry="11" style="stroke:#181818;stroke-width:1.0;"/><path d="M299.7188,28.6406 Q299.1406,28.9375 298.5,29.0781 Q297.8594,29.2344 297.1563,29.2344 Q294.6563,29.2344 293.3281,27.5938 Q292.0156,25.9375 292.0156,22.8125 Q292.0156,19.6875 293.3281,18.0313 Q294.6563,16.375 297.1563,16.375 Q297.8594,16.375 298.5,16.5313 Q299.1563,16.6875 299.7188,16.9844 L299.7188,19.7031 Q299.0938,19.125 298.5,18.8594 Q297.9063,18.5781 297.2813,18.5781 Q295.9375,18.5781 295.25,19.6563 Q294.5625,20.7188 294.5625,22.8125 Q294.5625,24.9063 295.25,25.9844 Q295.9375,27.0469 297.2813,27.0469 Q297.9063,27.0469 298.5,26.7813 Q299.0938,26.5 299.7188,25.9219 L299.7188,28.6406 Z " fill="#000000"/><text fill="#000000" font-family="sans-serif" font-size="14" lengthAdjust="spacing" textLength="131" x="317.25" y="27.8467">FileMetadataCache</text><line style="stroke:#181818;stroke-width:0.5;" x1="8" x2="725" y1="39" y2="39"/><text fill="#000000" font-family="sans-serif" font-size="14" lengthAdjust="spacing" textLength="100" x="13" y="55.9951">enabled : Bool</text><text fill="#000000" font-family="sans-serif" font-size="14" lengthAdjust="spacing" textLength="55" x="13" y="72.292">hits : int</text><text fill="#000000" font-family="sans-serif" font-size="14" lengthAdjust="spacing" textLength="93" x="13" y="88.5889">max_size : Int</text><text fill="#000000" font-family="sans-serif" font-size="14" lengthAdjust="spacing" textLength="79" x="13" y="104.8857">misses : int</text><text fill="#000000" font-family="sans-serif" font-size="14" lengthAdjust="spacing" textLength="132" x="13" y="121.1826">observed_dirs : set</text><text fill="#000000" font-family="sans-serif" font-size="14" lengthAdjust="spacing" textLength="707" x="13" y="137.4795">observer : InotifyObserver, FSEventsObserver, PollingObserver, WindowsApiObserver, KqueueObserver</text><text fill="#000000" font-family="sans-serif" font-size="14" lengthAdjust="spacing" textLength="64" x="13" y="153.7764">trims : int</text><line style="stroke:#181818;stroke-width:0.5;" x1="8" x2="725" y1="161.0781" y2="161.0781"/><text fill="#000000" font-family="sans-serif" font-size="14" lengthAdjust="spacing" textLength="333" x="13" y="178.0732">add_item(path: str, entry: Dict[str, Any]) -&gt; None</text><text fill="#000000" font-family="sans-serif" font-size="14" lengthAdjust="spacing" textLength="308" x="13" y="194.3701">get_item(path: str) -&gt; Optional[Dict[str, Any]]</text><text fill="#000000" font-family="sans-serif" font-size="14" lengthAdjust="spacing" textLength="337" x="13" y="210.667">remove_item(path: str) -&gt; Optional[Dict[str, Any]]</text></g><g id="elem_elyra.metadata.storage.FileMetadataStore"><rect codeLine="21" fill="#F1F1F1" height="178.375" id="elyra.metadata.storage.FileMetadataStore" rx="2.5" ry="2.5" style="stroke:#181818;stroke-width:0.5;" width="493" x="761" y="23.5"/><ellipse cx="941.25" cy="39.5" fill="#ADD1B2" rx="11" ry="11" style="stroke:#181818;stroke-width:1.0;"/><path d="M944.2188,45.1406 Q943.6406,45.4375 943,45.5781 Q942.3594,45.7344 941.6563,45.7344 Q939.1563,45.7344 937.8281,44.0938 Q936.5156,42.4375 936.5156,39.3125 Q936.5156,36.1875 937.8281,34.5313 Q939.1563,32.875 941.6563,32.875 Q942.3594,32.875 943,33.0313 Q943.6563,33.1875 944.2188,33.4844 L944.2188,36.2031 Q943.5938,35.625 943,35.3594 Q942.4063,35.0781 941.7813,35.0781 Q940.4375,35.0781 939.75,36.1563 Q939.0625,37.2188 939.0625,39.3125 Q939.0625,41.4063 939.75,42.4844 Q940.4375,43.5469 941.7813,43.5469 Q942.4063,43.5469 943,43.2813 Q943.5938,43 944.2188,42.4219 L944.2188,45.1406 Z " fill="#000000"/><text fill="#000000" font-family="sans-serif" font-size="14" lengthAdjust="spacing" textLength="124" x="961.75" y="44.3467">FileMetadataStore</text><line style="stroke:#181818;stroke-width:0.5;" x1="762" x2="1253" y1="55.5" y2="55.5"/><text fill="#000000" font-family="sans-serif" font-size="14" lengthAdjust="spacing" textLength="126" x="767" y="72.4951">cache : NoneType</text><text fill="#000000" font-family="sans-serif" font-size="14" lengthAdjust="spacing" textLength="143" x="767" y="88.792">metadata_paths : list</text><text fill="#000000" font-family="sans-serif" font-size="14" lengthAdjust="spacing" textLength="160" x="767" y="105.0889">preferred_metadata_dir</text><line style="stroke:#181818;stroke-width:0.5;" x1="762" x2="1253" y1="112.3906" y2="112.3906"/><text fill="#000000" font-family="sans-serif" font-size="14" lengthAdjust="spacing" textLength="281" x="767" y="129.3857">delete_instance(metadata: dict) -&gt; None</text><text fill="#000000" font-family="sans-serif" font-size="14" lengthAdjust="spacing" textLength="481" x="767" y="145.6826">fetch_instances(name: Optional[str], include_invalid: bool) -&gt; List[dict]</text><text fill="#000000" font-family="sans-serif" font-size="14" lengthAdjust="spacing" textLength="113" x="767" y="161.9795">metadata_path()</text><text fill="#000000" font-family="sans-serif" font-size="14" lengthAdjust="spacing" textLength="209" x="767" y="178.2764">schemaspace_exists() -&gt; bool</text><text fill="#000000" font-family="sans-serif" font-size="14" lengthAdjust="spacing" textLength="456" x="767" y="194.5732">store_instance(name: str, metadata: dict, for_update: bool) -&gt; dict</text></g><g id="elem_elyra.metadata.storage.MetadataStore"><rect codeLine="31" fill="#F1F1F1" height="145.7813" id="elyra.metadata.storage.MetadataStore" rx="2.5" ry="2.5" style="stroke:#181818;stroke-width:0.5;" width="493" x="761" y="295"/><ellipse cx="952.75" cy="311" fill="#ADD1B2" rx="11" ry="11" style="stroke:#181818;stroke-width:1.0;"/><path d="M955.7188,316.6406 Q955.1406,316.9375 954.5,317.0781 Q953.8594,317.2344 953.1563,317.2344 Q950.6563,317.2344 949.3281,315.5938 Q948.0156,313.9375 948.0156,310.8125 Q948.0156,307.6875 949.3281,306.0313 Q950.6563,304.375 953.1563,304.375 Q953.8594,304.375 954.5,304.5313 Q955.1563,304.6875 955.7188,304.9844 L955.7188,307.7031 Q955.0938,307.125 954.5,306.8594 Q953.9063,306.5781 953.2813,306.5781 Q951.9375,306.5781 951.25,307.6563 Q950.5625,308.7188 950.5625,310.8125 Q950.5625,312.9063 951.25,313.9844 Q951.9375,315.0469 953.2813,315.0469 Q953.9063,315.0469 954.5,314.7813 Q955.0938,314.5 955.7188,313.9219 L955.7188,316.6406 Z " fill="#000000"/><text fill="#000000" font-family="sans-serif" font-size="14" lengthAdjust="spacing" textLength="101" x="973.25" y="315.8467">MetadataStore</text><line style="stroke:#181818;stroke-width:0.5;" x1="762" x2="1253" y1="327" y2="327"/><text fill="#000000" font-family="sans-serif" font-size="14" lengthAdjust="spacing" textLength="194" x="767" y="343.9951">log : NoneType, RootLogger</text><text fill="#000000" font-family="sans-serif" font-size="14" lengthAdjust="spacing" textLength="97" x="767" y="360.292">schemaspace</text><line style="stroke:#181818;stroke-width:0.5;" x1="762" x2="1253" y1="367.5938" y2="367.5938"/><text fill="#000000" font-family="sans-serif" font-size="14" font-style="italic" lengthAdjust="spacing" textLength="281" x="767" y="384.5889">delete_instance(metadata: dict) -&gt; None</text><text fill="#000000" font-family="sans-serif" font-size="14" font-style="italic" lengthAdjust="spacing" textLength="481" x="767" y="400.8857">fetch_instances(name: Optional[str], include_invalid: bool) -&gt; List[dict]</text><text fill="#000000" font-family="sans-serif" font-size="14" font-style="italic" lengthAdjust="spacing" textLength="209" x="767" y="417.1826">schemaspace_exists() -&gt; bool</text><text fill="#000000" font-family="sans-serif" font-size="14" font-style="italic" lengthAdjust="spacing" textLength="456" x="767" y="433.4795">store_instance(name: str, metadata: dict, for_update: bool) -&gt; dict</text></g><g id="link_elyra.metadata.storage.FileMetadataStore_elyra.metadata.storage.MetadataStore"><path codeLine="39" d="M1007.5,201.806 C1007.5,225.346 1007.5,250.84 1007.5,274.594 " fill="none" id="elyra.metadata.storage.FileMetadataStore-to-elyra.metadata.storage.MetadataStore" style="stroke:#181818;stroke-width:1.0;"/><polygon fill="none" points="1014.5,274.927,1007.5,294.927,1000.5,274.927,1014.5,274.927" style="stroke:#181818;stroke-width:1.0;"/></g><g id="link_elyra.metadata.storage.FileMetadataCache_elyra.metadata.storage.FileChangeHandler"><path codeLine="40" d="M366.5,218.072 C366.5,242.242 366.5,267.522 366.5,290.249 " fill="none" id="elyra.metadata.storage.FileMetadataCache-to-elyra.metadata.storage.FileChangeHandler" style="stroke:#181818;stroke-width:1.0;"/><polygon fill="none" points="366.5,303.307,370.5,297.307,366.5,291.307,362.5,297.307,366.5,303.307" style="stroke:#181818;stroke-width:1.0;"/><text fill="#000000" font-family="sans-serif" font-size="13" lengthAdjust="spacing" textLength="133" x="367.5" y="261.0669">file_metadata_cache</text></g></g></svg>