<?xml version="1.0" encoding="UTF-8" standalone="no"?><svg xmlns="http://www.w3.org/2000/svg" xmlns:xlink="http://www.w3.org/1999/xlink" contentStyleType="text/css" height="577px" preserveAspectRatio="none" style="width:1271px;height:577px;background:#FFFFFF;" version="1.1" viewBox="0 0 1271 577" width="1271px" zoomAndPan="magnify"><defs/><g><g id="elem_User"><ellipse cx="22" cy="126.5" fill="#F1F1F1" rx="8" ry="8" style="stroke:#181818;stroke-width:0.5;"/><path d="M22,134.5 L22,161.5 M9,142.5 L35,142.5 M22,161.5 L9,176.5 M22,161.5 L35,176.5 " fill="none" style="stroke:#181818;stroke-width:0.5;"/><text fill="#000000" font-family="sans-serif" font-size="14" lengthAdjust="spacing" textLength="32" x="6" y="190.9951">User</text></g><g id="elem_Component Catalogs"><ellipse cx="190.8872" cy="155.7774" fill="#F1F1F1" rx="91.8872" ry="20.7774" style="stroke:#181818;stroke-width:0.5;"/><text fill="#000000" font-family="sans-serif" font-size="14" lengthAdjust="spacing" textLength="146" x="117.8872" y="158.6241">Component Catalogs</text></g><g id="elem_Reload components"><ellipse cx="508.2318" cy="78.2464" fill="#F1F1F1" rx="89.2318" ry="20.2464" style="stroke:#181818;stroke-width:0.5;"/><text fill="#000000" font-family="sans-serif" font-size="14" lengthAdjust="spacing" textLength="140" x="438.2318" y="81.093">Reload components</text></g><g id="elem_New component catalog"><ellipse cx="507.7923" cy="155.7585" fill="#F1F1F1" rx="101.7923" ry="22.7585" style="stroke:#181818;stroke-width:0.5;"/><text fill="#000000" font-family="sans-serif" font-size="14" lengthAdjust="spacing" textLength="168" x="423.7923" y="158.6051">New component catalog</text></g><g id="elem_Catalog list"><ellipse cx="508.2248" cy="386.145" fill="#F1F1F1" rx="63.7248" ry="15.145" style="stroke:#181818;stroke-width:0.5;"/><text fill="#000000" font-family="sans-serif" font-size="14" lengthAdjust="spacing" textLength="75" x="467.7248" y="389.8925">Catalog list</text></g><g id="elem_Filesystem Component Catalog"><ellipse cx="863.0909" cy="33.1182" fill="#F1F1F1" rx="123.5909" ry="27.1182" style="stroke:#181818;stroke-width:0.5;"/><text fill="#000000" font-family="sans-serif" font-size="14" lengthAdjust="spacing" textLength="215" x="755.5909" y="35.9649">Filesystem Component Catalog</text></g><g id="elem_URL Component Catalog"><ellipse cx="863.2481" cy="117.8496" fill="#F1F1F1" rx="102.2481" ry="22.8496" style="stroke:#181818;stroke-width:0.5;"/><text fill="#000000" font-family="sans-serif" font-size="14" lengthAdjust="spacing" textLength="169" x="778.7481" y="120.6963">URL Component Catalog</text></g><g id="elem_New Component"><ellipse cx="862.9652" cy="194.193" fill="#F1F1F1" rx="78.9652" ry="18.193" style="stroke:#181818;stroke-width:0.5;"/><text fill="#000000" font-family="sans-serif" font-size="14" lengthAdjust="spacing" textLength="116" x="802.9" y="197.6886">New Component</text></g><g id="elem_Components list"><ellipse cx="862.7532" cy="264.9506" fill="#F1F1F1" rx="77.7532" ry="17.9506" style="stroke:#181818;stroke-width:0.5;"/><text fill="#000000" font-family="sans-serif" font-size="14" lengthAdjust="spacing" textLength="113" x="803.6994" y="268.5809">Components list</text></g><g id="elem_Reload components from catalog"><ellipse cx="863.2013" cy="346.9403" fill="#F1F1F1" rx="130.2013" ry="28.4403" style="stroke:#181818;stroke-width:0.5;"/><text fill="#000000" font-family="sans-serif" font-size="14" lengthAdjust="spacing" textLength="229" x="748.7013" y="349.7869">Reload components from catalog</text></g><g id="elem_Edit"><ellipse cx="862.8701" cy="425.0236" fill="#F1F1F1" rx="29.8701" ry="14.5236" style="stroke:#181818;stroke-width:0.5;"/><text fill="#000000" font-family="sans-serif" font-size="14" lengthAdjust="spacing" textLength="26" x="849.8701" y="427.8703">Edit</text></g><g id="elem_Duplicate"><ellipse cx="863.0731" cy="489.7619" fill="#F1F1F1" rx="58.5731" ry="14.7619" style="stroke:#181818;stroke-width:0.5;"/><text fill="#000000" font-family="sans-serif" font-size="14" lengthAdjust="spacing" textLength="65" x="827.5731" y="493.5095">Duplicate</text></g><g id="elem_Delete item"><ellipse cx="862.92" cy="555.984" fill="#F1F1F1" rx="65.42" ry="15.484" style="stroke:#181818;stroke-width:0.5;"/><text fill="#000000" font-family="sans-serif" font-size="14" lengthAdjust="spacing" textLength="80" x="819.92" y="559.7316">Delete item</text></g><g id="elem_Edit from editor"><ellipse cx="1190.6066" cy="229.8213" fill="#F1F1F1" rx="74.6066" ry="17.3213" style="stroke:#181818;stroke-width:0.5;"/><text fill="#000000" font-family="sans-serif" font-size="14" lengthAdjust="spacing" textLength="105" x="1135.1066" y="233.5689">Edit from editor</text></g><g id="elem_Edit from page"><ellipse cx="1190.6868" cy="299.9374" fill="#F1F1F1" rx="72.6868" ry="16.9374" style="stroke:#181818;stroke-width:0.5;"/><text fill="#000000" font-family="sans-serif" font-size="14" lengthAdjust="spacing" textLength="100" x="1137.6868" y="303.6849">Edit from page</text></g><g id="link_User_Component Catalogs"><path d="M38.1147,156 C51.3456,156 71.7935,156 93.4421,156 " fill="none" id="User-to-Component Catalogs" style="stroke:#181818;stroke-width:1.0;"/><polygon fill="#181818" points="98.6687,156,89.6687,152,93.6687,156,89.6687,160,98.6687,156" style="stroke:#181818;stroke-width:1.0;"/></g><g id="link_Component Catalogs_Reload components"><path d="M259.232,139.352 C315.134,125.51 393.941,105.995 447.563,92.718 " fill="none" id="Component Catalogs-backto-Reload components" style="stroke:#181818;stroke-width:1.0;stroke-dasharray:7.0,7.0;"/><polygon fill="#181818" points="254.234,140.59,263.9314,142.3106,259.0876,139.3888,262.0094,134.5449,254.234,140.59" style="stroke:#181818;stroke-width:1.0;"/><text fill="#000000" font-family="sans-serif" font-size="13" lengthAdjust="spacing" textLength="61" x="314" y="109.0669">«include»</text></g><g id="link_Component Catalogs_New component catalog"><path d="M288.557,156 C325.737,156 368.275,156 405.875,156 " fill="none" id="Component Catalogs-backto-New component catalog" style="stroke:#181818;stroke-width:1.0;stroke-dasharray:7.0,7.0;"/><polygon fill="#181818" points="283.111,156,292.111,160,288.111,156,292.111,152,283.111,156" style="stroke:#181818;stroke-width:1.0;"/><text fill="#000000" font-family="sans-serif" font-size="13" lengthAdjust="spacing" textLength="61" x="314" y="152.0669">«include»</text></g><g id="link_Component Catalogs_Catalog list"><path d="M223.548,179.035 C288.286,226.304 434.501,333.064 487.417,371.701 " fill="none" id="Component Catalogs-backto-Catalog list" style="stroke:#181818;stroke-width:1.0;stroke-dasharray:7.0,7.0;"/><polygon fill="#181818" points="219.403,176.009,224.3132,184.5466,223.4412,178.9573,229.0305,178.0854,219.403,176.009" style="stroke:#181818;stroke-width:1.0;"/><text fill="#000000" font-family="sans-serif" font-size="13" lengthAdjust="spacing" textLength="61" x="314" y="246.0669">«include»</text></g><g id="link_New component catalog_Filesystem Component Catalog"><path d="M568.574,134.801 C613.675,118.798 677.179,96.363 733,77 C753.232,69.982 775.281,62.427 795.334,55.592 " fill="none" id="New component catalog-backto-Filesystem Component Catalog" style="stroke:#181818;stroke-width:1.0;stroke-dasharray:7.0,7.0;"/><polygon fill="#181818" points="563.719,136.524,573.5386,137.2821,568.4308,134.851,570.8619,129.7432,563.719,136.524" style="stroke:#181818;stroke-width:1.0;"/><text fill="#000000" font-family="sans-serif" font-size="13" lengthAdjust="spacing" textLength="61" x="641" y="84.0669">«include»</text></g><g id="link_New component catalog_URL Component Catalog"><path d="M605.627,145.598 C657.103,140.057 720.065,133.279 770.711,127.827 " fill="none" id="New component catalog-backto-URL Component Catalog" style="stroke:#181818;stroke-width:1.0;stroke-dasharray:7.0,7.0;"/><polygon fill="#181818" points="600.365,146.165,609.7418,149.1777,605.3362,145.6293,608.8846,141.2238,600.365,146.165" style="stroke:#181818;stroke-width:1.0;"/><text fill="#000000" font-family="sans-serif" font-size="13" lengthAdjust="spacing" textLength="61" x="641" y="132.0669">«include»</text></g><g id="link_New component catalog_New Component"><path d="M605.642,166.403 C664.38,172.726 738.071,180.659 791.353,186.395 " fill="none" id="New component catalog-backto-New Component" style="stroke:#181818;stroke-width:1.0;stroke-dasharray:7.0,7.0;"/><polygon fill="#181818" points="600.365,165.835,608.8846,170.7762,605.3362,166.3707,609.7418,162.8223,600.365,165.835" style="stroke:#181818;stroke-width:1.0;"/><text fill="#000000" font-family="sans-serif" font-size="13" lengthAdjust="spacing" textLength="61" x="641" y="166.0669">«include»</text></g><g id="link_Catalog list_Components list"><path d="M545.255,371.08 C589.254,353.244 665.896,323.045 733,301 C758.183,292.727 786.518,284.683 810.205,278.305 " fill="none" id="Catalog list-backto-Components list" style="stroke:#181818;stroke-width:1.0;stroke-dasharray:7.0,7.0;"/><polygon fill="#181818" points="540.577,372.98,550.4207,373.2997,545.2096,371.0987,547.4106,365.8876,540.577,372.98" style="stroke:#181818;stroke-width:1.0;"/><text fill="#000000" font-family="sans-serif" font-size="13" lengthAdjust="spacing" textLength="61" x="641" y="307.0669">«include»</text></g><g id="link_Catalog list_Reload components from catalog"><path d="M570.928,379.158 C619.361,373.807 688.065,366.217 746.562,359.754 " fill="none" id="Catalog list-backto-Reload components from catalog" style="stroke:#181818;stroke-width:1.0;stroke-dasharray:7.0,7.0;"/><polygon fill="#181818" points="565.716,379.734,575.1014,382.7198,570.6857,379.184,574.2214,374.7683,565.716,379.734" style="stroke:#181818;stroke-width:1.0;"/><text fill="#000000" font-family="sans-serif" font-size="13" lengthAdjust="spacing" textLength="61" x="641" y="361.0669">«include»</text></g><g id="link_Catalog list_Edit"><path d="M570.717,392.819 C647.798,401.335 776.454,415.549 833.393,421.839 " fill="none" id="Catalog list-backto-Edit" style="stroke:#181818;stroke-width:1.0;stroke-dasharray:7.0,7.0;"/><polygon fill="#181818" points="565.716,392.266,574.2214,397.2317,570.6857,392.816,575.1014,389.2802,565.716,392.266" style="stroke:#181818;stroke-width:1.0;"/><text fill="#000000" font-family="sans-serif" font-size="13" lengthAdjust="spacing" textLength="61" x="641" y="396.0669">«include»</text></g><g id="link_Catalog list_Duplicate"><path d="M548.305,400.171 C574.221,409.349 608.982,421.345 640,431 C680.979,443.755 691.541,445.903 733,457 C762.142,464.8 795.095,473.2231 820.4,479.6071 " fill="none" id="Catalog list-backto-Duplicate" style="stroke:#181818;stroke-width:1.0;stroke-dasharray:7.0,7.0;"/><polygon fill="#181818" points="543.571,398.492,550.7139,405.2728,548.2828,400.165,553.3906,397.7339,543.571,398.492" style="stroke:#181818;stroke-width:1.0;"/><text fill="#000000" font-family="sans-serif" font-size="13" lengthAdjust="spacing" textLength="61" x="641" y="427.0669">«include»</text></g><g id="link_Catalog list_Delete item"><path d="M531.326,403.43 C570.078,432.785 653.3,491.9156 733,523 C758.414,532.9118 787.807,540.6974 812.111,546.2111 " fill="none" id="Catalog list-backto-Delete item" style="stroke:#181818;stroke-width:1.0;stroke-dasharray:7.0,7.0;"/><polygon fill="#181818" points="527.27,400.343,532.0104,408.976,531.2492,403.3706,536.8546,402.6093,527.27,400.343" style="stroke:#181818;stroke-width:1.0;"/><text fill="#000000" font-family="sans-serif" font-size="13" lengthAdjust="spacing" textLength="61" x="641" y="474.0669">«include»</text></g><g id="link_Components list_Edit from editor"><path d="M939.52,256.88 C994.837,250.932 1069.24,242.932 1122.46,237.209 " fill="none" id="Components list-backto-Edit from editor" style="stroke:#181818;stroke-width:1.0;stroke-dasharray:7.0,7.0;"/><polygon fill="#181818" points="934.228,257.449,943.6039,260.4644,939.1994,256.9147,942.749,252.5102,934.228,257.449" style="stroke:#181818;stroke-width:1.0;"/><text fill="#000000" font-family="sans-serif" font-size="13" lengthAdjust="spacing" textLength="61" x="1024" y="237.0669">«include»</text></g><g id="link_Components list_Edit from page"><path d="M939.245,273.091 C995.258,279.114 1070.95,287.253 1124.38,292.998 " fill="none" id="Components list-backto-Edit from page" style="stroke:#181818;stroke-width:1.0;stroke-dasharray:7.0,7.0;"/><polygon fill="#181818" points="934.228,272.551,942.749,277.4898,939.1994,273.0853,943.6039,269.5356,934.228,272.551" style="stroke:#181818;stroke-width:1.0;"/><text fill="#000000" font-family="sans-serif" font-size="13" lengthAdjust="spacing" textLength="61" x="1024" y="278.0669">«include»</text></g></g></svg>