<?xml version="1.0" encoding="UTF-8" standalone="no"?><svg xmlns="http://www.w3.org/2000/svg" xmlns:xlink="http://www.w3.org/1999/xlink" contentStyleType="text/css" height="1629px" preserveAspectRatio="none" style="width:814px;height:1629px;background:#FFFFFF;" version="1.1" viewBox="0 0 814 1629" width="814px" zoomAndPan="magnify"><defs/><g><g id="elem_User"><ellipse cx="22" cy="1374" fill="#F1F1F1" rx="8" ry="8" style="stroke:#181818;stroke-width:0.5;"/><path d="M22,1382 L22,1409 M9,1390 L35,1390 M22,1409 L9,1424 M22,1409 L35,1424 " fill="none" style="stroke:#181818;stroke-width:0.5;"/><text fill="#000000" font-family="sans-serif" font-size="14" lengthAdjust="spacing" textLength="32" x="6" y="1438.4951">User</text></g><g id="elem_Pipeline Editor"><ellipse cx="170.9293" cy="1362.2859" fill="#F1F1F1" rx="71.9293" ry="16.7859" style="stroke:#181818;stroke-width:0.5;"/><text fill="#000000" font-family="sans-serif" font-size="14" lengthAdjust="spacing" textLength="98" x="118.9293" y="1366.0334">Pipeline Editor</text></g><g id="elem_New Pipeline"><ellipse cx="171.24" cy="1430.548" fill="#F1F1F1" rx="68.24" ry="16.048" style="stroke:#181818;stroke-width:0.5;"/><text fill="#000000" font-family="sans-serif" font-size="14" lengthAdjust="spacing" textLength="88" x="124.24" y="1434.2956">New Pipeline</text></g><g id="elem_Toolbar"><ellipse cx="414.8687" cy="626.68" fill="#F1F1F1" rx="48.8687" ry="14.68" style="stroke:#181818;stroke-width:0.5;"/><text fill="#000000" font-family="sans-serif" font-size="14" lengthAdjust="spacing" textLength="52" x="385.8687" y="630.4275">Toolbar</text></g><g id="elem_Palette"><ellipse cx="414.8836" cy="1293.6478" fill="#F1F1F1" rx="45.8836" ry="14.6478" style="stroke:#181818;stroke-width:0.5;"/><text fill="#000000" font-family="sans-serif" font-size="14" lengthAdjust="spacing" textLength="48" x="387.8836" y="1297.3954">Palette</text></g><g id="elem_Canvas"><ellipse cx="414.8761" cy="1392.6644" fill="#F1F1F1" rx="47.3761" ry="14.6644" style="stroke:#181818;stroke-width:0.5;"/><text fill="#000000" font-family="sans-serif" font-size="14" lengthAdjust="spacing" textLength="50" x="386.8761" y="1396.4119">Canvas</text></g><g id="elem_Panel"><ellipse cx="414.9534" cy="1527.5556" fill="#F1F1F1" rx="38.4534" ry="14.5556" style="stroke:#181818;stroke-width:0.5;"/><text fill="#000000" font-family="sans-serif" font-size="14" lengthAdjust="spacing" textLength="38" x="394.0903" y="1531.0095">Panel</text></g><g id="elem_Open Pipeline"><ellipse cx="698.1781" cy="22.6356" fill="#F1F1F1" rx="71.1781" ry="16.6356" style="stroke:#181818;stroke-width:0.5;"/><text fill="#000000" font-family="sans-serif" font-size="14" lengthAdjust="spacing" textLength="96" x="647.1781" y="26.3832">Open Pipeline</text></g><g id="elem_Run Pipeline"><ellipse cx="698.0233" cy="90.4047" fill="#F1F1F1" rx="67.5233" ry="15.9047" style="stroke:#181818;stroke-width:0.5;"/><text fill="#000000" font-family="sans-serif" font-size="14" lengthAdjust="spacing" textLength="86" x="652.0233" y="94.1522">Run Pipeline</text></g><g id="elem_Save Pipeline"><ellipse cx="697.8288" cy="158.2658" fill="#F1F1F1" rx="69.3288" ry="16.2658" style="stroke:#181818;stroke-width:0.5;"/><text fill="#000000" font-family="sans-serif" font-size="14" lengthAdjust="spacing" textLength="91" x="649.3288" y="162.0133">Save Pipeline</text></g><g id="elem_Export Pipeline"><ellipse cx="697.9504" cy="227.5901" fill="#F1F1F1" rx="73.4504" ry="17.0901" style="stroke:#181818;stroke-width:0.5;"/><text fill="#000000" font-family="sans-serif" font-size="14" lengthAdjust="spacing" textLength="102" x="643.9504" y="231.3376">Export Pipeline</text></g><g id="elem_Clear Pipeline"><ellipse cx="698.0634" cy="296.4127" fill="#F1F1F1" rx="70.0634" ry="16.4127" style="stroke:#181818;stroke-width:0.5;"/><text fill="#000000" font-family="sans-serif" font-size="14" lengthAdjust="spacing" textLength="93" x="648.5634" y="300.1602">Clear Pipeline</text></g><g id="elem_Open Runtimes"><ellipse cx="697.7754" cy="365.5551" fill="#F1F1F1" rx="75.7754" ry="17.5551" style="stroke:#181818;stroke-width:0.5;"/><text fill="#000000" font-family="sans-serif" font-size="14" lengthAdjust="spacing" textLength="108" x="640.7754" y="369.3026">Open Runtimes</text></g><g id="elem_Open Runtime Images"><ellipse cx="697.9604" cy="439.4921" fill="#F1F1F1" rx="95.4604" ry="21.4921" style="stroke:#181818;stroke-width:0.5;"/><text fill="#000000" font-family="sans-serif" font-size="14" lengthAdjust="spacing" textLength="154" x="620.9604" y="442.3388">Open Runtime Images</text></g><g id="elem_Open Component Catalogs"><ellipse cx="697.9811" cy="520.5962" fill="#F1F1F1" rx="110.9811" ry="24.5962" style="stroke:#181818;stroke-width:0.5;"/><text fill="#000000" font-family="sans-serif" font-size="14" lengthAdjust="spacing" textLength="188" x="603.9811" y="523.4429">Open Component Catalogs</text></g><g id="elem_undo"><ellipse cx="697.9961" cy="594.5423" fill="#F1F1F1" rx="36.9961" ry="14.5423" style="stroke:#181818;stroke-width:0.5;"/><text fill="#000000" font-family="sans-serif" font-size="14" lengthAdjust="spacing" textLength="36" x="678.6301" y="597.8527">undo</text></g><g id="elem_Redo"><ellipse cx="698.2231" cy="658.5485" fill="#F1F1F1" rx="37.7231" ry="14.5485" style="stroke:#181818;stroke-width:0.5;"/><text fill="#000000" font-family="sans-serif" font-size="14" lengthAdjust="spacing" textLength="37" x="678.1116" y="661.9312">Redo</text></g><g id="elem_Cut"><ellipse cx="697.9558" cy="722.5236" fill="#F1F1F1" rx="28.4558" ry="14.5236" style="stroke:#181818;stroke-width:0.5;"/><text fill="#000000" font-family="sans-serif" font-size="14" lengthAdjust="spacing" textLength="24" x="685.9558" y="725.3703">Cut</text></g><g id="elem_Copy"><ellipse cx="697.7722" cy="786.5369" fill="#F1F1F1" rx="36.2722" ry="14.5369" style="stroke:#181818;stroke-width:0.5;"/><text fill="#000000" font-family="sans-serif" font-size="14" lengthAdjust="spacing" textLength="35" x="679.1457" y="789.7741">Copy</text></g><g id="elem_Paste"><ellipse cx="698.1869" cy="850.5634" fill="#F1F1F1" rx="39.1869" ry="14.5634" style="stroke:#181818;stroke-width:0.5;"/><text fill="#000000" font-family="sans-serif" font-size="14" lengthAdjust="spacing" textLength="39" x="676.5666" y="854.0876">Paste</text></g><g id="elem_Add Comment"><ellipse cx="697.8073" cy="917.3615" fill="#F1F1F1" rx="72.3073" ry="16.8615" style="stroke:#181818;stroke-width:0.5;"/><text fill="#000000" font-family="sans-serif" font-size="14" lengthAdjust="spacing" textLength="99" x="645.3073" y="921.109">Add Comment</text></g><g id="elem_Delete"><ellipse cx="697.8913" cy="984.6302" fill="#F1F1F1" rx="44.3913" ry="14.6302" style="stroke:#181818;stroke-width:0.5;"/><text fill="#000000" font-family="sans-serif" font-size="14" lengthAdjust="spacing" textLength="46" x="671.8913" y="988.3777">Delete</text></g><g id="elem_Arrange Horizontally"><ellipse cx="697.9128" cy="1054.4826" fill="#F1F1F1" rx="87.9128" ry="19.9826" style="stroke:#181818;stroke-width:0.5;"/><text fill="#000000" font-family="sans-serif" font-size="14" lengthAdjust="spacing" textLength="137" x="629.4128" y="1057.3292">Arrange Horizontally</text></g><g id="elem_Arrange Vertically"><ellipse cx="697.7839" cy="1128.3568" fill="#F1F1F1" rx="79.7839" ry="18.3568" style="stroke:#181818;stroke-width:0.5;"/><text fill="#000000" font-family="sans-serif" font-size="14" lengthAdjust="spacing" textLength="118" x="637.0356" y="1131.7613">Arrange Vertically</text></g><g id="elem_Geniric"><ellipse cx="697.8836" cy="1196.6478" fill="#F1F1F1" rx="45.8836" ry="14.6478" style="stroke:#181818;stroke-width:0.5;"/><text fill="#000000" font-family="sans-serif" font-size="14" lengthAdjust="spacing" textLength="48" x="670.8836" y="1200.3954">Geniric</text></g><g id="elem_Logic"><ellipse cx="697.9961" cy="1260.5423" fill="#F1F1F1" rx="36.9961" ry="14.5423" style="stroke:#181818;stroke-width:0.5;"/><text fill="#000000" font-family="sans-serif" font-size="14" lengthAdjust="spacing" textLength="36" x="678.6301" y="1263.8527">Logic</text></g><g id="elem_kfp Catalogs"><ellipse cx="698.1678" cy="1326.3336" fill="#F1F1F1" rx="67.1678" ry="15.8336" style="stroke:#181818;stroke-width:0.5;"/><text fill="#000000" font-family="sans-serif" font-size="14" lengthAdjust="spacing" textLength="85" x="652.6678" y="1330.0811">kfp Catalogs</text></g><g id="elem_Node"><ellipse cx="698.2231" cy="1392.5485" fill="#F1F1F1" rx="37.7231" ry="14.5485" style="stroke:#181818;stroke-width:0.5;"/><text fill="#000000" font-family="sans-serif" font-size="14" lengthAdjust="spacing" textLength="37" x="678.1116" y="1395.9312">Node</text></g><g id="elem_Line"><ellipse cx="697.7843" cy="1456.5236" fill="#F1F1F1" rx="31.2843" ry="14.5236" style="stroke:#181818;stroke-width:0.5;"/><text fill="#000000" font-family="sans-serif" font-size="14" lengthAdjust="spacing" textLength="28" x="683.7843" y="1459.3703">Line</text></g><g id="elem_PIPELINE PROPERTIES"><ellipse cx="698.1163" cy="1527.7233" fill="#F1F1F1" rx="94.1163" ry="21.2233" style="stroke:#181818;stroke-width:0.5;"/><text fill="#000000" font-family="sans-serif" font-size="14" lengthAdjust="spacing" textLength="151" x="622.6163" y="1530.5699">PIPELINE PROPERTIES</text></g><g id="elem_NODE PROPERTIES"><ellipse cx="698.1635" cy="1603.6327" fill="#F1F1F1" rx="86.1635" ry="19.6327" style="stroke:#181818;stroke-width:0.5;"/><text fill="#000000" font-family="sans-serif" font-size="14" lengthAdjust="spacing" textLength="133" x="631.6635" y="1606.4794">NODE PROPERTIES</text></g><g id="link_User_Pipeline Editor"><path d="M38.1779,1399.267 C57.1089,1393.987 90.4465,1384.688 118.858,1376.764 " fill="none" id="User-to-Pipeline Editor" style="stroke:#181818;stroke-width:1.0;"/><polygon fill="#181818" points="123.736,1375.404,113.992,1373.9703,118.92,1376.748,116.1424,1381.6759,123.736,1375.404" style="stroke:#181818;stroke-width:1.0;"/></g><g id="link_User_New Pipeline"><path d="M38.1779,1406.288 C55.5805,1409.484 85.1572,1414.917 111.89,1419.827 " fill="none" id="User-to-New Pipeline" style="stroke:#181818;stroke-width:1.0;"/><polygon fill="#181818" points="116.845,1420.737,108.7166,1415.1755,111.9274,1419.8329,107.2701,1423.0437,116.845,1420.737" style="stroke:#181818;stroke-width:1.0;"/></g><g id="link_Pipeline Editor_Toolbar"><path d="M179.27,1340.388 C215.843,1229.16 379.131,732.547 409.224,641.024 " fill="none" id="Pipeline Editor-backto-Toolbar" style="stroke:#181818;stroke-width:1.0;stroke-dasharray:7.0,7.0;"/><polygon fill="#181818" points="177.626,1345.39,184.2365,1338.0892,179.1874,1340.6401,176.6366,1335.591,177.626,1345.39" style="stroke:#181818;stroke-width:1.0;"/><text fill="#000000" font-family="sans-serif" font-size="13" lengthAdjust="spacing" textLength="61" x="274" y="860.5669">«include»</text></g><g id="link_Pipeline Editor_Palette"><path d="M222.608,1348.071 C269.992,1334.56 339.457,1314.754 380.371,1303.088 " fill="none" id="Pipeline Editor-backto-Palette" style="stroke:#181818;stroke-width:1.0;stroke-dasharray:7.0,7.0;"/><polygon fill="#181818" points="217.518,1349.522,227.27,1350.9002,222.3263,1348.1507,225.0758,1343.207,217.518,1349.522" style="stroke:#181818;stroke-width:1.0;"/><text fill="#000000" font-family="sans-serif" font-size="13" lengthAdjust="spacing" textLength="61" x="274" y="1311.5669">«include»</text></g><g id="link_Pipeline Editor_Canvas"><path d="M219.407,1377.686 C236.159,1382.38 255.249,1386.976 273,1389.5 C304.392,1393.964 340.105,1394.679 367.735,1394.296 " fill="none" id="Pipeline Editor-backto-Canvas" style="stroke:#181818;stroke-width:1.0;stroke-dasharray:7.0,7.0;"/><polygon fill="#181818" points="214.286,1376.229,221.8455,1382.542,219.0946,1377.599,224.0376,1374.8481,214.286,1376.229" style="stroke:#181818;stroke-width:1.0;"/><text fill="#000000" font-family="sans-serif" font-size="13" lengthAdjust="spacing" textLength="61" x="274" y="1385.5669">«include»</text></g><g id="link_Pipeline Editor_Panel"><path d="M210.173,1379.648 C221.013,1384.961 232.672,1391.11 243,1397.5 C259.135,1407.481 357.673,1483.741 397.41,1514.6 " fill="none" id="Pipeline Editor-backto-Panel" style="stroke:#181818;stroke-width:1.0;stroke-dasharray:7.0,7.0;"/><polygon fill="#181818" points="205.584,1377.424,211.9378,1384.9493,210.0832,1379.6051,215.4274,1377.7505,205.584,1377.424" style="stroke:#181818;stroke-width:1.0;"/><text fill="#000000" font-family="sans-serif" font-size="13" lengthAdjust="spacing" textLength="61" x="274" y="1417.5669">«include»</text></g><g id="link_Toolbar_Open Pipeline"><path d="M416.4,606.86 C418.511,521.05 430.814,179.68 494,97.5 C526.635,55.06 585.838,36.63 631.918,28.63 " fill="none" id="Toolbar-backto-Open Pipeline" style="stroke:#181818;stroke-width:1.0;stroke-dasharray:7.0,7.0;"/><polygon fill="#181818" points="416.28,611.91,420.4847,603.0038,416.3943,606.9113,412.4868,602.8209,416.28,611.91" style="stroke:#181818;stroke-width:1.0;"/><text fill="#000000" font-family="sans-serif" font-size="13" lengthAdjust="spacing" textLength="61" x="495" y="48.5669">«include»</text></g><g id="link_Toolbar_Run Pipeline"><path d="M417.001,606.3 C421.28,527.19 440.339,239.27 494,168.5 C527.42,124.43 589.07,105.25 635.695,96.91 " fill="none" id="Toolbar-backto-Run Pipeline" style="stroke:#181818;stroke-width:1.0;stroke-dasharray:7.0,7.0;"/><polygon fill="#181818" points="416.718,611.63,421.1756,602.8476,416.9752,606.6366,413.1862,602.4362,416.718,611.63" style="stroke:#181818;stroke-width:1.0;"/><text fill="#000000" font-family="sans-serif" font-size="13" lengthAdjust="spacing" textLength="61" x="495" y="118.5669">«include»</text></g><g id="link_Toolbar_Save Pipeline"><path d="M417.743,606.85 C424.285,536.85 449.32,300.63 494,241.5 C527.858,196.69 590.091,175.97 636.761,166.44 " fill="none" id="Toolbar-backto-Save Pipeline" style="stroke:#181818;stroke-width:1.0;stroke-dasharray:7.0,7.0;"/><polygon fill="#181818" points="417.269,611.98,422.075,603.3833,417.7261,607.0009,414.1084,602.652,417.269,611.98" style="stroke:#181818;stroke-width:1.0;"/><text fill="#000000" font-family="sans-serif" font-size="13" lengthAdjust="spacing" textLength="61" x="495" y="189.5669">«include»</text></g><g id="link_Toolbar_Export Pipeline"><path d="M415.823,606.69 C416.34,553.82 424.368,407.23 494,315.5 C528.256,270.37 590.428,248.03 636.975,237.2 " fill="none" id="Toolbar-backto-Export Pipeline" style="stroke:#181818;stroke-width:1.0;stroke-dasharray:7.0,7.0;"/><polygon fill="#181818" points="415.794,611.8,419.8454,602.823,415.8226,606.8001,411.8455,602.7773,415.794,611.8" style="stroke:#181818;stroke-width:1.0;"/><text fill="#000000" font-family="sans-serif" font-size="13" lengthAdjust="spacing" textLength="61" x="495" y="262.5669">«include»</text></g><g id="link_Toolbar_Clear Pipeline"><path d="M418.064,606.7 C423.469,563.34 441.453,458.41 494,390.5 C530.601,343.2 596.627,318.79 643.432,306.85 " fill="none" id="Toolbar-backto-Clear Pipeline" style="stroke:#181818;stroke-width:1.0;stroke-dasharray:7.0,7.0;"/><polygon fill="#181818" points="417.438,611.92,422.489,603.465,418.038,606.9561,414.5468,602.5051,417.438,611.92" style="stroke:#181818;stroke-width:1.0;"/><text fill="#000000" font-family="sans-serif" font-size="13" lengthAdjust="spacing" textLength="61" x="495" y="336.5669">«include»</text></g><g id="link_Toolbar_Open Runtimes"><path d="M422.251,606.83 C433.041,575.11 457.565,511.84 494,468.5 C526.948,429.3 541.341,423.68 587,400.5 C605.228,391.25 626.393,383.81 645.261,378.21 " fill="none" id="Toolbar-backto-Open Runtimes" style="stroke:#181818;stroke-width:1.0;stroke-dasharray:7.0,7.0;"/><polygon fill="#181818" points="420.637,611.64,427.3053,604.392,422.2361,606.9026,419.7255,601.8334,420.637,611.64" style="stroke:#181818;stroke-width:1.0;"/><text fill="#000000" font-family="sans-serif" font-size="13" lengthAdjust="spacing" textLength="61" x="495" y="411.5669">«include»</text></g><g id="link_Toolbar_Open Runtime Images"><path d="M429.665,607.99 C444.271,588.95 468.757,559.12 494,537.5 C531.177,505.66 542.988,499.92 587,478.5 C603.943,470.25 623.093,462.85 640.61,456.77 " fill="none" id="Toolbar-backto-Open Runtime Images" style="stroke:#181818;stroke-width:1.0;stroke-dasharray:7.0,7.0;"/><polygon fill="#181818" points="426.524,612.11,435.1581,607.3715,429.5525,608.1315,428.7925,602.526,426.524,612.11" style="stroke:#181818;stroke-width:1.0;"/><text fill="#000000" font-family="sans-serif" font-size="13" lengthAdjust="spacing" textLength="61" x="495" y="489.5669">«include»</text></g><g id="link_Toolbar_Open Component Catalogs"><path d="M442.494,611.1 C457.335,602.85 476.355,592.9 494,585.5 C537.344,567.33 587.642,551.19 627.328,539.54 " fill="none" id="Toolbar-backto-Open Component Catalogs" style="stroke:#181818;stroke-width:1.0;stroke-dasharray:7.0,7.0;"/><polygon fill="#181818" points="438.029,613.6,447.8355,612.6877,442.3903,611.1548,443.9232,605.7096,438.029,613.6" style="stroke:#181818;stroke-width:1.0;"/><text fill="#000000" font-family="sans-serif" font-size="13" lengthAdjust="spacing" textLength="61" x="495" y="558.5669">«include»</text></g><g id="link_Toolbar_undo"><path d="M466.166,620.79 C522.64,614.36 612.919,604.08 662.172,598.47 " fill="none" id="Toolbar-backto-undo" style="stroke:#181818;stroke-width:1.0;stroke-dasharray:7.0,7.0;"/><polygon fill="#181818" points="461.148,621.36,470.5425,624.3168,466.1159,620.7947,469.638,616.3681,461.148,621.36" style="stroke:#181818;stroke-width:1.0;"/><text fill="#000000" font-family="sans-serif" font-size="13" lengthAdjust="spacing" textLength="61" x="495" y="606.5669">«include»</text></g><g id="link_Toolbar_Redo"><path d="M460.147,635.838 C471.166,637.934 482.983,639.984 494,641.5 C551.985,649.48 619.839,654.247 660.568,656.62 " fill="none" id="Toolbar-backto-Redo" style="stroke:#181818;stroke-width:1.0;stroke-dasharray:7.0,7.0;"/><polygon fill="#181818" points="455.146,634.873,463.2251,640.5057,460.0554,635.8203,464.7408,632.6506,455.146,634.873" style="stroke:#181818;stroke-width:1.0;"/><text fill="#000000" font-family="sans-serif" font-size="13" lengthAdjust="spacing" textLength="61" x="495" y="637.5669">«include»</text></g><g id="link_Toolbar_Cut"><path d="M439.171,643.043 C454.188,653.099 474.516,665.501 494,673.5 C554.537,698.354 630.626,712.52 670.241,718.713 " fill="none" id="Toolbar-backto-Cut" style="stroke:#181818;stroke-width:1.0;stroke-dasharray:7.0,7.0;"/><polygon fill="#181818" points="434.687,640.005,439.8939,648.3649,438.8263,642.8097,444.3814,641.7421,434.687,640.005" style="stroke:#181818;stroke-width:1.0;"/><text fill="#000000" font-family="sans-serif" font-size="13" lengthAdjust="spacing" textLength="61" x="495" y="669.5669">«include»</text></g><g id="link_Toolbar_Copy"><path d="M427.769,645.336 C441.441,665.849 465.766,698.409 494,718.5 C546.542,755.887 621.108,773.831 663.711,781.514 " fill="none" id="Toolbar-backto-Copy" style="stroke:#181818;stroke-width:1.0;stroke-dasharray:7.0,7.0;"/><polygon fill="#181818" points="424.853,640.899,426.4563,650.6165,427.6004,645.0765,433.1403,646.2206,424.853,640.899" style="stroke:#181818;stroke-width:1.0;"/><text fill="#000000" font-family="sans-serif" font-size="13" lengthAdjust="spacing" textLength="61" x="495" y="714.5669">«include»</text></g><g id="link_Toolbar_Paste"><path d="M421.751,646.267 C431.732,677.467 455.017,738.389 494,775.5 C540.805,820.058 616.353,838.597 660.892,845.967 " fill="none" id="Toolbar-backto-Paste" style="stroke:#181818;stroke-width:1.0;stroke-dasharray:7.0,7.0;"/><polygon fill="#181818" points="420.151,641.161,419.0262,650.9454,421.6466,645.9321,426.6599,648.5525,420.151,641.161" style="stroke:#181818;stroke-width:1.0;"/><text fill="#000000" font-family="sans-serif" font-size="13" lengthAdjust="spacing" textLength="61" x="495" y="771.5669">«include»</text></g><g id="link_Toolbar_Add Comment"><path d="M418.24,646.211 C423.84,686.995 441.952,781.58 494,838.5 C530.877,878.828 590.8,898.8 636.004,908.546 " fill="none" id="Toolbar-backto-Add Comment" style="stroke:#181818;stroke-width:1.0;stroke-dasharray:7.0,7.0;"/><polygon fill="#181818" points="417.559,641.051,414.7711,650.497,418.2133,646.008,422.7023,649.4502,417.559,641.051" style="stroke:#181818;stroke-width:1.0;"/><text fill="#000000" font-family="sans-serif" font-size="13" lengthAdjust="spacing" textLength="61" x="495" y="834.5669">«include»</text></g><g id="link_Toolbar_Delete"><path d="M416.209,646.251 C417.742,695.784 428.173,826.996 494,906.5 C534.211,955.065 608.346,973.461 655.033,980.382 " fill="none" id="Toolbar-backto-Delete" style="stroke:#181818;stroke-width:1.0;stroke-dasharray:7.0,7.0;"/><polygon fill="#181818" points="416.074,641.169,412.3145,650.2721,416.2068,646.1672,420.3117,650.0595,416.074,641.169" style="stroke:#181818;stroke-width:1.0;"/><text fill="#000000" font-family="sans-serif" font-size="13" lengthAdjust="spacing" textLength="61" x="495" y="902.5669">«include»</text></g><g id="link_Toolbar_Arrange Horizontally"><path d="M418.106,646.56 C425.424,712.903 451.642,923.94 494,975.5 C525.688,1014.072 578.669,1033.871 622.56,1044 " fill="none" id="Toolbar-backto-Arrange Horizontally" style="stroke:#181818;stroke-width:1.0;stroke-dasharray:7.0,7.0;"/><polygon fill="#181818" points="417.533,641.314,414.5339,650.6951,418.0759,646.2844,422.4866,649.8265,417.533,641.314" style="stroke:#181818;stroke-width:1.0;"/><text fill="#000000" font-family="sans-serif" font-size="13" lengthAdjust="spacing" textLength="61" x="495" y="971.5669">«include»</text></g><g id="link_Toolbar_Arrange Vertically"><path d="M417.39,646.42 C422.918,720.722 445.445,980.754 494,1045.5 C525.867,1087.993 583.283,1108.822 628.94,1118.978 " fill="none" id="Toolbar-backto-Arrange Vertically" style="stroke:#181818;stroke-width:1.0;stroke-dasharray:7.0,7.0;"/><polygon fill="#181818" points="417.021,641.396,413.6901,650.6645,417.3868,646.3826,421.6687,650.0793,417.021,641.396" style="stroke:#181818;stroke-width:1.0;"/><text fill="#000000" font-family="sans-serif" font-size="13" lengthAdjust="spacing" textLength="61" x="495" y="1041.5669">«include»</text></g><g id="link_Palette_Geniric"><path d="M441.361,1277.922 C456.279,1269.253 475.744,1258.776 494,1251.5 C549.627,1229.329 617.293,1212.993 658.744,1204.114 " fill="none" id="Palette-backto-Geniric" style="stroke:#181818;stroke-width:1.0;stroke-dasharray:7.0,7.0;"/><polygon fill="#181818" points="436.884,1280.549,446.6708,1279.4453,441.1967,1278.0191,442.623,1272.545,436.884,1280.549" style="stroke:#181818;stroke-width:1.0;"/><text fill="#000000" font-family="sans-serif" font-size="13" lengthAdjust="spacing" textLength="61" x="495" y="1226.5669">«include»</text></g><g id="link_Palette_Logic"><path d="M463.368,1287.937 C519.654,1281.327 612.225,1270.456 662.275,1264.578 " fill="none" id="Palette-backto-Logic" style="stroke:#181818;stroke-width:1.0;stroke-dasharray:7.0,7.0;"/><polygon fill="#181818" points="458.373,1288.524,467.7779,1291.4475,463.3389,1287.9411,466.8453,1283.5021,458.373,1288.524" style="stroke:#181818;stroke-width:1.0;"/><text fill="#000000" font-family="sans-serif" font-size="13" lengthAdjust="spacing" textLength="61" x="495" y="1272.5669">«include»</text></g><g id="link_Palette_kfp Catalogs"><path d="M458.735,1302.529 C470.153,1304.719 482.513,1306.89 494,1308.5 C540.252,1314.981 592.778,1319.564 632.811,1322.483 " fill="none" id="Palette-backto-kfp Catalogs" style="stroke:#181818;stroke-width:1.0;stroke-dasharray:7.0,7.0;"/><polygon fill="#181818" points="453.561,1301.523,461.6319,1307.1675,458.4691,1302.4775,463.1591,1299.3146,453.561,1301.523" style="stroke:#181818;stroke-width:1.0;"/><text fill="#000000" font-family="sans-serif" font-size="13" lengthAdjust="spacing" textLength="61" x="495" y="1304.5669">«include»</text></g><g id="link_Canvas_Node"><path d="M468.029,1392.5 C523.958,1392.5 611.421,1392.5 660.478,1392.5 " fill="none" id="Canvas-backto-Node" style="stroke:#181818;stroke-width:1.0;stroke-dasharray:7.0,7.0;"/><polygon fill="#181818" points="462.717,1392.5,471.717,1396.5,467.717,1392.5,471.717,1388.5,462.717,1392.5" style="stroke:#181818;stroke-width:1.0;"/><text fill="#000000" font-family="sans-serif" font-size="13" lengthAdjust="spacing" textLength="61" x="495" y="1388.5669">«include»</text></g><g id="link_Canvas_Line"><path d="M451.645,1404.921 C464.849,1409.257 480.011,1413.928 494,1417.5 C555.199,1433.126 628.198,1445.7 667.847,1452.032 " fill="none" id="Canvas-backto-Line" style="stroke:#181818;stroke-width:1.0;stroke-dasharray:7.0,7.0;"/><polygon fill="#181818" points="446.875,1403.341,454.1614,1409.9673,451.6216,1404.9127,456.6762,1402.3728,446.875,1403.341" style="stroke:#181818;stroke-width:1.0;"/><text fill="#000000" font-family="sans-serif" font-size="13" lengthAdjust="spacing" textLength="61" x="495" y="1413.5669">«include»</text></g><g id="link_Panel_PIPELINE PROPERTIES"><path d="M458.653,1527.5 C497.013,1527.5 554.702,1527.5 603.716,1527.5 " fill="none" id="Panel-backto-PIPELINE PROPERTIES" style="stroke:#181818;stroke-width:1.0;stroke-dasharray:7.0,7.0;"/><polygon fill="#181818" points="453.605,1527.5,462.605,1531.5,458.605,1527.5,462.605,1523.5,453.605,1527.5" style="stroke:#181818;stroke-width:1.0;"/><text fill="#000000" font-family="sans-serif" font-size="13" lengthAdjust="spacing" textLength="61" x="495" y="1523.5669">«include»</text></g><g id="link_Panel_NODE PROPERTIES"><path d="M449.349,1538.7069 C463.113,1543.1969 479.264,1548.2922 494,1552.5 C541.87,1566.1695 596.642,1579.8144 637.219,1589.5461 " fill="none" id="Panel-backto-NODE PROPERTIES" style="stroke:#181818;stroke-width:1.0;stroke-dasharray:7.0,7.0;"/><polygon fill="#181818" points="444.393,1537.0828,451.6997,1543.6867,449.1444,1538.6399,454.1911,1536.0845,444.393,1537.0828" style="stroke:#181818;stroke-width:1.0;"/><text fill="#000000" font-family="sans-serif" font-size="13" lengthAdjust="spacing" textLength="61" x="495" y="1548.5669">«include»</text></g></g></svg>