<?xml version="1.0" encoding="UTF-8" standalone="no"?><svg xmlns="http://www.w3.org/2000/svg" xmlns:xlink="http://www.w3.org/1999/xlink" contentStyleType="text/css" height="310px" preserveAspectRatio="none" style="width:853px;height:310px;background:#FFFFFF;" version="1.1" viewBox="0 0 853 310" width="853px" zoomAndPan="magnify"><defs/><g><g id="elem_User"><ellipse cx="22" cy="65" fill="#F1F1F1" rx="8" ry="8" style="stroke:#181818;stroke-width:0.5;"/><path d="M22,73 L22,100 M9,81 L35,81 M22,100 L9,115 M22,100 L35,115 " fill="none" style="stroke:#181818;stroke-width:0.5;"/><text fill="#000000" font-family="sans-serif" font-size="14" lengthAdjust="spacing" textLength="32" x="6" y="129.4951">User</text></g><g id="elem_Runtimes"><ellipse cx="158.3197" cy="94.2671" fill="#F1F1F1" rx="59.3197" ry="14.7671" style="stroke:#181818;stroke-width:0.5;"/><text fill="#000000" font-family="sans-serif" font-size="14" lengthAdjust="spacing" textLength="66" x="122.3197" y="98.0147">Runtimes</text></g><g id="elem_Refresh"><ellipse cx="448.3615" cy="20.6946" fill="#F1F1F1" rx="50.3615" ry="14.6946" style="stroke:#181818;stroke-width:0.5;"/><text fill="#000000" font-family="sans-serif" font-size="14" lengthAdjust="spacing" textLength="54" x="418.3615" y="24.4422">Refresh</text></g><g id="elem_New runtime configuration"><ellipse cx="448.7482" cy="94.4496" fill="#F1F1F1" rx="107.7482" ry="23.9496" style="stroke:#181818;stroke-width:0.5;"/><text fill="#000000" font-family="sans-serif" font-size="14" lengthAdjust="spacing" textLength="181" x="358.2482" y="97.2963">New runtime configuration</text></g><g id="elem_Configuration list"><ellipse cx="448.5591" cy="205.6118" fill="#F1F1F1" rx="78.5591" ry="18.1118" style="stroke:#181818;stroke-width:0.5;"/><text fill="#000000" font-family="sans-serif" font-size="14" lengthAdjust="spacing" textLength="115" x="388.8328" y="209.1525">Configuration list</text></g><g id="elem_Kubeflow Pipelines"><ellipse cx="763.4263" cy="25.2853" fill="#F1F1F1" rx="84.4263" ry="19.2853" style="stroke:#181818;stroke-width:0.5;"/><text fill="#000000" font-family="sans-serif" font-size="14" lengthAdjust="spacing" textLength="129" x="698.805" y="28.1739">Kubeflow Pipelines</text></g><g id="elem_Workflow"><ellipse cx="763.3333" cy="94.7455" fill="#F1F1F1" rx="56.3333" ry="14.7455" style="stroke:#181818;stroke-width:0.5;"/><text fill="#000000" font-family="sans-serif" font-size="14" lengthAdjust="spacing" textLength="62" x="729.3333" y="98.4931">Workflow</text></g><g id="elem_Edit"><ellipse cx="763.3701" cy="158.5236" fill="#F1F1F1" rx="29.8701" ry="14.5236" style="stroke:#181818;stroke-width:0.5;"/><text fill="#000000" font-family="sans-serif" font-size="14" lengthAdjust="spacing" textLength="26" x="750.3701" y="161.3703">Edit</text></g><g id="elem_Duplicate"><ellipse cx="763.5731" cy="223.2619" fill="#F1F1F1" rx="58.5731" ry="14.7619" style="stroke:#181818;stroke-width:0.5;"/><text fill="#000000" font-family="sans-serif" font-size="14" lengthAdjust="spacing" textLength="65" x="728.0731" y="227.0095">Duplicate</text></g><g id="elem_Delete item"><ellipse cx="763.42" cy="289.484" fill="#F1F1F1" rx="65.42" ry="15.484" style="stroke:#181818;stroke-width:0.5;"/><text fill="#000000" font-family="sans-serif" font-size="14" lengthAdjust="spacing" textLength="80" x="720.42" y="293.2316">Delete item</text></g><g id="link_User_Runtimes"><path d="M38.1674,94.5 C51.8476,94.5 72.9366,94.5 93.6025,94.5 " fill="none" id="User-to-Runtimes" style="stroke:#181818;stroke-width:1.0;"/><polygon fill="#181818" points="98.8426,94.5,89.8426,90.5,93.8426,94.5,89.8426,98.5,98.8426,94.5" style="stroke:#181818;stroke-width:1.0;"/></g><g id="link_Runtimes_Refresh"><path d="M203.35,81.79 C217.566,77.756 233.426,73.347 248,69.5 C303.691,54.799 368.513,39.146 408.782,29.592 " fill="none" id="Runtimes-backto-Refresh" style="stroke:#181818;stroke-width:1.0;stroke-dasharray:7.0,7.0;"/><polygon fill="#181818" points="198.192,83.258,207.9431,84.6423,203.0011,81.8897,205.7538,76.9477,198.192,83.258" style="stroke:#181818;stroke-width:1.0;"/><text fill="#000000" font-family="sans-serif" font-size="13" lengthAdjust="spacing" textLength="61" x="249" y="50.5669">«include»</text></g><g id="link_Runtimes_New runtime configuration"><path d="M223.158,94.5 C257.707,94.5 301.33,94.5 340.903,94.5 " fill="none" id="Runtimes-backto-New runtime configuration" style="stroke:#181818;stroke-width:1.0;stroke-dasharray:7.0,7.0;"/><polygon fill="#181818" points="218.128,94.5,227.128,98.5,223.128,94.5,227.128,90.5,218.128,94.5" style="stroke:#181818;stroke-width:1.0;"/><text fill="#000000" font-family="sans-serif" font-size="13" lengthAdjust="spacing" textLength="61" x="249" y="90.5669">«include»</text></g><g id="link_Runtimes_Configuration list"><path d="M196.763,108.862 C251.037,129.78 351.435,168.475 407.313,190.011 " fill="none" id="Runtimes-backto-Configuration list" style="stroke:#181818;stroke-width:1.0;stroke-dasharray:7.0,7.0;"/><polygon fill="#181818" points="191.977,107.017,198.937,113.9853,196.6427,108.8147,201.8133,106.5203,191.977,107.017" style="stroke:#181818;stroke-width:1.0;"/><text fill="#000000" font-family="sans-serif" font-size="13" lengthAdjust="spacing" textLength="61" x="249" y="125.5669">«include»</text></g><g id="link_New runtime configuration_Kubeflow Pipelines"><path d="M530.791,76.58 C584.233,64.799 653.025,49.633 701.731,38.896 " fill="none" id="New runtime configuration-backto-Kubeflow Pipelines" style="stroke:#181818;stroke-width:1.0;stroke-dasharray:7.0,7.0;"/><polygon fill="#181818" points="525.668,77.709,535.3184,79.6763,530.5506,76.6319,533.595,71.8642,525.668,77.709" style="stroke:#181818;stroke-width:1.0;"/><text fill="#000000" font-family="sans-serif" font-size="13" lengthAdjust="spacing" textLength="61" x="587" y="48.5669">«include»</text></g><g id="link_New runtime configuration_Workflow"><path d="M561.394,94.5 C610.658,94.5 666.357,94.5 706.625,94.5 " fill="none" id="New runtime configuration-backto-Workflow" style="stroke:#181818;stroke-width:1.0;stroke-dasharray:7.0,7.0;"/><polygon fill="#181818" points="556.341,94.5,565.341,98.5,561.341,94.5,565.341,90.5,556.341,94.5" style="stroke:#181818;stroke-width:1.0;"/><text fill="#000000" font-family="sans-serif" font-size="13" lengthAdjust="spacing" textLength="61" x="587" y="90.5669">«include»</text></g><g id="link_Configuration list_Edit"><path d="M519.959,194.92 C587.642,184.757 686.478,169.915 734.386,162.722 " fill="none" id="Configuration list-backto-Edit" style="stroke:#181818;stroke-width:1.0;stroke-dasharray:7.0,7.0;"/><polygon fill="#181818" points="514.734,195.704,524.2283,198.3228,519.6785,194.9613,523.04,190.4115,514.734,195.704" style="stroke:#181818;stroke-width:1.0;"/><text fill="#000000" font-family="sans-serif" font-size="13" lengthAdjust="spacing" textLength="61" x="587" y="171.5669">«include»</text></g><g id="link_Configuration list_Duplicate"><path d="M524.933,213.5901 C544.777,215.4699 566.177,217.2766 586,218.5 C625.622,220.9453 670.323,222.1961 704.826,222.8352 " fill="none" id="Configuration list-backto-Duplicate" style="stroke:#181818;stroke-width:1.0;stroke-dasharray:7.0,7.0;"/><polygon fill="#181818" points="519.924,213.1109,528.5012,217.9515,524.9012,213.588,529.2646,209.988,519.924,213.1109" style="stroke:#181818;stroke-width:1.0;"/><text fill="#000000" font-family="sans-serif" font-size="13" lengthAdjust="spacing" textLength="61" x="587" y="214.5669">«include»</text></g><g id="link_Configuration list_Delete item"><path d="M501.436,221.2598 C526.859,228.8358 557.957,237.8991 586,245.5 C630.197,257.4793 680.951,270.0042 716.655,278.6135 " fill="none" id="Configuration list-backto-Delete item" style="stroke:#181818;stroke-width:1.0;stroke-dasharray:7.0,7.0;"/><polygon fill="#181818" points="496.43,219.7653,503.9101,226.1722,501.2211,221.1953,506.1981,218.5064,496.43,219.7653" style="stroke:#181818;stroke-width:1.0;"/><text fill="#000000" font-family="sans-serif" font-size="13" lengthAdjust="spacing" textLength="61" x="587" y="241.5669">«include»</text></g></g></svg>