<?xml version="1.0" encoding="UTF-8" standalone="no"?><svg xmlns="http://www.w3.org/2000/svg" xmlns:xlink="http://www.w3.org/1999/xlink" contentStyleType="text/css" height="1633px" preserveAspectRatio="none" style="width:820px;height:1633px;background:#FFFFFF;" version="1.1" viewBox="0 0 820 1633" width="820px" zoomAndPan="magnify"><defs/><g><g id="elem_User"><ellipse cx="22" cy="1375" fill="#F1F1F1" rx="8" ry="8" style="stroke:#181818;stroke-width:0.5;"/><path d="M22,1383 L22,1410 M9,1391 L35,1391 M22,1410 L9,1425 M22,1410 L35,1425 " fill="none" style="stroke:#181818;stroke-width:0.5;"/><text fill="#000000" font-family="sans-serif" font-size="14" lengthAdjust="spacing" textLength="32" x="6" y="1439.4951">User</text></g><g id="elem_Workflow Editor"><ellipse cx="173.9948" cy="1362.399" fill="#F1F1F1" rx="74.9948" ry="17.399" style="stroke:#181818;stroke-width:0.5;"/><text fill="#000000" font-family="sans-serif" font-size="14" lengthAdjust="spacing" textLength="106" x="117.9948" y="1366.1465">Workflow Editor</text></g><g id="elem_New Workflow"><ellipse cx="174.1781" cy="1431.6356" fill="#F1F1F1" rx="71.1781" ry="16.6356" style="stroke:#181818;stroke-width:0.5;"/><text fill="#000000" font-family="sans-serif" font-size="14" lengthAdjust="spacing" textLength="96" x="123.1781" y="1435.3832">New Workflow</text></g><g id="elem_Toolbar"><ellipse cx="420.8687" cy="630.68" fill="#F1F1F1" rx="48.8687" ry="14.68" style="stroke:#181818;stroke-width:0.5;"/><text fill="#000000" font-family="sans-serif" font-size="14" lengthAdjust="spacing" textLength="52" x="391.8687" y="634.4275">Toolbar</text></g><g id="elem_Palette"><ellipse cx="420.8836" cy="1296.6478" fill="#F1F1F1" rx="45.8836" ry="14.6478" style="stroke:#181818;stroke-width:0.5;"/><text fill="#000000" font-family="sans-serif" font-size="14" lengthAdjust="spacing" textLength="48" x="393.8836" y="1300.3954">Palette</text></g><g id="elem_Canvas"><ellipse cx="420.8761" cy="1392.6644" fill="#F1F1F1" rx="47.3761" ry="14.6644" style="stroke:#181818;stroke-width:0.5;"/><text fill="#000000" font-family="sans-serif" font-size="14" lengthAdjust="spacing" textLength="50" x="392.8761" y="1396.4119">Canvas</text></g><g id="elem_Panel"><ellipse cx="420.9534" cy="1529.5556" fill="#F1F1F1" rx="38.4534" ry="14.5556" style="stroke:#181818;stroke-width:0.5;"/><text fill="#000000" font-family="sans-serif" font-size="14" lengthAdjust="spacing" textLength="38" x="400.0903" y="1533.0095">Panel</text></g><g id="elem_Open Pipeline"><ellipse cx="704.1781" cy="22.6356" fill="#F1F1F1" rx="71.1781" ry="16.6356" style="stroke:#181818;stroke-width:0.5;"/><text fill="#000000" font-family="sans-serif" font-size="14" lengthAdjust="spacing" textLength="96" x="653.1781" y="26.3832">Open Pipeline</text></g><g id="elem_Run Workflow"><ellipse cx="703.9333" cy="90.4867" fill="#F1F1F1" rx="70.4333" ry="16.4867" style="stroke:#181818;stroke-width:0.5;"/><text fill="#000000" font-family="sans-serif" font-size="14" lengthAdjust="spacing" textLength="94" x="653.9333" y="94.2342">Run Workflow</text></g><g id="elem_Save Workflow"><ellipse cx="703.8073" cy="159.3615" fill="#F1F1F1" rx="72.3073" ry="16.8615" style="stroke:#181818;stroke-width:0.5;"/><text fill="#000000" font-family="sans-serif" font-size="14" lengthAdjust="spacing" textLength="99" x="651.3073" y="163.109">Save Workflow</text></g><g id="elem_Export Workflow"><ellipse cx="704.0612" cy="229.7122" fill="#F1F1F1" rx="76.5612" ry="17.7122" style="stroke:#181818;stroke-width:0.5;"/><text fill="#000000" font-family="sans-serif" font-size="14" lengthAdjust="spacing" textLength="110" x="646.0612" y="233.4598">Export Workflow</text></g><g id="elem_Clear Workflow"><ellipse cx="704.0678" cy="299.5136" fill="#F1F1F1" rx="73.0678" ry="17.0136" style="stroke:#181818;stroke-width:0.5;"/><text fill="#000000" font-family="sans-serif" font-size="14" lengthAdjust="spacing" textLength="101" x="650.5678" y="303.2611">Clear Workflow</text></g><g id="elem_Open Runtimes"><ellipse cx="703.7754" cy="369.5551" fill="#F1F1F1" rx="75.7754" ry="17.5551" style="stroke:#181818;stroke-width:0.5;"/><text fill="#000000" font-family="sans-serif" font-size="14" lengthAdjust="spacing" textLength="108" x="646.7754" y="373.3026">Open Runtimes</text></g><g id="elem_Open Runtime Images"><ellipse cx="703.9604" cy="443.4921" fill="#F1F1F1" rx="95.4604" ry="21.4921" style="stroke:#181818;stroke-width:0.5;"/><text fill="#000000" font-family="sans-serif" font-size="14" lengthAdjust="spacing" textLength="154" x="626.9604" y="446.3388">Open Runtime Images</text></g><g id="elem_Open Component Catalogs"><ellipse cx="703.9811" cy="524.5962" fill="#F1F1F1" rx="110.9811" ry="24.5962" style="stroke:#181818;stroke-width:0.5;"/><text fill="#000000" font-family="sans-serif" font-size="14" lengthAdjust="spacing" textLength="188" x="609.9811" y="527.4429">Open Component Catalogs</text></g><g id="elem_undo"><ellipse cx="703.9961" cy="598.5423" fill="#F1F1F1" rx="36.9961" ry="14.5423" style="stroke:#181818;stroke-width:0.5;"/><text fill="#000000" font-family="sans-serif" font-size="14" lengthAdjust="spacing" textLength="36" x="684.6301" y="601.8527">undo</text></g><g id="elem_Redo"><ellipse cx="704.2231" cy="662.5485" fill="#F1F1F1" rx="37.7231" ry="14.5485" style="stroke:#181818;stroke-width:0.5;"/><text fill="#000000" font-family="sans-serif" font-size="14" lengthAdjust="spacing" textLength="37" x="684.1116" y="665.9312">Redo</text></g><g id="elem_Cut"><ellipse cx="703.9558" cy="726.5236" fill="#F1F1F1" rx="28.4558" ry="14.5236" style="stroke:#181818;stroke-width:0.5;"/><text fill="#000000" font-family="sans-serif" font-size="14" lengthAdjust="spacing" textLength="24" x="691.9558" y="729.3703">Cut</text></g><g id="elem_Copy"><ellipse cx="703.7722" cy="790.5369" fill="#F1F1F1" rx="36.2722" ry="14.5369" style="stroke:#181818;stroke-width:0.5;"/><text fill="#000000" font-family="sans-serif" font-size="14" lengthAdjust="spacing" textLength="35" x="685.1457" y="793.7741">Copy</text></g><g id="elem_Paste"><ellipse cx="704.1869" cy="854.5634" fill="#F1F1F1" rx="39.1869" ry="14.5634" style="stroke:#181818;stroke-width:0.5;"/><text fill="#000000" font-family="sans-serif" font-size="14" lengthAdjust="spacing" textLength="39" x="682.5666" y="858.0876">Paste</text></g><g id="elem_Add Comment"><ellipse cx="703.8073" cy="921.3615" fill="#F1F1F1" rx="72.3073" ry="16.8615" style="stroke:#181818;stroke-width:0.5;"/><text fill="#000000" font-family="sans-serif" font-size="14" lengthAdjust="spacing" textLength="99" x="651.3073" y="925.109">Add Comment</text></g><g id="elem_Delete"><ellipse cx="703.8913" cy="988.6302" fill="#F1F1F1" rx="44.3913" ry="14.6302" style="stroke:#181818;stroke-width:0.5;"/><text fill="#000000" font-family="sans-serif" font-size="14" lengthAdjust="spacing" textLength="46" x="677.8913" y="992.3777">Delete</text></g><g id="elem_Arrange Horizontally"><ellipse cx="703.9128" cy="1058.4826" fill="#F1F1F1" rx="87.9128" ry="19.9826" style="stroke:#181818;stroke-width:0.5;"/><text fill="#000000" font-family="sans-serif" font-size="14" lengthAdjust="spacing" textLength="137" x="635.4128" y="1061.3292">Arrange Horizontally</text></g><g id="elem_Arrange Vertically"><ellipse cx="703.7839" cy="1132.3568" fill="#F1F1F1" rx="79.7839" ry="18.3568" style="stroke:#181818;stroke-width:0.5;"/><text fill="#000000" font-family="sans-serif" font-size="14" lengthAdjust="spacing" textLength="118" x="643.0356" y="1135.7613">Arrange Vertically</text></g><g id="elem_Actions"><ellipse cx="704.1224" cy="1200.6723" fill="#F1F1F1" rx="48.1224" ry="14.6723" style="stroke:#181818;stroke-width:0.5;"/><text fill="#000000" font-family="sans-serif" font-size="14" lengthAdjust="spacing" textLength="51" x="675.6224" y="1204.4198">Actions</text></g><g id="elem_Events"><ellipse cx="704.1374" cy="1264.6391" fill="#F1F1F1" rx="45.1374" ry="14.6391" style="stroke:#181818;stroke-width:0.5;"/><text fill="#000000" font-family="sans-serif" font-size="14" lengthAdjust="spacing" textLength="47" x="677.6374" y="1268.3867">Events</text></g><g id="elem_Global"><ellipse cx="704.1531" cy="1328.6013" fill="#F1F1F1" rx="42.1531" ry="14.6013" style="stroke:#181818;stroke-width:0.5;"/><text fill="#000000" font-family="sans-serif" font-size="14" lengthAdjust="spacing" textLength="43" x="679.6531" y="1332.3489">Global</text></g><g id="elem_Node"><ellipse cx="704.2231" cy="1392.5485" fill="#F1F1F1" rx="37.7231" ry="14.5485" style="stroke:#181818;stroke-width:0.5;"/><text fill="#000000" font-family="sans-serif" font-size="14" lengthAdjust="spacing" textLength="37" x="684.1116" y="1395.9312">Node</text></g><g id="elem_Line"><ellipse cx="703.7843" cy="1456.5236" fill="#F1F1F1" rx="31.2843" ry="14.5236" style="stroke:#181818;stroke-width:0.5;"/><text fill="#000000" font-family="sans-serif" font-size="14" lengthAdjust="spacing" textLength="28" x="689.7843" y="1459.3703">Line</text></g><g id="elem_WORKFLOW PROPERTIES"><ellipse cx="704.0329" cy="1529.3066" fill="#F1F1F1" rx="104.5329" ry="23.3066" style="stroke:#181818;stroke-width:0.5;"/><text fill="#000000" font-family="sans-serif" font-size="14" lengthAdjust="spacing" textLength="174" x="617.0329" y="1532.1533">WORKFLOW PROPERTIES</text></g><g id="elem_NODE PROPERTIES"><ellipse cx="704.1635" cy="1607.6327" fill="#F1F1F1" rx="86.1635" ry="19.6327" style="stroke:#181818;stroke-width:0.5;"/><text fill="#000000" font-family="sans-serif" font-size="14" lengthAdjust="spacing" textLength="133" x="637.6635" y="1610.4794">NODE PROPERTIES</text></g><g id="link_User_Workflow Editor"><path d="M38.2083,1400.242 C57.3592,1394.879 91.2698,1385.384 120.286,1377.26 " fill="none" id="User-to-Workflow Editor" style="stroke:#181818;stroke-width:1.0;"/><polygon fill="#181818" points="125.269,1375.865,115.5236,1374.4409,120.4543,1377.2137,117.6815,1382.1444,125.269,1375.865" style="stroke:#181818;stroke-width:1.0;"/></g><g id="link_User_New Workflow"><path d="M38.2083,1407.237 C55.5973,1410.368 85.155,1415.688 112.168,1420.55 " fill="none" id="User-to-New Workflow" style="stroke:#181818;stroke-width:1.0;"/><polygon fill="#181818" points="117.179,1421.452,109.0298,1415.9211,112.2581,1420.5664,107.6128,1423.7946,117.179,1421.452" style="stroke:#181818;stroke-width:1.0;"/></g><g id="link_Workflow Editor_Toolbar"><path d="M182.624,1339.722 C220.13,1227.661 384.484,736.614 415.085,645.184 " fill="none" id="Workflow Editor-backto-Toolbar" style="stroke:#181818;stroke-width:1.0;stroke-dasharray:7.0,7.0;"/><polygon fill="#181818" points="180.935,1344.768,187.585,1337.5032,182.5221,1340.0266,179.9987,1334.9637,180.935,1344.768" style="stroke:#181818;stroke-width:1.0;"/><text fill="#000000" font-family="sans-serif" font-size="13" lengthAdjust="spacing" textLength="61" x="280" y="862.5669">«include»</text></g><g id="link_Workflow Editor_Palette"><path d="M228.542,1348.076 C276.3,1335.211 344.797,1316.759 385.602,1305.767 " fill="none" id="Workflow Editor-backto-Palette" style="stroke:#181818;stroke-width:1.0;stroke-dasharray:7.0,7.0;"/><polygon fill="#181818" points="223.697,1349.382,233.4274,1350.9047,228.5251,1348.0821,231.3476,1343.1798,223.697,1349.382" style="stroke:#181818;stroke-width:1.0;"/><text fill="#000000" font-family="sans-serif" font-size="13" lengthAdjust="spacing" textLength="61" x="280" y="1313.5669">«include»</text></g><g id="link_Workflow Editor_Canvas"><path d="M223.113,1378.13 C240.525,1383.071 260.464,1387.915 279,1390.5 C310.4,1394.88 346.113,1395.34 373.74,1394.726 " fill="none" id="Workflow Editor-backto-Canvas" style="stroke:#181818;stroke-width:1.0;stroke-dasharray:7.0,7.0;"/><polygon fill="#181818" points="218.272,1376.735,225.8127,1383.0705,223.0765,1378.1194,228.0276,1375.3832,218.272,1376.735" style="stroke:#181818;stroke-width:1.0;"/><text fill="#000000" font-family="sans-serif" font-size="13" lengthAdjust="spacing" textLength="61" x="280" y="1386.5669">«include»</text></g><g id="link_Workflow Editor_Panel"><path d="M215.866,1379.904 C226.875,1385.106 238.608,1391.134 249,1397.5 C257.195,1402.52 361.919,1484.145 403.32,1516.469 " fill="none" id="Workflow Editor-backto-Panel" style="stroke:#181818;stroke-width:1.0;stroke-dasharray:7.0,7.0;"/><polygon fill="#181818" points="211.198,1377.726,217.6626,1385.1563,215.7291,1379.8401,221.0452,1377.9066,211.198,1377.726" style="stroke:#181818;stroke-width:1.0;"/><text fill="#000000" font-family="sans-serif" font-size="13" lengthAdjust="spacing" textLength="61" x="280" y="1417.5669">«include»</text></g><g id="link_Toolbar_Open Pipeline"><path d="M422.444,610.83 C424.742,524.87 437.718,182.84 500,99.5 C532.379,56.17 592.244,37.22 638.606,28.94 " fill="none" id="Toolbar-backto-Open Pipeline" style="stroke:#181818;stroke-width:1.0;stroke-dasharray:7.0,7.0;"/><polygon fill="#181818" points="422.313,615.89,426.5431,606.9958,422.4416,610.8917,418.5457,606.7901,422.313,615.89" style="stroke:#181818;stroke-width:1.0;"/><text fill="#000000" font-family="sans-serif" font-size="13" lengthAdjust="spacing" textLength="61" x="501" y="49.5669">«include»</text></g><g id="link_Toolbar_Run Workflow"><path d="M423.031,610.29 C427.425,531.1 446.857,242.89 500,171.5 C532.966,127.21 594.035,107.1 640.612,97.99 " fill="none" id="Toolbar-backto-Run Workflow" style="stroke:#181818;stroke-width:1.0;stroke-dasharray:7.0,7.0;"/><polygon fill="#181818" points="422.74,615.62,427.2227,606.8504,423.0114,610.6274,419.2344,606.4161,422.74,615.62" style="stroke:#181818;stroke-width:1.0;"/><text fill="#000000" font-family="sans-serif" font-size="13" lengthAdjust="spacing" textLength="61" x="501" y="120.5669">«include»</text></g><g id="link_Toolbar_Save Workflow"><path d="M423.794,610.89 C430.511,541.02 456.067,305.18 500,245.5 C533.354,200.19 595.338,178.56 642.074,168.35 " fill="none" id="Toolbar-backto-Save Workflow" style="stroke:#181818;stroke-width:1.0;stroke-dasharray:7.0,7.0;"/><polygon fill="#181818" points="423.307,616.01,428.1376,607.4272,423.7783,611.0323,420.1732,606.673,423.307,616.01" style="stroke:#181818;stroke-width:1.0;"/><text fill="#000000" font-family="sans-serif" font-size="13" lengthAdjust="spacing" textLength="61" x="501" y="192.5669">«include»</text></g><g id="link_Toolbar_Export Workflow"><path d="M421.864,610.72 C422.483,557.93 430.739,411.52 500,319.5 C534.081,274.22 595.957,251.27 642.469,239.93 " fill="none" id="Toolbar-backto-Export Workflow" style="stroke:#181818;stroke-width:1.0;stroke-dasharray:7.0,7.0;"/><polygon fill="#181818" points="421.825,615.82,425.8764,606.843,421.8536,610.8201,417.8765,606.7973,421.825,615.82" style="stroke:#181818;stroke-width:1.0;"/><text fill="#000000" font-family="sans-serif" font-size="13" lengthAdjust="spacing" textLength="61" x="501" y="266.5669">«include»</text></g><g id="link_Toolbar_Clear Workflow"><path d="M424.064,610.7 C429.469,567.34 447.453,462.41 500,394.5 C536.313,347.57 601.399,322.84 648.092,310.51 " fill="none" id="Toolbar-backto-Clear Workflow" style="stroke:#181818;stroke-width:1.0;stroke-dasharray:7.0,7.0;"/><polygon fill="#181818" points="423.438,615.92,428.489,607.465,424.038,610.9561,420.5468,606.5051,423.438,615.92" style="stroke:#181818;stroke-width:1.0;"/><text fill="#000000" font-family="sans-serif" font-size="13" lengthAdjust="spacing" textLength="61" x="501" y="340.5669">«include»</text></g><g id="link_Toolbar_Open Runtimes"><path d="M428.251,610.83 C439.041,579.11 463.565,515.84 500,472.5 C532.948,433.3 547.341,427.68 593,404.5 C611.228,395.25 632.393,387.81 651.261,382.21 " fill="none" id="Toolbar-backto-Open Runtimes" style="stroke:#181818;stroke-width:1.0;stroke-dasharray:7.0,7.0;"/><polygon fill="#181818" points="426.637,615.64,433.3053,608.392,428.2361,610.9026,425.7255,605.8334,426.637,615.64" style="stroke:#181818;stroke-width:1.0;"/><text fill="#000000" font-family="sans-serif" font-size="13" lengthAdjust="spacing" textLength="61" x="501" y="415.5669">«include»</text></g><g id="link_Toolbar_Open Runtime Images"><path d="M435.665,611.99 C450.271,592.95 474.757,563.12 500,541.5 C537.177,509.66 548.988,503.92 593,482.5 C609.943,474.25 629.093,466.85 646.61,460.77 " fill="none" id="Toolbar-backto-Open Runtime Images" style="stroke:#181818;stroke-width:1.0;stroke-dasharray:7.0,7.0;"/><polygon fill="#181818" points="432.524,616.11,441.1581,611.3715,435.5525,612.1315,434.7925,606.526,432.524,616.11" style="stroke:#181818;stroke-width:1.0;"/><text fill="#000000" font-family="sans-serif" font-size="13" lengthAdjust="spacing" textLength="61" x="501" y="493.5669">«include»</text></g><g id="link_Toolbar_Open Component Catalogs"><path d="M448.494,615.1 C463.335,606.85 482.355,596.9 500,589.5 C543.344,571.33 593.642,555.19 633.328,543.54 " fill="none" id="Toolbar-backto-Open Component Catalogs" style="stroke:#181818;stroke-width:1.0;stroke-dasharray:7.0,7.0;"/><polygon fill="#181818" points="444.029,617.6,453.8355,616.6877,448.3903,615.1548,449.9232,609.7096,444.029,617.6" style="stroke:#181818;stroke-width:1.0;"/><text fill="#000000" font-family="sans-serif" font-size="13" lengthAdjust="spacing" textLength="61" x="501" y="562.5669">«include»</text></g><g id="link_Toolbar_undo"><path d="M472.166,624.79 C528.64,618.36 618.919,608.08 668.172,602.47 " fill="none" id="Toolbar-backto-undo" style="stroke:#181818;stroke-width:1.0;stroke-dasharray:7.0,7.0;"/><polygon fill="#181818" points="467.148,625.36,476.5425,628.3168,472.1159,624.7947,475.638,620.3681,467.148,625.36" style="stroke:#181818;stroke-width:1.0;"/><text fill="#000000" font-family="sans-serif" font-size="13" lengthAdjust="spacing" textLength="61" x="501" y="610.5669">«include»</text></g><g id="link_Toolbar_Redo"><path d="M466.147,639.838 C477.166,641.934 488.983,643.984 500,645.5 C557.985,653.48 625.839,658.247 666.568,660.62 " fill="none" id="Toolbar-backto-Redo" style="stroke:#181818;stroke-width:1.0;stroke-dasharray:7.0,7.0;"/><polygon fill="#181818" points="461.146,638.873,469.2251,644.5057,466.0554,639.8203,470.7408,636.6506,461.146,638.873" style="stroke:#181818;stroke-width:1.0;"/><text fill="#000000" font-family="sans-serif" font-size="13" lengthAdjust="spacing" textLength="61" x="501" y="641.5669">«include»</text></g><g id="link_Toolbar_Cut"><path d="M445.171,647.043 C460.188,657.099 480.516,669.501 500,677.5 C560.537,702.354 636.626,716.52 676.241,722.713 " fill="none" id="Toolbar-backto-Cut" style="stroke:#181818;stroke-width:1.0;stroke-dasharray:7.0,7.0;"/><polygon fill="#181818" points="440.687,644.005,445.8939,652.3649,444.8263,646.8097,450.3814,645.7421,440.687,644.005" style="stroke:#181818;stroke-width:1.0;"/><text fill="#000000" font-family="sans-serif" font-size="13" lengthAdjust="spacing" textLength="61" x="501" y="673.5669">«include»</text></g><g id="link_Toolbar_Copy"><path d="M433.769,649.336 C447.441,669.849 471.766,702.409 500,722.5 C552.542,759.887 627.108,777.831 669.711,785.514 " fill="none" id="Toolbar-backto-Copy" style="stroke:#181818;stroke-width:1.0;stroke-dasharray:7.0,7.0;"/><polygon fill="#181818" points="430.853,644.899,432.4563,654.6165,433.6004,649.0765,439.1403,650.2206,430.853,644.899" style="stroke:#181818;stroke-width:1.0;"/><text fill="#000000" font-family="sans-serif" font-size="13" lengthAdjust="spacing" textLength="61" x="501" y="718.5669">«include»</text></g><g id="link_Toolbar_Paste"><path d="M427.751,650.267 C437.732,681.467 461.017,742.389 500,779.5 C546.805,824.058 622.353,842.597 666.892,849.967 " fill="none" id="Toolbar-backto-Paste" style="stroke:#181818;stroke-width:1.0;stroke-dasharray:7.0,7.0;"/><polygon fill="#181818" points="426.151,645.161,425.0262,654.9454,427.6466,649.9321,432.6599,652.5525,426.151,645.161" style="stroke:#181818;stroke-width:1.0;"/><text fill="#000000" font-family="sans-serif" font-size="13" lengthAdjust="spacing" textLength="61" x="501" y="775.5669">«include»</text></g><g id="link_Toolbar_Add Comment"><path d="M424.24,650.211 C429.84,690.995 447.952,785.58 500,842.5 C536.877,882.828 596.8,902.8 642.004,912.546 " fill="none" id="Toolbar-backto-Add Comment" style="stroke:#181818;stroke-width:1.0;stroke-dasharray:7.0,7.0;"/><polygon fill="#181818" points="423.559,645.051,420.7711,654.497,424.2133,650.008,428.7023,653.4502,423.559,645.051" style="stroke:#181818;stroke-width:1.0;"/><text fill="#000000" font-family="sans-serif" font-size="13" lengthAdjust="spacing" textLength="61" x="501" y="838.5669">«include»</text></g><g id="link_Toolbar_Delete"><path d="M422.209,650.251 C423.742,699.784 434.173,830.996 500,910.5 C540.211,959.065 614.346,977.461 661.033,984.382 " fill="none" id="Toolbar-backto-Delete" style="stroke:#181818;stroke-width:1.0;stroke-dasharray:7.0,7.0;"/><polygon fill="#181818" points="422.074,645.169,418.3145,654.2721,422.2068,650.1672,426.3117,654.0595,422.074,645.169" style="stroke:#181818;stroke-width:1.0;"/><text fill="#000000" font-family="sans-serif" font-size="13" lengthAdjust="spacing" textLength="61" x="501" y="906.5669">«include»</text></g><g id="link_Toolbar_Arrange Horizontally"><path d="M424.106,650.56 C431.424,716.903 457.642,927.94 500,979.5 C531.688,1018.072 584.669,1037.871 628.56,1048 " fill="none" id="Toolbar-backto-Arrange Horizontally" style="stroke:#181818;stroke-width:1.0;stroke-dasharray:7.0,7.0;"/><polygon fill="#181818" points="423.533,645.314,420.5339,654.6951,424.0759,650.2844,428.4866,653.8265,423.533,645.314" style="stroke:#181818;stroke-width:1.0;"/><text fill="#000000" font-family="sans-serif" font-size="13" lengthAdjust="spacing" textLength="61" x="501" y="975.5669">«include»</text></g><g id="link_Toolbar_Arrange Vertically"><path d="M423.39,650.42 C428.918,724.722 451.445,984.754 500,1049.5 C531.867,1091.993 589.283,1112.822 634.94,1122.978 " fill="none" id="Toolbar-backto-Arrange Vertically" style="stroke:#181818;stroke-width:1.0;stroke-dasharray:7.0,7.0;"/><polygon fill="#181818" points="423.021,645.396,419.6901,654.6645,423.3868,650.3826,427.6687,654.0793,423.021,645.396" style="stroke:#181818;stroke-width:1.0;"/><text fill="#000000" font-family="sans-serif" font-size="13" lengthAdjust="spacing" textLength="61" x="501" y="1045.5669">«include»</text></g><g id="link_Palette_Actions"><path d="M447.725,1281.146 C462.616,1272.729 481.934,1262.596 500,1255.5 C555.227,1233.808 622.136,1217.494 663.644,1208.47 " fill="none" id="Palette-backto-Actions" style="stroke:#181818;stroke-width:1.0;stroke-dasharray:7.0,7.0;"/><polygon fill="#181818" points="443.252,1283.697,453.0515,1282.7124,447.5951,1281.2197,449.0878,1275.7633,443.252,1283.697" style="stroke:#181818;stroke-width:1.0;"/><text fill="#000000" font-family="sans-serif" font-size="13" lengthAdjust="spacing" textLength="61" x="501" y="1230.5669">«include»</text></g><g id="link_Palette_Events"><path d="M469.779,1291.059 C523.575,1284.933 610.133,1275.076 661.299,1269.249 " fill="none" id="Palette-backto-Events" style="stroke:#181818;stroke-width:1.0;stroke-dasharray:7.0,7.0;"/><polygon fill="#181818" points="464.678,1291.64,474.0727,1294.5962,469.6459,1291.0744,473.1677,1286.6475,464.678,1291.64" style="stroke:#181818;stroke-width:1.0;"/><text fill="#000000" font-family="sans-serif" font-size="13" lengthAdjust="spacing" textLength="61" x="501" y="1276.5669">«include»</text></g><g id="link_Palette_Global"><path d="M464.729,1305.567 C476.148,1307.757 488.509,1309.918 500,1311.5 C556.058,1319.215 621.34,1323.927 662.419,1326.376 " fill="none" id="Palette-backto-Global" style="stroke:#181818;stroke-width:1.0;stroke-dasharray:7.0,7.0;"/><polygon fill="#181818" points="459.556,1304.561,467.6269,1310.2055,464.4641,1305.5155,469.1541,1302.3526,459.556,1304.561" style="stroke:#181818;stroke-width:1.0;"/><text fill="#000000" font-family="sans-serif" font-size="13" lengthAdjust="spacing" textLength="61" x="501" y="1307.5669">«include»</text></g><g id="link_Canvas_Node"><path d="M474.029,1392.5 C529.958,1392.5 617.421,1392.5 666.478,1392.5 " fill="none" id="Canvas-backto-Node" style="stroke:#181818;stroke-width:1.0;stroke-dasharray:7.0,7.0;"/><polygon fill="#181818" points="468.717,1392.5,477.717,1396.5,473.717,1392.5,477.717,1388.5,468.717,1392.5" style="stroke:#181818;stroke-width:1.0;"/><text fill="#000000" font-family="sans-serif" font-size="13" lengthAdjust="spacing" textLength="61" x="501" y="1388.5669">«include»</text></g><g id="link_Canvas_Line"><path d="M457.645,1404.921 C470.849,1409.257 486.011,1413.928 500,1417.5 C561.199,1433.126 634.198,1445.7 673.847,1452.032 " fill="none" id="Canvas-backto-Line" style="stroke:#181818;stroke-width:1.0;stroke-dasharray:7.0,7.0;"/><polygon fill="#181818" points="452.875,1403.341,460.1614,1409.9673,457.6216,1404.9127,462.6762,1402.3728,452.875,1403.341" style="stroke:#181818;stroke-width:1.0;"/><text fill="#000000" font-family="sans-serif" font-size="13" lengthAdjust="spacing" textLength="61" x="501" y="1413.5669">«include»</text></g><g id="link_Panel_WORKFLOW PROPERTIES"><path d="M464.748,1529.5 C500.439,1529.5 552.815,1529.5 599.377,1529.5 " fill="none" id="Panel-backto-WORKFLOW PROPERTIES" style="stroke:#181818;stroke-width:1.0;stroke-dasharray:7.0,7.0;"/><polygon fill="#181818" points="459.605,1529.5,468.605,1533.5,464.605,1529.5,468.605,1525.5,459.605,1529.5" style="stroke:#181818;stroke-width:1.0;"/><text fill="#000000" font-family="sans-serif" font-size="13" lengthAdjust="spacing" textLength="61" x="501" y="1525.5669">«include»</text></g><g id="link_Panel_NODE PROPERTIES"><path d="M455.369,1540.6384 C469.136,1545.118 485.284,1550.2241 500,1554.5 C548.619,1568.6269 604.288,1583.038 645.018,1593.26 " fill="none" id="Panel-backto-NODE PROPERTIES" style="stroke:#181818;stroke-width:1.0;stroke-dasharray:7.0,7.0;"/><polygon fill="#181818" points="450.411,1539.019,457.7255,1545.6143,455.1642,1540.5705,460.208,1538.0092,450.411,1539.019" style="stroke:#181818;stroke-width:1.0;"/><text fill="#000000" font-family="sans-serif" font-size="13" lengthAdjust="spacing" textLength="61" x="501" y="1550.5669">«include»</text></g></g></svg>