<?xml version="1.0" encoding="UTF-8" standalone="no"?><svg xmlns="http://www.w3.org/2000/svg" xmlns:xlink="http://www.w3.org/1999/xlink" contentStyleType="text/css" height="2505px" preserveAspectRatio="none" style="width:1248px;height:2505px;background:#FFFFFF;" version="1.1" viewBox="0 0 1248 2505" width="1248px" zoomAndPan="magnify"><defs/><g><rect fill="#FFFFFF" height="2323.9766" style="stroke:#181818;stroke-width:1.0;" width="10" x="395" y="91.2969"/><rect fill="#FFFFFF" height="171.6641" style="stroke:#181818;stroke-width:1.0;" width="10" x="620" y="165.6953"/><rect fill="#FFFFFF" height="171.6641" style="stroke:#181818;stroke-width:1.0;" width="10" x="620" y="501.7578"/><rect fill="#FFFFFF" height="411.3984" style="stroke:#181818;stroke-width:1.0;" width="10" x="620" y="731.6875"/><rect fill="#FFFFFF" height="272.0625" style="stroke:#181818;stroke-width:1.0;" width="10" x="620" y="1314.4844"/><rect fill="#FFFFFF" height="171.6641" style="stroke:#181818;stroke-width:1.0;" width="10" x="620" y="1750.9453"/><rect fill="#FFFFFF" height="411.3984" style="stroke:#181818;stroke-width:1.0;" width="10" x="620" y="1980.875"/><rect fill="#FFFFFF" height="71.2656" style="stroke:#181818;stroke-width:1.0;" width="10" x="931" y="194.8281"/><rect fill="#FFFFFF" height="71.2656" style="stroke:#181818;stroke-width:1.0;" width="10" x="931" y="530.8906"/><rect fill="#FFFFFF" height="353.1328" style="stroke:#181818;stroke-width:1.0;" width="10" x="931" y="760.8203"/><rect fill="#FFFFFF" height="71.2656" style="stroke:#181818;stroke-width:1.0;" width="10" x="936" y="927.4844"/><rect fill="#FFFFFF" height="71.2656" style="stroke:#181818;stroke-width:1.0;" width="10" x="931" y="1343.6172"/><rect fill="#FFFFFF" height="71.2656" style="stroke:#181818;stroke-width:1.0;" width="10" x="931" y="1444.0156"/><rect fill="#FFFFFF" height="71.2656" style="stroke:#181818;stroke-width:1.0;" width="10" x="931" y="1780.0781"/><rect fill="#FFFFFF" height="353.1328" style="stroke:#181818;stroke-width:1.0;" width="10" x="931" y="2010.0078"/><rect fill="#FFFFFF" height="71.2656" style="stroke:#181818;stroke-width:1.0;" width="10" x="936" y="2176.6719"/><rect fill="none" height="247.0625" style="stroke:#000000;stroke-width:1.5;" width="1130" x="10" y="98.2969"/><rect fill="none" height="723.7266" style="stroke:#000000;stroke-width:1.5;" width="1154" x="10" y="434.3594"/><rect fill="none" height="333.1328" style="stroke:#000000;stroke-width:1.5;" width="815" x="339" y="817.9531"/><rect fill="none" height="347.4609" style="stroke:#000000;stroke-width:1.5;" width="1130" x="10" y="1247.0859"/><rect fill="none" height="723.7266" style="stroke:#000000;stroke-width:1.5;" width="1232" x="10" y="1683.5469"/><rect fill="none" height="333.1328" style="stroke:#000000;stroke-width:1.5;" width="815" x="339" y="2067.1406"/><line style="stroke:#181818;stroke-width:0.5;stroke-dasharray:5.0,5.0;" x1="39" x2="39" y1="81.2969" y2="2424.2734"/><line style="stroke:#181818;stroke-width:0.5;stroke-dasharray:5.0,5.0;" x1="400" x2="400" y1="81.2969" y2="2424.2734"/><line style="stroke:#181818;stroke-width:0.5;stroke-dasharray:5.0,5.0;" x1="624.5" x2="624.5" y1="81.2969" y2="2424.2734"/><line style="stroke:#181818;stroke-width:0.5;stroke-dasharray:5.0,5.0;" x1="935.5" x2="935.5" y1="81.2969" y2="2424.2734"/><text fill="#000000" font-family="sans-serif" font-size="14" lengthAdjust="spacing" textLength="32" x="20" y="77.9951">User</text><ellipse cx="39" cy="13.5" fill="#E2E2F0" rx="8" ry="8" style="stroke:#181818;stroke-width:0.5;"/><path d="M39,21.5 L39,48.5 M26,29.5 L52,29.5 M39,48.5 L26,63.5 M39,48.5 L52,63.5 " fill="none" style="stroke:#181818;stroke-width:0.5;"/><text fill="#000000" font-family="sans-serif" font-size="14" lengthAdjust="spacing" textLength="32" x="20" y="2436.2686">User</text><ellipse cx="39" cy="2448.0703" fill="#E2E2F0" rx="8" ry="8" style="stroke:#181818;stroke-width:0.5;"/><path d="M39,2456.0703 L39,2483.0703 M26,2464.0703 L52,2464.0703 M39,2483.0703 L26,2498.0703 M39,2483.0703 L52,2498.0703 " fill="none" style="stroke:#181818;stroke-width:0.5;"/><rect fill="#E2E2F0" height="30.2969" rx="2.5" ry="2.5" style="stroke:#181818;stroke-width:0.5;" width="102" x="349" y="50"/><text fill="#000000" font-family="sans-serif" font-size="14" lengthAdjust="spacing" textLength="88" x="356" y="69.9951">JupyterLab UI</text><rect fill="#E2E2F0" height="30.2969" rx="2.5" ry="2.5" style="stroke:#181818;stroke-width:0.5;" width="102" x="349" y="2423.2734"/><text fill="#000000" font-family="sans-serif" font-size="14" lengthAdjust="spacing" textLength="88" x="356" y="2443.2686">JupyterLab UI</text><rect fill="#E2E2F0" height="30.2969" rx="2.5" ry="2.5" style="stroke:#181818;stroke-width:0.5;" width="153" x="548.5" y="50"/><text fill="#000000" font-family="sans-serif" font-size="14" lengthAdjust="spacing" textLength="139" x="555.5" y="69.9951">JupyterLab front-end</text><rect fill="#E2E2F0" height="30.2969" rx="2.5" ry="2.5" style="stroke:#181818;stroke-width:0.5;" width="153" x="548.5" y="2423.2734"/><text fill="#000000" font-family="sans-serif" font-size="14" lengthAdjust="spacing" textLength="139" x="555.5" y="2443.2686">JupyterLab front-end</text><rect fill="#E2E2F0" height="30.2969" rx="2.5" ry="2.5" style="stroke:#181818;stroke-width:0.5;" width="133" x="869.5" y="50"/><text fill="#000000" font-family="sans-serif" font-size="14" lengthAdjust="spacing" textLength="119" x="876.5" y="69.9951">JupyterLab Server</text><rect fill="#E2E2F0" height="30.2969" rx="2.5" ry="2.5" style="stroke:#181818;stroke-width:0.5;" width="133" x="869.5" y="2423.2734"/><text fill="#000000" font-family="sans-serif" font-size="14" lengthAdjust="spacing" textLength="119" x="876.5" y="2443.2686">JupyterLab Server</text><rect fill="#FFFFFF" height="2323.9766" style="stroke:#181818;stroke-width:1.0;" width="10" x="395" y="91.2969"/><rect fill="#FFFFFF" height="171.6641" style="stroke:#181818;stroke-width:1.0;" width="10" x="620" y="165.6953"/><rect fill="#FFFFFF" height="171.6641" style="stroke:#181818;stroke-width:1.0;" width="10" x="620" y="501.7578"/><rect fill="#FFFFFF" height="411.3984" style="stroke:#181818;stroke-width:1.0;" width="10" x="620" y="731.6875"/><rect fill="#FFFFFF" height="272.0625" style="stroke:#181818;stroke-width:1.0;" width="10" x="620" y="1314.4844"/><rect fill="#FFFFFF" height="171.6641" style="stroke:#181818;stroke-width:1.0;" width="10" x="620" y="1750.9453"/><rect fill="#FFFFFF" height="411.3984" style="stroke:#181818;stroke-width:1.0;" width="10" x="620" y="1980.875"/><rect fill="#FFFFFF" height="71.2656" style="stroke:#181818;stroke-width:1.0;" width="10" x="931" y="194.8281"/><rect fill="#FFFFFF" height="71.2656" style="stroke:#181818;stroke-width:1.0;" width="10" x="931" y="530.8906"/><rect fill="#FFFFFF" height="353.1328" style="stroke:#181818;stroke-width:1.0;" width="10" x="931" y="760.8203"/><rect fill="#FFFFFF" height="71.2656" style="stroke:#181818;stroke-width:1.0;" width="10" x="936" y="927.4844"/><rect fill="#FFFFFF" height="71.2656" style="stroke:#181818;stroke-width:1.0;" width="10" x="931" y="1343.6172"/><rect fill="#FFFFFF" height="71.2656" style="stroke:#181818;stroke-width:1.0;" width="10" x="931" y="1444.0156"/><rect fill="#FFFFFF" height="71.2656" style="stroke:#181818;stroke-width:1.0;" width="10" x="931" y="1780.0781"/><rect fill="#FFFFFF" height="353.1328" style="stroke:#181818;stroke-width:1.0;" width="10" x="931" y="2010.0078"/><rect fill="#FFFFFF" height="71.2656" style="stroke:#181818;stroke-width:1.0;" width="10" x="936" y="2176.6719"/><path d="M10,98.2969 L194,98.2969 L194,105.4297 L184,115.4297 L10,115.4297 L10,98.2969 " fill="#EEEEEE" style="stroke:#000000;stroke-width:1.5;"/><rect fill="none" height="247.0625" style="stroke:#000000;stroke-width:1.5;" width="1130" x="10" y="98.2969"/><text fill="#000000" font-family="sans-serif" font-size="13" font-weight="bold" lengthAdjust="spacing" textLength="139" x="25" y="111.3638">打开Runtimes选项卡</text><polygon fill="#181818" points="383,132.5625,393,136.5625,383,140.5625,387,136.5625" style="stroke:#181818;stroke-width:1.0;"/><line style="stroke:#181818;stroke-width:1.0;" x1="39" x2="389" y1="136.5625" y2="136.5625"/><text fill="#000000" font-family="sans-serif" font-size="13" font-weight="bold" lengthAdjust="spacing" textLength="23" x="46" y="131.4966">1.1</text><text fill="#000000" font-family="sans-serif" font-size="13" lengthAdjust="spacing" textLength="125" x="73" y="131.4966">打开Runtimes选项卡</text><polygon fill="#181818" points="608,161.6953,618,165.6953,608,169.6953,612,165.6953" style="stroke:#181818;stroke-width:1.0;"/><line style="stroke:#181818;stroke-width:1.0;" x1="405" x2="614" y1="165.6953" y2="165.6953"/><text fill="#000000" font-family="sans-serif" font-size="13" font-weight="bold" lengthAdjust="spacing" textLength="23" x="412" y="160.6294">1.2</text><text fill="#000000" font-family="sans-serif" font-size="13" lengthAdjust="spacing" textLength="138" x="439" y="160.6294">获取Runtimes页面信息</text><line style="stroke:#181818;stroke-width:1.0;" x1="929" x2="919" y1="194.8281" y2="190.8281"/><line style="stroke:#181818;stroke-width:1.0;" x1="929" x2="919" y1="194.8281" y2="198.8281"/><line style="stroke:#181818;stroke-width:1.0;" x1="630" x2="930" y1="194.8281" y2="194.8281"/><text fill="#000000" font-family="sans-serif" font-size="13" font-weight="bold" lengthAdjust="spacing" textLength="23" x="637" y="189.7622">1.3</text><text fill="#000000" font-family="sans-serif" font-size="13" lengthAdjust="spacing" textLength="153" x="664" y="189.7622">请求Runtimes metadata</text><line style="stroke:#181818;stroke-width:1.0;" x1="941" x2="983" y1="223.9609" y2="223.9609"/><line style="stroke:#181818;stroke-width:1.0;" x1="983" x2="983" y1="223.9609" y2="236.9609"/><line style="stroke:#181818;stroke-width:1.0;" x1="942" x2="983" y1="236.9609" y2="236.9609"/><polygon fill="#181818" points="952,232.9609,942,236.9609,952,240.9609,948,236.9609" style="stroke:#181818;stroke-width:1.0;"/><text fill="#000000" font-family="sans-serif" font-size="13" font-weight="bold" lengthAdjust="spacing" textLength="23" x="948" y="218.895">1.4</text><text fill="#000000" font-family="sans-serif" font-size="13" lengthAdjust="spacing" textLength="153" x="975" y="218.895">查询Runtimes metadata</text><line style="stroke:#181818;stroke-width:1.0;" x1="631" x2="641" y1="266.0938" y2="262.0938"/><line style="stroke:#181818;stroke-width:1.0;" x1="631" x2="641" y1="266.0938" y2="270.0938"/><line style="stroke:#181818;stroke-width:1.0;stroke-dasharray:2.0,2.0;" x1="630" x2="935" y1="266.0938" y2="266.0938"/><text fill="#000000" font-family="sans-serif" font-size="13" font-weight="bold" lengthAdjust="spacing" textLength="23" x="647" y="261.0278">1.5</text><text fill="#000000" font-family="sans-serif" font-size="13" lengthAdjust="spacing" textLength="127" x="674" y="261.0278">Runtimes metadata</text><line style="stroke:#181818;stroke-width:1.0;" x1="630" x2="672" y1="295.2266" y2="295.2266"/><line style="stroke:#181818;stroke-width:1.0;" x1="672" x2="672" y1="295.2266" y2="308.2266"/><line style="stroke:#181818;stroke-width:1.0;" x1="631" x2="672" y1="308.2266" y2="308.2266"/><polygon fill="#181818" points="641,304.2266,631,308.2266,641,312.2266,637,308.2266" style="stroke:#181818;stroke-width:1.0;"/><text fill="#000000" font-family="sans-serif" font-size="13" font-weight="bold" lengthAdjust="spacing" textLength="23" x="637" y="290.1606">1.6</text><text fill="#000000" font-family="sans-serif" font-size="13" lengthAdjust="spacing" textLength="112" x="664" y="290.1606">渲染Runtimes页面</text><polygon fill="#181818" points="416,333.3594,406,337.3594,416,341.3594,412,337.3594" style="stroke:#181818;stroke-width:1.0;"/><line style="stroke:#181818;stroke-width:1.0;stroke-dasharray:2.0,2.0;" x1="410" x2="624" y1="337.3594" y2="337.3594"/><text fill="#000000" font-family="sans-serif" font-size="13" font-weight="bold" lengthAdjust="spacing" textLength="23" x="422" y="332.2935">1.7</text><text fill="#000000" font-family="sans-serif" font-size="13" lengthAdjust="spacing" textLength="86" x="449" y="332.2935">Runtimes页面</text><path d="M10,434.3594 L368,434.3594 L368,441.4922 L358,451.4922 L10,451.4922 L10,434.3594 " fill="#EEEEEE" style="stroke:#000000;stroke-width:1.5;"/><rect fill="none" height="723.7266" style="stroke:#000000;stroke-width:1.5;" width="1154" x="10" y="434.3594"/><text fill="#000000" font-family="sans-serif" font-size="13" font-weight="bold" lengthAdjust="spacing" textLength="313" x="25" y="447.4263">添加Kubeflow Pipelines/Workflow运行时配置</text><polygon fill="#181818" points="383,468.625,393,472.625,383,476.625,387,472.625" style="stroke:#181818;stroke-width:1.0;"/><line style="stroke:#181818;stroke-width:1.0;" x1="39" x2="389" y1="472.625" y2="472.625"/><text fill="#000000" font-family="sans-serif" font-size="13" font-weight="bold" lengthAdjust="spacing" textLength="23" x="46" y="467.5591">2.1</text><text fill="#000000" font-family="sans-serif" font-size="13" lengthAdjust="spacing" textLength="266" x="73" y="467.5591">添加Kubeflow Pipelines/Workflow运行时配置</text><polygon fill="#181818" points="608,497.7578,618,501.7578,608,505.7578,612,501.7578" style="stroke:#181818;stroke-width:1.0;"/><line style="stroke:#181818;stroke-width:1.0;" x1="405" x2="614" y1="501.7578" y2="501.7578"/><text fill="#000000" font-family="sans-serif" font-size="13" font-weight="bold" lengthAdjust="spacing" textLength="23" x="412" y="496.6919">2.2</text><text fill="#000000" font-family="sans-serif" font-size="13" lengthAdjust="spacing" textLength="169" x="439" y="496.6919">获取添加运行时配置页面信息</text><line style="stroke:#181818;stroke-width:1.0;" x1="929" x2="919" y1="530.8906" y2="526.8906"/><line style="stroke:#181818;stroke-width:1.0;" x1="929" x2="919" y1="530.8906" y2="534.8906"/><line style="stroke:#181818;stroke-width:1.0;" x1="630" x2="930" y1="530.8906" y2="530.8906"/><text fill="#000000" font-family="sans-serif" font-size="13" font-weight="bold" lengthAdjust="spacing" textLength="23" x="637" y="525.8247">2.3</text><text fill="#000000" font-family="sans-serif" font-size="13" lengthAdjust="spacing" textLength="125" x="664" y="525.8247">请求kfp/wfp schema</text><line style="stroke:#181818;stroke-width:1.0;" x1="941" x2="983" y1="560.0234" y2="560.0234"/><line style="stroke:#181818;stroke-width:1.0;" x1="983" x2="983" y1="560.0234" y2="573.0234"/><line style="stroke:#181818;stroke-width:1.0;" x1="942" x2="983" y1="573.0234" y2="573.0234"/><polygon fill="#181818" points="952,569.0234,942,573.0234,952,577.0234,948,573.0234" style="stroke:#181818;stroke-width:1.0;"/><text fill="#000000" font-family="sans-serif" font-size="13" font-weight="bold" lengthAdjust="spacing" textLength="23" x="948" y="554.9575">2.4</text><text fill="#000000" font-family="sans-serif" font-size="13" lengthAdjust="spacing" textLength="125" x="975" y="554.9575">查询kfp/wfp schema</text><line style="stroke:#181818;stroke-width:1.0;" x1="631" x2="641" y1="602.1563" y2="598.1563"/><line style="stroke:#181818;stroke-width:1.0;" x1="631" x2="641" y1="602.1563" y2="606.1563"/><line style="stroke:#181818;stroke-width:1.0;stroke-dasharray:2.0,2.0;" x1="630" x2="935" y1="602.1563" y2="602.1563"/><text fill="#000000" font-family="sans-serif" font-size="13" font-weight="bold" lengthAdjust="spacing" textLength="23" x="647" y="597.0903">2.5</text><text fill="#000000" font-family="sans-serif" font-size="13" lengthAdjust="spacing" textLength="99" x="674" y="597.0903">kfp/wfp schema</text><line style="stroke:#181818;stroke-width:1.0;" x1="630" x2="672" y1="631.2891" y2="631.2891"/><line style="stroke:#181818;stroke-width:1.0;" x1="672" x2="672" y1="631.2891" y2="644.2891"/><line style="stroke:#181818;stroke-width:1.0;" x1="631" x2="672" y1="644.2891" y2="644.2891"/><polygon fill="#181818" points="641,640.2891,631,644.2891,641,648.2891,637,644.2891" style="stroke:#181818;stroke-width:1.0;"/><text fill="#000000" font-family="sans-serif" font-size="13" font-weight="bold" lengthAdjust="spacing" textLength="23" x="637" y="626.2231">2.6</text><text fill="#000000" font-family="sans-serif" font-size="13" lengthAdjust="spacing" textLength="117" x="664" y="626.2231">渲染运行时配置页面</text><polygon fill="#181818" points="416,669.4219,406,673.4219,416,677.4219,412,673.4219" style="stroke:#181818;stroke-width:1.0;"/><line style="stroke:#181818;stroke-width:1.0;stroke-dasharray:2.0,2.0;" x1="410" x2="624" y1="673.4219" y2="673.4219"/><text fill="#000000" font-family="sans-serif" font-size="13" font-weight="bold" lengthAdjust="spacing" textLength="23" x="422" y="668.356">2.7</text><text fill="#000000" font-family="sans-serif" font-size="13" lengthAdjust="spacing" textLength="117" x="449" y="668.356">添加运行时配置页面</text><polygon fill="#181818" points="383,698.5547,393,702.5547,383,706.5547,387,702.5547" style="stroke:#181818;stroke-width:1.0;"/><line style="stroke:#181818;stroke-width:1.0;" x1="39" x2="389" y1="702.5547" y2="702.5547"/><text fill="#000000" font-family="sans-serif" font-size="13" font-weight="bold" lengthAdjust="spacing" textLength="23" x="46" y="697.4888">2.8</text><text fill="#000000" font-family="sans-serif" font-size="13" lengthAdjust="spacing" textLength="305" x="73" y="697.4888">编辑Kubeflow Pipelines/Workflow运行时配置并保存</text><polygon fill="#181818" points="608,727.6875,618,731.6875,608,735.6875,612,731.6875" style="stroke:#181818;stroke-width:1.0;"/><line style="stroke:#181818;stroke-width:1.0;" x1="405" x2="614" y1="731.6875" y2="731.6875"/><text fill="#000000" font-family="sans-serif" font-size="13" font-weight="bold" lengthAdjust="spacing" textLength="23" x="412" y="726.6216">2.9</text><text fill="#000000" font-family="sans-serif" font-size="13" lengthAdjust="spacing" textLength="91" x="439" y="726.6216">运行时配置信息</text><line style="stroke:#181818;stroke-width:1.0;" x1="929" x2="919" y1="760.8203" y2="756.8203"/><line style="stroke:#181818;stroke-width:1.0;" x1="929" x2="919" y1="760.8203" y2="764.8203"/><line style="stroke:#181818;stroke-width:1.0;" x1="630" x2="930" y1="760.8203" y2="760.8203"/><text fill="#000000" font-family="sans-serif" font-size="13" font-weight="bold" lengthAdjust="spacing" textLength="32" x="637" y="755.7544">2.10</text><text fill="#000000" font-family="sans-serif" font-size="13" lengthAdjust="spacing" textLength="143" x="673" y="755.7544">请求保存运行时配置信息</text><line style="stroke:#181818;stroke-width:1.0;" x1="941" x2="983" y1="789.9531" y2="789.9531"/><line style="stroke:#181818;stroke-width:1.0;" x1="983" x2="983" y1="789.9531" y2="802.9531"/><line style="stroke:#181818;stroke-width:1.0;" x1="942" x2="983" y1="802.9531" y2="802.9531"/><polygon fill="#181818" points="952,798.9531,942,802.9531,952,806.9531,948,802.9531" style="stroke:#181818;stroke-width:1.0;"/><text fill="#000000" font-family="sans-serif" font-size="13" font-weight="bold" lengthAdjust="spacing" textLength="32" x="948" y="784.8872">2.11</text><text fill="#000000" font-family="sans-serif" font-size="13" lengthAdjust="spacing" textLength="117" x="984" y="784.8872">检查运行时配置信息</text><path d="M339,817.9531 L403,817.9531 L403,825.0859 L393,835.0859 L339,835.0859 L339,817.9531 " fill="#EEEEEE" style="stroke:#000000;stroke-width:1.5;"/><rect fill="none" height="333.1328" style="stroke:#000000;stroke-width:1.5;" width="815" x="339" y="817.9531"/><text fill="#000000" font-family="sans-serif" font-size="13" font-weight="bold" lengthAdjust="spacing" textLength="19" x="354" y="831.02">alt</text><text fill="#000000" font-family="sans-serif" font-size="11" font-weight="bold" lengthAdjust="spacing" textLength="61" x="418" y="830.1636">[success]</text><line style="stroke:#181818;stroke-width:1.0;" x1="941" x2="983" y1="856.2188" y2="856.2188"/><line style="stroke:#181818;stroke-width:1.0;" x1="983" x2="983" y1="856.2188" y2="869.2188"/><line style="stroke:#181818;stroke-width:1.0;" x1="942" x2="983" y1="869.2188" y2="869.2188"/><polygon fill="#181818" points="952,865.2188,942,869.2188,952,873.2188,948,869.2188" style="stroke:#181818;stroke-width:1.0;"/><text fill="#000000" font-family="sans-serif" font-size="13" font-weight="bold" lengthAdjust="spacing" textLength="32" x="948" y="851.1528">2.12</text><text fill="#000000" font-family="sans-serif" font-size="13" lengthAdjust="spacing" textLength="117" x="984" y="851.1528">保存运行时配置信息</text><line style="stroke:#181818;stroke-width:1.0;" x1="631" x2="641" y1="898.3516" y2="894.3516"/><line style="stroke:#181818;stroke-width:1.0;" x1="631" x2="641" y1="898.3516" y2="902.3516"/><line style="stroke:#181818;stroke-width:1.0;stroke-dasharray:2.0,2.0;" x1="630" x2="930" y1="898.3516" y2="898.3516"/><text fill="#000000" font-family="sans-serif" font-size="13" font-weight="bold" lengthAdjust="spacing" textLength="32" x="647" y="893.2856">2.13</text><text fill="#000000" font-family="sans-serif" font-size="13" lengthAdjust="spacing" textLength="51" x="683" y="893.2856">success</text><line style="stroke:#181818;stroke-width:1.0;" x1="934" x2="924" y1="927.4844" y2="923.4844"/><line style="stroke:#181818;stroke-width:1.0;" x1="934" x2="924" y1="927.4844" y2="931.4844"/><line style="stroke:#181818;stroke-width:1.0;" x1="630" x2="935" y1="927.4844" y2="927.4844"/><text fill="#000000" font-family="sans-serif" font-size="13" font-weight="bold" lengthAdjust="spacing" textLength="32" x="637" y="922.4185">2.14</text><text fill="#000000" font-family="sans-serif" font-size="13" lengthAdjust="spacing" textLength="179" x="673" y="922.4185">请求更新Runtimes metadata</text><line style="stroke:#181818;stroke-width:1.0;" x1="946" x2="988" y1="956.6172" y2="956.6172"/><line style="stroke:#181818;stroke-width:1.0;" x1="988" x2="988" y1="956.6172" y2="969.6172"/><line style="stroke:#181818;stroke-width:1.0;" x1="947" x2="988" y1="969.6172" y2="969.6172"/><polygon fill="#181818" points="957,965.6172,947,969.6172,957,973.6172,953,969.6172" style="stroke:#181818;stroke-width:1.0;"/><text fill="#000000" font-family="sans-serif" font-size="13" font-weight="bold" lengthAdjust="spacing" textLength="32" x="953" y="951.5513">2.15</text><text fill="#000000" font-family="sans-serif" font-size="13" lengthAdjust="spacing" textLength="153" x="989" y="951.5513">查询Runtimes metadata</text><line style="stroke:#181818;stroke-width:1.0;" x1="631" x2="641" y1="998.75" y2="994.75"/><line style="stroke:#181818;stroke-width:1.0;" x1="631" x2="641" y1="998.75" y2="1002.75"/><line style="stroke:#181818;stroke-width:1.0;stroke-dasharray:2.0,2.0;" x1="630" x2="930" y1="998.75" y2="998.75"/><text fill="#000000" font-family="sans-serif" font-size="13" font-weight="bold" lengthAdjust="spacing" textLength="32" x="647" y="993.6841">2.16</text><text fill="#000000" font-family="sans-serif" font-size="13" lengthAdjust="spacing" textLength="127" x="683" y="993.6841">Runtimes metadata</text><line style="stroke:#181818;stroke-width:1.0;" x1="630" x2="672" y1="1027.8828" y2="1027.8828"/><line style="stroke:#181818;stroke-width:1.0;" x1="672" x2="672" y1="1027.8828" y2="1040.8828"/><line style="stroke:#181818;stroke-width:1.0;" x1="631" x2="672" y1="1040.8828" y2="1040.8828"/><polygon fill="#181818" points="641,1036.8828,631,1040.8828,641,1044.8828,637,1040.8828" style="stroke:#181818;stroke-width:1.0;"/><text fill="#000000" font-family="sans-serif" font-size="13" font-weight="bold" lengthAdjust="spacing" textLength="32" x="637" y="1022.8169">2.17</text><text fill="#000000" font-family="sans-serif" font-size="13" lengthAdjust="spacing" textLength="112" x="673" y="1022.8169">渲染Runtimes页面</text><polygon fill="#181818" points="416,1066.0156,406,1070.0156,416,1074.0156,412,1070.0156" style="stroke:#181818;stroke-width:1.0;"/><line style="stroke:#181818;stroke-width:1.0;stroke-dasharray:2.0,2.0;" x1="410" x2="619" y1="1070.0156" y2="1070.0156"/><text fill="#000000" font-family="sans-serif" font-size="13" font-weight="bold" lengthAdjust="spacing" textLength="32" x="422" y="1064.9497">2.18</text><text fill="#000000" font-family="sans-serif" font-size="13" lengthAdjust="spacing" textLength="86" x="458" y="1064.9497">Runtimes页面</text><line style="stroke:#000000;stroke-width:1.0;stroke-dasharray:2.0,2.0;" x1="339" x2="1154" y1="1079.0156" y2="1079.0156"/><text fill="#000000" font-family="sans-serif" font-size="11" font-weight="bold" lengthAdjust="spacing" textLength="31" x="344" y="1089.2261">[fail]</text><line style="stroke:#181818;stroke-width:1.0;" x1="631" x2="641" y1="1113.9531" y2="1109.9531"/><line style="stroke:#181818;stroke-width:1.0;" x1="631" x2="641" y1="1113.9531" y2="1117.9531"/><line style="stroke:#181818;stroke-width:1.0;stroke-dasharray:2.0,2.0;" x1="630" x2="935" y1="1113.9531" y2="1113.9531"/><text fill="#000000" font-family="sans-serif" font-size="13" font-weight="bold" lengthAdjust="spacing" textLength="32" x="647" y="1108.8872">2.19</text><text fill="#000000" font-family="sans-serif" font-size="13" lengthAdjust="spacing" textLength="52" x="683" y="1108.8872">错误信息</text><polygon fill="#181818" points="416,1139.0859,406,1143.0859,416,1147.0859,412,1143.0859" style="stroke:#181818;stroke-width:1.0;"/><line style="stroke:#181818;stroke-width:1.0;stroke-dasharray:2.0,2.0;" x1="410" x2="624" y1="1143.0859" y2="1143.0859"/><text fill="#000000" font-family="sans-serif" font-size="13" font-weight="bold" lengthAdjust="spacing" textLength="32" x="422" y="1138.02">2.20</text><text fill="#000000" font-family="sans-serif" font-size="13" lengthAdjust="spacing" textLength="52" x="458" y="1138.02">错误信息</text><path d="M10,1247.0859 L153,1247.0859 L153,1254.2188 L143,1264.2188 L10,1264.2188 L10,1247.0859 " fill="#EEEEEE" style="stroke:#000000;stroke-width:1.5;"/><rect fill="none" height="347.4609" style="stroke:#000000;stroke-width:1.5;" width="1130" x="10" y="1247.0859"/><text fill="#000000" font-family="sans-serif" font-size="13" font-weight="bold" lengthAdjust="spacing" textLength="98" x="25" y="1260.1528">删除运行时配置</text><polygon fill="#181818" points="383,1281.3516,393,1285.3516,383,1289.3516,387,1285.3516" style="stroke:#181818;stroke-width:1.0;"/><line style="stroke:#181818;stroke-width:1.0;" x1="39" x2="389" y1="1285.3516" y2="1285.3516"/><text fill="#000000" font-family="sans-serif" font-size="13" font-weight="bold" lengthAdjust="spacing" textLength="23" x="46" y="1280.2856">3.1</text><text fill="#000000" font-family="sans-serif" font-size="13" lengthAdjust="spacing" textLength="91" x="73" y="1280.2856">删除运行时配置</text><polygon fill="#181818" points="608,1310.4844,618,1314.4844,608,1318.4844,612,1314.4844" style="stroke:#181818;stroke-width:1.0;"/><line style="stroke:#181818;stroke-width:1.0;" x1="405" x2="614" y1="1314.4844" y2="1314.4844"/><text fill="#000000" font-family="sans-serif" font-size="13" font-weight="bold" lengthAdjust="spacing" textLength="23" x="412" y="1309.4185">3.2</text><text fill="#000000" font-family="sans-serif" font-size="13" lengthAdjust="spacing" textLength="117" x="439" y="1309.4185">runtime metadata</text><line style="stroke:#181818;stroke-width:1.0;" x1="929" x2="919" y1="1343.6172" y2="1339.6172"/><line style="stroke:#181818;stroke-width:1.0;" x1="929" x2="919" y1="1343.6172" y2="1347.6172"/><line style="stroke:#181818;stroke-width:1.0;" x1="630" x2="930" y1="1343.6172" y2="1343.6172"/><text fill="#000000" font-family="sans-serif" font-size="13" font-weight="bold" lengthAdjust="spacing" textLength="23" x="637" y="1338.5513">3.3</text><text fill="#000000" font-family="sans-serif" font-size="13" lengthAdjust="spacing" textLength="169" x="664" y="1338.5513">请求删除runtime metadata</text><line style="stroke:#181818;stroke-width:1.0;" x1="941" x2="983" y1="1372.75" y2="1372.75"/><line style="stroke:#181818;stroke-width:1.0;" x1="983" x2="983" y1="1372.75" y2="1385.75"/><line style="stroke:#181818;stroke-width:1.0;" x1="942" x2="983" y1="1385.75" y2="1385.75"/><polygon fill="#181818" points="952,1381.75,942,1385.75,952,1389.75,948,1385.75" style="stroke:#181818;stroke-width:1.0;"/><text fill="#000000" font-family="sans-serif" font-size="13" font-weight="bold" lengthAdjust="spacing" textLength="23" x="948" y="1367.6841">3.4</text><text fill="#000000" font-family="sans-serif" font-size="13" lengthAdjust="spacing" textLength="143" x="975" y="1367.6841">删除runtime metadata</text><line style="stroke:#181818;stroke-width:1.0;" x1="631" x2="641" y1="1414.8828" y2="1410.8828"/><line style="stroke:#181818;stroke-width:1.0;" x1="631" x2="641" y1="1414.8828" y2="1418.8828"/><line style="stroke:#181818;stroke-width:1.0;stroke-dasharray:2.0,2.0;" x1="630" x2="935" y1="1414.8828" y2="1414.8828"/><text fill="#000000" font-family="sans-serif" font-size="13" font-weight="bold" lengthAdjust="spacing" textLength="23" x="647" y="1409.8169">3.5</text><text fill="#000000" font-family="sans-serif" font-size="13" lengthAdjust="spacing" textLength="51" x="674" y="1409.8169">success</text><line style="stroke:#181818;stroke-width:1.0;" x1="929" x2="919" y1="1444.0156" y2="1440.0156"/><line style="stroke:#181818;stroke-width:1.0;" x1="929" x2="919" y1="1444.0156" y2="1448.0156"/><line style="stroke:#181818;stroke-width:1.0;" x1="630" x2="930" y1="1444.0156" y2="1444.0156"/><text fill="#000000" font-family="sans-serif" font-size="13" font-weight="bold" lengthAdjust="spacing" textLength="23" x="637" y="1438.9497">3.6</text><text fill="#000000" font-family="sans-serif" font-size="13" lengthAdjust="spacing" textLength="179" x="664" y="1438.9497">请求更新Runtimes metadata</text><line style="stroke:#181818;stroke-width:1.0;" x1="941" x2="983" y1="1473.1484" y2="1473.1484"/><line style="stroke:#181818;stroke-width:1.0;" x1="983" x2="983" y1="1473.1484" y2="1486.1484"/><line style="stroke:#181818;stroke-width:1.0;" x1="942" x2="983" y1="1486.1484" y2="1486.1484"/><polygon fill="#181818" points="952,1482.1484,942,1486.1484,952,1490.1484,948,1486.1484" style="stroke:#181818;stroke-width:1.0;"/><text fill="#000000" font-family="sans-serif" font-size="13" font-weight="bold" lengthAdjust="spacing" textLength="23" x="948" y="1468.0825">3.7</text><text fill="#000000" font-family="sans-serif" font-size="13" lengthAdjust="spacing" textLength="153" x="975" y="1468.0825">查询Runtimes metadata</text><line style="stroke:#181818;stroke-width:1.0;" x1="631" x2="641" y1="1515.2813" y2="1511.2813"/><line style="stroke:#181818;stroke-width:1.0;" x1="631" x2="641" y1="1515.2813" y2="1519.2813"/><line style="stroke:#181818;stroke-width:1.0;stroke-dasharray:2.0,2.0;" x1="630" x2="935" y1="1515.2813" y2="1515.2813"/><text fill="#000000" font-family="sans-serif" font-size="13" font-weight="bold" lengthAdjust="spacing" textLength="23" x="647" y="1510.2153">3.8</text><text fill="#000000" font-family="sans-serif" font-size="13" lengthAdjust="spacing" textLength="127" x="674" y="1510.2153">Runtimes metadata</text><line style="stroke:#181818;stroke-width:1.0;" x1="630" x2="672" y1="1544.4141" y2="1544.4141"/><line style="stroke:#181818;stroke-width:1.0;" x1="672" x2="672" y1="1544.4141" y2="1557.4141"/><line style="stroke:#181818;stroke-width:1.0;" x1="631" x2="672" y1="1557.4141" y2="1557.4141"/><polygon fill="#181818" points="641,1553.4141,631,1557.4141,641,1561.4141,637,1557.4141" style="stroke:#181818;stroke-width:1.0;"/><text fill="#000000" font-family="sans-serif" font-size="13" font-weight="bold" lengthAdjust="spacing" textLength="23" x="637" y="1539.3481">3.9</text><text fill="#000000" font-family="sans-serif" font-size="13" lengthAdjust="spacing" textLength="112" x="664" y="1539.3481">渲染Runtimes页面</text><polygon fill="#181818" points="416,1582.5469,406,1586.5469,416,1590.5469,412,1586.5469" style="stroke:#181818;stroke-width:1.0;"/><line style="stroke:#181818;stroke-width:1.0;stroke-dasharray:2.0,2.0;" x1="410" x2="624" y1="1586.5469" y2="1586.5469"/><text fill="#000000" font-family="sans-serif" font-size="13" font-weight="bold" lengthAdjust="spacing" textLength="32" x="422" y="1581.481">3.10</text><text fill="#000000" font-family="sans-serif" font-size="13" lengthAdjust="spacing" textLength="86" x="458" y="1581.481">Runtimes页面</text><path d="M10,1683.5469 L181,1683.5469 L181,1690.6797 L171,1700.6797 L10,1700.6797 L10,1683.5469 " fill="#EEEEEE" style="stroke:#000000;stroke-width:1.5;"/><rect fill="none" height="723.7266" style="stroke:#000000;stroke-width:1.5;" width="1232" x="10" y="1683.5469"/><text fill="#000000" font-family="sans-serif" font-size="13" font-weight="bold" lengthAdjust="spacing" textLength="126" x="25" y="1696.6138">编辑现有运行时配置</text><polygon fill="#181818" points="383,1717.8125,393,1721.8125,383,1725.8125,387,1721.8125" style="stroke:#181818;stroke-width:1.0;"/><line style="stroke:#181818;stroke-width:1.0;" x1="39" x2="389" y1="1721.8125" y2="1721.8125"/><text fill="#000000" font-family="sans-serif" font-size="13" font-weight="bold" lengthAdjust="spacing" textLength="23" x="46" y="1716.7466">4.1</text><text fill="#000000" font-family="sans-serif" font-size="13" lengthAdjust="spacing" textLength="117" x="73" y="1716.7466">编辑现有运行时配置</text><polygon fill="#181818" points="608,1746.9453,618,1750.9453,608,1754.9453,612,1750.9453" style="stroke:#181818;stroke-width:1.0;"/><line style="stroke:#181818;stroke-width:1.0;" x1="405" x2="614" y1="1750.9453" y2="1750.9453"/><text fill="#000000" font-family="sans-serif" font-size="13" font-weight="bold" lengthAdjust="spacing" textLength="23" x="412" y="1745.8794">4.2</text><text fill="#000000" font-family="sans-serif" font-size="13" lengthAdjust="spacing" textLength="169" x="439" y="1745.8794">获取编辑运行时配置页面信息</text><line style="stroke:#181818;stroke-width:1.0;" x1="929" x2="919" y1="1780.0781" y2="1776.0781"/><line style="stroke:#181818;stroke-width:1.0;" x1="929" x2="919" y1="1780.0781" y2="1784.0781"/><line style="stroke:#181818;stroke-width:1.0;" x1="630" x2="930" y1="1780.0781" y2="1780.0781"/><text fill="#000000" font-family="sans-serif" font-size="13" font-weight="bold" lengthAdjust="spacing" textLength="23" x="637" y="1775.0122">4.3</text><text fill="#000000" font-family="sans-serif" font-size="13" lengthAdjust="spacing" textLength="255" x="664" y="1775.0122">请求runtime metadata和kfp/wfp schema</text><line style="stroke:#181818;stroke-width:1.0;" x1="941" x2="983" y1="1809.2109" y2="1809.2109"/><line style="stroke:#181818;stroke-width:1.0;" x1="983" x2="983" y1="1809.2109" y2="1822.2109"/><line style="stroke:#181818;stroke-width:1.0;" x1="942" x2="983" y1="1822.2109" y2="1822.2109"/><polygon fill="#181818" points="952,1818.2109,942,1822.2109,952,1826.2109,948,1822.2109" style="stroke:#181818;stroke-width:1.0;"/><text fill="#000000" font-family="sans-serif" font-size="13" font-weight="bold" lengthAdjust="spacing" textLength="23" x="948" y="1804.145">4.4</text><text fill="#000000" font-family="sans-serif" font-size="13" lengthAdjust="spacing" textLength="255" x="975" y="1804.145">查询runtime metadata和kfp/wfp schema</text><line style="stroke:#181818;stroke-width:1.0;" x1="631" x2="641" y1="1851.3438" y2="1847.3438"/><line style="stroke:#181818;stroke-width:1.0;" x1="631" x2="641" y1="1851.3438" y2="1855.3438"/><line style="stroke:#181818;stroke-width:1.0;stroke-dasharray:2.0,2.0;" x1="630" x2="935" y1="1851.3438" y2="1851.3438"/><text fill="#000000" font-family="sans-serif" font-size="13" font-weight="bold" lengthAdjust="spacing" textLength="23" x="647" y="1846.2778">4.5</text><text fill="#000000" font-family="sans-serif" font-size="13" lengthAdjust="spacing" textLength="229" x="674" y="1846.2778">runtime metadata和kfp/wfp schema</text><line style="stroke:#181818;stroke-width:1.0;" x1="630" x2="672" y1="1880.4766" y2="1880.4766"/><line style="stroke:#181818;stroke-width:1.0;" x1="672" x2="672" y1="1880.4766" y2="1893.4766"/><line style="stroke:#181818;stroke-width:1.0;" x1="631" x2="672" y1="1893.4766" y2="1893.4766"/><polygon fill="#181818" points="641,1889.4766,631,1893.4766,641,1897.4766,637,1893.4766" style="stroke:#181818;stroke-width:1.0;"/><text fill="#000000" font-family="sans-serif" font-size="13" font-weight="bold" lengthAdjust="spacing" textLength="23" x="637" y="1875.4106">4.6</text><text fill="#000000" font-family="sans-serif" font-size="13" lengthAdjust="spacing" textLength="117" x="664" y="1875.4106">渲染运行时配置页面</text><polygon fill="#181818" points="416,1918.6094,406,1922.6094,416,1926.6094,412,1922.6094" style="stroke:#181818;stroke-width:1.0;"/><line style="stroke:#181818;stroke-width:1.0;stroke-dasharray:2.0,2.0;" x1="410" x2="624" y1="1922.6094" y2="1922.6094"/><text fill="#000000" font-family="sans-serif" font-size="13" font-weight="bold" lengthAdjust="spacing" textLength="23" x="422" y="1917.5435">4.7</text><text fill="#000000" font-family="sans-serif" font-size="13" lengthAdjust="spacing" textLength="117" x="449" y="1917.5435">编辑运行时配置页面</text><polygon fill="#181818" points="383,1947.7422,393,1951.7422,383,1955.7422,387,1951.7422" style="stroke:#181818;stroke-width:1.0;"/><line style="stroke:#181818;stroke-width:1.0;" x1="39" x2="389" y1="1951.7422" y2="1951.7422"/><text fill="#000000" font-family="sans-serif" font-size="13" font-weight="bold" lengthAdjust="spacing" textLength="23" x="46" y="1946.6763">4.8</text><text fill="#000000" font-family="sans-serif" font-size="13" lengthAdjust="spacing" textLength="130" x="73" y="1946.6763">编辑运行时配置并保存</text><polygon fill="#181818" points="608,1976.875,618,1980.875,608,1984.875,612,1980.875" style="stroke:#181818;stroke-width:1.0;"/><line style="stroke:#181818;stroke-width:1.0;" x1="405" x2="614" y1="1980.875" y2="1980.875"/><text fill="#000000" font-family="sans-serif" font-size="13" font-weight="bold" lengthAdjust="spacing" textLength="23" x="412" y="1975.8091">4.9</text><text fill="#000000" font-family="sans-serif" font-size="13" lengthAdjust="spacing" textLength="91" x="439" y="1975.8091">运行时配置信息</text><line style="stroke:#181818;stroke-width:1.0;" x1="929" x2="919" y1="2010.0078" y2="2006.0078"/><line style="stroke:#181818;stroke-width:1.0;" x1="929" x2="919" y1="2010.0078" y2="2014.0078"/><line style="stroke:#181818;stroke-width:1.0;" x1="630" x2="930" y1="2010.0078" y2="2010.0078"/><text fill="#000000" font-family="sans-serif" font-size="13" font-weight="bold" lengthAdjust="spacing" textLength="32" x="637" y="2004.9419">4.10</text><text fill="#000000" font-family="sans-serif" font-size="13" lengthAdjust="spacing" textLength="143" x="673" y="2004.9419">请求保存运行时配置信息</text><line style="stroke:#181818;stroke-width:1.0;" x1="941" x2="983" y1="2039.1406" y2="2039.1406"/><line style="stroke:#181818;stroke-width:1.0;" x1="983" x2="983" y1="2039.1406" y2="2052.1406"/><line style="stroke:#181818;stroke-width:1.0;" x1="942" x2="983" y1="2052.1406" y2="2052.1406"/><polygon fill="#181818" points="952,2048.1406,942,2052.1406,952,2056.1406,948,2052.1406" style="stroke:#181818;stroke-width:1.0;"/><text fill="#000000" font-family="sans-serif" font-size="13" font-weight="bold" lengthAdjust="spacing" textLength="32" x="948" y="2034.0747">4.11</text><text fill="#000000" font-family="sans-serif" font-size="13" lengthAdjust="spacing" textLength="117" x="984" y="2034.0747">检查运行时配置信息</text><path d="M339,2067.1406 L403,2067.1406 L403,2074.2734 L393,2084.2734 L339,2084.2734 L339,2067.1406 " fill="#EEEEEE" style="stroke:#000000;stroke-width:1.5;"/><rect fill="none" height="333.1328" style="stroke:#000000;stroke-width:1.5;" width="815" x="339" y="2067.1406"/><text fill="#000000" font-family="sans-serif" font-size="13" font-weight="bold" lengthAdjust="spacing" textLength="19" x="354" y="2080.2075">alt</text><text fill="#000000" font-family="sans-serif" font-size="11" font-weight="bold" lengthAdjust="spacing" textLength="61" x="418" y="2079.3511">[success]</text><line style="stroke:#181818;stroke-width:1.0;" x1="941" x2="983" y1="2105.4063" y2="2105.4063"/><line style="stroke:#181818;stroke-width:1.0;" x1="983" x2="983" y1="2105.4063" y2="2118.4063"/><line style="stroke:#181818;stroke-width:1.0;" x1="942" x2="983" y1="2118.4063" y2="2118.4063"/><polygon fill="#181818" points="952,2114.4063,942,2118.4063,952,2122.4063,948,2118.4063" style="stroke:#181818;stroke-width:1.0;"/><text fill="#000000" font-family="sans-serif" font-size="13" font-weight="bold" lengthAdjust="spacing" textLength="32" x="948" y="2100.3403">4.12</text><text fill="#000000" font-family="sans-serif" font-size="13" lengthAdjust="spacing" textLength="117" x="984" y="2100.3403">保存运行时配置信息</text><line style="stroke:#181818;stroke-width:1.0;" x1="631" x2="641" y1="2147.5391" y2="2143.5391"/><line style="stroke:#181818;stroke-width:1.0;" x1="631" x2="641" y1="2147.5391" y2="2151.5391"/><line style="stroke:#181818;stroke-width:1.0;stroke-dasharray:2.0,2.0;" x1="630" x2="930" y1="2147.5391" y2="2147.5391"/><text fill="#000000" font-family="sans-serif" font-size="13" font-weight="bold" lengthAdjust="spacing" textLength="32" x="647" y="2142.4731">4.13</text><text fill="#000000" font-family="sans-serif" font-size="13" lengthAdjust="spacing" textLength="51" x="683" y="2142.4731">success</text><line style="stroke:#181818;stroke-width:1.0;" x1="934" x2="924" y1="2176.6719" y2="2172.6719"/><line style="stroke:#181818;stroke-width:1.0;" x1="934" x2="924" y1="2176.6719" y2="2180.6719"/><line style="stroke:#181818;stroke-width:1.0;" x1="630" x2="935" y1="2176.6719" y2="2176.6719"/><text fill="#000000" font-family="sans-serif" font-size="13" font-weight="bold" lengthAdjust="spacing" textLength="32" x="637" y="2171.606">4.14</text><text fill="#000000" font-family="sans-serif" font-size="13" lengthAdjust="spacing" textLength="179" x="673" y="2171.606">请求更新Runtimes metadata</text><line style="stroke:#181818;stroke-width:1.0;" x1="946" x2="988" y1="2205.8047" y2="2205.8047"/><line style="stroke:#181818;stroke-width:1.0;" x1="988" x2="988" y1="2205.8047" y2="2218.8047"/><line style="stroke:#181818;stroke-width:1.0;" x1="947" x2="988" y1="2218.8047" y2="2218.8047"/><polygon fill="#181818" points="957,2214.8047,947,2218.8047,957,2222.8047,953,2218.8047" style="stroke:#181818;stroke-width:1.0;"/><text fill="#000000" font-family="sans-serif" font-size="13" font-weight="bold" lengthAdjust="spacing" textLength="32" x="953" y="2200.7388">4.15</text><text fill="#000000" font-family="sans-serif" font-size="13" lengthAdjust="spacing" textLength="153" x="989" y="2200.7388">查询Runtimes metadata</text><line style="stroke:#181818;stroke-width:1.0;" x1="631" x2="641" y1="2247.9375" y2="2243.9375"/><line style="stroke:#181818;stroke-width:1.0;" x1="631" x2="641" y1="2247.9375" y2="2251.9375"/><line style="stroke:#181818;stroke-width:1.0;stroke-dasharray:2.0,2.0;" x1="630" x2="930" y1="2247.9375" y2="2247.9375"/><text fill="#000000" font-family="sans-serif" font-size="13" font-weight="bold" lengthAdjust="spacing" textLength="32" x="647" y="2242.8716">4.16</text><text fill="#000000" font-family="sans-serif" font-size="13" lengthAdjust="spacing" textLength="127" x="683" y="2242.8716">Runtimes metadata</text><line style="stroke:#181818;stroke-width:1.0;" x1="630" x2="672" y1="2277.0703" y2="2277.0703"/><line style="stroke:#181818;stroke-width:1.0;" x1="672" x2="672" y1="2277.0703" y2="2290.0703"/><line style="stroke:#181818;stroke-width:1.0;" x1="631" x2="672" y1="2290.0703" y2="2290.0703"/><polygon fill="#181818" points="641,2286.0703,631,2290.0703,641,2294.0703,637,2290.0703" style="stroke:#181818;stroke-width:1.0;"/><text fill="#000000" font-family="sans-serif" font-size="13" font-weight="bold" lengthAdjust="spacing" textLength="32" x="637" y="2272.0044">4.17</text><text fill="#000000" font-family="sans-serif" font-size="13" lengthAdjust="spacing" textLength="112" x="673" y="2272.0044">渲染Runtimes页面</text><polygon fill="#181818" points="416,2315.2031,406,2319.2031,416,2323.2031,412,2319.2031" style="stroke:#181818;stroke-width:1.0;"/><line style="stroke:#181818;stroke-width:1.0;stroke-dasharray:2.0,2.0;" x1="410" x2="619" y1="2319.2031" y2="2319.2031"/><text fill="#000000" font-family="sans-serif" font-size="13" font-weight="bold" lengthAdjust="spacing" textLength="32" x="422" y="2314.1372">4.18</text><text fill="#000000" font-family="sans-serif" font-size="13" lengthAdjust="spacing" textLength="86" x="458" y="2314.1372">Runtimes页面</text><line style="stroke:#000000;stroke-width:1.0;stroke-dasharray:2.0,2.0;" x1="339" x2="1154" y1="2328.2031" y2="2328.2031"/><text fill="#000000" font-family="sans-serif" font-size="11" font-weight="bold" lengthAdjust="spacing" textLength="31" x="344" y="2338.4136">[fail]</text><line style="stroke:#181818;stroke-width:1.0;" x1="631" x2="641" y1="2363.1406" y2="2359.1406"/><line style="stroke:#181818;stroke-width:1.0;" x1="631" x2="641" y1="2363.1406" y2="2367.1406"/><line style="stroke:#181818;stroke-width:1.0;stroke-dasharray:2.0,2.0;" x1="630" x2="935" y1="2363.1406" y2="2363.1406"/><text fill="#000000" font-family="sans-serif" font-size="13" font-weight="bold" lengthAdjust="spacing" textLength="32" x="647" y="2358.0747">4.19</text><text fill="#000000" font-family="sans-serif" font-size="13" lengthAdjust="spacing" textLength="52" x="683" y="2358.0747">错误信息</text><polygon fill="#181818" points="416,2388.2734,406,2392.2734,416,2396.2734,412,2392.2734" style="stroke:#181818;stroke-width:1.0;"/><line style="stroke:#181818;stroke-width:1.0;stroke-dasharray:2.0,2.0;" x1="410" x2="624" y1="2392.2734" y2="2392.2734"/><text fill="#000000" font-family="sans-serif" font-size="13" font-weight="bold" lengthAdjust="spacing" textLength="32" x="422" y="2387.2075">4.20</text><text fill="#000000" font-family="sans-serif" font-size="13" lengthAdjust="spacing" textLength="52" x="458" y="2387.2075">错误信息</text></g></svg>